<svg width="14" height="12" viewBox="0 0 14 12" fill="none" xmlns="http://www.w3.org/2000/svg">
<path d="M11.6673 1.99935H10.61L9.94332 1.33268C9.55732 0.946682 8.87998 0.666016 8.33398 0.666016H5.66732C5.12132 0.666016 4.44398 0.946682 4.05798 1.33268L3.39132 1.99935H2.33398C1.23132 1.99935 0.333984 2.89668 0.333984 3.99935V9.33268C0.333984 10.4353 1.23132 11.3327 2.33398 11.3327H11.6673C12.77 11.3327 13.6673 10.4353 13.6673 9.33268V3.99935C13.6673 2.89668 12.77 1.99935 11.6673 1.99935ZM7.00065 8.66602C6.38172 8.66593 5.78818 8.41997 5.3506 7.98226C4.91301 7.54456 4.66723 6.95094 4.66732 6.33202C4.66741 5.71309 4.91336 5.11955 5.35107 4.68196C5.78878 4.24438 6.38239 3.99859 7.00132 3.99868C7.62024 3.99877 8.21379 4.24472 8.65137 4.68243C9.08896 5.12014 9.33474 5.71376 9.33465 6.33268C9.33456 6.95161 9.08861 7.54515 8.6509 7.98274C8.21319 8.42032 7.61958 8.6661 7.00065 8.66602ZM11.0007 5.53202C10.8868 5.53202 10.7741 5.5096 10.669 5.46604C10.5638 5.42249 10.4683 5.35865 10.3878 5.27817C10.3073 5.1977 10.2435 5.10216 10.2 4.99701C10.1564 4.89186 10.134 4.77916 10.134 4.66535C10.134 4.55154 10.1564 4.43884 10.2 4.33369C10.2435 4.22854 10.3073 4.133 10.3878 4.05252C10.4683 3.97205 10.5638 3.90821 10.669 3.86465C10.7741 3.8211 10.8868 3.79868 11.0007 3.79868C11.2305 3.79868 11.4509 3.88999 11.6135 4.05252C11.776 4.21505 11.8673 4.43549 11.8673 4.66535C11.8673 4.8952 11.776 5.11564 11.6135 5.27817C11.4509 5.44071 11.2305 5.53202 11.0007 5.53202Z" fill="#6936F5"/>
</svg>
