<svg width="375" height="165" viewBox="0 0 375 165" fill="none" xmlns="http://www.w3.org/2000/svg">
<rect width="375" height="165" fill="white"/>
<path d="M29.994 36.252C28.494 36.252 27.3 35.82 26.412 34.956C25.524 34.08 25.08 32.808 25.08 31.14V28.26C25.08 26.592 25.524 25.326 26.412 24.462C27.3 23.586 28.494 23.148 29.994 23.148C31.482 23.148 32.622 23.562 33.414 24.39C34.218 25.218 34.62 26.352 34.62 27.792V27.882H33.126V27.738C33.126 26.79 32.868 26.016 32.352 25.416C31.848 24.804 31.062 24.498 29.994 24.498C28.926 24.498 28.092 24.828 27.492 25.488C26.892 26.136 26.592 27.048 26.592 28.224V31.176C26.592 32.352 26.892 33.27 27.492 33.93C28.092 34.578 28.926 34.902 29.994 34.902C31.062 34.902 31.848 34.602 32.352 34.002C32.868 33.39 33.126 32.61 33.126 31.662V31.374H34.62V31.608C34.62 33.048 34.218 34.182 33.414 35.01C32.622 35.838 31.482 36.252 29.994 36.252ZM37.4028 36V27.198H38.7888V28.278H39.0408C39.1968 27.894 39.4368 27.612 39.7608 27.432C40.0848 27.252 40.5108 27.162 41.0388 27.162H42.0828V28.458H40.9488C40.3128 28.458 39.7968 28.638 39.4008 28.998C39.0168 29.346 38.8248 29.892 38.8248 30.636V36H37.4028ZM48.2636 36.252C47.3756 36.252 46.5956 36.066 45.9236 35.694C45.2516 35.31 44.7296 34.776 44.3576 34.092C43.9856 33.408 43.7996 32.616 43.7996 31.716V31.5C43.7996 30.588 43.9856 29.79 44.3576 29.106C44.7296 28.422 45.2456 27.894 45.9056 27.522C46.5656 27.138 47.3216 26.946 48.1736 26.946C49.0016 26.946 49.7336 27.126 50.3696 27.486C51.0056 27.834 51.5036 28.338 51.8636 28.998C52.2236 29.658 52.4036 30.432 52.4036 31.32V31.968H45.2216C45.2576 32.916 45.5636 33.66 46.1396 34.2C46.7156 34.728 47.4356 34.992 48.2996 34.992C49.0556 34.992 49.6376 34.818 50.0456 34.47C50.4536 34.122 50.7656 33.708 50.9816 33.228L52.2056 33.822C52.0256 34.194 51.7736 34.566 51.4496 34.938C51.1376 35.31 50.7236 35.622 50.2076 35.874C49.7036 36.126 49.0556 36.252 48.2636 36.252ZM45.2396 30.798H50.9636C50.9156 29.982 50.6336 29.346 50.1176 28.89C49.6136 28.434 48.9656 28.206 48.1736 28.206C47.3696 28.206 46.7096 28.434 46.1936 28.89C45.6776 29.346 45.3596 29.982 45.2396 30.798ZM58.9699 36.252C58.2139 36.252 57.5179 36.072 56.8819 35.712C56.2459 35.352 55.7419 34.83 55.3699 34.146C54.9979 33.462 54.8119 32.652 54.8119 31.716V31.482C54.8119 30.546 54.9979 29.742 55.3699 29.07C55.7419 28.386 56.2399 27.864 56.8639 27.504C57.4999 27.132 58.2019 26.946 58.9699 26.946C59.5819 26.946 60.0979 27.03 60.5179 27.198C60.9499 27.354 61.2979 27.558 61.5619 27.81C61.8259 28.05 62.0299 28.308 62.1739 28.584H62.4259V23.4H63.8479V36H62.4619V34.542H62.2099C61.9699 34.986 61.5979 35.382 61.0939 35.73C60.5899 36.078 59.8819 36.252 58.9699 36.252ZM59.3479 34.992C60.2599 34.992 60.9979 34.704 61.5619 34.128C62.1379 33.54 62.4259 32.724 62.4259 31.68V31.518C62.4259 30.474 62.1379 29.664 61.5619 29.088C60.9979 28.5 60.2599 28.206 59.3479 28.206C58.4479 28.206 57.7039 28.5 57.1159 29.088C56.5399 29.664 56.2519 30.474 56.2519 31.518V31.68C56.2519 32.724 56.5399 33.54 57.1159 34.128C57.7039 34.704 58.4479 34.992 59.3479 34.992ZM67.1879 36V27.198H68.6099V36H67.1879ZM67.9079 25.83C67.5959 25.83 67.3319 25.728 67.1159 25.524C66.9119 25.32 66.8099 25.062 66.8099 24.75C66.8099 24.426 66.9119 24.162 67.1159 23.958C67.3319 23.754 67.5959 23.652 67.9079 23.652C68.2199 23.652 68.4779 23.754 68.6819 23.958C68.8859 24.162 68.9879 24.426 68.9879 24.75C68.9879 25.062 68.8859 25.32 68.6819 25.524C68.4779 25.728 68.2199 25.83 67.9079 25.83ZM75.2 36C74.696 36 74.306 35.862 74.03 35.586C73.766 35.31 73.634 34.932 73.634 34.452V28.44H70.988V27.198H73.634V24.066H75.056V27.198H77.936V28.44H75.056V34.236C75.056 34.596 75.23 34.776 75.578 34.776H77.54V36H75.2ZM89.1284 36.252C88.0364 36.252 87.1124 36 86.3564 35.496C85.6124 34.992 85.1624 34.194 85.0064 33.102L86.3564 32.796C86.4524 33.372 86.6324 33.828 86.8964 34.164C87.1604 34.488 87.4844 34.722 87.8684 34.866C88.2644 34.998 88.6844 35.064 89.1284 35.064C89.7884 35.064 90.3104 34.932 90.6944 34.668C91.0784 34.404 91.2704 34.05 91.2704 33.606C91.2704 33.15 91.0844 32.832 90.7124 32.652C90.3524 32.46 89.8544 32.304 89.2184 32.184L88.4804 32.058C87.9164 31.962 87.4004 31.812 86.9324 31.608C86.4644 31.404 86.0924 31.128 85.8164 30.78C85.5404 30.432 85.4024 29.994 85.4024 29.466C85.4024 28.674 85.7084 28.056 86.3204 27.612C86.9324 27.168 87.7424 26.946 88.7504 26.946C89.7464 26.946 90.5504 27.174 91.1624 27.63C91.7864 28.074 92.1884 28.704 92.3684 29.52L91.0364 29.862C90.9284 29.226 90.6704 28.782 90.2624 28.53C89.8544 28.266 89.3504 28.134 88.7504 28.134C88.1504 28.134 87.6764 28.248 87.3284 28.476C86.9804 28.692 86.8064 29.016 86.8064 29.448C86.8064 29.868 86.9684 30.18 87.2924 30.384C87.6284 30.576 88.0724 30.72 88.6244 30.816L89.3624 30.942C89.9864 31.05 90.5444 31.2 91.0364 31.392C91.5404 31.572 91.9364 31.836 92.2244 32.184C92.5244 32.532 92.6744 32.988 92.6744 33.552C92.6744 34.416 92.3504 35.082 91.7024 35.55C91.0664 36.018 90.2084 36.252 89.1284 36.252ZM99.4845 36.252C98.6325 36.252 97.8645 36.072 97.1805 35.712C96.5085 35.34 95.9745 34.812 95.5785 34.128C95.1945 33.444 95.0025 32.634 95.0025 31.698V31.5C95.0025 30.552 95.1945 29.742 95.5785 29.07C95.9745 28.386 96.5085 27.864 97.1805 27.504C97.8645 27.132 98.6325 26.946 99.4845 26.946C100.325 26.946 101.039 27.102 101.627 27.414C102.227 27.726 102.695 28.14 103.031 28.656C103.379 29.172 103.601 29.724 103.697 30.312L102.311 30.6C102.251 30.168 102.107 29.772 101.879 29.412C101.663 29.052 101.357 28.764 100.961 28.548C100.565 28.332 100.079 28.224 99.5025 28.224C98.9145 28.224 98.3865 28.356 97.9185 28.62C97.4625 28.884 97.0965 29.262 96.8205 29.754C96.5565 30.246 96.4245 30.834 96.4245 31.518V31.68C96.4245 32.364 96.5565 32.952 96.8205 33.444C97.0965 33.936 97.4625 34.314 97.9185 34.578C98.3865 34.842 98.9145 34.974 99.5025 34.974C100.379 34.974 101.045 34.746 101.501 34.29C101.969 33.834 102.257 33.27 102.365 32.598L103.769 32.904C103.637 33.48 103.397 34.026 103.049 34.542C102.701 35.058 102.227 35.472 101.627 35.784C101.039 36.096 100.325 36.252 99.4845 36.252ZM110.62 36.252C109.732 36.252 108.946 36.066 108.262 35.694C107.59 35.322 107.062 34.8 106.678 34.128C106.306 33.444 106.12 32.64 106.12 31.716V31.482C106.12 30.57 106.306 29.772 106.678 29.088C107.062 28.404 107.59 27.876 108.262 27.504C108.946 27.132 109.732 26.946 110.62 26.946C111.508 26.946 112.288 27.132 112.96 27.504C113.644 27.876 114.172 28.404 114.544 29.088C114.928 29.772 115.12 30.57 115.12 31.482V31.716C115.12 32.64 114.928 33.444 114.544 34.128C114.172 34.8 113.644 35.322 112.96 35.694C112.288 36.066 111.508 36.252 110.62 36.252ZM110.62 34.974C111.556 34.974 112.3 34.68 112.852 34.092C113.416 33.492 113.698 32.688 113.698 31.68V31.518C113.698 30.51 113.416 29.712 112.852 29.124C112.3 28.524 111.556 28.224 110.62 28.224C109.696 28.224 108.952 28.524 108.388 29.124C107.824 29.712 107.542 30.51 107.542 31.518V31.68C107.542 32.688 107.824 33.492 108.388 34.092C108.952 34.68 109.696 34.974 110.62 34.974ZM118.039 36V27.198H119.425V28.278H119.677C119.833 27.894 120.073 27.612 120.397 27.432C120.721 27.252 121.147 27.162 121.675 27.162H122.719V28.458H121.585C120.949 28.458 120.433 28.638 120.037 28.998C119.653 29.346 119.461 29.892 119.461 30.636V36H118.039ZM128.9 36.252C128.012 36.252 127.232 36.066 126.56 35.694C125.888 35.31 125.366 34.776 124.994 34.092C124.622 33.408 124.436 32.616 124.436 31.716V31.5C124.436 30.588 124.622 29.79 124.994 29.106C125.366 28.422 125.882 27.894 126.542 27.522C127.202 27.138 127.958 26.946 128.81 26.946C129.638 26.946 130.37 27.126 131.006 27.486C131.642 27.834 132.14 28.338 132.5 28.998C132.86 29.658 133.04 30.432 133.04 31.32V31.968H125.858C125.894 32.916 126.2 33.66 126.776 34.2C127.352 34.728 128.072 34.992 128.936 34.992C129.692 34.992 130.274 34.818 130.682 34.47C131.09 34.122 131.402 33.708 131.618 33.228L132.842 33.822C132.662 34.194 132.41 34.566 132.086 34.938C131.774 35.31 131.36 35.622 130.844 35.874C130.34 36.126 129.692 36.252 128.9 36.252ZM125.876 30.798H131.6C131.552 29.982 131.27 29.346 130.754 28.89C130.25 28.434 129.602 28.206 128.81 28.206C128.006 28.206 127.346 28.434 126.83 28.89C126.314 29.346 125.996 29.982 125.876 30.798ZM136.654 36.252C136.306 36.252 136.012 36.138 135.772 35.91C135.544 35.682 135.43 35.388 135.43 35.028C135.43 34.668 135.544 34.374 135.772 34.146C136.012 33.918 136.306 33.804 136.654 33.804C137.014 33.804 137.308 33.918 137.536 34.146C137.764 34.374 137.878 34.668 137.878 35.028C137.878 35.388 137.764 35.682 137.536 35.91C137.308 36.138 137.014 36.252 136.654 36.252ZM136.654 29.394C136.306 29.394 136.012 29.28 135.772 29.052C135.544 28.824 135.43 28.53 135.43 28.17C135.43 27.81 135.544 27.516 135.772 27.288C136.012 27.06 136.306 26.946 136.654 26.946C137.014 26.946 137.308 27.06 137.536 27.288C137.764 27.516 137.878 27.81 137.878 28.17C137.878 28.53 137.764 28.824 137.536 29.052C137.308 29.28 137.014 29.394 136.654 29.394ZM146.785 36V35.55C146.785 35.094 146.821 34.716 146.893 34.416C146.965 34.104 147.115 33.744 147.343 33.336L151.843 25.326V25.092H144.769V23.4H153.805V25.632L149.071 34.128C148.927 34.392 148.825 34.632 148.765 34.848C148.705 35.052 148.675 35.31 148.675 35.622V36H146.785ZM160.352 36.252C158.888 36.252 157.718 35.838 156.842 35.01C155.978 34.17 155.546 32.91 155.546 31.23V28.17C155.546 26.526 155.978 25.278 156.842 24.426C157.718 23.574 158.888 23.148 160.352 23.148C161.828 23.148 162.998 23.574 163.862 24.426C164.738 25.278 165.176 26.526 165.176 28.17V31.23C165.176 32.91 164.738 34.17 163.862 35.01C162.998 35.838 161.828 36.252 160.352 36.252ZM160.352 34.56C161.348 34.56 162.086 34.278 162.566 33.714C163.046 33.138 163.286 32.334 163.286 31.302V28.062C163.286 27.03 163.028 26.238 162.512 25.686C161.996 25.122 161.276 24.84 160.352 24.84C159.416 24.84 158.696 25.128 158.192 25.704C157.688 26.268 157.436 27.054 157.436 28.062V31.302C157.436 32.358 157.676 33.168 158.156 33.732C158.648 34.284 159.38 34.56 160.352 34.56ZM172.314 36.252C170.85 36.252 169.68 35.838 168.804 35.01C167.94 34.17 167.508 32.91 167.508 31.23V28.17C167.508 26.526 167.94 25.278 168.804 24.426C169.68 23.574 170.85 23.148 172.314 23.148C173.79 23.148 174.96 23.574 175.824 24.426C176.7 25.278 177.138 26.526 177.138 28.17V31.23C177.138 32.91 176.7 34.17 175.824 35.01C174.96 35.838 173.79 36.252 172.314 36.252ZM172.314 34.56C173.31 34.56 174.048 34.278 174.528 33.714C175.008 33.138 175.248 32.334 175.248 31.302V28.062C175.248 27.03 174.99 26.238 174.474 25.686C173.958 25.122 173.238 24.84 172.314 24.84C171.378 24.84 170.658 25.128 170.154 25.704C169.65 26.268 169.398 27.054 169.398 28.062V31.302C169.398 32.358 169.638 33.168 170.118 33.732C170.61 34.284 171.342 34.56 172.314 34.56ZM187.987 38.88C187.155 38.88 186.447 38.736 185.863 38.448C185.279 38.16 184.835 37.708 184.531 37.092C184.235 36.484 184.087 35.7 184.087 34.74V31.14C184.087 30.18 184.235 29.396 184.531 28.788C184.835 28.172 185.279 27.72 185.863 27.432C186.447 27.144 187.155 27 187.987 27V28.056C187.075 28.064 186.395 28.324 185.947 28.836C185.507 29.34 185.287 30.124 185.287 31.188V34.692C185.287 35.756 185.507 36.54 185.947 37.044C186.395 37.556 187.075 37.816 187.987 37.824V38.88ZM191.994 36.168C191.394 36.168 190.858 36.04 190.386 35.784C189.914 35.52 189.542 35.136 189.27 34.632C188.998 34.128 188.862 33.512 188.862 32.784V30.816C188.862 29.72 189.162 28.884 189.762 28.308C190.362 27.724 191.174 27.432 192.198 27.432C193.206 27.432 193.982 27.708 194.526 28.26C195.07 28.804 195.342 29.536 195.342 30.456V30.516H194.058V30.42C194.058 30.076 193.99 29.768 193.854 29.496C193.718 29.216 193.514 28.996 193.242 28.836C192.97 28.676 192.622 28.596 192.198 28.596C191.558 28.596 191.058 28.792 190.698 29.184C190.338 29.568 190.158 30.104 190.158 30.792V32.808C190.158 33.488 190.338 34.028 190.698 34.428C191.058 34.82 191.562 35.016 192.21 35.016C192.85 35.016 193.318 34.84 193.614 34.488C193.91 34.136 194.058 33.68 194.058 33.12V32.964H191.802V31.848H195.342V36H194.142V35.148H193.95C193.878 35.3 193.77 35.456 193.626 35.616C193.49 35.776 193.29 35.908 193.026 36.012C192.77 36.116 192.426 36.168 191.994 36.168ZM200.408 36.168C199.376 36.168 198.556 35.88 197.948 35.304C197.34 34.72 197.036 33.88 197.036 32.784V30.816C197.036 29.72 197.34 28.884 197.948 28.308C198.556 27.724 199.376 27.432 200.408 27.432C201.44 27.432 202.26 27.724 202.868 28.308C203.484 28.884 203.792 29.72 203.792 30.816V32.784C203.792 33.88 203.484 34.72 202.868 35.304C202.26 35.88 201.44 36.168 200.408 36.168ZM200.408 35.004C201.072 35.004 201.584 34.812 201.944 34.428C202.304 34.036 202.484 33.504 202.484 32.832V30.768C202.484 30.096 202.304 29.568 201.944 29.184C201.584 28.792 201.072 28.596 200.408 28.596C199.76 28.596 199.252 28.792 198.884 29.184C198.516 29.568 198.332 30.096 198.332 30.768V32.832C198.332 33.504 198.516 34.036 198.884 34.428C199.252 34.812 199.76 35.004 200.408 35.004ZM208.722 36.168C207.69 36.168 206.87 35.88 206.262 35.304C205.654 34.72 205.35 33.88 205.35 32.784V30.816C205.35 29.72 205.654 28.884 206.262 28.308C206.87 27.724 207.69 27.432 208.722 27.432C209.754 27.432 210.574 27.724 211.182 28.308C211.798 28.884 212.106 29.72 212.106 30.816V32.784C212.106 33.88 211.798 34.72 211.182 35.304C210.574 35.88 209.754 36.168 208.722 36.168ZM208.722 35.004C209.386 35.004 209.898 34.812 210.258 34.428C210.618 34.036 210.798 33.504 210.798 32.832V30.768C210.798 30.096 210.618 29.568 210.258 29.184C209.898 28.792 209.386 28.596 208.722 28.596C208.074 28.596 207.566 28.792 207.198 29.184C206.83 29.568 206.646 30.096 206.646 30.768V32.832C206.646 33.504 206.83 34.036 207.198 34.428C207.566 34.812 208.074 35.004 208.722 35.004ZM213.287 36V34.848H214.415V28.752H213.287V27.6H216.647C217.767 27.6 218.623 27.884 219.215 28.452C219.815 29.02 220.115 29.876 220.115 31.02V32.592C220.115 33.736 219.815 34.592 219.215 35.16C218.623 35.72 217.767 36 216.647 36H213.287ZM215.723 34.824H216.659C217.387 34.824 217.927 34.64 218.279 34.272C218.631 33.904 218.807 33.356 218.807 32.628V30.972C218.807 30.236 218.631 29.688 218.279 29.328C217.927 28.968 217.387 28.788 216.659 28.788H215.723V34.824ZM220.851 38.88V37.824C221.779 37.816 222.463 37.556 222.903 37.044C223.343 36.54 223.563 35.756 223.563 34.692V31.188C223.563 30.124 223.343 29.34 222.903 28.836C222.463 28.324 221.779 28.064 220.851 28.056V27C221.691 27 222.399 27.144 222.975 27.432C223.559 27.72 223.999 28.172 224.295 28.788C224.599 29.396 224.751 30.18 224.751 31.14V34.74C224.751 35.7 224.599 36.484 224.295 37.092C223.999 37.708 223.559 38.16 222.975 38.448C222.399 38.736 221.691 38.88 220.851 38.88Z" fill="#242739"/>
<path opacity="0.5" d="M27.996 146.168C27.372 146.168 26.828 146.056 26.364 145.832C25.9 145.608 25.54 145.276 25.284 144.836C25.028 144.388 24.9 143.84 24.9 143.192V137.6H25.896V143.204C25.896 143.892 26.08 144.408 26.448 144.752C26.816 145.096 27.332 145.268 27.996 145.268C28.66 145.268 29.176 145.096 29.544 144.752C29.912 144.408 30.096 143.892 30.096 143.204V137.6H31.104V143.192C31.104 143.84 30.976 144.388 30.72 144.836C30.464 145.276 30.1 145.608 29.628 145.832C29.164 146.056 28.62 146.168 27.996 146.168ZM32.9882 148.4V140.132H33.9122V141.104H34.0802C34.2322 140.808 34.4762 140.544 34.8122 140.312C35.1562 140.08 35.6322 139.964 36.2402 139.964C36.7442 139.964 37.2042 140.088 37.6202 140.336C38.0442 140.576 38.3802 140.92 38.6282 141.368C38.8842 141.816 39.0122 142.356 39.0122 142.988V143.144C39.0122 143.768 38.8882 144.308 38.6402 144.764C38.3922 145.22 38.0562 145.568 37.6322 145.808C37.2162 146.048 36.7522 146.168 36.2402 146.168C35.8322 146.168 35.4842 146.112 35.1962 146C34.9162 145.896 34.6882 145.76 34.5122 145.592C34.3362 145.424 34.2002 145.252 34.1042 145.076H33.9362V148.4H32.9882ZM35.9882 145.328C36.5962 145.328 37.0882 145.136 37.4642 144.752C37.8482 144.36 38.0402 143.816 38.0402 143.12V143.012C38.0402 142.316 37.8482 141.776 37.4642 141.392C37.0882 141 36.5962 140.804 35.9882 140.804C35.3882 140.804 34.8922 141 34.5002 141.392C34.1162 141.776 33.9242 142.316 33.9242 143.012V143.12C33.9242 143.816 34.1162 144.36 34.5002 144.752C34.8922 145.136 35.3882 145.328 35.9882 145.328ZM43.1948 146.168C42.6908 146.168 42.2268 146.048 41.8028 145.808C41.3788 145.568 41.0428 145.22 40.7948 144.764C40.5468 144.308 40.4228 143.768 40.4228 143.144V142.988C40.4228 142.364 40.5468 141.828 40.7948 141.38C41.0428 140.924 41.3748 140.576 41.7908 140.336C42.2148 140.088 42.6828 139.964 43.1948 139.964C43.6028 139.964 43.9468 140.02 44.2268 140.132C44.5148 140.236 44.7468 140.372 44.9228 140.54C45.0988 140.7 45.2348 140.872 45.3308 141.056H45.4988V137.6H46.4468V146H45.5228V145.028H45.3548C45.1948 145.324 44.9468 145.588 44.6108 145.82C44.2748 146.052 43.8028 146.168 43.1948 146.168ZM43.4468 145.328C44.0548 145.328 44.5468 145.136 44.9228 144.752C45.3068 144.36 45.4988 143.816 45.4988 143.12V143.012C45.4988 142.316 45.3068 141.776 44.9228 141.392C44.5468 141 44.0548 140.804 43.4468 140.804C42.8468 140.804 42.3508 141 41.9588 141.392C41.5748 141.776 41.3828 142.316 41.3828 143.012V143.12C41.3828 143.816 41.5748 144.36 41.9588 144.752C42.3508 145.136 42.8468 145.328 43.4468 145.328ZM50.2335 146.168C49.8255 146.168 49.4535 146.096 49.1175 145.952C48.7815 145.808 48.5175 145.6 48.3255 145.328C48.1335 145.056 48.0375 144.724 48.0375 144.332C48.0375 143.932 48.1335 143.604 48.3255 143.348C48.5175 143.084 48.7815 142.888 49.1175 142.76C49.4535 142.624 49.8295 142.556 50.2455 142.556H52.2255V142.124C52.2255 141.708 52.1015 141.38 51.8535 141.14C51.6135 140.9 51.2535 140.78 50.7735 140.78C50.3015 140.78 49.9335 140.896 49.6695 141.128C49.4055 141.352 49.2255 141.656 49.1295 142.04L48.2415 141.752C48.3375 141.424 48.4895 141.128 48.6975 140.864C48.9055 140.592 49.1815 140.376 49.5255 140.216C49.8775 140.048 50.2975 139.964 50.7855 139.964C51.5375 139.964 52.1215 140.16 52.5375 140.552C52.9535 140.936 53.1615 141.48 53.1615 142.184V144.836C53.1615 145.076 53.2735 145.196 53.4975 145.196H54.0375V146H53.2095C52.9455 146 52.7335 145.928 52.5735 145.784C52.4135 145.632 52.3335 145.432 52.3335 145.184V145.124H52.1895C52.1015 145.276 51.9815 145.436 51.8295 145.604C51.6855 145.764 51.4855 145.896 51.2295 146C50.9735 146.112 50.6415 146.168 50.2335 146.168ZM50.3415 145.352C50.9015 145.352 51.3535 145.188 51.6975 144.86C52.0495 144.524 52.2255 144.056 52.2255 143.456V143.324H50.2815C49.9055 143.324 49.5935 143.408 49.3455 143.576C49.1055 143.736 48.9855 143.98 48.9855 144.308C48.9855 144.636 49.1095 144.892 49.3575 145.076C49.6135 145.26 49.9415 145.352 50.3415 145.352ZM57.1091 146C56.7731 146 56.5131 145.908 56.3291 145.724C56.1531 145.54 56.0651 145.288 56.0651 144.968V140.96H54.3011V140.132H56.0651V138.044H57.0131V140.132H58.9331V140.96H57.0131V144.824C57.0131 145.064 57.1291 145.184 57.3611 145.184H58.6691V146H57.1091ZM62.9457 146.168C62.3537 146.168 61.8337 146.044 61.3857 145.796C60.9377 145.54 60.5897 145.184 60.3417 144.728C60.0937 144.272 59.9697 143.744 59.9697 143.144V143C59.9697 142.392 60.0937 141.86 60.3417 141.404C60.5897 140.948 60.9337 140.596 61.3737 140.348C61.8137 140.092 62.3177 139.964 62.8857 139.964C63.4377 139.964 63.9257 140.084 64.3497 140.324C64.7737 140.556 65.1057 140.892 65.3457 141.332C65.5857 141.772 65.7057 142.288 65.7057 142.88V143.312H60.9177C60.9417 143.944 61.1457 144.44 61.5297 144.8C61.9137 145.152 62.3937 145.328 62.9697 145.328C63.4737 145.328 63.8617 145.212 64.1337 144.98C64.4057 144.748 64.6137 144.472 64.7577 144.152L65.5737 144.548C65.4537 144.796 65.2857 145.044 65.0697 145.292C64.8617 145.54 64.5857 145.748 64.2417 145.916C63.9057 146.084 63.4737 146.168 62.9457 146.168ZM60.9297 142.532H64.7457C64.7137 141.988 64.5257 141.564 64.1817 141.26C63.8457 140.956 63.4137 140.804 62.8857 140.804C62.3497 140.804 61.9097 140.956 61.5657 141.26C61.2217 141.564 61.0097 141.988 60.9297 142.532ZM69.8433 146.168C69.3393 146.168 68.8753 146.048 68.4513 145.808C68.0273 145.568 67.6913 145.22 67.4433 144.764C67.1953 144.308 67.0713 143.768 67.0713 143.144V142.988C67.0713 142.364 67.1953 141.828 67.4433 141.38C67.6913 140.924 68.0233 140.576 68.4393 140.336C68.8633 140.088 69.3313 139.964 69.8433 139.964C70.2513 139.964 70.5953 140.02 70.8753 140.132C71.1633 140.236 71.3953 140.372 71.5713 140.54C71.7473 140.7 71.8833 140.872 71.9793 141.056H72.1473V137.6H73.0953V146H72.1713V145.028H72.0033C71.8433 145.324 71.5953 145.588 71.2593 145.82C70.9233 146.052 70.4513 146.168 69.8433 146.168ZM70.0953 145.328C70.7033 145.328 71.1953 145.136 71.5713 144.752C71.9553 144.36 72.1473 143.816 72.1473 143.12V143.012C72.1473 142.316 71.9553 141.776 71.5713 141.392C71.1953 141 70.7033 140.804 70.0953 140.804C69.4953 140.804 68.9993 141 68.6073 141.392C68.2233 141.776 68.0313 142.316 68.0313 143.012V143.12C68.0313 143.816 68.2233 144.36 68.6073 144.752C68.9993 145.136 69.4953 145.328 70.0953 145.328ZM77.804 146V145.124C77.804 144.524 77.908 144.044 78.116 143.684C78.332 143.324 78.628 143.036 79.004 142.82C79.388 142.596 79.844 142.404 80.372 142.244L81.032 142.04C81.392 141.928 81.708 141.792 81.98 141.632C82.252 141.464 82.464 141.256 82.616 141.008C82.768 140.752 82.844 140.44 82.844 140.072V140.024C82.844 139.496 82.66 139.08 82.292 138.776C81.924 138.464 81.452 138.308 80.876 138.308C80.268 138.308 79.772 138.472 79.388 138.8C79.004 139.12 78.812 139.608 78.812 140.264V140.432H77.852V140.276C77.852 139.668 77.984 139.152 78.248 138.728C78.512 138.304 78.872 137.984 79.328 137.768C79.784 137.544 80.3 137.432 80.876 137.432C81.452 137.432 81.96 137.54 82.4 137.756C82.848 137.972 83.196 138.272 83.444 138.656C83.692 139.04 83.816 139.488 83.816 140V140.108C83.816 140.652 83.708 141.104 83.492 141.464C83.276 141.816 82.976 142.104 82.592 142.328C82.216 142.552 81.772 142.744 81.26 142.904L80.612 143.108C80.204 143.236 79.864 143.372 79.592 143.516C79.328 143.652 79.128 143.828 78.992 144.044C78.856 144.26 78.788 144.552 78.788 144.92V145.124H83.744V146H77.804ZM88.8109 146V144.284H84.4309V143.132L87.9589 137.6H89.7829V143.408H91.2229V144.284H89.7829V146H88.8109ZM85.4029 143.408H88.8109V138.188H88.6429L85.4029 143.264V143.408ZM95.6249 146V137.6H96.5729V141.068H96.7409C96.8209 140.892 96.9409 140.728 97.1009 140.576C97.2689 140.416 97.4809 140.284 97.7369 140.18C98.0009 140.076 98.3329 140.024 98.7329 140.024C99.1729 140.024 99.5649 140.12 99.9089 140.312C100.261 140.496 100.541 140.768 100.749 141.128C100.957 141.48 101.061 141.92 101.061 142.448V146H100.113V142.52C100.113 141.936 99.9649 141.512 99.6689 141.248C99.3809 140.984 98.9889 140.852 98.4929 140.852C97.9249 140.852 97.4609 141.036 97.1009 141.404C96.7489 141.772 96.5729 142.32 96.5729 143.048V146H95.6249ZM105.696 146.168C105.104 146.168 104.58 146.044 104.124 145.796C103.676 145.548 103.324 145.2 103.068 144.752C102.82 144.296 102.696 143.76 102.696 143.144V142.988C102.696 142.38 102.82 141.848 103.068 141.392C103.324 140.936 103.676 140.584 104.124 140.336C104.58 140.088 105.104 139.964 105.696 139.964C106.288 139.964 106.808 140.088 107.256 140.336C107.712 140.584 108.064 140.936 108.312 141.392C108.568 141.848 108.696 142.38 108.696 142.988V143.144C108.696 143.76 108.568 144.296 108.312 144.752C108.064 145.2 107.712 145.548 107.256 145.796C106.808 146.044 106.288 146.168 105.696 146.168ZM105.696 145.316C106.32 145.316 106.816 145.12 107.184 144.728C107.56 144.328 107.748 143.792 107.748 143.12V143.012C107.748 142.34 107.56 141.808 107.184 141.416C106.816 141.016 106.32 140.816 105.696 140.816C105.08 140.816 104.584 141.016 104.208 141.416C103.832 141.808 103.644 142.34 103.644 143.012V143.12C103.644 143.792 103.832 144.328 104.208 144.728C104.584 145.12 105.08 145.316 105.696 145.316ZM112.646 146.108C112.222 146.108 111.83 146.016 111.47 145.832C111.118 145.648 110.838 145.376 110.63 145.016C110.43 144.648 110.33 144.204 110.33 143.684V140.132H111.278V143.612C111.278 144.196 111.422 144.62 111.71 144.884C112.006 145.148 112.402 145.28 112.898 145.28C113.458 145.28 113.918 145.096 114.278 144.728C114.638 144.36 114.818 143.812 114.818 143.084V140.132H115.766V146H114.842V145.004H114.674C114.546 145.284 114.326 145.54 114.014 145.772C113.702 145.996 113.246 146.108 112.646 146.108ZM117.75 146V140.132H118.674V140.852H118.842C118.946 140.596 119.106 140.408 119.322 140.288C119.538 140.168 119.822 140.108 120.174 140.108H120.87V140.972H120.114C119.69 140.972 119.346 141.092 119.082 141.332C118.826 141.564 118.698 141.928 118.698 142.424V146H117.75ZM124.52 146.168C123.792 146.168 123.176 146 122.672 145.664C122.176 145.328 121.876 144.796 121.772 144.068L122.672 143.864C122.736 144.248 122.856 144.552 123.032 144.776C123.208 144.992 123.424 145.148 123.68 145.244C123.944 145.332 124.224 145.376 124.52 145.376C124.96 145.376 125.308 145.288 125.564 145.112C125.82 144.936 125.948 144.7 125.948 144.404C125.948 144.1 125.824 143.888 125.576 143.768C125.336 143.64 125.004 143.536 124.58 143.456L124.088 143.372C123.712 143.308 123.368 143.208 123.056 143.072C122.744 142.936 122.496 142.752 122.312 142.52C122.128 142.288 122.036 141.996 122.036 141.644C122.036 141.116 122.24 140.704 122.648 140.408C123.056 140.112 123.596 139.964 124.268 139.964C124.932 139.964 125.468 140.116 125.876 140.42C126.292 140.716 126.56 141.136 126.68 141.68L125.792 141.908C125.72 141.484 125.548 141.188 125.276 141.02C125.004 140.844 124.668 140.756 124.268 140.756C123.868 140.756 123.552 140.832 123.32 140.984C123.088 141.128 122.972 141.344 122.972 141.632C122.972 141.912 123.08 142.12 123.296 142.256C123.52 142.384 123.816 142.48 124.184 142.544L124.676 142.628C125.092 142.7 125.464 142.8 125.792 142.928C126.128 143.048 126.392 143.224 126.584 143.456C126.784 143.688 126.884 143.992 126.884 144.368C126.884 144.944 126.668 145.388 126.236 145.7C125.812 146.012 125.24 146.168 124.52 146.168ZM133.366 146.168C132.958 146.168 132.586 146.096 132.25 145.952C131.914 145.808 131.65 145.6 131.458 145.328C131.266 145.056 131.17 144.724 131.17 144.332C131.17 143.932 131.266 143.604 131.458 143.348C131.65 143.084 131.914 142.888 132.25 142.76C132.586 142.624 132.962 142.556 133.378 142.556H135.358V142.124C135.358 141.708 135.234 141.38 134.986 141.14C134.746 140.9 134.386 140.78 133.906 140.78C133.434 140.78 133.066 140.896 132.802 141.128C132.538 141.352 132.358 141.656 132.262 142.04L131.374 141.752C131.47 141.424 131.622 141.128 131.83 140.864C132.038 140.592 132.314 140.376 132.658 140.216C133.01 140.048 133.43 139.964 133.918 139.964C134.67 139.964 135.254 140.16 135.67 140.552C136.086 140.936 136.294 141.48 136.294 142.184V144.836C136.294 145.076 136.406 145.196 136.63 145.196H137.17V146H136.342C136.078 146 135.866 145.928 135.706 145.784C135.546 145.632 135.466 145.432 135.466 145.184V145.124H135.322C135.234 145.276 135.114 145.436 134.962 145.604C134.818 145.764 134.618 145.896 134.362 146C134.106 146.112 133.774 146.168 133.366 146.168ZM133.474 145.352C134.034 145.352 134.486 145.188 134.83 144.86C135.182 144.524 135.358 144.056 135.358 143.456V143.324H133.414C133.038 143.324 132.726 143.408 132.478 143.576C132.238 143.736 132.118 143.98 132.118 144.308C132.118 144.636 132.242 144.892 132.49 145.076C132.746 145.26 133.074 145.352 133.474 145.352ZM138.017 143.096V142.928C138.017 142.312 138.141 141.784 138.389 141.344C138.637 140.904 138.973 140.564 139.397 140.324C139.821 140.084 140.285 139.964 140.789 139.964C141.405 139.964 141.877 140.084 142.205 140.324C142.541 140.556 142.789 140.816 142.949 141.104H143.117V140.132H144.017V147.368C144.017 147.688 143.929 147.94 143.753 148.124C143.577 148.308 143.321 148.4 142.985 148.4H139.001V147.56H142.733C142.973 147.56 143.093 147.44 143.093 147.2V144.968H142.925C142.829 145.144 142.693 145.316 142.517 145.484C142.341 145.652 142.113 145.792 141.833 145.904C141.553 146.008 141.205 146.06 140.789 146.06C140.285 146.06 139.821 145.94 139.397 145.7C138.973 145.46 138.637 145.12 138.389 144.68C138.141 144.232 138.017 143.704 138.017 143.096ZM141.041 145.22C141.649 145.22 142.141 145.028 142.517 144.644C142.901 144.26 143.093 143.732 143.093 143.06V142.964C143.093 142.284 142.901 141.756 142.517 141.38C142.141 140.996 141.649 140.804 141.041 140.804C140.441 140.804 139.945 140.996 139.553 141.38C139.169 141.756 138.977 142.284 138.977 142.964V143.06C138.977 143.732 139.169 144.26 139.553 144.644C139.945 145.028 140.441 145.22 141.041 145.22ZM148.716 146.168C148.124 146.168 147.6 146.044 147.144 145.796C146.696 145.548 146.344 145.2 146.088 144.752C145.84 144.296 145.716 143.76 145.716 143.144V142.988C145.716 142.38 145.84 141.848 146.088 141.392C146.344 140.936 146.696 140.584 147.144 140.336C147.6 140.088 148.124 139.964 148.716 139.964C149.308 139.964 149.828 140.088 150.276 140.336C150.732 140.584 151.084 140.936 151.332 141.392C151.588 141.848 151.716 142.38 151.716 142.988V143.144C151.716 143.76 151.588 144.296 151.332 144.752C151.084 145.2 150.732 145.548 150.276 145.796C149.828 146.044 149.308 146.168 148.716 146.168ZM148.716 145.316C149.34 145.316 149.836 145.12 150.204 144.728C150.58 144.328 150.768 143.792 150.768 143.12V143.012C150.768 142.34 150.58 141.808 150.204 141.416C149.836 141.016 149.34 140.816 148.716 140.816C148.1 140.816 147.604 141.016 147.228 141.416C146.852 141.808 146.664 142.34 146.664 143.012V143.12C146.664 143.792 146.852 144.328 147.228 144.728C147.604 145.12 148.1 145.316 148.716 145.316Z" fill="#101828"/>
<path d="M222.876 146V137.6H226.212C226.724 137.6 227.18 137.704 227.58 137.912C227.988 138.112 228.304 138.4 228.528 138.776C228.76 139.144 228.876 139.588 228.876 140.108V140.264C228.876 140.784 228.756 141.232 228.516 141.608C228.284 141.984 227.968 142.272 227.568 142.472C227.168 142.672 226.716 142.772 226.212 142.772H224.172V146H222.876ZM224.172 141.596H226.08C226.536 141.596 226.9 141.476 227.172 141.236C227.444 140.996 227.58 140.668 227.58 140.252V140.132C227.58 139.708 227.444 139.376 227.172 139.136C226.9 138.896 226.536 138.776 226.08 138.776H224.172V141.596ZM232.75 146.168C232.158 146.168 231.63 146.048 231.166 145.808C230.71 145.56 230.35 145.208 230.086 144.752C229.822 144.296 229.69 143.756 229.69 143.132V142.952C229.69 142.328 229.822 141.792 230.086 141.344C230.35 140.888 230.71 140.536 231.166 140.288C231.63 140.04 232.158 139.916 232.75 139.916C233.342 139.916 233.87 140.04 234.334 140.288C234.798 140.536 235.162 140.888 235.426 141.344C235.69 141.792 235.822 142.328 235.822 142.952V143.132C235.822 143.756 235.69 144.296 235.426 144.752C235.162 145.208 234.798 145.56 234.334 145.808C233.87 146.048 233.342 146.168 232.75 146.168ZM232.75 145.064C233.294 145.064 233.734 144.892 234.07 144.548C234.414 144.196 234.586 143.712 234.586 143.096V142.988C234.586 142.372 234.418 141.892 234.082 141.548C233.746 141.196 233.302 141.02 232.75 141.02C232.214 141.02 231.774 141.196 231.43 141.548C231.094 141.892 230.926 142.372 230.926 142.988V143.096C230.926 143.712 231.094 144.196 231.43 144.548C231.774 144.892 232.214 145.064 232.75 145.064ZM237.939 146L236.931 140.084H238.167L238.911 145.172H239.103L240.135 140.084H242.139L243.159 145.172H243.351L244.095 140.084H245.331L244.323 146H242.247L241.227 140.924H241.035L240.015 146H237.939ZM249.437 146.168C248.837 146.168 248.313 146.044 247.865 145.796C247.417 145.54 247.065 145.184 246.809 144.728C246.561 144.264 246.437 143.728 246.437 143.12V142.976C246.437 142.36 246.561 141.824 246.809 141.368C247.057 140.904 247.401 140.548 247.841 140.3C248.289 140.044 248.805 139.916 249.389 139.916C249.957 139.916 250.453 140.044 250.877 140.3C251.309 140.548 251.645 140.896 251.885 141.344C252.125 141.792 252.245 142.316 252.245 142.916V143.384H247.697C247.713 143.904 247.885 144.32 248.213 144.632C248.549 144.936 248.965 145.088 249.461 145.088C249.925 145.088 250.273 144.984 250.505 144.776C250.745 144.568 250.929 144.328 251.057 144.056L252.077 144.584C251.965 144.808 251.801 145.044 251.585 145.292C251.377 145.54 251.101 145.748 250.757 145.916C250.413 146.084 249.973 146.168 249.437 146.168ZM247.709 142.436H250.985C250.953 141.988 250.793 141.64 250.505 141.392C250.217 141.136 249.841 141.008 249.377 141.008C248.913 141.008 248.533 141.136 248.237 141.392C247.949 141.64 247.773 141.988 247.709 142.436ZM253.732 146V140.084H254.944V140.78H255.136C255.232 140.532 255.384 140.352 255.592 140.24C255.808 140.12 256.072 140.06 256.384 140.06H257.092V141.176H256.336C255.936 141.176 255.608 141.288 255.352 141.512C255.096 141.728 254.968 142.064 254.968 142.52V146H253.732ZM260.874 146.168C260.274 146.168 259.75 146.044 259.302 145.796C258.854 145.54 258.502 145.184 258.246 144.728C257.998 144.264 257.874 143.728 257.874 143.12V142.976C257.874 142.36 257.998 141.824 258.246 141.368C258.494 140.904 258.838 140.548 259.278 140.3C259.726 140.044 260.242 139.916 260.826 139.916C261.394 139.916 261.89 140.044 262.314 140.3C262.746 140.548 263.082 140.896 263.322 141.344C263.562 141.792 263.682 142.316 263.682 142.916V143.384H259.134C259.15 143.904 259.322 144.32 259.65 144.632C259.986 144.936 260.402 145.088 260.898 145.088C261.362 145.088 261.71 144.984 261.942 144.776C262.182 144.568 262.366 144.328 262.494 144.056L263.514 144.584C263.402 144.808 263.238 145.044 263.022 145.292C262.814 145.54 262.538 145.748 262.194 145.916C261.85 146.084 261.41 146.168 260.874 146.168ZM259.146 142.436H262.422C262.39 141.988 262.23 141.64 261.942 141.392C261.654 141.136 261.278 141.008 260.814 141.008C260.35 141.008 259.97 141.136 259.674 141.392C259.386 141.64 259.21 141.988 259.146 142.436ZM267.618 146.168C267.13 146.168 266.678 146.048 266.262 145.808C265.846 145.568 265.51 145.224 265.254 144.776C265.006 144.32 264.882 143.772 264.882 143.132V142.952C264.882 142.32 265.006 141.776 265.254 141.32C265.502 140.864 265.834 140.516 266.25 140.276C266.666 140.036 267.122 139.916 267.618 139.916C268.002 139.916 268.322 139.964 268.578 140.06C268.842 140.156 269.058 140.28 269.226 140.432C269.394 140.576 269.522 140.728 269.61 140.888H269.802V137.6H271.038V146H269.826V145.16H269.634C269.482 145.416 269.25 145.648 268.938 145.856C268.634 146.064 268.194 146.168 267.618 146.168ZM267.966 145.088C268.502 145.088 268.942 144.916 269.286 144.572C269.638 144.228 269.814 143.736 269.814 143.096V142.988C269.814 142.356 269.642 141.868 269.298 141.524C268.954 141.18 268.51 141.008 267.966 141.008C267.438 141.008 266.998 141.18 266.646 141.524C266.302 141.868 266.13 142.356 266.13 142.988V143.096C266.13 143.736 266.302 144.228 266.646 144.572C266.998 144.916 267.438 145.088 267.966 145.088ZM279.336 146.168C278.76 146.168 278.316 146.064 278.004 145.856C277.7 145.648 277.472 145.416 277.32 145.16H277.128V146H275.916V137.6H277.152V140.888H277.344C277.44 140.728 277.568 140.576 277.728 140.432C277.888 140.28 278.1 140.156 278.364 140.06C278.628 139.964 278.952 139.916 279.336 139.916C279.832 139.916 280.288 140.036 280.704 140.276C281.12 140.516 281.452 140.864 281.7 141.32C281.948 141.776 282.072 142.32 282.072 142.952V143.132C282.072 143.772 281.944 144.32 281.688 144.776C281.44 145.224 281.108 145.568 280.692 145.808C280.284 146.048 279.832 146.168 279.336 146.168ZM278.976 145.088C279.512 145.088 279.952 144.916 280.296 144.572C280.648 144.228 280.824 143.736 280.824 143.096V142.988C280.824 142.356 280.652 141.868 280.308 141.524C279.964 141.18 279.52 141.008 278.976 141.008C278.448 141.008 278.008 141.18 277.656 141.524C277.312 141.868 277.14 142.356 277.14 142.988V143.096C277.14 143.736 277.312 144.228 277.656 144.572C278.008 144.916 278.448 145.088 278.976 145.088ZM284.287 148.4V147.32H287.587C287.811 147.32 287.923 147.2 287.923 146.96V145.136H287.731C287.659 145.296 287.547 145.452 287.395 145.604C287.251 145.748 287.055 145.868 286.807 145.964C286.559 146.06 286.247 146.108 285.871 146.108C285.423 146.108 285.023 146.008 284.671 145.808C284.319 145.608 284.043 145.324 283.843 144.956C283.643 144.588 283.543 144.152 283.543 143.648V140.084H284.779V143.552C284.779 144.064 284.907 144.444 285.163 144.692C285.419 144.932 285.775 145.052 286.231 145.052C286.735 145.052 287.139 144.884 287.443 144.548C287.755 144.212 287.911 143.724 287.911 143.084V140.084H289.147V147.212C289.147 147.572 289.039 147.86 288.823 148.076C288.615 148.292 288.327 148.4 287.959 148.4H284.287ZM294.033 148.4V140.084H295.245V140.936H295.437C295.589 140.672 295.817 140.436 296.121 140.228C296.433 140.02 296.877 139.916 297.453 139.916C297.949 139.916 298.401 140.036 298.809 140.276C299.225 140.516 299.557 140.864 299.805 141.32C300.061 141.768 300.189 142.312 300.189 142.952V143.132C300.189 143.772 300.065 144.32 299.817 144.776C299.569 145.224 299.237 145.568 298.821 145.808C298.405 146.048 297.949 146.168 297.453 146.168C297.069 146.168 296.745 146.12 296.481 146.024C296.217 145.928 296.005 145.808 295.845 145.664C295.685 145.512 295.557 145.356 295.461 145.196H295.269V148.4H294.033ZM297.093 145.088C297.637 145.088 298.081 144.916 298.425 144.572C298.769 144.228 298.941 143.736 298.941 143.096V142.988C298.941 142.356 298.765 141.868 298.413 141.524C298.069 141.18 297.629 141.008 297.093 141.008C296.565 141.008 296.125 141.18 295.773 141.524C295.429 141.868 295.257 142.356 295.257 142.988V143.096C295.257 143.736 295.429 144.228 295.773 144.572C296.125 144.916 296.565 145.088 297.093 145.088ZM304.433 146.168C303.833 146.168 303.309 146.044 302.861 145.796C302.413 145.54 302.061 145.184 301.805 144.728C301.557 144.264 301.433 143.728 301.433 143.12V142.976C301.433 142.36 301.557 141.824 301.805 141.368C302.053 140.904 302.397 140.548 302.837 140.3C303.285 140.044 303.801 139.916 304.385 139.916C304.953 139.916 305.449 140.044 305.873 140.3C306.305 140.548 306.641 140.896 306.881 141.344C307.121 141.792 307.241 142.316 307.241 142.916V143.384H302.693C302.709 143.904 302.881 144.32 303.209 144.632C303.545 144.936 303.961 145.088 304.457 145.088C304.921 145.088 305.269 144.984 305.501 144.776C305.741 144.568 305.925 144.328 306.053 144.056L307.073 144.584C306.961 144.808 306.797 145.044 306.581 145.292C306.373 145.54 306.097 145.748 305.753 145.916C305.409 146.084 304.969 146.168 304.433 146.168ZM302.705 142.436H305.981C305.949 141.988 305.789 141.64 305.501 141.392C305.213 141.136 304.837 141.008 304.373 141.008C303.909 141.008 303.529 141.136 303.233 141.392C302.945 141.64 302.769 141.988 302.705 142.436ZM308.728 146V140.084H309.94V140.78H310.132C310.228 140.532 310.38 140.352 310.588 140.24C310.804 140.12 311.068 140.06 311.38 140.06H312.088V141.176H311.332C310.932 141.176 310.604 141.288 310.348 141.512C310.092 141.728 309.964 142.064 309.964 142.52V146H308.728ZM313.369 146V140.084H314.605V146H313.369ZM313.993 139.28C313.753 139.28 313.549 139.204 313.381 139.052C313.221 138.892 313.141 138.688 313.141 138.44C313.141 138.192 313.221 137.992 313.381 137.84C313.549 137.68 313.753 137.6 313.993 137.6C314.241 137.6 314.445 137.68 314.605 137.84C314.765 137.992 314.845 138.192 314.845 138.44C314.845 138.688 314.765 138.892 314.605 139.052C314.445 139.204 314.241 139.28 313.993 139.28ZM319.187 146.168C318.619 146.168 318.103 146.048 317.639 145.808C317.183 145.568 316.819 145.22 316.547 144.764C316.283 144.308 316.151 143.76 316.151 143.12V142.964C316.151 142.324 316.283 141.78 316.547 141.332C316.819 140.876 317.183 140.528 317.639 140.288C318.103 140.04 318.619 139.916 319.187 139.916C319.755 139.916 320.239 140.02 320.639 140.228C321.039 140.436 321.359 140.712 321.599 141.056C321.847 141.4 322.007 141.78 322.079 142.196L320.879 142.448C320.839 142.184 320.755 141.944 320.627 141.728C320.499 141.512 320.319 141.34 320.087 141.212C319.855 141.084 319.563 141.02 319.211 141.02C318.867 141.02 318.555 141.1 318.275 141.26C318.003 141.412 317.787 141.636 317.627 141.932C317.467 142.22 317.387 142.572 317.387 142.988V143.096C317.387 143.512 317.467 143.868 317.627 144.164C317.787 144.46 318.003 144.684 318.275 144.836C318.555 144.988 318.867 145.064 319.211 145.064C319.731 145.064 320.127 144.932 320.399 144.668C320.671 144.396 320.843 144.052 320.915 143.636L322.115 143.912C322.019 144.32 321.847 144.696 321.599 145.04C321.359 145.384 321.039 145.66 320.639 145.868C320.239 146.068 319.755 146.168 319.187 146.168ZM325.809 146.108C325.361 146.108 324.961 146.008 324.609 145.808C324.257 145.608 323.981 145.324 323.781 144.956C323.581 144.588 323.481 144.148 323.481 143.636V140.084H324.717V143.552C324.717 144.064 324.845 144.444 325.101 144.692C325.357 144.932 325.713 145.052 326.169 145.052C326.673 145.052 327.077 144.884 327.381 144.548C327.693 144.204 327.849 143.712 327.849 143.072V140.084H329.085V146H327.873V145.112H327.681C327.569 145.352 327.369 145.58 327.081 145.796C326.793 146.004 326.369 146.108 325.809 146.108ZM330.912 146V137.6H332.148V146H330.912ZM336.25 146.108C335.802 146.108 335.402 146.008 335.05 145.808C334.698 145.608 334.422 145.324 334.222 144.956C334.022 144.588 333.922 144.148 333.922 143.636V140.084H335.158V143.552C335.158 144.064 335.286 144.444 335.542 144.692C335.798 144.932 336.154 145.052 336.61 145.052C337.114 145.052 337.518 144.884 337.822 144.548C338.134 144.204 338.29 143.712 338.29 143.072V140.084H339.526V146H338.314V145.112H338.122C338.01 145.352 337.81 145.58 337.522 145.796C337.234 146.004 336.81 146.108 336.25 146.108ZM341.353 146V140.084H342.565V140.78H342.757C342.869 140.572 343.049 140.388 343.297 140.228C343.545 140.068 343.881 139.988 344.305 139.988C344.745 139.988 345.097 140.08 345.361 140.264C345.633 140.44 345.837 140.668 345.973 140.948H346.165C346.301 140.676 346.497 140.448 346.753 140.264C347.017 140.08 347.389 139.988 347.869 139.988C348.253 139.988 348.593 140.068 348.889 140.228C349.185 140.38 349.421 140.612 349.597 140.924C349.773 141.228 349.861 141.608 349.861 142.064V146H348.625V142.16C348.625 141.8 348.525 141.524 348.325 141.332C348.133 141.132 347.857 141.032 347.497 141.032C347.113 141.032 346.805 141.156 346.573 141.404C346.341 141.652 346.225 142.008 346.225 142.472V146H344.989V142.16C344.989 141.8 344.889 141.524 344.689 141.332C344.497 141.132 344.221 141.032 343.861 141.032C343.477 141.032 343.169 141.156 342.937 141.404C342.705 141.652 342.589 142.008 342.589 142.472V146H341.353Z" fill="#374CBA"/>
<path d="M27 68C27 63.5817 30.5817 60 35 60H107V80H35C30.5817 80 27 76.4183 27 72V68Z" fill="#F22325"/>
<rect x="107" y="60" width="80" height="20" fill="#FE680A"/>
<rect x="187" y="60" width="80" height="20" fill="#FFCF00"/>
<path d="M267 60H339C343.418 60 347 63.5817 347 68V72C347 76.4183 343.418 80 339 80H267V60Z" fill="#34C635"/>
<path fill-rule="evenodd" clip-rule="evenodd" d="M231 101L235 93L239 101H231Z" fill="#242739"/>
<line x1="27.5" y1="82" x2="27.5" y2="98" stroke="#242739"/>
<line x1="35.5" y1="82" x2="35.5" y2="90" stroke="#242739"/>
<line x1="43.5" y1="82" x2="43.5" y2="90" stroke="#242739"/>
<line x1="51.5" y1="82" x2="51.5" y2="90" stroke="#242739"/>
<line x1="59.5" y1="82" x2="59.5" y2="90" stroke="#242739"/>
<line x1="67.5" y1="82" x2="67.5" y2="90" stroke="#242739"/>
<line x1="75.5" y1="82" x2="75.5" y2="90" stroke="#242739"/>
<line x1="83.5" y1="82" x2="83.5" y2="90" stroke="#242739"/>
<line x1="91.5" y1="82" x2="91.5" y2="90" stroke="#242739"/>
<line x1="99.5" y1="82" x2="99.5" y2="90" stroke="#242739"/>
<line x1="107.5" y1="82" x2="107.5" y2="90" stroke="#242739"/>
<line x1="115.5" y1="82" x2="115.5" y2="90" stroke="#242739"/>
<line x1="123.5" y1="82" x2="123.5" y2="90" stroke="#242739"/>
<line x1="131.5" y1="82" x2="131.5" y2="90" stroke="#242739"/>
<line x1="139.5" y1="82" x2="139.5" y2="90" stroke="#242739"/>
<line x1="147.5" y1="82" x2="147.5" y2="90" stroke="#242739"/>
<line x1="155.5" y1="82" x2="155.5" y2="90" stroke="#242739"/>
<line x1="163.5" y1="82" x2="163.5" y2="90" stroke="#242739"/>
<line x1="171.5" y1="82" x2="171.5" y2="90" stroke="#242739"/>
<line x1="179.5" y1="82" x2="179.5" y2="90" stroke="#242739"/>
<line x1="187.5" y1="82" x2="187.5" y2="90" stroke="#242739"/>
<line x1="195.5" y1="82" x2="195.5" y2="90" stroke="#242739"/>
<line x1="203.5" y1="82" x2="203.5" y2="90" stroke="#242739"/>
<line x1="211.5" y1="82" x2="211.5" y2="90" stroke="#242739"/>
<line x1="219.5" y1="82" x2="219.5" y2="90" stroke="#242739"/>
<line x1="227.5" y1="82" x2="227.5" y2="90" stroke="#242739"/>
<line x1="235.5" y1="82" x2="235.5" y2="90" stroke="#242739"/>
<line x1="243.5" y1="82" x2="243.5" y2="90" stroke="#242739"/>
<line x1="251.5" y1="82" x2="251.5" y2="90" stroke="#242739"/>
<line x1="259.5" y1="82" x2="259.5" y2="90" stroke="#242739"/>
<line x1="267.5" y1="82" x2="267.5" y2="90" stroke="#242739"/>
<line x1="275.5" y1="82" x2="275.5" y2="90" stroke="#242739"/>
<line x1="283.5" y1="82" x2="283.5" y2="90" stroke="#242739"/>
<line x1="291.5" y1="82" x2="291.5" y2="90" stroke="#242739"/>
<line x1="299.5" y1="82" x2="299.5" y2="90" stroke="#242739"/>
<line x1="307.5" y1="82" x2="307.5" y2="90" stroke="#242739"/>
<line x1="315.5" y1="82" x2="315.5" y2="90" stroke="#242739"/>
<line x1="323.5" y1="82" x2="323.5" y2="90" stroke="#242739"/>
<line x1="331.5" y1="82" x2="331.5" y2="90" stroke="#242739"/>
<line x1="339.5" y1="82" x2="339.5" y2="90" stroke="#242739"/>
<line x1="107.5" y1="82" x2="107.5" y2="98" stroke="#242739"/>
<line x1="187.5" y1="82" x2="187.5" y2="98" stroke="#242739"/>
<line x1="267.5" y1="82" x2="267.5" y2="98" stroke="#242739"/>
<line x1="347.5" y1="82" x2="347.5" y2="98" stroke="#242739"/>
<path d="M27.8274 114.168C27.2354 114.168 26.7034 114.056 26.2314 113.832C25.7674 113.608 25.3994 113.284 25.1274 112.86C24.8634 112.436 24.7314 111.924 24.7314 111.324V111.096H25.7034V111.312C25.7034 111.928 25.8994 112.412 26.2914 112.764C26.6834 113.116 27.1954 113.292 27.8274 113.292C28.4674 113.292 28.9634 113.128 29.3154 112.8C29.6754 112.464 29.8554 112.044 29.8554 111.54V111.444C29.8554 111.076 29.7674 110.78 29.5914 110.556C29.4154 110.324 29.1754 110.156 28.8714 110.052C28.5754 109.94 28.2474 109.884 27.8874 109.884H26.5194V108.672L29.7234 106.62V106.476H24.9354V105.6H30.7554V106.956L27.6234 108.972V109.116H28.2234C28.6954 109.116 29.1274 109.204 29.5194 109.38C29.9194 109.548 30.2354 109.804 30.4674 110.148C30.7074 110.484 30.8274 110.908 30.8274 111.42V111.552C30.8274 112.08 30.7034 112.54 30.4554 112.932C30.2074 113.324 29.8594 113.628 29.4114 113.844C28.9634 114.06 28.4354 114.168 27.8274 114.168ZM35.2736 114.168C34.3216 114.168 33.5616 113.888 32.9936 113.328C32.4336 112.76 32.1536 111.912 32.1536 110.784V108.816C32.1536 107.696 32.4336 106.852 32.9936 106.284C33.5616 105.716 34.3216 105.432 35.2736 105.432C36.2336 105.432 36.9936 105.716 37.5536 106.284C38.1216 106.852 38.4056 107.696 38.4056 108.816V110.784C38.4056 111.912 38.1216 112.76 37.5536 113.328C36.9936 113.888 36.2336 114.168 35.2736 114.168ZM35.2736 113.292C35.9936 113.292 36.5336 113.076 36.8936 112.644C37.2536 112.212 37.4336 111.608 37.4336 110.832V108.756C37.4336 107.98 37.2496 107.38 36.8816 106.956C36.5136 106.524 35.9776 106.308 35.2736 106.308C34.5696 106.308 34.0336 106.524 33.6656 106.956C33.3056 107.388 33.1256 107.988 33.1256 108.756V110.832C33.1256 111.616 33.3056 112.224 33.6656 112.656C34.0256 113.08 34.5616 113.292 35.2736 113.292ZM42.9611 114.168C42.0091 114.168 41.2491 113.888 40.6811 113.328C40.1211 112.76 39.8411 111.912 39.8411 110.784V108.816C39.8411 107.696 40.1211 106.852 40.6811 106.284C41.2491 105.716 42.0091 105.432 42.9611 105.432C43.9211 105.432 44.6811 105.716 45.2411 106.284C45.8091 106.852 46.0931 107.696 46.0931 108.816V110.784C46.0931 111.912 45.8091 112.76 45.2411 113.328C44.6811 113.888 43.9211 114.168 42.9611 114.168ZM42.9611 113.292C43.6811 113.292 44.2211 113.076 44.5811 112.644C44.9411 112.212 45.1211 111.608 45.1211 110.832V108.756C45.1211 107.98 44.9371 107.38 44.5691 106.956C44.2011 106.524 43.6651 106.308 42.9611 106.308C42.2571 106.308 41.7211 106.524 41.3531 106.956C40.9931 107.388 40.8131 107.988 40.8131 108.756V110.832C40.8131 111.616 40.9931 112.224 41.3531 112.656C41.7131 113.08 42.2491 113.292 42.9611 113.292Z" fill="#242739"/>
<path d="M332.058 114.168C331.41 114.168 330.846 114.072 330.366 113.88C329.894 113.68 329.526 113.404 329.262 113.052C329.006 112.692 328.878 112.272 328.878 111.792V111.66C328.878 111.244 328.966 110.9 329.142 110.628C329.318 110.356 329.53 110.148 329.778 110.004C330.034 109.852 330.27 109.756 330.486 109.716V109.56C330.27 109.496 330.046 109.392 329.814 109.248C329.59 109.104 329.402 108.908 329.25 108.66C329.106 108.412 329.034 108.108 329.034 107.748V107.616C329.034 107.16 329.162 106.772 329.418 106.452C329.682 106.124 330.042 105.872 330.498 105.696C330.954 105.52 331.474 105.432 332.058 105.432C332.65 105.432 333.17 105.52 333.618 105.696C334.074 105.872 334.43 106.124 334.686 106.452C334.95 106.772 335.082 107.16 335.082 107.616V107.748C335.082 108.108 335.01 108.412 334.866 108.66C334.722 108.908 334.538 109.104 334.314 109.248C334.09 109.392 333.866 109.496 333.642 109.56V109.716C333.866 109.756 334.102 109.852 334.35 110.004C334.598 110.148 334.806 110.356 334.974 110.628C335.15 110.9 335.238 111.244 335.238 111.66V111.792C335.238 112.272 335.11 112.692 334.854 113.052C334.598 113.404 334.23 113.68 333.75 113.88C333.278 114.072 332.714 114.168 332.058 114.168ZM332.058 113.292C332.738 113.292 333.274 113.16 333.666 112.896C334.066 112.632 334.266 112.248 334.266 111.744V111.648C334.266 111.144 334.07 110.76 333.678 110.496C333.286 110.232 332.746 110.1 332.058 110.1C331.378 110.1 330.842 110.232 330.45 110.496C330.058 110.76 329.862 111.144 329.862 111.648V111.744C329.862 112.248 330.058 112.632 330.45 112.896C330.85 113.16 331.386 113.292 332.058 113.292ZM332.058 109.224C332.698 109.224 333.198 109.104 333.558 108.864C333.926 108.616 334.11 108.268 334.11 107.82V107.724C334.11 107.268 333.926 106.92 333.558 106.68C333.19 106.432 332.69 106.308 332.058 106.308C331.426 106.308 330.926 106.432 330.558 106.68C330.19 106.92 330.006 107.268 330.006 107.724V107.82C330.006 108.268 330.19 108.616 330.558 108.864C330.926 109.104 331.426 109.224 332.058 109.224ZM339.427 114.168C338.811 114.168 338.279 114.052 337.831 113.82C337.383 113.58 337.035 113.252 336.787 112.836C336.539 112.412 336.415 111.924 336.415 111.372V111.228H337.387V111.336C337.387 111.968 337.571 112.452 337.939 112.788C338.307 113.124 338.795 113.292 339.403 113.292C340.043 113.292 340.543 113.112 340.903 112.752C341.263 112.392 341.443 111.9 341.443 111.276V111.168C341.443 110.568 341.267 110.092 340.915 109.74C340.571 109.38 340.123 109.2 339.571 109.2C339.251 109.2 338.987 109.252 338.779 109.356C338.571 109.452 338.407 109.576 338.287 109.728C338.167 109.872 338.067 110.012 337.987 110.148H336.667V105.6H342.187V106.476H337.639V109.38H337.807C337.895 109.22 338.015 109.064 338.167 108.912C338.327 108.76 338.539 108.632 338.803 108.528C339.067 108.424 339.395 108.372 339.787 108.372C340.275 108.372 340.715 108.484 341.107 108.708C341.507 108.932 341.823 109.252 342.055 109.668C342.295 110.084 342.415 110.58 342.415 111.156V111.288C342.415 111.856 342.295 112.356 342.055 112.788C341.815 113.22 341.471 113.56 341.023 113.808C340.575 114.048 340.043 114.168 339.427 114.168ZM346.826 114.168C345.874 114.168 345.114 113.888 344.546 113.328C343.986 112.76 343.706 111.912 343.706 110.784V108.816C343.706 107.696 343.986 106.852 344.546 106.284C345.114 105.716 345.874 105.432 346.826 105.432C347.786 105.432 348.546 105.716 349.106 106.284C349.674 106.852 349.958 107.696 349.958 108.816V110.784C349.958 111.912 349.674 112.76 349.106 113.328C348.546 113.888 347.786 114.168 346.826 114.168ZM346.826 113.292C347.546 113.292 348.086 113.076 348.446 112.644C348.806 112.212 348.986 111.608 348.986 110.832V108.756C348.986 107.98 348.802 107.38 348.434 106.956C348.066 106.524 347.53 106.308 346.826 106.308C346.122 106.308 345.586 106.524 345.218 106.956C344.858 107.388 344.678 107.988 344.678 108.756V110.832C344.678 111.616 344.858 112.224 345.218 112.656C345.578 113.08 346.114 113.292 346.826 113.292Z" fill="#242739"/>
<path d="M223.907 118V117.636C223.907 117.272 223.935 116.964 223.991 116.712C224.047 116.451 224.169 116.157 224.355 115.83L227.645 110.02V109.796H222.437V108.2H229.493V110.328L226.021 116.53C225.9 116.745 225.816 116.936 225.769 117.104C225.723 117.272 225.699 117.477 225.699 117.72V118H223.907ZM234.307 118.196C233.149 118.196 232.221 117.879 231.521 117.244C230.821 116.6 230.471 115.629 230.471 114.332V111.868C230.471 110.608 230.821 109.651 231.521 108.998C232.221 108.335 233.149 108.004 234.307 108.004C235.473 108.004 236.402 108.335 237.093 108.998C237.793 109.651 238.143 110.608 238.143 111.868V114.332C238.143 115.629 237.793 116.6 237.093 117.244C236.402 117.879 235.473 118.196 234.307 118.196ZM234.307 116.6C235.007 116.6 235.52 116.409 235.847 116.026C236.183 115.643 236.351 115.097 236.351 114.388V111.784C236.351 111.065 236.164 110.524 235.791 110.16C235.427 109.787 234.932 109.6 234.307 109.6C233.663 109.6 233.159 109.791 232.795 110.174C232.44 110.557 232.263 111.093 232.263 111.784V114.388C232.263 115.125 232.431 115.681 232.767 116.054C233.112 116.418 233.625 116.6 234.307 116.6ZM243.385 118.196C242.227 118.196 241.299 117.879 240.599 117.244C239.899 116.6 239.549 115.629 239.549 114.332V111.868C239.549 110.608 239.899 109.651 240.599 108.998C241.299 108.335 242.227 108.004 243.385 108.004C244.551 108.004 245.48 108.335 246.171 108.998C246.871 109.651 247.221 110.608 247.221 111.868V114.332C247.221 115.629 246.871 116.6 246.171 117.244C245.48 117.879 244.551 118.196 243.385 118.196ZM243.385 116.6C244.085 116.6 244.598 116.409 244.925 116.026C245.261 115.643 245.429 115.097 245.429 114.388V111.784C245.429 111.065 245.242 110.524 244.869 110.16C244.505 109.787 244.01 109.6 243.385 109.6C242.741 109.6 242.237 109.791 241.873 110.174C241.518 110.557 241.341 111.093 241.341 111.784V114.388C241.341 115.125 241.509 115.681 241.845 116.054C242.19 116.418 242.703 116.6 243.385 116.6Z" fill="#242739"/>
</svg>
