<svg width="346" height="339" viewBox="0 0 346 339" fill="none" xmlns="http://www.w3.org/2000/svg">
<rect x="95.2194" y="51.2155" width="154.867" height="286.565" rx="23.1691" fill="#0B081C" stroke="white" stroke-width="2.43885"/>
<path d="M204.243 231.086V241.887C204.243 242.913 203.717 243.904 202.732 244.841C202.452 245.107 202.13 245.367 201.768 245.634C201.078 246.133 200.244 246.611 199.293 247.076C198.986 247.22 198.664 247.37 198.329 247.507C197.167 248.006 195.855 248.471 194.412 248.888C194.098 248.983 193.783 249.079 193.455 249.168C191.869 249.592 190.146 249.982 188.3 250.31C187.986 250.364 187.665 250.426 187.336 250.481C185.826 250.727 184.246 250.952 182.599 251.13C182.278 251.157 181.963 251.198 181.642 251.226C180.541 251.335 179.42 251.424 178.271 251.499C177.95 251.527 177.636 251.547 177.307 251.568C175.872 251.643 174.409 251.691 172.912 251.718C172.597 251.718 172.276 251.725 171.955 251.725H171.264C169.869 251.725 168.495 251.697 167.142 251.65C166.82 251.643 166.499 251.622 166.178 251.609C164.797 251.54 163.45 251.451 162.131 251.335C161.809 251.308 161.481 251.28 161.167 251.253C160.257 251.171 159.362 251.062 158.494 250.959C158.172 250.911 157.851 250.877 157.53 250.829C156.422 250.679 155.335 250.508 154.303 250.323C153.982 250.269 153.66 250.214 153.346 250.146C152.437 249.975 151.568 249.79 150.727 249.578C150.406 249.503 150.085 249.428 149.77 249.346C148.724 249.079 147.74 248.799 146.817 248.484C146.489 248.382 146.168 248.266 145.853 248.156C144.875 247.808 143.98 247.438 143.18 247.042C142.838 246.885 142.517 246.714 142.209 246.543C141.409 246.098 140.719 245.64 140.152 245.155C139.775 244.834 139.447 244.506 139.188 244.177C138.606 243.439 138.299 242.673 138.299 241.894C138.299 238.688 138.299 231.092 138.299 231.092H204.243V231.086Z" fill="#FDC400"/>
<path d="M204.245 231.085C204.245 235.898 189.485 239.802 171.28 239.802C153.074 239.802 138.314 235.898 138.314 231.085C138.314 226.272 153.074 222.369 171.28 222.369C189.485 222.369 204.245 226.272 204.245 231.085Z" fill="#FFDE00"/>
<path d="M198.336 229.93C198.336 233.239 186.222 235.926 171.277 235.926C156.333 235.926 144.219 233.239 144.219 229.93C144.219 226.621 156.333 223.935 171.277 223.935C186.222 223.935 198.336 226.615 198.336 229.93Z" fill="#FFD000"/>
<path d="M145.052 231.4C148.019 228.802 158.636 226.881 171.283 226.881C183.931 226.881 194.547 228.802 197.514 231.4C198.055 230.928 198.342 230.436 198.342 229.923C198.342 226.614 186.228 223.927 171.283 223.927C156.339 223.927 144.225 226.614 144.225 229.923C144.225 230.436 144.512 230.928 145.052 231.4Z" fill="#F8AB08"/>
<path d="M140.179 235.918V245.141C139.803 244.819 139.475 244.491 139.215 244.163V235.918H140.179Z" fill="#F8AB08"/>
<path d="M143.201 238.625V247.027C142.859 246.87 142.538 246.699 142.23 246.528V238.625H143.201Z" fill="#F8AB08"/>
<path d="M146.837 240.286V248.476C146.509 248.374 146.188 248.257 145.873 248.148V240.286H146.837Z" fill="#F8AB08"/>
<path d="M150.748 241.401V249.57C150.427 249.495 150.105 249.42 149.791 249.338V241.408H150.748V241.401Z" fill="#F8AB08"/>
<path d="M154.316 242.467V250.315C153.995 250.26 153.674 250.205 153.359 250.137V242.467H154.316Z" fill="#F8AB08"/>
<path d="M158.507 243.172V250.951C158.186 250.904 157.864 250.869 157.543 250.822V243.172H158.507Z" fill="#F8AB08"/>
<path d="M162.151 243.172V251.327C161.83 251.3 161.502 251.273 161.188 251.245V243.172H162.151Z" fill="#F8AB08"/>
<path d="M167.163 243.172V251.642C166.842 251.635 166.521 251.615 166.199 251.601V243.172H167.163Z" fill="#F8AB08"/>
<path d="M172.932 242.467V251.709C172.617 251.709 172.296 251.716 171.975 251.716V242.467H172.932Z" fill="#F8AB08"/>
<path d="M178.286 241.401V251.491C177.965 251.519 177.65 251.539 177.322 251.56V241.401H178.286Z" fill="#F8AB08"/>
<path d="M182.613 241.401V251.122C182.292 251.15 181.978 251.191 181.656 251.218V241.401H182.613Z" fill="#F8AB08"/>
<path d="M188.314 240.286V250.302C187.999 250.356 187.678 250.418 187.35 250.472V240.286H188.314Z" fill="#F8AB08"/>
<path d="M194.42 239.22V248.88C194.106 248.976 193.791 249.072 193.463 249.161V239.22H194.42Z" fill="#F8AB08"/>
<path d="M199.3 236.629V247.068C198.992 247.212 198.671 247.362 198.336 247.499V236.622H199.3V236.629Z" fill="#F8AB08"/>
<path d="M202.732 234.858V244.84C202.451 245.106 202.13 245.366 201.768 245.633V234.858H202.732Z" fill="#F8AB08"/>
<path d="M202.732 240.061C202.452 240.327 202.13 240.587 201.768 240.854C201.078 241.353 200.244 241.838 199.293 242.296C198.986 242.44 198.664 242.59 198.329 242.734C197.167 243.233 195.855 243.698 194.412 244.108C194.098 244.204 193.783 244.299 193.455 244.388C191.869 244.812 190.146 245.202 188.3 245.53C187.986 245.585 187.665 245.646 187.336 245.701C185.826 245.947 184.246 246.173 182.599 246.35C182.278 246.378 181.963 246.419 181.642 246.446C180.541 246.562 179.42 246.644 178.271 246.719C177.95 246.747 177.636 246.767 177.307 246.788C175.872 246.863 174.409 246.911 172.912 246.938C172.597 246.938 172.276 246.945 171.955 246.945H171.264C169.869 246.945 168.495 246.918 167.142 246.87C166.82 246.863 166.499 246.843 166.178 246.829C164.797 246.76 163.45 246.672 162.131 246.555C161.809 246.528 161.481 246.501 161.167 246.473C160.257 246.391 159.362 246.282 158.494 246.179C158.172 246.132 157.851 246.097 157.53 246.049C156.422 245.899 155.335 245.728 154.303 245.537C153.982 245.482 153.66 245.427 153.346 245.359C152.437 245.188 151.568 245.004 150.727 244.792C150.406 244.716 150.085 244.641 149.77 244.559C148.724 244.293 147.74 244.012 146.817 243.698C146.489 243.595 146.168 243.479 145.853 243.37C144.875 243.021 143.98 242.652 143.18 242.255C142.838 242.098 142.517 241.927 142.209 241.756C141.409 241.312 140.719 240.854 140.152 240.368C139.775 240.047 139.447 239.719 139.188 239.391C138.606 238.652 138.299 237.894 138.299 237.107C138.299 238.892 138.299 240.69 138.299 241.879C138.299 242.659 138.606 243.424 139.188 244.163C139.454 244.491 139.775 244.819 140.152 245.14C140.719 245.619 141.403 246.084 142.209 246.528C142.517 246.699 142.838 246.87 143.18 247.027C143.98 247.424 144.875 247.793 145.853 248.141C146.168 248.258 146.482 248.367 146.817 248.47C147.747 248.777 148.731 249.064 149.77 249.331C150.085 249.413 150.399 249.488 150.727 249.563C151.568 249.768 152.437 249.96 153.346 250.131C153.66 250.199 153.975 250.254 154.303 250.309C155.342 250.5 156.422 250.664 157.53 250.814C157.851 250.862 158.165 250.897 158.494 250.944C159.369 251.047 160.257 251.149 161.167 251.238C161.488 251.266 161.809 251.293 162.131 251.32C163.45 251.437 164.804 251.532 166.178 251.594C166.499 251.601 166.814 251.621 167.142 251.635C168.495 251.683 169.869 251.71 171.264 251.71H171.955C172.276 251.71 172.597 251.703 172.912 251.703C174.409 251.676 175.872 251.628 177.307 251.553C177.629 251.532 177.95 251.512 178.271 251.484C179.42 251.409 180.541 251.32 181.642 251.211C181.963 251.184 182.278 251.143 182.599 251.115C184.246 250.938 185.826 250.712 187.336 250.466C187.658 250.411 187.986 250.35 188.3 250.295C190.146 249.967 191.869 249.577 193.455 249.153C193.776 249.058 194.098 248.962 194.412 248.873C195.855 248.456 197.167 247.998 198.329 247.492C198.664 247.348 198.986 247.198 199.293 247.061C200.244 246.596 201.078 246.118 201.768 245.619C202.124 245.352 202.452 245.092 202.732 244.826C203.717 243.889 204.243 242.905 204.243 241.872V237.101C204.243 238.14 203.717 239.124 202.732 240.061Z" fill="#C88E09"/>
<path d="M201.405 217.973V228.775C201.405 229.8 200.879 230.791 199.894 231.728C199.614 231.995 199.293 232.254 198.93 232.521C198.24 233.02 197.406 233.506 196.455 233.964C196.148 234.107 195.827 234.258 195.492 234.394C194.336 234.893 193.017 235.358 191.574 235.775C191.26 235.871 190.938 235.967 190.617 236.056C189.031 236.479 187.308 236.869 185.463 237.197C185.148 237.252 184.827 237.313 184.499 237.368C182.988 237.614 181.409 237.84 179.754 238.018C179.44 238.045 179.118 238.086 178.797 238.113C177.696 238.23 176.575 238.312 175.427 238.387C175.105 238.414 174.791 238.435 174.463 238.455C173.027 238.53 171.564 238.578 170.067 238.606C169.752 238.606 169.431 238.612 169.103 238.612H168.419C167.025 238.612 165.651 238.585 164.297 238.537C163.976 238.53 163.654 238.51 163.333 238.503C161.952 238.435 160.605 238.346 159.286 238.229C158.958 238.202 158.636 238.175 158.322 238.147C157.413 238.065 156.517 237.956 155.649 237.853C155.328 237.806 155.006 237.771 154.685 237.724C153.577 237.573 152.49 237.402 151.458 237.211C151.13 237.156 150.816 237.101 150.501 237.033C149.592 236.862 148.73 236.678 147.89 236.466C147.568 236.391 147.247 236.315 146.932 236.233C145.886 235.967 144.902 235.686 143.972 235.372C143.644 235.269 143.323 235.153 143.008 235.044C142.031 234.695 141.135 234.326 140.335 233.929C139.993 233.772 139.679 233.601 139.365 233.43C138.565 232.986 137.874 232.528 137.314 232.043C136.938 231.721 136.609 231.393 136.35 231.065C135.769 230.327 135.461 229.568 135.461 228.782C135.461 225.575 135.461 217.98 135.461 217.98H201.405V217.973Z" fill="#FDC400"/>
<path d="M168.441 226.689C186.643 226.689 201.399 222.787 201.399 217.973C201.399 213.159 186.643 209.256 168.441 209.256C150.238 209.256 135.482 213.159 135.482 217.973C135.482 222.787 150.238 226.689 168.441 226.689Z" fill="#FFDE00"/>
<path d="M195.498 216.818C195.498 220.127 183.384 222.813 168.439 222.813C153.495 222.813 141.381 220.127 141.381 216.818C141.381 213.509 153.495 210.822 168.439 210.822C183.384 210.822 195.498 213.502 195.498 216.818Z" fill="#FFD000"/>
<path d="M142.208 218.288C145.175 215.69 155.792 213.769 168.439 213.769C181.087 213.769 191.704 215.69 194.671 218.288C195.211 217.816 195.498 217.324 195.498 216.818C195.498 213.509 183.384 210.822 168.439 210.822C153.495 210.822 141.381 213.509 141.381 216.818C141.381 217.324 141.675 217.816 142.208 218.288Z" fill="#F8AB08"/>
<path d="M137.335 222.806V232.028C136.959 231.707 136.631 231.379 136.371 231.05V222.806H137.335Z" fill="#F8AB08"/>
<path d="M140.357 225.512V233.914C140.016 233.757 139.701 233.586 139.387 233.415V225.512H140.357Z" fill="#F8AB08"/>
<path d="M143.993 227.174V235.364C143.665 235.261 143.344 235.145 143.029 235.036V227.181H143.993V227.174Z" fill="#F8AB08"/>
<path d="M147.904 228.288V236.458C147.583 236.383 147.262 236.307 146.947 236.225V228.295H147.904V228.288Z" fill="#F8AB08"/>
<path d="M151.481 229.354V237.202C151.152 237.148 150.838 237.093 150.523 237.025V229.354H151.481Z" fill="#F8AB08"/>
<path d="M155.671 230.059V237.839C155.35 237.791 155.028 237.757 154.707 237.709V230.059H155.671Z" fill="#F8AB08"/>
<path d="M159.314 230.059V238.215C158.985 238.188 158.664 238.16 158.35 238.133V230.059H159.314Z" fill="#F8AB08"/>
<path d="M164.325 230.059V238.529C164.004 238.523 163.683 238.502 163.361 238.495V230.066H164.325V230.059Z" fill="#F8AB08"/>
<path d="M170.089 229.355V238.598C169.774 238.598 169.453 238.605 169.125 238.605V229.348H170.089V229.355Z" fill="#F8AB08"/>
<path d="M175.448 228.288V238.379C175.127 238.406 174.813 238.427 174.484 238.447V228.288H175.448Z" fill="#F8AB08"/>
<path d="M179.77 228.288V238.01C179.455 238.037 179.134 238.078 178.812 238.105V228.288H179.77Z" fill="#F8AB08"/>
<path d="M185.47 227.174V237.189C185.155 237.244 184.834 237.305 184.506 237.36V227.174H185.47Z" fill="#F8AB08"/>
<path d="M191.582 226.108V235.768C191.268 235.863 190.946 235.959 190.625 236.048V226.108H191.582Z" fill="#F8AB08"/>
<path d="M196.464 223.516V233.955C196.156 234.099 195.835 234.249 195.5 234.386V223.509H196.464V223.516Z" fill="#F8AB08"/>
<path d="M199.896 221.746V231.727C199.615 231.994 199.294 232.253 198.932 232.52V221.753H199.896V221.746Z" fill="#F8AB08"/>
<path d="M199.894 226.949C199.614 227.216 199.293 227.476 198.93 227.742C198.24 228.241 197.406 228.727 196.455 229.185C196.148 229.328 195.827 229.479 195.492 229.615C194.336 230.114 193.017 230.579 191.574 230.996C191.26 231.092 190.938 231.188 190.617 231.277C189.031 231.701 187.308 232.09 185.463 232.418C185.148 232.473 184.827 232.535 184.499 232.589C182.988 232.835 181.409 233.061 179.754 233.239C179.44 233.266 179.118 233.307 178.797 233.334C177.696 233.444 176.575 233.533 175.427 233.608C175.105 233.635 174.791 233.656 174.463 233.676C173.027 233.751 171.564 233.799 170.067 233.827C169.752 233.827 169.431 233.833 169.103 233.833H168.419C167.025 233.833 165.651 233.806 164.297 233.758C163.976 233.751 163.654 233.731 163.333 233.717C161.952 233.649 160.605 233.56 159.286 233.444C158.958 233.416 158.636 233.389 158.322 233.362C157.413 233.28 156.517 233.17 155.649 233.068C155.328 233.02 155.006 232.986 154.685 232.938C153.577 232.787 152.49 232.617 151.458 232.425C151.13 232.37 150.816 232.309 150.501 232.247C149.592 232.077 148.73 231.892 147.89 231.68C147.568 231.605 147.247 231.53 146.932 231.441C145.886 231.174 144.902 230.894 143.972 230.579C143.644 230.477 143.323 230.361 143.008 230.251C142.031 229.903 141.135 229.533 140.335 229.137C139.993 228.98 139.679 228.809 139.365 228.638C138.565 228.193 137.874 227.729 137.314 227.25C136.938 226.929 136.609 226.601 136.35 226.272C135.769 225.534 135.461 224.775 135.461 223.989C135.461 225.773 135.461 227.571 135.461 228.761C135.461 229.547 135.769 230.306 136.35 231.044C136.616 231.372 136.938 231.701 137.314 232.022C137.881 232.5 138.565 232.965 139.365 233.41C139.672 233.581 139.993 233.751 140.335 233.909C141.135 234.305 142.031 234.674 143.008 235.023C143.323 235.139 143.637 235.249 143.972 235.351C144.902 235.666 145.886 235.946 146.932 236.213C147.247 236.295 147.561 236.37 147.89 236.445C148.73 236.65 149.599 236.841 150.501 237.012C150.816 237.081 151.13 237.135 151.458 237.19C152.497 237.382 153.577 237.546 154.685 237.703C154.999 237.751 155.321 237.785 155.649 237.833C156.524 237.935 157.413 238.038 158.322 238.127C158.643 238.154 158.965 238.181 159.286 238.209C160.605 238.325 161.959 238.414 163.333 238.482C163.654 238.489 163.969 238.51 164.297 238.516C165.651 238.564 167.018 238.592 168.419 238.592H169.103C169.424 238.592 169.746 238.585 170.067 238.585C171.564 238.557 173.027 238.51 174.463 238.434C174.791 238.414 175.105 238.393 175.427 238.366C176.575 238.291 177.696 238.209 178.797 238.093C179.118 238.065 179.433 238.024 179.754 237.997C181.402 237.819 182.988 237.593 184.499 237.347C184.82 237.293 185.148 237.231 185.463 237.176C187.308 236.848 189.024 236.459 190.617 236.035C190.938 235.939 191.26 235.843 191.574 235.755C193.017 235.337 194.329 234.879 195.492 234.374C195.827 234.23 196.148 234.08 196.455 233.943C197.406 233.478 198.233 232.999 198.93 232.5C199.286 232.234 199.614 231.974 199.894 231.707C200.879 230.771 201.405 229.786 201.405 228.754V223.982C201.405 225.028 200.879 226.019 199.894 226.949Z" fill="#CC9007"/>
<path d="M204.243 204.205V215.006C204.243 216.032 203.717 217.023 202.732 217.96C202.452 218.219 202.13 218.486 201.768 218.753C201.078 219.252 200.244 219.737 199.293 220.195C198.986 220.339 198.664 220.489 198.329 220.633C197.167 221.132 195.855 221.597 194.412 222.007C194.098 222.102 193.783 222.198 193.455 222.294C191.869 222.718 190.146 223.107 188.3 223.436C187.986 223.49 187.665 223.552 187.336 223.606C185.826 223.853 184.246 224.078 182.599 224.256C182.278 224.283 181.963 224.324 181.642 224.352C180.541 224.468 179.42 224.55 178.271 224.625C177.95 224.652 177.636 224.673 177.307 224.693C175.872 224.769 174.409 224.816 172.912 224.844C172.597 224.844 172.276 224.851 171.955 224.851H171.264C169.869 224.851 168.495 224.823 167.142 224.775C166.82 224.769 166.499 224.748 166.178 224.734C164.797 224.666 163.45 224.577 162.131 224.461C161.809 224.434 161.481 224.406 161.167 224.379C160.257 224.297 159.362 224.188 158.494 224.085C158.172 224.037 157.851 224.003 157.53 223.955C156.422 223.805 155.335 223.634 154.303 223.442C153.982 223.388 153.66 223.333 153.346 223.265C152.437 223.094 151.568 222.909 150.727 222.697C150.406 222.622 150.085 222.547 149.77 222.465C148.724 222.198 147.74 221.918 146.817 221.603C146.489 221.501 146.168 221.385 145.853 221.275C144.875 220.927 143.98 220.557 143.18 220.161C142.838 220.004 142.517 219.833 142.209 219.662C141.409 219.217 140.719 218.759 140.152 218.274C139.775 217.953 139.447 217.625 139.188 217.296C138.606 216.558 138.299 215.799 138.299 215.013C138.299 211.807 138.299 204.211 138.299 204.211H204.243V204.205Z" fill="#FDC400"/>
<path d="M204.245 204.204C204.245 209.017 189.485 212.921 171.28 212.921C153.074 212.921 138.314 209.017 138.314 204.204C138.314 199.391 153.074 195.488 171.28 195.488C189.485 195.488 204.245 199.391 204.245 204.204Z" fill="#FFDE00"/>
<path d="M198.336 203.049C198.336 206.358 186.222 209.045 171.277 209.045C156.333 209.045 144.219 206.365 144.219 203.049C144.219 199.74 156.333 197.054 171.277 197.054C186.222 197.054 198.336 199.74 198.336 203.049Z" fill="#FFD000"/>
<path d="M145.054 204.519C148.021 201.921 158.638 200 171.285 200C183.932 200 194.549 201.921 197.516 204.519C198.057 204.047 198.344 203.555 198.344 203.042C198.344 199.733 186.23 197.046 171.285 197.046C156.341 197.046 144.227 199.733 144.227 203.042C144.227 203.555 144.514 204.047 145.054 204.519Z" fill="#F8AB08"/>
<path d="M140.179 209.046V218.268C139.803 217.947 139.475 217.619 139.215 217.29V209.046H140.179Z" fill="#F8AB08"/>
<path d="M143.199 211.752V220.154C142.857 219.997 142.536 219.826 142.229 219.655V211.752H143.199Z" fill="#F8AB08"/>
<path d="M146.837 213.407V221.597C146.509 221.494 146.188 221.378 145.873 221.268V213.413H146.837V213.407Z" fill="#F8AB08"/>
<path d="M150.748 214.521V222.691C150.427 222.616 150.105 222.54 149.791 222.458V214.528H150.748V214.521Z" fill="#F8AB08"/>
<path d="M154.316 215.587V223.435C153.995 223.381 153.674 223.326 153.359 223.257V215.587H154.316Z" fill="#F8AB08"/>
<path d="M158.507 216.299V224.079C158.186 224.031 157.864 223.997 157.543 223.949V216.299H158.507Z" fill="#F8AB08"/>
<path d="M162.151 216.299V224.455C161.83 224.428 161.502 224.4 161.188 224.373V216.299H162.151Z" fill="#F8AB08"/>
<path d="M167.161 216.299V224.769C166.84 224.763 166.519 224.742 166.197 224.728V216.299H167.161Z" fill="#F8AB08"/>
<path d="M172.932 215.587V224.83C172.617 224.83 172.296 224.837 171.975 224.837V215.587H172.932Z" fill="#F8AB08"/>
<path d="M178.284 214.521V224.612C177.963 224.639 177.648 224.66 177.32 224.68V214.521H178.284Z" fill="#F8AB08"/>
<path d="M182.613 214.521V224.243C182.292 224.27 181.978 224.311 181.656 224.338V214.521H182.613Z" fill="#F8AB08"/>
<path d="M188.314 213.407V223.422C187.999 223.477 187.678 223.538 187.35 223.593V213.407H188.314Z" fill="#F8AB08"/>
<path d="M194.42 212.341V222.001C194.106 222.096 193.791 222.192 193.463 222.288V212.348H194.42V212.341Z" fill="#F8AB08"/>
<path d="M199.3 209.749V220.189C198.992 220.332 198.671 220.483 198.336 220.626V209.749H199.3Z" fill="#F8AB08"/>
<path d="M202.732 207.979V217.96C202.451 218.22 202.13 218.486 201.768 218.753V207.979H202.732Z" fill="#F8AB08"/>
<path d="M202.732 213.18C202.452 213.447 202.13 213.707 201.768 213.973C201.078 214.472 200.244 214.951 199.293 215.416C198.986 215.559 198.664 215.71 198.329 215.853C197.167 216.352 195.855 216.817 194.412 217.234C194.098 217.33 193.783 217.419 193.455 217.515C191.869 217.939 190.146 218.328 188.3 218.656C187.986 218.711 187.665 218.766 187.336 218.827C185.826 219.073 184.246 219.299 182.599 219.477C182.278 219.504 181.963 219.545 181.642 219.572C180.541 219.682 179.42 219.771 178.271 219.846C177.95 219.873 177.636 219.894 177.307 219.914C175.872 219.989 174.409 220.037 172.912 220.065C172.597 220.065 172.276 220.072 171.955 220.072H171.264C169.869 220.072 168.495 220.044 167.142 219.996C166.82 219.989 166.499 219.969 166.178 219.955C164.797 219.887 163.45 219.798 162.131 219.682C161.809 219.654 161.481 219.627 161.167 219.6C160.257 219.518 159.362 219.408 158.494 219.306C158.172 219.258 157.851 219.224 157.53 219.176C156.422 219.026 155.335 218.855 154.303 218.67C153.982 218.615 153.66 218.554 153.346 218.492C152.437 218.321 151.568 218.137 150.727 217.925C150.406 217.85 150.085 217.774 149.77 217.686C148.724 217.419 147.74 217.139 146.817 216.831C146.489 216.728 146.168 216.612 145.853 216.503C144.875 216.154 143.98 215.785 143.18 215.389C142.838 215.231 142.517 215.06 142.209 214.89C141.409 214.445 140.719 213.987 140.152 213.502C139.775 213.18 139.447 212.852 139.188 212.524C138.606 211.786 138.299 211.027 138.299 210.241C138.299 212.025 138.299 213.823 138.299 215.013C138.299 215.799 138.606 216.558 139.188 217.296C139.454 217.624 139.775 217.959 140.152 218.274C140.719 218.752 141.403 219.217 142.209 219.661C142.517 219.832 142.838 220.003 143.18 220.16C143.98 220.557 144.875 220.926 145.853 221.275C146.168 221.391 146.482 221.5 146.817 221.603C147.747 221.917 148.731 222.198 149.77 222.464C150.085 222.546 150.399 222.621 150.727 222.697C151.568 222.902 152.437 223.093 153.346 223.264C153.66 223.332 153.975 223.387 154.303 223.442C155.342 223.633 156.422 223.797 157.53 223.955C157.851 224.002 158.165 224.037 158.494 224.084C159.369 224.187 160.257 224.29 161.167 224.378C161.488 224.406 161.809 224.433 162.131 224.46C163.45 224.577 164.804 224.666 166.178 224.734C166.499 224.748 166.814 224.761 167.142 224.775C168.495 224.823 169.869 224.85 171.264 224.85H171.955C172.276 224.85 172.597 224.843 172.912 224.843C174.409 224.816 175.872 224.768 177.307 224.693C177.629 224.672 177.95 224.652 178.271 224.625C179.42 224.549 180.541 224.467 181.642 224.351C181.963 224.324 182.278 224.283 182.599 224.255C184.246 224.078 185.826 223.852 187.336 223.606C187.658 223.551 187.986 223.49 188.3 223.435C190.146 223.107 191.869 222.717 193.455 222.293C193.776 222.198 194.098 222.102 194.412 222.006C195.855 221.589 197.167 221.131 198.329 220.632C198.664 220.489 198.986 220.338 199.293 220.195C200.244 219.737 201.078 219.251 201.768 218.752C202.124 218.485 202.452 218.226 202.732 217.959C203.717 217.022 204.243 216.031 204.243 215.006V210.234C204.243 211.259 203.717 212.251 202.732 213.18Z" fill="#CC9007"/>
<path d="M207.789 191.092V201.894C207.789 202.919 207.262 203.91 206.278 204.847C205.998 205.114 205.67 205.373 205.314 205.64C204.624 206.139 203.79 206.625 202.839 207.083C202.532 207.226 202.21 207.377 201.875 207.52C200.713 208.019 199.401 208.484 197.958 208.901C197.644 208.997 197.329 209.092 197.001 209.181C195.415 209.605 193.692 209.995 191.846 210.323C191.532 210.378 191.21 210.439 190.882 210.494C189.371 210.74 187.792 210.966 186.145 211.143C185.823 211.171 185.509 211.212 185.188 211.239C184.087 211.349 182.966 211.437 181.817 211.513C181.503 211.54 181.181 211.56 180.86 211.581C179.425 211.656 177.962 211.704 176.464 211.731C176.143 211.731 175.829 211.738 175.5 211.738H174.81C173.415 211.738 172.041 211.711 170.688 211.663C170.366 211.656 170.045 211.636 169.73 211.622C168.35 211.554 167.003 211.465 165.683 211.348C165.362 211.321 165.034 211.294 164.719 211.266C163.81 211.184 162.915 211.075 162.046 210.972C161.725 210.925 161.404 210.89 161.082 210.843C159.975 210.692 158.888 210.521 157.856 210.33C157.534 210.275 157.213 210.22 156.899 210.152C155.989 209.981 155.128 209.797 154.287 209.585C153.966 209.509 153.644 209.434 153.33 209.345C152.284 209.079 151.299 208.799 150.377 208.484C150.048 208.381 149.727 208.265 149.419 208.156C148.442 207.807 147.546 207.438 146.746 207.042C146.405 206.884 146.09 206.713 145.782 206.542C144.983 206.098 144.292 205.633 143.732 205.155C143.349 204.833 143.027 204.505 142.768 204.177C142.187 203.439 141.879 202.68 141.879 201.894C141.879 198.687 141.879 191.092 141.879 191.092H207.789Z" fill="#FDC400"/>
<path d="M207.79 191.092C207.79 195.904 193.03 199.808 174.825 199.808C156.619 199.808 141.859 195.904 141.859 191.092C141.859 186.279 156.619 182.375 174.825 182.375C193.037 182.382 207.79 186.279 207.79 191.092Z" fill="#FFDE00"/>
<path d="M201.883 189.937C201.883 193.246 189.769 195.932 174.824 195.932C159.88 195.932 147.766 193.246 147.766 189.937C147.766 186.628 159.88 183.941 174.824 183.941C189.775 183.941 201.883 186.621 201.883 189.937Z" fill="#FFD000"/>
<path d="M148.601 191.407C151.568 188.809 162.185 186.888 174.832 186.888C187.479 186.888 198.096 188.809 201.063 191.407C201.603 190.935 201.891 190.443 201.891 189.937C201.891 186.628 189.776 183.941 174.832 183.941C159.888 183.941 147.773 186.628 147.773 189.937C147.773 190.443 148.061 190.935 148.601 191.407Z" fill="#F8AB08"/>
<path d="M143.726 195.933V205.155C143.343 204.834 143.022 204.506 142.762 204.178V195.933H143.726Z" fill="#F8AB08"/>
<path d="M146.747 198.633V207.035C146.405 206.878 146.091 206.707 145.783 206.536V198.633H146.747Z" fill="#F8AB08"/>
<path d="M150.385 200.294V208.484C150.057 208.382 149.735 208.265 149.428 208.156V200.294H150.385Z" fill="#F8AB08"/>
<path d="M154.295 201.409V209.578C153.974 209.503 153.652 209.428 153.338 209.339V201.409H154.295Z" fill="#F8AB08"/>
<path d="M157.863 202.474V210.323C157.542 210.268 157.221 210.213 156.906 210.145V202.474H157.863Z" fill="#F8AB08"/>
<path d="M162.054 203.179V210.959C161.732 210.911 161.411 210.877 161.09 210.829V203.179H162.054Z" fill="#F8AB08"/>
<path d="M165.698 203.179V211.335C165.377 211.308 165.049 211.281 164.734 211.253V203.179H165.698Z" fill="#F8AB08"/>
<path d="M170.709 203.179V211.65C170.388 211.643 170.066 211.622 169.752 211.609V203.179H170.709Z" fill="#F8AB08"/>
<path d="M176.48 202.474V211.717C176.158 211.717 175.844 211.724 175.516 211.724V202.474H176.48Z" fill="#F8AB08"/>
<path d="M181.832 201.409V211.499C181.518 211.527 181.196 211.547 180.875 211.568V201.409H181.832Z" fill="#F8AB08"/>
<path d="M186.16 201.409V211.13C185.839 211.157 185.524 211.198 185.203 211.226V201.409H186.16Z" fill="#F8AB08"/>
<path d="M191.86 200.294V210.309C191.546 210.364 191.225 210.426 190.896 210.48V200.294H191.86Z" fill="#F8AB08"/>
<path d="M197.967 199.228V208.888C197.652 208.984 197.338 209.079 197.01 209.168V199.228H197.967Z" fill="#F8AB08"/>
<path d="M202.847 196.637V207.076C202.539 207.22 202.218 207.37 201.883 207.514V196.637H202.847Z" fill="#F8AB08"/>
<path d="M206.278 194.866V204.847C205.998 205.114 205.67 205.374 205.314 205.64V194.873H206.278V194.866Z" fill="#F8AB08"/>
<path d="M206.278 200.068C205.998 200.334 205.67 200.594 205.314 200.861C204.624 201.36 203.79 201.838 202.839 202.303C202.532 202.447 202.21 202.597 201.875 202.734C200.713 203.233 199.401 203.698 197.958 204.108C197.644 204.204 197.329 204.299 197.001 204.388C195.415 204.812 193.692 205.202 191.846 205.53C191.532 205.585 191.21 205.646 190.882 205.701C189.371 205.947 187.792 206.173 186.145 206.35C185.823 206.378 185.509 206.419 185.188 206.446C184.087 206.555 182.966 206.644 181.817 206.719C181.503 206.747 181.181 206.767 180.86 206.788C179.425 206.863 177.962 206.911 176.464 206.938C176.143 206.938 175.829 206.945 175.5 206.945H174.81C173.415 206.945 172.041 206.918 170.688 206.87C170.366 206.863 170.045 206.843 169.73 206.836C168.35 206.767 167.003 206.678 165.683 206.562C165.362 206.535 165.034 206.508 164.719 206.48C163.81 206.398 162.915 206.289 162.046 206.186C161.725 206.138 161.404 206.104 161.082 206.056C159.975 205.906 158.888 205.735 157.856 205.544C157.534 205.489 157.213 205.434 156.899 205.366C155.989 205.195 155.128 205.01 154.287 204.798C153.966 204.723 153.644 204.648 153.33 204.566C152.284 204.299 151.299 204.019 150.377 203.705C150.048 203.602 149.727 203.486 149.419 203.376C148.442 203.028 147.546 202.659 146.746 202.262C146.405 202.105 146.09 201.934 145.782 201.763C144.983 201.319 144.292 200.861 143.732 200.375C143.349 200.054 143.027 199.726 142.768 199.398C142.187 198.659 141.879 197.9 141.879 197.114C141.879 198.899 141.879 200.697 141.879 201.886C141.879 202.672 142.187 203.431 142.768 204.169C143.027 204.498 143.356 204.826 143.732 205.147C144.299 205.626 144.983 206.091 145.782 206.535C146.09 206.706 146.411 206.877 146.746 207.034C147.546 207.43 148.442 207.8 149.419 208.148C149.734 208.258 150.048 208.374 150.377 208.476C151.306 208.791 152.291 209.071 153.33 209.338C153.644 209.42 153.959 209.502 154.287 209.577C155.128 209.782 155.996 209.974 156.899 210.144C157.213 210.213 157.534 210.268 157.856 210.322C158.895 210.514 159.975 210.685 161.082 210.835C161.404 210.883 161.718 210.917 162.046 210.965C162.921 211.067 163.81 211.17 164.719 211.259C165.041 211.286 165.362 211.314 165.683 211.341C167.003 211.457 168.356 211.546 169.73 211.614C170.045 211.621 170.366 211.642 170.688 211.655C172.041 211.703 173.415 211.731 174.81 211.731H175.5C175.822 211.731 176.143 211.724 176.464 211.724C177.962 211.696 179.425 211.649 180.86 211.573C181.181 211.553 181.503 211.539 181.817 211.505C182.966 211.43 184.087 211.348 185.188 211.231C185.509 211.204 185.823 211.163 186.145 211.136C187.792 210.958 189.371 210.732 190.882 210.486C191.204 210.432 191.532 210.377 191.846 210.315C193.692 209.987 195.415 209.598 197.001 209.174C197.322 209.078 197.644 208.982 197.958 208.893C199.401 208.476 200.713 208.018 201.875 207.512C202.21 207.369 202.532 207.219 202.839 207.075C203.79 206.61 204.617 206.132 205.314 205.632C205.67 205.366 205.998 205.106 206.278 204.839C207.262 203.903 207.789 202.918 207.789 201.886V197.114C207.789 198.147 207.262 199.138 206.278 200.068Z" fill="#CC9007"/>
<path d="M208.174 164.253C208.174 164.8 208.161 165.333 208.127 165.873C208.106 166.324 208.072 166.762 208.017 167.2C207.921 168.17 207.778 169.121 207.58 170.064C207.491 170.515 207.395 170.953 207.286 171.39C206.814 173.216 206.185 174.966 205.385 176.627C205.187 177.078 204.961 177.522 204.729 177.953C204.168 178.979 203.56 179.963 202.883 180.92C202.575 181.371 202.247 181.816 201.892 182.246C201.106 183.265 200.23 184.229 199.287 185.111C198.802 185.583 198.316 186.02 197.81 186.43C196.621 187.435 195.349 188.331 194.016 189.124C193.209 189.616 192.375 190.054 191.521 190.443C187.802 192.193 183.659 193.164 179.284 193.164H172.721V135.355C172.721 135.355 174.676 135.355 179.284 135.355C184.014 135.355 188.499 136.504 192.451 138.541C193.25 138.938 194.023 139.382 194.768 139.861C196.101 140.702 197.373 141.665 198.542 142.725C199.027 143.142 199.485 143.587 199.93 144.051C201.42 145.569 202.739 147.258 203.867 149.069C204.127 149.493 204.394 149.931 204.633 150.382C205.577 152.091 206.335 153.903 206.916 155.803C207.046 156.241 207.176 156.678 207.286 157.123C207.648 158.531 207.901 159.98 208.031 161.45C208.085 161.888 208.12 162.325 208.14 162.77C208.161 163.269 208.174 163.761 208.174 164.253Z" fill="#CC9007"/>
<path d="M208.131 165.873C208.111 166.324 208.077 166.762 208.022 167.199H199.955V165.873H208.131Z" fill="#AA7A06"/>
<path d="M207.585 170.056C207.496 170.507 207.4 170.945 207.291 171.383H197.371V170.056H207.585Z" fill="#AA7A06"/>
<path d="M205.384 176.619C205.185 177.07 204.96 177.515 204.727 177.945H194.965V176.619H205.384Z" fill="#AA7A06"/>
<path d="M202.882 180.906C202.574 181.357 202.246 181.802 201.89 182.232H191.752V180.906H202.882Z" fill="#AA7A06"/>
<path d="M199.286 185.097C198.801 185.568 198.315 186.006 197.809 186.416H188.32V185.097H199.286Z" fill="#AA7A06"/>
<path d="M194.015 189.11C193.209 189.602 192.375 190.04 191.52 190.429H183.371V189.11H194.015Z" fill="#AA7A06"/>
<path d="M208.139 162.775H199.402V161.456H208.03C208.085 161.894 208.119 162.331 208.139 162.775Z" fill="#AA7A06"/>
<path d="M207.285 157.123H198.404V155.803H206.909C207.046 156.241 207.175 156.678 207.285 157.123Z" fill="#AA7A06"/>
<path d="M204.633 150.374H195.732V149.062H203.868C204.128 149.492 204.394 149.93 204.633 150.374Z" fill="#AA7A06"/>
<path d="M199.929 144.044H190.023V142.718H198.542C199.02 143.135 199.478 143.586 199.929 144.044Z" fill="#AA7A06"/>
<path d="M194.768 139.86H185.17V138.541H192.451C193.251 138.93 194.023 139.375 194.768 139.86Z" fill="#AA7A06"/>
<path d="M201.617 164.253C201.617 180.216 188.683 193.151 172.72 193.151C156.764 193.151 143.822 180.216 143.822 164.253C143.822 148.297 156.764 135.355 172.72 135.355C188.683 135.355 201.617 148.29 201.617 164.253Z" fill="#FFD000"/>
<path d="M196.702 164.253C196.702 177.502 185.962 188.236 172.719 188.236C159.47 188.236 148.73 177.496 148.73 164.253C148.73 151.004 159.47 140.271 172.719 140.271C185.968 140.264 196.702 151.004 196.702 164.253Z" fill="#FCBC00"/>
<path d="M174.724 186.232C161.475 186.232 150.735 175.492 150.735 162.25C150.735 156.138 153.025 150.56 156.785 146.328C151.842 150.724 148.725 157.123 148.725 164.253C148.725 177.502 159.465 188.235 172.714 188.235C179.851 188.235 186.25 185.118 190.646 180.175C186.414 183.942 180.842 186.232 174.724 186.232Z" fill="#C57F0C"/>
<path d="M172.153 179.255V175.656C170.263 175.621 168.305 174.979 167.166 174.089L167.948 171.701C169.124 172.556 170.819 173.233 172.641 173.233C174.956 173.233 176.521 171.77 176.521 169.738C176.521 167.776 175.25 166.564 172.836 165.497C169.508 164.073 167.455 162.432 167.455 159.327C167.455 156.366 169.377 154.121 172.379 153.588V149.989H174.4V153.444C176.358 153.513 177.692 154.087 178.641 154.69L177.828 157.043C177.145 156.613 175.806 155.832 173.718 155.832C171.208 155.832 170.263 157.473 170.263 158.897C170.263 160.751 171.47 161.675 174.305 162.961C177.665 164.459 179.36 166.312 179.36 169.486C179.36 172.304 177.565 174.939 174.21 175.547V179.255H172.153Z" fill="#CC9007"/>
<g filter="url(#filter0_d_653_13728)">
<path d="M6 263.396C6 263.396 41.2375 251.768 54.7273 234.13C65.796 219.656 55.1391 199.917 70.5637 190.23C86.8637 179.994 102.898 207.633 119.291 197.547C136.888 186.721 117.582 160.428 132.691 146.331C149.18 130.946 171.118 151.421 189.946 139.014C217.349 120.957 192.603 64.6295 223.058 58.5324C253.512 52.4353 276.437 114.626 286.182 91.4568C295.928 68.2878 286.182 65.8489 295.928 52.4353C303.333 42.2431 310.546 58.5324 327.6 58.5324C344.655 58.5324 337.346 21.9496 337.346 21.9496" stroke="#6936F5" stroke-width="3.65827"/>
</g>
<g filter="url(#filter1_d_653_13728)">
<circle cx="221.837" cy="56.0935" r="6.09712" fill="#6936F5"/>
<circle cx="221.837" cy="56.0935" r="8.53597" stroke="white" stroke-width="4.8777"/>
</g>
<g filter="url(#filter2_d_653_13728)">
<mask id="path-101-inside-1_653_13728" fill="white">
<path fill-rule="evenodd" clip-rule="evenodd" d="M185.256 0C181.215 0 177.939 3.27572 177.939 7.31654V26.9978C177.939 31.0387 181.215 34.3144 185.256 34.3144H217.778L221.694 39.4229L225.61 34.3144H258.547C262.587 34.3144 265.863 31.0387 265.863 26.9979V7.31655C265.863 3.27573 262.587 0 258.547 0H185.256Z"/>
</mask>
<path fill-rule="evenodd" clip-rule="evenodd" d="M185.256 0C181.215 0 177.939 3.27572 177.939 7.31654V26.9978C177.939 31.0387 181.215 34.3144 185.256 34.3144H217.778L221.694 39.4229L225.61 34.3144H258.547C262.587 34.3144 265.863 31.0387 265.863 26.9979V7.31655C265.863 3.27573 262.587 0 258.547 0H185.256Z" fill="white"/>
<path d="M217.778 34.3144L218.745 33.5725L218.379 33.095H217.778V34.3144ZM221.694 39.4229L220.726 40.1648L221.694 41.4272L222.662 40.1648L221.694 39.4229ZM225.61 34.3144V33.095H225.009L224.642 33.5725L225.61 34.3144ZM179.159 7.31654C179.159 3.9492 181.889 1.21942 185.256 1.21942V-1.21942C180.542 -1.21942 176.72 2.60225 176.72 7.31654H179.159ZM179.159 26.9978V7.31654H176.72V26.9978H179.159ZM185.256 33.095C181.889 33.095 179.159 30.3652 179.159 26.9978H176.72C176.72 31.7121 180.542 35.5338 185.256 35.5338V33.095ZM217.778 33.095H185.256V35.5338H217.778V33.095ZM216.81 35.0563L220.726 40.1648L222.662 38.681L218.745 33.5725L216.81 35.0563ZM222.662 40.1648L226.578 35.0563L224.642 33.5725L220.726 38.681L222.662 40.1648ZM258.547 33.095H225.61V35.5338H258.547V33.095ZM264.644 26.9979C264.644 30.3652 261.914 33.095 258.547 33.095V35.5338C263.261 35.5338 267.083 31.7121 267.083 26.9979H264.644ZM264.644 7.31655V26.9979H267.083V7.31655H264.644ZM258.547 1.21942C261.914 1.21942 264.644 3.9492 264.644 7.31655H267.083C267.083 2.60226 263.261 -1.21942 258.547 -1.21942V1.21942ZM185.256 1.21942H258.547V-1.21942H185.256V1.21942Z" fill="white" mask="url(#path-101-inside-1_653_13728)"/>
</g>
<path d="M188.362 22.3166V12.0734H191.391L194.172 21.263H194.406V12.0734H195.986V22.3166H192.957L190.177 13.1123H189.943V22.3166H188.362ZM187.045 18.7753V17.5315H197.303V18.7753H187.045ZM187.045 16.7121V15.4829H197.303V16.7121H187.045ZM199.941 22.3166V21.9507C199.941 21.58 199.971 21.2727 200.029 21.0288C200.088 20.7752 200.21 20.4825 200.395 20.1509L204.053 13.6391V13.4489H198.302V12.0734H205.648V13.8879L201.8 20.7947C201.683 21.0093 201.6 21.2044 201.551 21.38C201.502 21.5459 201.478 21.7556 201.478 22.0093V22.3166H199.941ZM210.678 22.5214C209.488 22.5214 208.537 22.1849 207.825 21.5117C207.122 20.8289 206.771 19.8045 206.771 18.4388V15.9512C206.771 14.6147 207.122 13.6001 207.825 12.9075C208.537 12.2148 209.488 11.8685 210.678 11.8685C211.878 11.8685 212.829 12.2148 213.532 12.9075C214.244 13.6001 214.6 14.6147 214.6 15.9512V18.4388C214.6 19.8045 214.244 20.8289 213.532 21.5117C212.829 22.1849 211.878 22.5214 210.678 22.5214ZM210.678 21.1459C211.488 21.1459 212.088 20.9167 212.478 20.4582C212.868 19.9899 213.063 19.3363 213.063 18.4973V15.8634C213.063 15.0244 212.854 14.3805 212.434 13.9318C212.015 13.4733 211.429 13.244 210.678 13.244C209.917 13.244 209.332 13.4782 208.922 13.9464C208.513 14.4049 208.308 15.0439 208.308 15.8634V18.4973C208.308 19.3558 208.503 20.0143 208.893 20.4728C209.293 20.9215 209.888 21.1459 210.678 21.1459ZM220.11 22.5214C218.92 22.5214 217.968 22.1849 217.256 21.5117C216.554 20.8289 216.203 19.8045 216.203 18.4388V15.9512C216.203 14.6147 216.554 13.6001 217.256 12.9075C217.968 12.2148 218.92 11.8685 220.11 11.8685C221.31 11.8685 222.261 12.2148 222.963 12.9075C223.675 13.6001 224.031 14.6147 224.031 15.9512V18.4388C224.031 19.8045 223.675 20.8289 222.963 21.5117C222.261 22.1849 221.31 22.5214 220.11 22.5214ZM220.11 21.1459C220.919 21.1459 221.519 20.9167 221.91 20.4582C222.3 19.9899 222.495 19.3363 222.495 18.4973V15.8634C222.495 15.0244 222.285 14.3805 221.866 13.9318C221.446 13.4733 220.861 13.244 220.11 13.244C219.349 13.244 218.763 13.4782 218.354 13.9464C217.944 14.4049 217.739 15.0439 217.739 15.8634V18.4973C217.739 19.3558 217.934 20.0143 218.324 20.4728C218.724 20.9215 219.32 21.1459 220.11 21.1459ZM225.756 24.3067V23.4433H226.254C226.654 23.4433 226.853 23.2433 226.853 22.8434V22.3751H226.634C226.293 22.3751 226.01 22.2727 225.785 22.0678C225.561 21.8629 225.449 21.6044 225.449 21.2922C225.449 20.9508 225.561 20.6777 225.785 20.4728C226.01 20.2582 226.293 20.1509 226.634 20.1509C226.975 20.1509 227.253 20.263 227.468 20.4874C227.692 20.702 227.805 20.9849 227.805 21.3361V22.858C227.805 23.8238 227.322 24.3067 226.356 24.3067H225.756ZM233.142 22.5214C231.952 22.5214 231.001 22.1849 230.289 21.5117C229.586 20.8289 229.235 19.8045 229.235 18.4388V15.9512C229.235 14.6147 229.586 13.6001 230.289 12.9075C231.001 12.2148 231.952 11.8685 233.142 11.8685C234.342 11.8685 235.293 12.2148 235.996 12.9075C236.708 13.6001 237.064 14.6147 237.064 15.9512V18.4388C237.064 19.8045 236.708 20.8289 235.996 21.5117C235.293 22.1849 234.342 22.5214 233.142 22.5214ZM233.142 21.1459C233.952 21.1459 234.552 20.9167 234.942 20.4582C235.332 19.9899 235.527 19.3363 235.527 18.4973V15.8634C235.527 15.0244 235.318 14.3805 234.898 13.9318C234.479 13.4733 233.893 13.244 233.142 13.244C232.381 13.244 231.796 13.4782 231.386 13.9464C230.977 14.4049 230.772 15.0439 230.772 15.8634V18.4973C230.772 19.3558 230.967 20.0143 231.357 20.4728C231.757 20.9215 232.352 21.1459 233.142 21.1459ZM242.574 22.5214C241.384 22.5214 240.432 22.1849 239.72 21.5117C239.018 20.8289 238.667 19.8045 238.667 18.4388V15.9512C238.667 14.6147 239.018 13.6001 239.72 12.9075C240.432 12.2148 241.384 11.8685 242.574 11.8685C243.774 11.8685 244.725 12.2148 245.427 12.9075C246.139 13.6001 246.495 14.6147 246.495 15.9512V18.4388C246.495 19.8045 246.139 20.8289 245.427 21.5117C244.725 22.1849 243.774 22.5214 242.574 22.5214ZM242.574 21.1459C243.383 21.1459 243.983 20.9167 244.374 20.4582C244.764 19.9899 244.959 19.3363 244.959 18.4973V15.8634C244.959 15.0244 244.749 14.3805 244.33 13.9318C243.91 13.4733 243.325 13.244 242.574 13.244C241.813 13.244 241.228 13.4782 240.818 13.9464C240.408 14.4049 240.203 15.0439 240.203 15.8634V18.4973C240.203 19.3558 240.398 20.0143 240.789 20.4728C241.189 20.9215 241.784 21.1459 242.574 21.1459ZM252.005 22.5214C250.815 22.5214 249.864 22.1849 249.152 21.5117C248.449 20.8289 248.098 19.8045 248.098 18.4388V15.9512C248.098 14.6147 248.449 13.6001 249.152 12.9075C249.864 12.2148 250.815 11.8685 252.005 11.8685C253.205 11.8685 254.156 12.2148 254.859 12.9075C255.571 13.6001 255.927 14.6147 255.927 15.9512V18.4388C255.927 19.8045 255.571 20.8289 254.859 21.5117C254.156 22.1849 253.205 22.5214 252.005 22.5214ZM252.005 21.1459C252.815 21.1459 253.415 20.9167 253.805 20.4582C254.195 19.9899 254.39 19.3363 254.39 18.4973V15.8634C254.39 15.0244 254.181 14.3805 253.761 13.9318C253.342 13.4733 252.756 13.244 252.005 13.244C251.244 13.244 250.659 13.4782 250.249 13.9464C249.84 14.4049 249.635 15.0439 249.635 15.8634V18.4973C249.635 19.3558 249.83 20.0143 250.22 20.4728C250.62 20.9215 251.215 21.1459 252.005 21.1459Z" fill="#242739"/>
<defs>
<filter id="filter0_d_653_13728" x="0.548083" y="21.5924" width="345.062" height="253.295" filterUnits="userSpaceOnUse" color-interpolation-filters="sRGB">
<feFlood flood-opacity="0" result="BackgroundImageFix"/>
<feColorMatrix in="SourceAlpha" type="matrix" values="0 0 0 0 0 0 0 0 0 0 0 0 0 0 0 0 0 0 127 0" result="hardAlpha"/>
<feOffset dy="4.8777"/>
<feGaussianBlur stdDeviation="2.43885"/>
<feComposite in2="hardAlpha" operator="out"/>
<feColorMatrix type="matrix" values="0 0 0 0 0 0 0 0 0 0 0 0 0 0 0 0 0 0 0.25 0"/>
<feBlend mode="normal" in2="BackgroundImageFix" result="effect1_dropShadow_653_13728"/>
<feBlend mode="normal" in="SourceGraphic" in2="effect1_dropShadow_653_13728" result="shape"/>
</filter>
<filter id="filter1_d_653_13728" x="205.986" y="45.1187" width="31.7046" height="31.705" filterUnits="userSpaceOnUse" color-interpolation-filters="sRGB">
<feFlood flood-opacity="0" result="BackgroundImageFix"/>
<feColorMatrix in="SourceAlpha" type="matrix" values="0 0 0 0 0 0 0 0 0 0 0 0 0 0 0 0 0 0 127 0" result="hardAlpha"/>
<feOffset dy="4.8777"/>
<feGaussianBlur stdDeviation="2.43885"/>
<feComposite in2="hardAlpha" operator="out"/>
<feColorMatrix type="matrix" values="0 0 0 0 0 0 0 0 0 0 0 0 0 0 0 0 0 0 0.25 0"/>
<feBlend mode="normal" in2="BackgroundImageFix" result="effect1_dropShadow_653_13728"/>
<feBlend mode="normal" in="SourceGraphic" in2="effect1_dropShadow_653_13728" result="shape"/>
</filter>
<filter id="filter2_d_653_13728" x="173.062" y="0" width="97.6792" height="49.1783" filterUnits="userSpaceOnUse" color-interpolation-filters="sRGB">
<feFlood flood-opacity="0" result="BackgroundImageFix"/>
<feColorMatrix in="SourceAlpha" type="matrix" values="0 0 0 0 0 0 0 0 0 0 0 0 0 0 0 0 0 0 127 0" result="hardAlpha"/>
<feOffset dy="4.8777"/>
<feGaussianBlur stdDeviation="2.43885"/>
<feComposite in2="hardAlpha" operator="out"/>
<feColorMatrix type="matrix" values="0 0 0 0 0 0 0 0 0 0 0 0 0 0 0 0 0 0 0.08 0"/>
<feBlend mode="normal" in2="BackgroundImageFix" result="effect1_dropShadow_653_13728"/>
<feBlend mode="normal" in="SourceGraphic" in2="effect1_dropShadow_653_13728" result="shape"/>
</filter>
</defs>
</svg>
