<svg width="272" height="232" viewBox="0 0 272 232" fill="none" xmlns="http://www.w3.org/2000/svg">
<g clip-path="url(#clip0_653_14002)">
<path fill-rule="evenodd" clip-rule="evenodd" d="M88.345 92.9587C89.0025 92.6725 88.8096 91.6811 88.0914 91.6624C67.1796 91.1228 50.9649 92.6353 41.1111 94.5136C39.6598 94.7902 38.2303 93.8804 37.9032 92.4356L29.6596 55.969C29.3338 54.527 30.2113 53.1014 31.6564 52.8119C66.437 45.8396 149.821 44.0216 245.955 81.9963C247.268 82.5155 247.965 83.9729 247.533 85.3136L236.007 121.067C235.575 122.407 234.177 123.175 232.803 122.851C221.325 120.148 204.546 117.756 185.424 117.559C184.642 117.551 184.5 118.667 185.253 118.879C196.305 121.994 207.328 126.025 218.004 131.181C219.336 131.824 219.876 133.434 219.22 134.755L202.636 168.159C201.979 169.481 200.376 170.012 199.04 169.375C175.655 158.214 148.849 153.439 123.938 152.351C99.5969 151.287 78.3563 153.797 66.0294 156.386C64.8246 156.64 63.595 156.06 63.0373 154.958L46.1787 121.67C45.6226 120.571 45.8824 119.235 46.8216 118.447C59.7362 107.605 73.8248 99.2811 88.345 92.9587Z" fill="#C6B5F4" fill-opacity="0.15"/>
</g>
<defs>
<clipPath id="clip0_653_14002">
<rect width="198.255" height="188" fill="white" transform="translate(145.154 -41) rotate(50.5426)"/>
</clipPath>
</defs>
</svg>
