<svg width="32" height="32" viewBox="0 0 32 32" fill="none" xmlns="http://www.w3.org/2000/svg">
<circle cx="16" cy="16" r="15.5" fill="white" stroke="#DFE2E6"/>
<path d="M24.4505 16.5687L14.2933 6.40625V7.96623L22.8917 16.5687L22.8948 16.5721L15.447 24.0242L15.438 24.0152L7.99523 16.5687L7.9887 16.5621L11.6423 12.9062H10.0568L6.39941 16.5659L6.40252 16.5693L15.4346 25.6062L15.4377 25.6028L24.4583 16.5774L24.4505 16.5687Z" fill="#FE6309"/>
<path d="M14.0496 9.0415V10.6015L20.0188 16.5739L15.2099 21.386L10.3966 16.5708L10.3901 16.5642L14.044 12.9083H12.4584L8.80078 16.5661L8.80389 16.5695L14.413 22.1817L15.1974 22.9665L15.9949 22.1696L21.5829 16.5779L14.0496 9.0415Z" fill="#FE6309"/>
<path d="M18.7459 16.5678L15.7673 13.5844L14.9748 12.7915L14.1954 13.5713L11.2012 16.5644L14.1969 19.5618L14.9813 20.3466L15.7772 19.5496L18.7543 16.5759L18.7459 16.5678ZM14.9941 18.7704L12.7926 16.5678L12.7861 16.5613L14.982 14.3642L17.1834 16.5669L14.9941 18.7704Z" fill="#FE6309"/>
</svg>
