<svg width="343" height="248" viewBox="0 0 343 248" fill="none" xmlns="http://www.w3.org/2000/svg">
<rect x="0.5" y="0.5" width="342" height="247" rx="7.5" fill="white"/>
<path d="M106.088 32V30.464H107.592V22.336H106.088V20.8H111.768C112.44 20.8 113.027 20.9173 113.528 21.152C114.029 21.376 114.419 21.7013 114.696 22.128C114.984 22.544 115.128 23.04 115.128 23.616V23.776C115.128 24.288 115.032 24.7093 114.84 25.04C114.648 25.3707 114.413 25.6267 114.136 25.808C113.869 25.9893 113.613 26.1173 113.368 26.192V26.448C113.613 26.512 113.875 26.64 114.152 26.832C114.44 27.0133 114.68 27.2693 114.872 27.6C115.075 27.9307 115.176 28.3627 115.176 28.896V29.056C115.176 29.6747 115.032 30.2027 114.744 30.64C114.456 31.0773 114.056 31.4133 113.544 31.648C113.043 31.8827 112.461 32 111.8 32H106.088ZM109.336 30.432H111.592C112.168 30.432 112.621 30.2933 112.952 30.016C113.283 29.7387 113.448 29.3547 113.448 28.864V28.72C113.448 28.2293 113.283 27.8453 112.952 27.568C112.632 27.2907 112.179 27.152 111.592 27.152H109.336V30.432ZM109.336 25.568H111.592C112.136 25.568 112.573 25.4347 112.904 25.168C113.235 24.8907 113.4 24.5173 113.4 24.048V23.888C113.4 23.4187 113.235 23.0507 112.904 22.784C112.584 22.5067 112.147 22.368 111.592 22.368H109.336V25.568ZM120.857 32.224C120.068 32.224 119.364 32.064 118.745 31.744C118.137 31.4133 117.657 30.944 117.305 30.336C116.953 29.728 116.777 29.008 116.777 28.176V27.936C116.777 27.104 116.953 26.3893 117.305 25.792C117.657 25.184 118.137 24.7147 118.745 24.384C119.364 24.0533 120.068 23.888 120.857 23.888C121.647 23.888 122.351 24.0533 122.969 24.384C123.588 24.7147 124.073 25.184 124.425 25.792C124.777 26.3893 124.953 27.104 124.953 27.936V28.176C124.953 29.008 124.777 29.728 124.425 30.336C124.073 30.944 123.588 31.4133 122.969 31.744C122.351 32.064 121.647 32.224 120.857 32.224ZM120.857 30.752C121.583 30.752 122.169 30.5227 122.617 30.064C123.076 29.5947 123.305 28.9493 123.305 28.128V27.984C123.305 27.1627 123.081 26.5227 122.633 26.064C122.185 25.5947 121.593 25.36 120.857 25.36C120.143 25.36 119.556 25.5947 119.097 26.064C118.649 26.5227 118.425 27.1627 118.425 27.984V28.128C118.425 28.9493 118.649 29.5947 119.097 30.064C119.556 30.5227 120.143 30.752 120.857 30.752ZM127.005 32V24.112H128.621V25.04H128.877C129.005 24.7093 129.208 24.4693 129.485 24.32C129.773 24.16 130.125 24.08 130.541 24.08H131.485V25.568H130.477C129.944 25.568 129.506 25.7173 129.165 26.016C128.824 26.304 128.653 26.752 128.653 27.36V32H127.005ZM133.193 32V24.112H134.809V25.04H135.065C135.193 24.7093 135.395 24.4693 135.673 24.32C135.961 24.16 136.313 24.08 136.729 24.08H137.673V25.568H136.665C136.131 25.568 135.694 25.7173 135.353 26.016C135.011 26.304 134.841 26.752 134.841 27.36V32H133.193ZM142.795 32.224C142.005 32.224 141.301 32.064 140.683 31.744C140.075 31.4133 139.595 30.944 139.243 30.336C138.891 29.728 138.715 29.008 138.715 28.176V27.936C138.715 27.104 138.891 26.3893 139.243 25.792C139.595 25.184 140.075 24.7147 140.683 24.384C141.301 24.0533 142.005 23.888 142.795 23.888C143.584 23.888 144.288 24.0533 144.907 24.384C145.525 24.7147 146.011 25.184 146.363 25.792C146.715 26.3893 146.891 27.104 146.891 27.936V28.176C146.891 29.008 146.715 29.728 146.363 30.336C146.011 30.944 145.525 31.4133 144.907 31.744C144.288 32.064 143.584 32.224 142.795 32.224ZM142.795 30.752C143.52 30.752 144.107 30.5227 144.555 30.064C145.013 29.5947 145.243 28.9493 145.243 28.128V27.984C145.243 27.1627 145.019 26.5227 144.571 26.064C144.123 25.5947 143.531 25.36 142.795 25.36C142.08 25.36 141.493 25.5947 141.035 26.064C140.587 26.5227 140.363 27.1627 140.363 27.984V28.128C140.363 28.9493 140.587 29.5947 141.035 30.064C141.493 30.5227 142.08 30.752 142.795 30.752ZM149.713 32L148.369 24.112H150.017L151.009 30.896H151.265L152.641 24.112H155.313L156.673 30.896H156.929L157.921 24.112H159.569L158.225 32H155.457L154.097 25.232H153.841L152.481 32H149.713ZM161.521 32V24.112H163.169V32H161.521ZM162.353 23.04C162.033 23.04 161.761 22.9387 161.537 22.736C161.323 22.5227 161.217 22.2507 161.217 21.92C161.217 21.5893 161.323 21.3227 161.537 21.12C161.761 20.9067 162.033 20.8 162.353 20.8C162.683 20.8 162.955 20.9067 163.169 21.12C163.382 21.3227 163.489 21.5893 163.489 21.92C163.489 22.2507 163.382 22.5227 163.169 22.736C162.955 22.9387 162.683 23.04 162.353 23.04ZM165.614 32V24.112H167.23V25.296H167.486C167.636 24.976 167.902 24.6773 168.286 24.4C168.67 24.1227 169.241 23.984 169.998 23.984C170.596 23.984 171.124 24.1173 171.582 24.384C172.052 24.6507 172.42 25.0293 172.686 25.52C172.953 26 173.086 26.5813 173.086 27.264V32H171.438V27.392C171.438 26.7093 171.268 26.208 170.926 25.888C170.585 25.5573 170.116 25.392 169.518 25.392C168.836 25.392 168.286 25.616 167.87 26.064C167.465 26.512 167.262 27.1627 167.262 28.016V32H165.614ZM175.074 28.096V27.856C175.074 27.024 175.24 26.3147 175.57 25.728C175.912 25.1413 176.36 24.688 176.914 24.368C177.469 24.048 178.077 23.888 178.738 23.888C179.506 23.888 180.093 24.032 180.498 24.32C180.914 24.608 181.218 24.9173 181.41 25.248H181.666V24.112H183.266V33.616C183.266 34.096 183.122 34.48 182.834 34.768C182.557 35.056 182.173 35.2 181.682 35.2H176.37V33.76H181.17C181.48 33.76 181.634 33.6 181.634 33.28V30.768H181.378C181.261 30.96 181.096 31.1573 180.882 31.36C180.669 31.5627 180.386 31.728 180.034 31.856C179.693 31.984 179.261 32.048 178.738 32.048C178.077 32.048 177.464 31.8933 176.898 31.584C176.344 31.264 175.901 30.8107 175.57 30.224C175.24 29.6267 175.074 28.9173 175.074 28.096ZM179.186 30.608C179.901 30.608 180.488 30.384 180.946 29.936C181.416 29.4773 181.65 28.848 181.65 28.048V27.904C181.65 27.0827 181.421 26.4533 180.962 26.016C180.504 25.568 179.912 25.344 179.186 25.344C178.482 25.344 177.896 25.568 177.426 26.016C176.968 26.4533 176.738 27.0827 176.738 27.904V28.048C176.738 28.848 176.968 29.4773 177.426 29.936C177.896 30.384 178.482 30.608 179.186 30.608ZM189.771 35.2V24.112H191.387V25.248H191.643C191.845 24.896 192.149 24.5813 192.555 24.304C192.971 24.0267 193.563 23.888 194.331 23.888C194.992 23.888 195.595 24.048 196.139 24.368C196.693 24.688 197.136 25.152 197.467 25.76C197.808 26.3573 197.979 27.0827 197.979 27.936V28.176C197.979 29.0293 197.813 29.76 197.483 30.368C197.152 30.9653 196.709 31.424 196.155 31.744C195.6 32.064 194.992 32.224 194.331 32.224C193.819 32.224 193.387 32.16 193.035 32.032C192.683 31.904 192.4 31.744 192.187 31.552C191.973 31.3493 191.803 31.1413 191.675 30.928H191.419V35.2H189.771ZM193.851 30.784C194.576 30.784 195.168 30.5547 195.627 30.096C196.085 29.6373 196.315 28.9813 196.315 28.128V27.984C196.315 27.1413 196.08 26.4907 195.611 26.032C195.152 25.5733 194.565 25.344 193.851 25.344C193.147 25.344 192.56 25.5733 192.091 26.032C191.632 26.4907 191.403 27.1413 191.403 27.984V28.128C191.403 28.9813 191.632 29.6373 192.091 30.096C192.56 30.5547 193.147 30.784 193.851 30.784ZM203.717 32.224C202.927 32.224 202.223 32.064 201.605 31.744C200.997 31.4133 200.517 30.944 200.165 30.336C199.813 29.728 199.637 29.008 199.637 28.176V27.936C199.637 27.104 199.813 26.3893 200.165 25.792C200.517 25.184 200.997 24.7147 201.605 24.384C202.223 24.0533 202.927 23.888 203.717 23.888C204.506 23.888 205.21 24.0533 205.829 24.384C206.447 24.7147 206.933 25.184 207.285 25.792C207.637 26.3893 207.813 27.104 207.813 27.936V28.176C207.813 29.008 207.637 29.728 207.285 30.336C206.933 30.944 206.447 31.4133 205.829 31.744C205.21 32.064 204.506 32.224 203.717 32.224ZM203.717 30.752C204.442 30.752 205.029 30.5227 205.477 30.064C205.935 29.5947 206.165 28.9493 206.165 28.128V27.984C206.165 27.1627 205.941 26.5227 205.493 26.064C205.045 25.5947 204.453 25.36 203.717 25.36C203.002 25.36 202.415 25.5947 201.957 26.064C201.509 26.5227 201.285 27.1627 201.285 27.984V28.128C201.285 28.9493 201.509 29.5947 201.957 30.064C202.415 30.5227 203.002 30.752 203.717 30.752ZM210.635 32L209.291 24.112H210.939L211.931 30.896H212.187L213.563 24.112H216.235L217.595 30.896H217.851L218.843 24.112H220.491L219.147 32H216.379L215.019 25.232H214.763L213.403 32H210.635ZM225.965 32.224C225.165 32.224 224.466 32.0587 223.869 31.728C223.271 31.3867 222.802 30.912 222.461 30.304C222.13 29.6853 221.965 28.9707 221.965 28.16V27.968C221.965 27.1467 222.13 26.432 222.461 25.824C222.791 25.2053 223.25 24.7307 223.837 24.4C224.434 24.0587 225.122 23.888 225.901 23.888C226.658 23.888 227.319 24.0587 227.885 24.4C228.461 24.7307 228.909 25.1947 229.229 25.792C229.549 26.3893 229.709 27.088 229.709 27.888V28.512H223.645C223.666 29.2053 223.895 29.76 224.333 30.176C224.781 30.5813 225.335 30.784 225.997 30.784C226.615 30.784 227.079 30.6453 227.389 30.368C227.709 30.0907 227.954 29.7707 228.125 29.408L229.485 30.112C229.335 30.4107 229.117 30.7253 228.829 31.056C228.551 31.3867 228.183 31.664 227.725 31.888C227.266 32.112 226.679 32.224 225.965 32.224ZM223.661 27.248H228.029C227.986 26.6507 227.773 26.1867 227.389 25.856C227.005 25.5147 226.503 25.344 225.885 25.344C225.266 25.344 224.759 25.5147 224.365 25.856C223.981 26.1867 223.746 26.6507 223.661 27.248ZM231.693 32V24.112H233.309V25.04H233.565C233.693 24.7093 233.895 24.4693 234.173 24.32C234.461 24.16 234.813 24.08 235.229 24.08H236.173V25.568H235.165C234.631 25.568 234.194 25.7173 233.853 26.016C233.511 26.304 233.341 26.752 233.341 27.36V32H231.693Z" fill="#242739"/>
<path d="M83.23 203V196H84.31V202.02H87.68V203H83.23ZM90.2295 203.14C89.8761 203.14 89.5595 203.08 89.2795 202.96C89.0061 202.84 88.7861 202.663 88.6195 202.43C88.4595 202.197 88.3795 201.913 88.3795 201.58C88.3795 201.24 88.4595 200.96 88.6195 200.74C88.7861 200.513 89.0095 200.343 89.2895 200.23C89.5761 200.117 89.8995 200.06 90.2595 200.06H91.7595V199.74C91.7595 199.453 91.6728 199.223 91.4995 199.05C91.3261 198.877 91.0595 198.79 90.6995 198.79C90.3461 198.79 90.0761 198.873 89.8895 199.04C89.7028 199.207 89.5795 199.423 89.5195 199.69L88.5595 199.38C88.6395 199.113 88.7661 198.873 88.9395 198.66C89.1195 198.44 89.3561 198.263 89.6495 198.13C89.9428 197.997 90.2961 197.93 90.7095 197.93C91.3495 197.93 91.8528 198.093 92.2195 198.42C92.5861 198.747 92.7695 199.21 92.7695 199.81V201.84C92.7695 202.04 92.8628 202.14 93.0495 202.14H93.4695V203H92.6995C92.4661 203 92.2761 202.94 92.1295 202.82C91.9828 202.7 91.9095 202.537 91.9095 202.33V202.3H91.7595C91.7061 202.4 91.6261 202.517 91.5195 202.65C91.4128 202.783 91.2561 202.9 91.0495 203C90.8428 203.093 90.5695 203.14 90.2295 203.14ZM90.3795 202.29C90.7928 202.29 91.1261 202.173 91.3795 201.94C91.6328 201.7 91.7595 201.373 91.7595 200.96V200.86H90.3195C90.0461 200.86 89.8261 200.92 89.6595 201.04C89.4928 201.153 89.4095 201.323 89.4095 201.55C89.4095 201.777 89.4961 201.957 89.6695 202.09C89.8428 202.223 90.0795 202.29 90.3795 202.29ZM96.4519 203.14C95.8252 203.14 95.3052 203 94.8919 202.72C94.4785 202.44 94.2252 202.017 94.1319 201.45L95.0919 201.22C95.1452 201.493 95.2352 201.71 95.3619 201.87C95.4885 202.03 95.6452 202.143 95.8319 202.21C96.0252 202.277 96.2319 202.31 96.4519 202.31C96.7785 202.31 97.0285 202.247 97.2019 202.12C97.3819 201.993 97.4719 201.83 97.4719 201.63C97.4719 201.43 97.3885 201.283 97.2219 201.19C97.0552 201.097 96.8085 201.02 96.4819 200.96L96.1419 200.9C95.8085 200.84 95.5052 200.753 95.2319 200.64C94.9585 200.527 94.7419 200.37 94.5819 200.17C94.4219 199.97 94.3419 199.713 94.3419 199.4C94.3419 198.933 94.5152 198.573 94.8619 198.32C95.2085 198.06 95.6685 197.93 96.2419 197.93C96.7952 197.93 97.2485 198.057 97.6019 198.31C97.9619 198.557 98.1952 198.893 98.3019 199.32L97.3419 199.59C97.2819 199.29 97.1552 199.08 96.9619 198.96C96.7685 198.833 96.5285 198.77 96.2419 198.77C95.9619 198.77 95.7419 198.823 95.5819 198.93C95.4219 199.03 95.3419 199.173 95.3419 199.36C95.3419 199.56 95.4185 199.707 95.5719 199.8C95.7319 199.893 95.9452 199.963 96.2119 200.01L96.5619 200.07C96.9152 200.13 97.2385 200.213 97.5319 200.32C97.8252 200.427 98.0552 200.58 98.2219 200.78C98.3952 200.98 98.4819 201.247 98.4819 201.58C98.4819 202.073 98.2985 202.457 97.9319 202.73C97.5652 203.003 97.0719 203.14 96.4519 203.14ZM101.428 203C101.128 203 100.888 202.91 100.708 202.73C100.535 202.55 100.448 202.31 100.448 202.01V198.94H99.0884V198.07H100.448V196.44H101.478V198.07H102.948V198.94H101.478V201.83C101.478 202.03 101.572 202.13 101.758 202.13H102.788V203H101.428ZM108.597 203.09C108.224 203.09 107.891 203.007 107.597 202.84C107.304 202.673 107.074 202.437 106.907 202.13C106.741 201.823 106.657 201.457 106.657 201.03V198.07H107.687V200.96C107.687 201.387 107.794 201.703 108.007 201.91C108.221 202.11 108.517 202.21 108.897 202.21C109.317 202.21 109.654 202.07 109.907 201.79C110.167 201.503 110.297 201.093 110.297 200.56V198.07H111.327V203H110.317V202.26H110.157C110.064 202.46 109.897 202.65 109.657 202.83C109.417 203.003 109.064 203.09 108.597 203.09ZM112.85 205V198.07H113.86V198.78H114.02C114.147 198.56 114.337 198.363 114.59 198.19C114.85 198.017 115.22 197.93 115.7 197.93C116.113 197.93 116.49 198.03 116.83 198.23C117.177 198.43 117.453 198.72 117.66 199.1C117.873 199.473 117.98 199.927 117.98 200.46V200.61C117.98 201.143 117.877 201.6 117.67 201.98C117.463 202.353 117.187 202.64 116.84 202.84C116.493 203.04 116.113 203.14 115.7 203.14C115.38 203.14 115.11 203.1 114.89 203.02C114.67 202.94 114.493 202.84 114.36 202.72C114.227 202.593 114.12 202.463 114.04 202.33H113.88V205H112.85ZM115.4 202.24C115.853 202.24 116.223 202.097 116.51 201.81C116.797 201.523 116.94 201.113 116.94 200.58V200.49C116.94 199.963 116.793 199.557 116.5 199.27C116.213 198.983 115.847 198.84 115.4 198.84C114.96 198.84 114.593 198.983 114.3 199.27C114.013 199.557 113.87 199.963 113.87 200.49V200.58C113.87 201.113 114.013 201.523 114.3 201.81C114.593 202.097 114.96 202.24 115.4 202.24ZM121.296 203.14C120.889 203.14 120.513 203.04 120.166 202.84C119.819 202.64 119.539 202.353 119.326 201.98C119.119 201.6 119.016 201.143 119.016 200.61V200.46C119.016 199.933 119.119 199.48 119.326 199.1C119.533 198.72 119.809 198.43 120.156 198.23C120.503 198.03 120.883 197.93 121.296 197.93C121.616 197.93 121.883 197.97 122.096 198.05C122.316 198.13 122.496 198.233 122.636 198.36C122.776 198.48 122.883 198.607 122.956 198.74H123.116V196H124.146V203H123.136V202.3H122.976C122.849 202.513 122.656 202.707 122.396 202.88C122.143 203.053 121.776 203.14 121.296 203.14ZM121.586 202.24C122.033 202.24 122.399 202.097 122.686 201.81C122.979 201.523 123.126 201.113 123.126 200.58V200.49C123.126 199.963 122.983 199.557 122.696 199.27C122.409 198.983 122.039 198.84 121.586 198.84C121.146 198.84 120.779 198.983 120.486 199.27C120.199 199.557 120.056 199.963 120.056 200.49V200.58C120.056 201.113 120.199 201.523 120.486 201.81C120.779 202.097 121.146 202.24 121.586 202.24ZM127.192 203.14C126.839 203.14 126.522 203.08 126.242 202.96C125.969 202.84 125.749 202.663 125.582 202.43C125.422 202.197 125.342 201.913 125.342 201.58C125.342 201.24 125.422 200.96 125.582 200.74C125.749 200.513 125.972 200.343 126.252 200.23C126.539 200.117 126.862 200.06 127.222 200.06H128.722V199.74C128.722 199.453 128.636 199.223 128.462 199.05C128.289 198.877 128.022 198.79 127.662 198.79C127.309 198.79 127.039 198.873 126.852 199.04C126.666 199.207 126.542 199.423 126.482 199.69L125.522 199.38C125.602 199.113 125.729 198.873 125.902 198.66C126.082 198.44 126.319 198.263 126.612 198.13C126.906 197.997 127.259 197.93 127.672 197.93C128.312 197.93 128.816 198.093 129.182 198.42C129.549 198.747 129.732 199.21 129.732 199.81V201.84C129.732 202.04 129.826 202.14 130.012 202.14H130.432V203H129.662C129.429 203 129.239 202.94 129.092 202.82C128.946 202.7 128.872 202.537 128.872 202.33V202.3H128.722C128.669 202.4 128.589 202.517 128.482 202.65C128.376 202.783 128.219 202.9 128.012 203C127.806 203.093 127.532 203.14 127.192 203.14ZM127.342 202.29C127.756 202.29 128.089 202.173 128.342 201.94C128.596 201.7 128.722 201.373 128.722 200.96V200.86H127.282C127.009 200.86 126.789 200.92 126.622 201.04C126.456 201.153 126.372 201.323 126.372 201.55C126.372 201.777 126.459 201.957 126.632 202.09C126.806 202.223 127.042 202.29 127.342 202.29ZM132.942 203C132.642 203 132.402 202.91 132.222 202.73C132.049 202.55 131.962 202.31 131.962 202.01V198.94H130.602V198.07H131.962V196.44H132.992V198.07H134.462V198.94H132.992V201.83C132.992 202.03 133.085 202.13 133.272 202.13H134.302V203H132.942ZM137.756 203.14C137.256 203.14 136.82 203.037 136.446 202.83C136.073 202.617 135.78 202.32 135.566 201.94C135.36 201.553 135.256 201.107 135.256 200.6V200.48C135.256 199.967 135.36 199.52 135.566 199.14C135.773 198.753 136.06 198.457 136.426 198.25C136.8 198.037 137.23 197.93 137.716 197.93C138.19 197.93 138.603 198.037 138.956 198.25C139.316 198.457 139.596 198.747 139.796 199.12C139.996 199.493 140.096 199.93 140.096 200.43V200.82H136.306C136.32 201.253 136.463 201.6 136.736 201.86C137.016 202.113 137.363 202.24 137.776 202.24C138.163 202.24 138.453 202.153 138.646 201.98C138.846 201.807 139 201.607 139.106 201.38L139.956 201.82C139.863 202.007 139.726 202.203 139.546 202.41C139.373 202.617 139.143 202.79 138.856 202.93C138.57 203.07 138.203 203.14 137.756 203.14ZM136.316 200.03H139.046C139.02 199.657 138.886 199.367 138.646 199.16C138.406 198.947 138.093 198.84 137.706 198.84C137.32 198.84 137.003 198.947 136.756 199.16C136.516 199.367 136.37 199.657 136.316 200.03ZM143.376 203.14C142.97 203.14 142.593 203.04 142.246 202.84C141.9 202.64 141.62 202.353 141.406 201.98C141.2 201.6 141.096 201.143 141.096 200.61V200.46C141.096 199.933 141.2 199.48 141.406 199.1C141.613 198.72 141.89 198.43 142.236 198.23C142.583 198.03 142.963 197.93 143.376 197.93C143.696 197.93 143.963 197.97 144.176 198.05C144.396 198.13 144.576 198.233 144.716 198.36C144.856 198.48 144.963 198.607 145.036 198.74H145.196V196H146.226V203H145.216V202.3H145.056C144.93 202.513 144.736 202.707 144.476 202.88C144.223 203.053 143.856 203.14 143.376 203.14ZM143.666 202.24C144.113 202.24 144.48 202.097 144.766 201.81C145.06 201.523 145.206 201.113 145.206 200.58V200.49C145.206 199.963 145.063 199.557 144.776 199.27C144.49 198.983 144.12 198.84 143.666 198.84C143.226 198.84 142.86 198.983 142.566 199.27C142.28 199.557 142.136 199.963 142.136 200.49V200.58C142.136 201.113 142.28 201.523 142.566 201.81C142.86 202.097 143.226 202.24 143.666 202.24ZM148.362 203.14C148.129 203.14 147.932 203.063 147.772 202.91C147.619 202.757 147.542 202.56 147.542 202.32C147.542 202.08 147.619 201.887 147.772 201.74C147.932 201.587 148.129 201.51 148.362 201.51C148.596 201.51 148.789 201.587 148.942 201.74C149.102 201.893 149.182 202.087 149.182 202.32C149.182 202.56 149.102 202.757 148.942 202.91C148.789 203.063 148.596 203.14 148.362 203.14ZM148.362 199.57C148.129 199.57 147.932 199.493 147.772 199.34C147.619 199.187 147.542 198.99 147.542 198.75C147.542 198.51 147.619 198.317 147.772 198.17C147.932 198.017 148.129 197.94 148.362 197.94C148.596 197.94 148.789 198.017 148.942 198.17C149.102 198.323 149.182 198.517 149.182 198.75C149.182 198.99 149.102 199.187 148.942 199.34C148.789 199.493 148.596 199.57 148.362 199.57ZM158.064 203.14C157.25 203.14 156.6 202.91 156.114 202.45C155.634 201.983 155.394 201.283 155.394 200.35V198.65C155.394 197.737 155.634 197.043 156.114 196.57C156.6 196.097 157.25 195.86 158.064 195.86C158.884 195.86 159.534 196.097 160.014 196.57C160.5 197.043 160.744 197.737 160.744 198.65V200.35C160.744 201.283 160.5 201.983 160.014 202.45C159.534 202.91 158.884 203.14 158.064 203.14ZM158.064 202.2C158.617 202.2 159.027 202.043 159.294 201.73C159.56 201.41 159.694 200.963 159.694 200.39V198.59C159.694 198.017 159.55 197.577 159.264 197.27C158.977 196.957 158.577 196.8 158.064 196.8C157.544 196.8 157.144 196.96 156.864 197.28C156.584 197.593 156.444 198.03 156.444 198.59V200.39C156.444 200.977 156.577 201.427 156.844 201.74C157.117 202.047 157.524 202.2 158.064 202.2ZM163.859 203V196.74H163.699L162.549 199.1H161.439L162.989 196H164.909V203H163.859ZM167.015 203.14C166.781 203.14 166.585 203.063 166.425 202.91C166.271 202.757 166.195 202.56 166.195 202.32C166.195 202.08 166.271 201.887 166.425 201.74C166.585 201.587 166.781 201.51 167.015 201.51C167.248 201.51 167.441 201.587 167.595 201.74C167.755 201.893 167.835 202.087 167.835 202.32C167.835 202.56 167.755 202.757 167.595 202.91C167.441 203.063 167.248 203.14 167.015 203.14ZM167.015 199.57C166.781 199.57 166.585 199.493 166.425 199.34C166.271 199.187 166.195 198.99 166.195 198.75C166.195 198.51 166.271 198.317 166.425 198.17C166.585 198.017 166.781 197.94 167.015 197.94C167.248 197.94 167.441 198.017 167.595 198.17C167.755 198.323 167.835 198.517 167.835 198.75C167.835 198.99 167.755 199.187 167.595 199.34C167.441 199.493 167.248 199.57 167.015 199.57ZM171.438 203.14C170.925 203.14 170.468 203.047 170.068 202.86C169.668 202.673 169.355 202.403 169.128 202.05C168.908 201.697 168.798 201.277 168.798 200.79V200.61H169.848V200.77C169.848 201.21 169.992 201.56 170.278 201.82C170.572 202.073 170.958 202.2 171.438 202.2C171.918 202.2 172.292 202.08 172.558 201.84C172.825 201.6 172.958 201.297 172.958 200.93V200.84C172.958 200.58 172.895 200.37 172.768 200.21C172.642 200.05 172.472 199.933 172.258 199.86C172.045 199.78 171.805 199.74 171.538 199.74H170.268V198.53L172.728 197.08V196.94H168.968V196H173.868V197.42L171.518 198.82V198.96H171.948C172.302 198.96 172.635 199.027 172.948 199.16C173.262 199.293 173.515 199.497 173.708 199.77C173.908 200.043 174.008 200.39 174.008 200.81V200.93C174.008 201.377 173.902 201.767 173.688 202.1C173.475 202.427 173.175 202.683 172.788 202.87C172.402 203.05 171.952 203.14 171.438 203.14ZM177.483 203.14C176.956 203.14 176.5 203.043 176.113 202.85C175.726 202.657 175.426 202.383 175.213 202.03C175.006 201.677 174.903 201.267 174.903 200.8V200.69H175.973V200.79C175.973 201.217 176.103 201.56 176.363 201.82C176.63 202.073 177 202.2 177.473 202.2C177.96 202.2 178.336 202.067 178.603 201.8C178.87 201.533 179.003 201.173 179.003 200.72V200.63C179.003 200.197 178.87 199.85 178.603 199.59C178.343 199.33 178.01 199.2 177.603 199.2C177.376 199.2 177.186 199.237 177.033 199.31C176.886 199.377 176.766 199.46 176.673 199.56C176.586 199.66 176.513 199.757 176.453 199.85H175.123V196H179.813V196.95H176.173V199.01H176.333C176.4 198.897 176.493 198.79 176.613 198.69C176.74 198.583 176.903 198.497 177.103 198.43C177.303 198.363 177.543 198.33 177.823 198.33C178.236 198.33 178.61 198.42 178.943 198.6C179.283 198.773 179.553 199.033 179.753 199.38C179.953 199.72 180.053 200.133 180.053 200.62V200.73C180.053 201.217 179.95 201.64 179.743 202C179.536 202.36 179.24 202.64 178.853 202.84C178.473 203.04 178.016 203.14 177.483 203.14ZM183.728 203V196H186.508C186.935 196 187.315 196.087 187.648 196.26C187.988 196.427 188.251 196.667 188.438 196.98C188.631 197.287 188.728 197.657 188.728 198.09V198.22C188.728 198.653 188.628 199.027 188.428 199.34C188.235 199.653 187.971 199.893 187.638 200.06C187.305 200.227 186.928 200.31 186.508 200.31H184.808V203H183.728ZM184.808 199.33H186.398C186.778 199.33 187.081 199.23 187.308 199.03C187.535 198.83 187.648 198.557 187.648 198.21V198.11C187.648 197.757 187.535 197.48 187.308 197.28C187.081 197.08 186.778 196.98 186.398 196.98H184.808V199.33ZM189.753 203V196H191.783L193.313 202.28H193.473L195.003 196H197.033V203H195.983V196.76H195.823L194.303 203H192.483L190.963 196.76H190.803V203H189.753ZM198.534 204.36V203.77H198.874C199.147 203.77 199.284 203.633 199.284 203.36V203.04H199.134C198.9 203.04 198.707 202.97 198.554 202.83C198.4 202.69 198.324 202.513 198.324 202.3C198.324 202.067 198.4 201.88 198.554 201.74C198.707 201.593 198.9 201.52 199.134 201.52C199.367 201.52 199.557 201.597 199.704 201.75C199.857 201.897 199.934 202.09 199.934 202.33V203.37C199.934 204.03 199.604 204.36 198.944 204.36H198.534ZM205.304 203V196.74H205.144L203.994 199.1H202.884L204.434 196H206.354V203H205.304ZM210.08 203.14C209.56 203.14 209.113 203.053 208.74 202.88C208.367 202.7 208.08 202.45 207.88 202.13C207.68 201.803 207.58 201.423 207.58 200.99H208.65C208.65 201.337 208.763 201.627 208.99 201.86C209.223 202.087 209.587 202.2 210.08 202.2C210.58 202.2 210.963 202.067 211.23 201.8C211.497 201.533 211.63 201.17 211.63 200.71V199.87H211.47C211.357 200.03 211.173 200.183 210.92 200.33C210.667 200.477 210.3 200.55 209.82 200.55C209.413 200.55 209.037 200.46 208.69 200.28C208.343 200.1 208.063 199.843 207.85 199.51C207.643 199.17 207.54 198.767 207.54 198.3V198.18C207.54 197.713 207.647 197.307 207.86 196.96C208.08 196.613 208.383 196.343 208.77 196.15C209.163 195.957 209.613 195.86 210.12 195.86C210.633 195.86 211.08 195.96 211.46 196.16C211.847 196.353 212.147 196.627 212.36 196.98C212.573 197.327 212.68 197.737 212.68 198.21V200.63C212.68 201.177 212.57 201.637 212.35 202.01C212.137 202.383 211.833 202.667 211.44 202.86C211.053 203.047 210.6 203.14 210.08 203.14ZM210.11 199.7C210.417 199.7 210.683 199.64 210.91 199.52C211.137 199.4 211.313 199.237 211.44 199.03C211.567 198.817 211.63 198.567 211.63 198.28V198.2C211.63 197.767 211.49 197.427 211.21 197.18C210.937 196.927 210.57 196.8 210.11 196.8C209.65 196.8 209.28 196.927 209 197.18C208.727 197.427 208.59 197.767 208.59 198.2V198.28C208.59 198.567 208.65 198.817 208.77 199.03C208.897 199.237 209.073 199.4 209.3 199.52C209.533 199.64 209.803 199.7 210.11 199.7ZM213.972 200.91V199.97H216.932V200.91H213.972ZM220.886 203.14C220.073 203.14 219.423 202.91 218.936 202.45C218.456 201.983 218.216 201.283 218.216 200.35V198.65C218.216 197.737 218.456 197.043 218.936 196.57C219.423 196.097 220.073 195.86 220.886 195.86C221.706 195.86 222.356 196.097 222.836 196.57C223.323 197.043 223.566 197.737 223.566 198.65V200.35C223.566 201.283 223.323 201.983 222.836 202.45C222.356 202.91 221.706 203.14 220.886 203.14ZM220.886 202.2C221.439 202.2 221.849 202.043 222.116 201.73C222.383 201.41 222.516 200.963 222.516 200.39V198.59C222.516 198.017 222.373 197.577 222.086 197.27C221.799 196.957 221.399 196.8 220.886 196.8C220.366 196.8 219.966 196.96 219.686 197.28C219.406 197.593 219.266 198.03 219.266 198.59V200.39C219.266 200.977 219.399 201.427 219.666 201.74C219.939 202.047 220.346 202.2 220.886 202.2ZM227.131 203.14C226.605 203.14 226.148 203.043 225.761 202.85C225.375 202.657 225.075 202.383 224.861 202.03C224.655 201.677 224.551 201.267 224.551 200.8V200.69H225.621V200.79C225.621 201.217 225.751 201.56 226.011 201.82C226.278 202.073 226.648 202.2 227.121 202.2C227.608 202.2 227.985 202.067 228.251 201.8C228.518 201.533 228.651 201.173 228.651 200.72V200.63C228.651 200.197 228.518 199.85 228.251 199.59C227.991 199.33 227.658 199.2 227.251 199.2C227.025 199.2 226.835 199.237 226.681 199.31C226.535 199.377 226.415 199.46 226.321 199.56C226.235 199.66 226.161 199.757 226.101 199.85H224.771V196H229.461V196.95H225.821V199.01H225.981C226.048 198.897 226.141 198.79 226.261 198.69C226.388 198.583 226.551 198.497 226.751 198.43C226.951 198.363 227.191 198.33 227.471 198.33C227.885 198.33 228.258 198.42 228.591 198.6C228.931 198.773 229.201 199.033 229.401 199.38C229.601 199.72 229.701 200.133 229.701 200.62V200.73C229.701 201.217 229.598 201.64 229.391 202C229.185 202.36 228.888 202.64 228.501 202.84C228.121 203.04 227.665 203.14 227.131 203.14ZM230.838 200.91V199.97H233.798V200.91H230.838ZM235.011 203V202.21C235.011 201.723 235.095 201.323 235.261 201.01C235.428 200.697 235.665 200.443 235.971 200.25C236.285 200.05 236.661 199.883 237.101 199.75L237.711 199.56C237.985 199.473 238.218 199.367 238.411 199.24C238.611 199.113 238.765 198.957 238.871 198.77C238.978 198.577 239.031 198.353 239.031 198.1V198.06C239.031 197.667 238.898 197.36 238.631 197.14C238.365 196.913 238.015 196.8 237.581 196.8C237.135 196.8 236.771 196.92 236.491 197.16C236.218 197.4 236.081 197.753 236.081 198.22V198.38H235.041V198.23C235.041 197.723 235.151 197.297 235.371 196.95C235.591 196.597 235.895 196.327 236.281 196.14C236.668 195.953 237.101 195.86 237.581 195.86C238.061 195.86 238.488 195.95 238.861 196.13C239.241 196.31 239.538 196.563 239.751 196.89C239.971 197.217 240.081 197.6 240.081 198.04V198.13C240.081 198.583 239.991 198.96 239.811 199.26C239.631 199.56 239.381 199.807 239.061 200C238.748 200.193 238.385 200.357 237.971 200.49L237.381 200.67C237.068 200.763 236.815 200.867 236.621 200.98C236.435 201.087 236.295 201.217 236.201 201.37C236.115 201.523 236.071 201.72 236.071 201.96V202.06H240.021V203H235.011ZM243.728 203.14C242.914 203.14 242.264 202.91 241.778 202.45C241.298 201.983 241.058 201.283 241.058 200.35V198.65C241.058 197.737 241.298 197.043 241.778 196.57C242.264 196.097 242.914 195.86 243.728 195.86C244.548 195.86 245.198 196.097 245.678 196.57C246.164 197.043 246.408 197.737 246.408 198.65V200.35C246.408 201.283 246.164 201.983 245.678 202.45C245.198 202.91 244.548 203.14 243.728 203.14ZM243.728 202.2C244.281 202.2 244.691 202.043 244.958 201.73C245.224 201.41 245.358 200.963 245.358 200.39V198.59C245.358 198.017 245.214 197.577 244.928 197.27C244.641 196.957 244.241 196.8 243.728 196.8C243.208 196.8 242.808 196.96 242.528 197.28C242.248 197.593 242.108 198.03 242.108 198.59V200.39C242.108 200.977 242.241 201.427 242.508 201.74C242.781 202.047 243.188 202.2 243.728 202.2ZM247.433 203V202.21C247.433 201.723 247.516 201.323 247.683 201.01C247.85 200.697 248.086 200.443 248.393 200.25C248.706 200.05 249.083 199.883 249.523 199.75L250.133 199.56C250.406 199.473 250.64 199.367 250.833 199.24C251.033 199.113 251.186 198.957 251.293 198.77C251.4 198.577 251.453 198.353 251.453 198.1V198.06C251.453 197.667 251.32 197.36 251.053 197.14C250.786 196.913 250.436 196.8 250.003 196.8C249.556 196.8 249.193 196.92 248.913 197.16C248.64 197.4 248.503 197.753 248.503 198.22V198.38H247.463V198.23C247.463 197.723 247.573 197.297 247.793 196.95C248.013 196.597 248.316 196.327 248.703 196.14C249.09 195.953 249.523 195.86 250.003 195.86C250.483 195.86 250.91 195.95 251.283 196.13C251.663 196.31 251.96 196.563 252.173 196.89C252.393 197.217 252.503 197.6 252.503 198.04V198.13C252.503 198.583 252.413 198.96 252.233 199.26C252.053 199.56 251.803 199.807 251.483 200C251.17 200.193 250.806 200.357 250.393 200.49L249.803 200.67C249.49 200.763 249.236 200.867 249.043 200.98C248.856 201.087 248.716 201.217 248.623 201.37C248.536 201.523 248.493 201.72 248.493 201.96V202.06H252.443V203H247.433ZM255.95 203.14C255.437 203.14 254.98 203.047 254.58 202.86C254.18 202.673 253.867 202.403 253.64 202.05C253.42 201.697 253.31 201.277 253.31 200.79V200.61H254.36V200.77C254.36 201.21 254.503 201.56 254.79 201.82C255.083 202.073 255.47 202.2 255.95 202.2C256.43 202.2 256.803 202.08 257.07 201.84C257.337 201.6 257.47 201.297 257.47 200.93V200.84C257.47 200.58 257.407 200.37 257.28 200.21C257.153 200.05 256.983 199.933 256.77 199.86C256.557 199.78 256.317 199.74 256.05 199.74H254.78V198.53L257.24 197.08V196.94H253.48V196H258.38V197.42L256.03 198.82V198.96H256.46C256.813 198.96 257.147 199.027 257.46 199.16C257.773 199.293 258.027 199.497 258.22 199.77C258.42 200.043 258.52 200.39 258.52 200.81V200.93C258.52 201.377 258.413 201.767 258.2 202.1C257.987 202.427 257.687 202.683 257.3 202.87C256.913 203.05 256.463 203.14 255.95 203.14Z" fill="#242739"/>
<path d="M110.854 228.196C110.117 228.196 109.463 228.065 108.894 227.804C108.325 227.543 107.877 227.16 107.55 226.656C107.233 226.143 107.074 225.522 107.074 224.794V224.444H108.572V224.794C108.572 225.485 108.777 226.003 109.188 226.348C109.608 226.693 110.163 226.866 110.854 226.866C111.554 226.866 112.081 226.721 112.436 226.432C112.791 226.133 112.968 225.751 112.968 225.284C112.968 224.976 112.884 224.724 112.716 224.528C112.548 224.332 112.31 224.178 112.002 224.066C111.694 223.945 111.325 223.833 110.896 223.73L110.378 223.604C109.753 223.455 109.207 223.273 108.74 223.058C108.283 222.834 107.928 222.54 107.676 222.176C107.424 221.812 107.298 221.345 107.298 220.776C107.298 220.197 107.438 219.703 107.718 219.292C108.007 218.881 108.404 218.564 108.908 218.34C109.412 218.116 110.005 218.004 110.686 218.004C111.367 218.004 111.974 218.121 112.506 218.354C113.047 218.587 113.472 218.933 113.78 219.39C114.088 219.847 114.242 220.421 114.242 221.112V221.616H112.744V221.112C112.744 220.692 112.655 220.351 112.478 220.09C112.31 219.829 112.072 219.637 111.764 219.516C111.456 219.395 111.097 219.334 110.686 219.334C110.089 219.334 109.622 219.46 109.286 219.712C108.959 219.955 108.796 220.295 108.796 220.734C108.796 221.033 108.866 221.28 109.006 221.476C109.155 221.663 109.37 221.817 109.65 221.938C109.93 222.059 110.28 222.167 110.7 222.26L111.218 222.386C111.853 222.526 112.413 222.708 112.898 222.932C113.383 223.147 113.766 223.441 114.046 223.814C114.326 224.187 114.466 224.668 114.466 225.256C114.466 225.844 114.317 226.357 114.018 226.796C113.729 227.235 113.313 227.58 112.772 227.832C112.231 228.075 111.591 228.196 110.854 228.196ZM119.259 228.196C118.559 228.196 117.948 228.051 117.425 227.762C116.903 227.463 116.492 227.048 116.193 226.516C115.904 225.975 115.759 225.349 115.759 224.64V224.472C115.759 223.753 115.904 223.128 116.193 222.596C116.483 222.055 116.884 221.639 117.397 221.35C117.92 221.051 118.522 220.902 119.203 220.902C119.866 220.902 120.445 221.051 120.939 221.35C121.443 221.639 121.835 222.045 122.115 222.568C122.395 223.091 122.535 223.702 122.535 224.402V224.948H117.229C117.248 225.555 117.449 226.04 117.831 226.404C118.223 226.759 118.709 226.936 119.287 226.936C119.829 226.936 120.235 226.815 120.505 226.572C120.785 226.329 121 226.049 121.149 225.732L122.339 226.348C122.209 226.609 122.017 226.885 121.765 227.174C121.523 227.463 121.201 227.706 120.799 227.902C120.398 228.098 119.885 228.196 119.259 228.196ZM117.243 223.842H121.065C121.028 223.319 120.841 222.913 120.505 222.624C120.169 222.325 119.731 222.176 119.189 222.176C118.648 222.176 118.205 222.325 117.859 222.624C117.523 222.913 117.318 223.319 117.243 223.842ZM127.435 228.196C126.735 228.196 126.124 228.051 125.601 227.762C125.078 227.463 124.668 227.048 124.369 226.516C124.08 225.975 123.935 225.349 123.935 224.64V224.472C123.935 223.753 124.08 223.128 124.369 222.596C124.658 222.055 125.06 221.639 125.573 221.35C126.096 221.051 126.698 220.902 127.379 220.902C128.042 220.902 128.62 221.051 129.115 221.35C129.619 221.639 130.011 222.045 130.291 222.568C130.571 223.091 130.711 223.702 130.711 224.402V224.948H125.405C125.424 225.555 125.624 226.04 126.007 226.404C126.399 226.759 126.884 226.936 127.463 226.936C128.004 226.936 128.41 226.815 128.681 226.572C128.961 226.329 129.176 226.049 129.325 225.732L130.515 226.348C130.384 226.609 130.193 226.885 129.941 227.174C129.698 227.463 129.376 227.706 128.975 227.902C128.574 228.098 128.06 228.196 127.435 228.196ZM125.419 223.842H129.241C129.204 223.319 129.017 222.913 128.681 222.624C128.345 222.325 127.906 222.176 127.365 222.176C126.824 222.176 126.38 222.325 126.035 222.624C125.699 222.913 125.494 223.319 125.419 223.842ZM136.015 228V218.2H137.457V228H136.015ZM142.831 228.196C142.141 228.196 141.525 228.056 140.983 227.776C140.451 227.487 140.031 227.076 139.723 226.544C139.415 226.012 139.261 225.382 139.261 224.654V224.444C139.261 223.716 139.415 223.091 139.723 222.568C140.031 222.036 140.451 221.625 140.983 221.336C141.525 221.047 142.141 220.902 142.831 220.902C143.522 220.902 144.138 221.047 144.679 221.336C145.221 221.625 145.645 222.036 145.953 222.568C146.261 223.091 146.415 223.716 146.415 224.444V224.654C146.415 225.382 146.261 226.012 145.953 226.544C145.645 227.076 145.221 227.487 144.679 227.776C144.138 228.056 143.522 228.196 142.831 228.196ZM142.831 226.908C143.466 226.908 143.979 226.707 144.371 226.306C144.773 225.895 144.973 225.331 144.973 224.612V224.486C144.973 223.767 144.777 223.207 144.385 222.806C143.993 222.395 143.475 222.19 142.831 222.19C142.206 222.19 141.693 222.395 141.291 222.806C140.899 223.207 140.703 223.767 140.703 224.486V224.612C140.703 225.331 140.899 225.895 141.291 226.306C141.693 226.707 142.206 226.908 142.831 226.908ZM150.352 228.196C149.858 228.196 149.414 228.112 149.022 227.944C148.64 227.776 148.332 227.529 148.098 227.202C147.874 226.875 147.762 226.479 147.762 226.012C147.762 225.536 147.874 225.144 148.098 224.836C148.332 224.519 148.644 224.281 149.036 224.122C149.438 223.963 149.89 223.884 150.394 223.884H152.494V223.436C152.494 223.035 152.373 222.713 152.13 222.47C151.888 222.227 151.514 222.106 151.01 222.106C150.516 222.106 150.138 222.223 149.876 222.456C149.615 222.689 149.442 222.993 149.358 223.366L148.014 222.932C148.126 222.559 148.304 222.223 148.546 221.924C148.798 221.616 149.13 221.369 149.54 221.182C149.951 220.995 150.446 220.902 151.024 220.902C151.92 220.902 152.625 221.131 153.138 221.588C153.652 222.045 153.908 222.694 153.908 223.534V226.376C153.908 226.656 154.039 226.796 154.3 226.796H154.888V228H153.81C153.484 228 153.218 227.916 153.012 227.748C152.807 227.58 152.704 227.351 152.704 227.062V227.02H152.494C152.42 227.16 152.308 227.323 152.158 227.51C152.009 227.697 151.79 227.86 151.5 228C151.211 228.131 150.828 228.196 150.352 228.196ZM150.562 227.006C151.141 227.006 151.608 226.843 151.962 226.516C152.317 226.18 152.494 225.723 152.494 225.144V225.004H150.478C150.096 225.004 149.788 225.088 149.554 225.256C149.321 225.415 149.204 225.653 149.204 225.97C149.204 226.287 149.326 226.539 149.568 226.726C149.811 226.913 150.142 227.006 150.562 227.006ZM156.291 228V221.098H157.705V222.134H157.929C158.059 221.854 158.293 221.593 158.629 221.35C158.965 221.107 159.464 220.986 160.127 220.986C160.649 220.986 161.111 221.103 161.513 221.336C161.923 221.569 162.245 221.901 162.479 222.33C162.712 222.75 162.829 223.259 162.829 223.856V228H161.387V223.968C161.387 223.371 161.237 222.932 160.939 222.652C160.64 222.363 160.229 222.218 159.707 222.218C159.109 222.218 158.629 222.414 158.265 222.806C157.91 223.198 157.733 223.767 157.733 224.514V228H156.291ZM171.706 228.196C171.016 228.196 170.4 228.056 169.858 227.776C169.326 227.487 168.906 227.076 168.598 226.544C168.29 226.012 168.136 225.382 168.136 224.654V224.444C168.136 223.716 168.29 223.091 168.598 222.568C168.906 222.036 169.326 221.625 169.858 221.336C170.4 221.047 171.016 220.902 171.706 220.902C172.397 220.902 173.013 221.047 173.554 221.336C174.096 221.625 174.52 222.036 174.828 222.568C175.136 223.091 175.29 223.716 175.29 224.444V224.654C175.29 225.382 175.136 226.012 174.828 226.544C174.52 227.076 174.096 227.487 173.554 227.776C173.013 228.056 172.397 228.196 171.706 228.196ZM171.706 226.908C172.341 226.908 172.854 226.707 173.246 226.306C173.648 225.895 173.848 225.331 173.848 224.612V224.486C173.848 223.767 173.652 223.207 173.26 222.806C172.868 222.395 172.35 222.19 171.706 222.19C171.081 222.19 170.568 222.395 170.166 222.806C169.774 223.207 169.578 223.767 169.578 224.486V224.612C169.578 225.331 169.774 225.895 170.166 226.306C170.568 226.707 171.081 226.908 171.706 226.908ZM178.072 228V222.316H176.14V221.098H178.072V219.586C178.072 219.166 178.198 218.83 178.45 218.578C178.702 218.326 179.038 218.2 179.458 218.2H181.236V219.418H179.92C179.649 219.418 179.514 219.558 179.514 219.838V221.098H181.502V222.316H179.514V228H178.072ZM182.611 228V222.316H180.679V221.098H182.611V219.586C182.611 219.166 182.737 218.83 182.989 218.578C183.241 218.326 183.577 218.2 183.997 218.2H185.775V219.418H184.459C184.188 219.418 184.053 219.558 184.053 219.838V221.098H186.041V222.316H184.053V228H182.611ZM190.394 228.196C189.694 228.196 189.083 228.051 188.56 227.762C188.037 227.463 187.627 227.048 187.328 226.516C187.039 225.975 186.894 225.349 186.894 224.64V224.472C186.894 223.753 187.039 223.128 187.328 222.596C187.617 222.055 188.019 221.639 188.532 221.35C189.055 221.051 189.657 220.902 190.338 220.902C191.001 220.902 191.579 221.051 192.074 221.35C192.578 221.639 192.97 222.045 193.25 222.568C193.53 223.091 193.67 223.702 193.67 224.402V224.948H188.364C188.383 225.555 188.583 226.04 188.966 226.404C189.358 226.759 189.843 226.936 190.422 226.936C190.963 226.936 191.369 226.815 191.64 226.572C191.92 226.329 192.135 226.049 192.284 225.732L193.474 226.348C193.343 226.609 193.152 226.885 192.9 227.174C192.657 227.463 192.335 227.706 191.934 227.902C191.533 228.098 191.019 228.196 190.394 228.196ZM188.378 223.842H192.2C192.163 223.319 191.976 222.913 191.64 222.624C191.304 222.325 190.865 222.176 190.324 222.176C189.783 222.176 189.339 222.325 188.994 222.624C188.658 222.913 188.453 223.319 188.378 223.842ZM195.406 228V221.098H196.82V221.91H197.044C197.156 221.621 197.333 221.411 197.576 221.28C197.828 221.14 198.136 221.07 198.5 221.07H199.326V222.372H198.444C197.977 222.372 197.594 222.503 197.296 222.764C196.997 223.016 196.848 223.408 196.848 223.94V228H195.406ZM203.497 228.196C202.62 228.196 201.892 228 201.313 227.608C200.735 227.216 200.38 226.623 200.249 225.83L201.593 225.508C201.668 225.891 201.794 226.194 201.971 226.418C202.149 226.642 202.368 226.801 202.629 226.894C202.9 226.987 203.189 227.034 203.497 227.034C203.955 227.034 204.305 226.945 204.547 226.768C204.799 226.591 204.925 226.362 204.925 226.082C204.925 225.802 204.809 225.597 204.575 225.466C204.342 225.335 203.997 225.228 203.539 225.144L203.063 225.06C202.597 224.976 202.172 224.855 201.789 224.696C201.407 224.537 201.103 224.318 200.879 224.038C200.655 223.758 200.543 223.399 200.543 222.96C200.543 222.307 200.786 221.803 201.271 221.448C201.757 221.084 202.401 220.902 203.203 220.902C203.978 220.902 204.613 221.079 205.107 221.434C205.611 221.779 205.938 222.251 206.087 222.848L204.743 223.226C204.659 222.806 204.482 222.512 204.211 222.344C203.941 222.167 203.605 222.078 203.203 222.078C202.811 222.078 202.503 222.153 202.279 222.302C202.055 222.442 201.943 222.643 201.943 222.904C201.943 223.184 202.051 223.389 202.265 223.52C202.489 223.651 202.788 223.749 203.161 223.814L203.651 223.898C204.146 223.982 204.599 224.099 205.009 224.248C205.42 224.397 205.742 224.612 205.975 224.892C206.218 225.172 206.339 225.545 206.339 226.012C206.339 226.703 206.083 227.239 205.569 227.622C205.056 228.005 204.365 228.196 203.497 228.196Z" fill="#6936F5"/>
<g clip-path="url(#clip0_673_14245)">
<path d="M228 229L234 223L228 217" stroke="#6936F5" stroke-width="2" stroke-linecap="square" stroke-linejoin="round"/>
<path d="M213.5 223H232.5" stroke="#6936F5" stroke-width="2"/>
</g>
<rect x="35.5" y="77.5" width="271" height="30" rx="7.5" fill="#F8F9FD" stroke="#374CBA"/>
<path d="M38.9963 128.168C38.0443 128.168 37.2843 127.888 36.7163 127.328C36.1563 126.76 35.8763 125.912 35.8763 124.784V122.816C35.8763 121.696 36.1563 120.852 36.7163 120.284C37.2843 119.716 38.0443 119.432 38.9963 119.432C39.9563 119.432 40.7163 119.716 41.2763 120.284C41.8443 120.852 42.1283 121.696 42.1283 122.816V124.784C42.1283 125.912 41.8443 126.76 41.2763 127.328C40.7163 127.888 39.9563 128.168 38.9963 128.168ZM38.9963 127.292C39.7163 127.292 40.2563 127.076 40.6163 126.644C40.9763 126.212 41.1562 125.608 41.1562 124.832V122.756C41.1562 121.98 40.9723 121.38 40.6043 120.956C40.2363 120.524 39.7003 120.308 38.9963 120.308C38.2923 120.308 37.7563 120.524 37.3883 120.956C37.0283 121.388 36.8483 121.988 36.8483 122.756V124.832C36.8483 125.616 37.0283 126.224 37.3883 126.656C37.7483 127.08 38.2843 127.292 38.9963 127.292Z" fill="#242739"/>
<path d="M298.084 128V120.248H297.904L296.272 123.236H295.216L297.22 119.6H299.056V128H298.084ZM303.856 128.168C302.904 128.168 302.144 127.888 301.576 127.328C301.016 126.76 300.736 125.912 300.736 124.784V122.816C300.736 121.696 301.016 120.852 301.576 120.284C302.144 119.716 302.904 119.432 303.856 119.432C304.816 119.432 305.576 119.716 306.136 120.284C306.704 120.852 306.988 121.696 306.988 122.816V124.784C306.988 125.912 306.704 126.76 306.136 127.328C305.576 127.888 304.816 128.168 303.856 128.168ZM303.856 127.292C304.576 127.292 305.116 127.076 305.476 126.644C305.836 126.212 306.016 125.608 306.016 124.832V122.756C306.016 121.98 305.832 121.38 305.464 120.956C305.096 120.524 304.56 120.308 303.856 120.308C303.152 120.308 302.616 120.524 302.248 120.956C301.888 121.388 301.708 121.988 301.708 122.756V124.832C301.708 125.616 301.888 126.224 302.248 126.656C302.608 127.08 303.144 127.292 303.856 127.292Z" fill="#242739"/>
<path d="M215.72 128.168C215.144 128.168 214.628 128.056 214.172 127.832C213.724 127.6 213.368 127.272 213.104 126.848C212.848 126.424 212.72 125.92 212.72 125.336V122.408C212.72 121.776 212.844 121.24 213.092 120.8C213.34 120.36 213.688 120.024 214.136 119.792C214.592 119.552 215.132 119.432 215.756 119.432C216.372 119.432 216.896 119.544 217.328 119.768C217.768 119.984 218.1 120.284 218.324 120.668C218.556 121.044 218.672 121.48 218.672 121.976H217.688C217.688 121.48 217.528 121.08 217.208 120.776C216.888 120.464 216.404 120.308 215.756 120.308C215.1 120.308 214.592 120.488 214.232 120.848C213.872 121.2 213.692 121.688 213.692 122.312V123.476H213.86C214.004 123.236 214.244 123.016 214.58 122.816C214.916 122.608 215.384 122.504 215.984 122.504C216.488 122.504 216.948 122.616 217.364 122.84C217.78 123.064 218.112 123.38 218.36 123.788C218.608 124.196 218.732 124.68 218.732 125.24V125.384C218.732 125.952 218.6 126.444 218.336 126.86C218.08 127.276 217.724 127.6 217.268 127.832C216.812 128.056 216.296 128.168 215.72 128.168ZM215.72 127.292C216.328 127.292 216.82 127.12 217.196 126.776C217.572 126.432 217.76 125.964 217.76 125.372V125.276C217.76 124.876 217.672 124.532 217.496 124.244C217.328 123.956 217.092 123.732 216.788 123.572C216.484 123.404 216.128 123.32 215.72 123.32C215.32 123.32 214.968 123.404 214.664 123.572C214.36 123.732 214.12 123.956 213.944 124.244C213.776 124.532 213.692 124.876 213.692 125.276V125.372C213.692 125.964 213.88 126.432 214.256 126.776C214.632 127.12 215.12 127.292 215.72 127.292ZM220.848 128.168C220.616 128.168 220.42 128.092 220.26 127.94C220.108 127.788 220.032 127.592 220.032 127.352C220.032 127.112 220.108 126.916 220.26 126.764C220.42 126.612 220.616 126.536 220.848 126.536C221.088 126.536 221.284 126.612 221.436 126.764C221.588 126.916 221.664 127.112 221.664 127.352C221.664 127.592 221.588 127.788 221.436 127.94C221.284 128.092 221.088 128.168 220.848 128.168ZM225.995 128.168C225.379 128.168 224.847 128.052 224.399 127.82C223.951 127.58 223.603 127.252 223.355 126.836C223.107 126.412 222.983 125.924 222.983 125.372V125.228H223.955V125.336C223.955 125.968 224.139 126.452 224.507 126.788C224.875 127.124 225.363 127.292 225.971 127.292C226.611 127.292 227.111 127.112 227.471 126.752C227.831 126.392 228.011 125.9 228.011 125.276V125.168C228.011 124.568 227.835 124.092 227.483 123.74C227.139 123.38 226.691 123.2 226.139 123.2C225.819 123.2 225.555 123.252 225.347 123.356C225.139 123.452 224.975 123.576 224.855 123.728C224.735 123.872 224.635 124.012 224.555 124.148H223.235V119.6H228.755V120.476H224.207V123.38H224.375C224.463 123.22 224.583 123.064 224.735 122.912C224.895 122.76 225.107 122.632 225.371 122.528C225.635 122.424 225.963 122.372 226.355 122.372C226.843 122.372 227.283 122.484 227.675 122.708C228.075 122.932 228.391 123.252 228.623 123.668C228.863 124.084 228.983 124.58 228.983 125.156V125.288C228.983 125.856 228.863 126.356 228.623 126.788C228.383 127.22 228.039 127.56 227.591 127.808C227.143 128.048 226.611 128.168 225.995 128.168Z" fill="#242739"/>
<path d="M198.3 67L200.892 58.6H202.668L205.26 67H204.216L203.568 64.876H199.992L199.344 67H198.3ZM200.244 63.964H203.304L201.864 59.212H201.696L200.244 63.964ZM207.82 67L205.72 61.132H206.728L208.492 66.292H208.66L210.424 61.132H211.432L209.332 67H207.82ZM215.243 67.168C214.651 67.168 214.131 67.044 213.683 66.796C213.235 66.54 212.887 66.184 212.639 65.728C212.391 65.272 212.267 64.744 212.267 64.144V64C212.267 63.392 212.391 62.86 212.639 62.404C212.887 61.948 213.231 61.596 213.671 61.348C214.111 61.092 214.615 60.964 215.183 60.964C215.735 60.964 216.223 61.084 216.647 61.324C217.071 61.556 217.403 61.892 217.643 62.332C217.883 62.772 218.003 63.288 218.003 63.88V64.312H213.215C213.239 64.944 213.443 65.44 213.827 65.8C214.211 66.152 214.691 66.328 215.267 66.328C215.771 66.328 216.159 66.212 216.431 65.98C216.703 65.748 216.911 65.472 217.055 65.152L217.871 65.548C217.751 65.796 217.583 66.044 217.367 66.292C217.159 66.54 216.883 66.748 216.539 66.916C216.203 67.084 215.771 67.168 215.243 67.168ZM213.227 63.532H217.043C217.011 62.988 216.823 62.564 216.479 62.26C216.143 61.956 215.711 61.804 215.183 61.804C214.647 61.804 214.207 61.956 213.863 62.26C213.519 62.564 213.307 62.988 213.227 63.532ZM219.656 67V61.132H220.58V61.852H220.748C220.852 61.596 221.012 61.408 221.228 61.288C221.444 61.168 221.728 61.108 222.08 61.108H222.776V61.972H222.02C221.596 61.972 221.252 62.092 220.988 62.332C220.732 62.564 220.604 62.928 220.604 63.424V67H219.656ZM225.78 67.168C225.372 67.168 225 67.096 224.664 66.952C224.328 66.808 224.064 66.6 223.872 66.328C223.68 66.056 223.584 65.724 223.584 65.332C223.584 64.932 223.68 64.604 223.872 64.348C224.064 64.084 224.328 63.888 224.664 63.76C225 63.624 225.376 63.556 225.792 63.556H227.772V63.124C227.772 62.708 227.648 62.38 227.4 62.14C227.16 61.9 226.8 61.78 226.32 61.78C225.848 61.78 225.48 61.896 225.216 62.128C224.952 62.352 224.772 62.656 224.676 63.04L223.788 62.752C223.884 62.424 224.036 62.128 224.244 61.864C224.452 61.592 224.728 61.376 225.072 61.216C225.424 61.048 225.844 60.964 226.332 60.964C227.084 60.964 227.668 61.16 228.084 61.552C228.5 61.936 228.708 62.48 228.708 63.184V65.836C228.708 66.076 228.82 66.196 229.044 66.196H229.584V67H228.756C228.492 67 228.28 66.928 228.12 66.784C227.96 66.632 227.88 66.432 227.88 66.184V66.124H227.736C227.648 66.276 227.528 66.436 227.376 66.604C227.232 66.764 227.032 66.896 226.776 67C226.52 67.112 226.188 67.168 225.78 67.168ZM225.888 66.352C226.448 66.352 226.9 66.188 227.244 65.86C227.596 65.524 227.772 65.056 227.772 64.456V64.324H225.828C225.452 64.324 225.14 64.408 224.892 64.576C224.652 64.736 224.532 64.98 224.532 65.308C224.532 65.636 224.656 65.892 224.904 66.076C225.16 66.26 225.488 66.352 225.888 66.352ZM230.431 64.096V63.928C230.431 63.312 230.555 62.784 230.803 62.344C231.051 61.904 231.387 61.564 231.811 61.324C232.235 61.084 232.699 60.964 233.203 60.964C233.819 60.964 234.291 61.084 234.619 61.324C234.955 61.556 235.203 61.816 235.363 62.104H235.531V61.132H236.431V68.368C236.431 68.688 236.343 68.94 236.167 69.124C235.991 69.308 235.735 69.4 235.399 69.4H231.415V68.56H235.147C235.387 68.56 235.507 68.44 235.507 68.2V65.968H235.339C235.243 66.144 235.107 66.316 234.931 66.484C234.755 66.652 234.527 66.792 234.247 66.904C233.967 67.008 233.619 67.06 233.203 67.06C232.699 67.06 232.235 66.94 231.811 66.7C231.387 66.46 231.051 66.12 230.803 65.68C230.555 65.232 230.431 64.704 230.431 64.096ZM233.455 66.22C234.063 66.22 234.555 66.028 234.931 65.644C235.315 65.26 235.507 64.732 235.507 64.06V63.964C235.507 63.284 235.315 62.756 234.931 62.38C234.555 61.996 234.063 61.804 233.455 61.804C232.855 61.804 232.359 61.996 231.967 62.38C231.583 62.756 231.391 63.284 231.391 63.964V64.06C231.391 64.732 231.583 65.26 231.967 65.644C232.359 66.028 232.855 66.22 233.455 66.22ZM241.106 67.168C240.514 67.168 239.994 67.044 239.546 66.796C239.098 66.54 238.75 66.184 238.502 65.728C238.254 65.272 238.13 64.744 238.13 64.144V64C238.13 63.392 238.254 62.86 238.502 62.404C238.75 61.948 239.094 61.596 239.534 61.348C239.974 61.092 240.478 60.964 241.046 60.964C241.598 60.964 242.086 61.084 242.51 61.324C242.934 61.556 243.266 61.892 243.506 62.332C243.746 62.772 243.866 63.288 243.866 63.88V64.312H239.078C239.102 64.944 239.306 65.44 239.69 65.8C240.074 66.152 240.554 66.328 241.13 66.328C241.634 66.328 242.022 66.212 242.294 65.98C242.566 65.748 242.774 65.472 242.918 65.152L243.734 65.548C243.614 65.796 243.446 66.044 243.23 66.292C243.022 66.54 242.746 66.748 242.402 66.916C242.066 67.084 241.634 67.168 241.106 67.168ZM239.09 63.532H242.906C242.874 62.988 242.686 62.564 242.342 62.26C242.006 61.956 241.574 61.804 241.046 61.804C240.51 61.804 240.07 61.956 239.726 62.26C239.382 62.564 239.17 62.988 239.09 63.532Z" fill="#242739"/>
<rect x="37.5" y="79.5" width="188" height="26" rx="7.5" fill="#374CBA" stroke="white"/>
<path d="M78.546 159V155.952L75.63 150.6H77.094L79.11 154.404H79.29L81.306 150.6H82.77L79.854 155.952V159H78.546ZM85.5453 159.168C84.9533 159.168 84.4253 159.048 83.9613 158.808C83.5053 158.56 83.1453 158.208 82.8813 157.752C82.6173 157.296 82.4853 156.756 82.4853 156.132V155.952C82.4853 155.328 82.6173 154.792 82.8813 154.344C83.1453 153.888 83.5053 153.536 83.9613 153.288C84.4253 153.04 84.9533 152.916 85.5453 152.916C86.1373 152.916 86.6653 153.04 87.1293 153.288C87.5933 153.536 87.9573 153.888 88.2213 154.344C88.4853 154.792 88.6173 155.328 88.6173 155.952V156.132C88.6173 156.756 88.4853 157.296 88.2213 157.752C87.9573 158.208 87.5933 158.56 87.1293 158.808C86.6653 159.048 86.1373 159.168 85.5453 159.168ZM85.5453 158.064C86.0893 158.064 86.5293 157.892 86.8653 157.548C87.2093 157.196 87.3813 156.712 87.3813 156.096V155.988C87.3813 155.372 87.2133 154.892 86.8773 154.548C86.5413 154.196 86.0973 154.02 85.5453 154.02C85.0093 154.02 84.5693 154.196 84.2253 154.548C83.8893 154.892 83.7213 155.372 83.7213 155.988V156.096C83.7213 156.712 83.8893 157.196 84.2253 157.548C84.5693 157.892 85.0093 158.064 85.5453 158.064ZM92.4241 159.108C91.9761 159.108 91.5761 159.008 91.2241 158.808C90.8721 158.608 90.5961 158.324 90.3961 157.956C90.1961 157.588 90.0961 157.148 90.0961 156.636V153.084H91.3321V156.552C91.3321 157.064 91.4601 157.444 91.7161 157.692C91.9721 157.932 92.3281 158.052 92.7841 158.052C93.2881 158.052 93.6921 157.884 93.9961 157.548C94.3081 157.204 94.4641 156.712 94.4641 156.072V153.084H95.7001V159H94.4881V158.112H94.2961C94.1841 158.352 93.9841 158.58 93.6961 158.796C93.4081 159.004 92.9841 159.108 92.4241 159.108ZM100.586 159V150.6H101.822V153.924H102.014C102.094 153.772 102.206 153.624 102.35 153.48C102.502 153.336 102.698 153.22 102.938 153.132C103.186 153.036 103.498 152.988 103.874 152.988C104.322 152.988 104.718 153.088 105.062 153.288C105.414 153.488 105.69 153.772 105.89 154.14C106.09 154.5 106.19 154.936 106.19 155.448V159H104.954V155.544C104.954 155.032 104.826 154.656 104.57 154.416C104.314 154.168 103.962 154.044 103.514 154.044C103.002 154.044 102.59 154.212 102.278 154.548C101.974 154.884 101.822 155.372 101.822 156.012V159H100.586ZM109.805 159.168C109.381 159.168 109.001 159.096 108.665 158.952C108.337 158.808 108.073 158.596 107.873 158.316C107.681 158.036 107.585 157.696 107.585 157.296C107.585 156.888 107.681 156.552 107.873 156.288C108.073 156.016 108.341 155.812 108.677 155.676C109.021 155.54 109.409 155.472 109.841 155.472H111.641V155.088C111.641 154.744 111.537 154.468 111.329 154.26C111.121 154.052 110.801 153.948 110.369 153.948C109.945 153.948 109.621 154.048 109.397 154.248C109.173 154.448 109.025 154.708 108.953 155.028L107.801 154.656C107.897 154.336 108.049 154.048 108.257 153.792C108.473 153.528 108.757 153.316 109.109 153.156C109.461 152.996 109.885 152.916 110.381 152.916C111.149 152.916 111.753 153.112 112.193 153.504C112.633 153.896 112.853 154.452 112.853 155.172V157.608C112.853 157.848 112.965 157.968 113.189 157.968H113.693V159H112.769C112.489 159 112.261 158.928 112.085 158.784C111.909 158.64 111.821 158.444 111.821 158.196V158.16H111.641C111.577 158.28 111.481 158.42 111.353 158.58C111.225 158.74 111.037 158.88 110.789 159C110.541 159.112 110.213 159.168 109.805 159.168ZM109.985 158.148C110.481 158.148 110.881 158.008 111.185 157.728C111.489 157.44 111.641 157.048 111.641 156.552V156.432H109.913C109.585 156.432 109.321 156.504 109.121 156.648C108.921 156.784 108.821 156.988 108.821 157.26C108.821 157.532 108.925 157.748 109.133 157.908C109.341 158.068 109.625 158.148 109.985 158.148ZM115.934 159L113.942 153.084H115.25L116.822 158.088H117.014L118.586 153.084H119.894L117.902 159H115.934ZM123.595 159.168C122.995 159.168 122.471 159.044 122.023 158.796C121.575 158.54 121.223 158.184 120.967 157.728C120.719 157.264 120.595 156.728 120.595 156.12V155.976C120.595 155.36 120.719 154.824 120.967 154.368C121.215 153.904 121.559 153.548 121.999 153.3C122.447 153.044 122.963 152.916 123.547 152.916C124.115 152.916 124.611 153.044 125.035 153.3C125.467 153.548 125.803 153.896 126.043 154.344C126.283 154.792 126.403 155.316 126.403 155.916V156.384H121.855C121.871 156.904 122.043 157.32 122.371 157.632C122.707 157.936 123.123 158.088 123.619 158.088C124.083 158.088 124.431 157.984 124.663 157.776C124.903 157.568 125.087 157.328 125.215 157.056L126.235 157.584C126.123 157.808 125.959 158.044 125.743 158.292C125.535 158.54 125.259 158.748 124.915 158.916C124.571 159.084 124.131 159.168 123.595 159.168ZM121.867 155.436H125.143C125.111 154.988 124.951 154.64 124.663 154.392C124.375 154.136 123.999 154.008 123.535 154.008C123.071 154.008 122.691 154.136 122.395 154.392C122.107 154.64 121.931 154.988 121.867 155.436ZM132.785 159.168C132.361 159.168 131.981 159.096 131.645 158.952C131.317 158.808 131.053 158.596 130.853 158.316C130.661 158.036 130.565 157.696 130.565 157.296C130.565 156.888 130.661 156.552 130.853 156.288C131.053 156.016 131.321 155.812 131.657 155.676C132.001 155.54 132.389 155.472 132.821 155.472H134.621V155.088C134.621 154.744 134.517 154.468 134.309 154.26C134.101 154.052 133.781 153.948 133.349 153.948C132.925 153.948 132.601 154.048 132.377 154.248C132.153 154.448 132.005 154.708 131.933 155.028L130.781 154.656C130.877 154.336 131.029 154.048 131.237 153.792C131.453 153.528 131.737 153.316 132.089 153.156C132.441 152.996 132.865 152.916 133.361 152.916C134.129 152.916 134.733 153.112 135.173 153.504C135.613 153.896 135.833 154.452 135.833 155.172V157.608C135.833 157.848 135.945 157.968 136.169 157.968H136.673V159H135.749C135.469 159 135.241 158.928 135.065 158.784C134.889 158.64 134.801 158.444 134.801 158.196V158.16H134.621C134.557 158.28 134.461 158.42 134.333 158.58C134.205 158.74 134.017 158.88 133.769 159C133.521 159.112 133.193 159.168 132.785 159.168ZM132.965 158.148C133.461 158.148 133.861 158.008 134.165 157.728C134.469 157.44 134.621 157.048 134.621 156.552V156.432H132.893C132.565 156.432 132.301 156.504 132.101 156.648C131.901 156.784 131.801 156.988 131.801 157.26C131.801 157.532 131.905 157.748 132.113 157.908C132.321 158.068 132.605 158.148 132.965 158.148ZM142.001 159V154.128H140.345V153.084H142.001V151.788C142.001 151.428 142.109 151.14 142.325 150.924C142.541 150.708 142.829 150.6 143.189 150.6H144.713V151.644H143.585C143.353 151.644 143.237 151.764 143.237 152.004V153.084H144.941V154.128H143.237V159H142.001ZM147.937 159.168C147.513 159.168 147.133 159.096 146.797 158.952C146.469 158.808 146.205 158.596 146.005 158.316C145.813 158.036 145.717 157.696 145.717 157.296C145.717 156.888 145.813 156.552 146.005 156.288C146.205 156.016 146.473 155.812 146.809 155.676C147.153 155.54 147.541 155.472 147.973 155.472H149.773V155.088C149.773 154.744 149.669 154.468 149.461 154.26C149.253 154.052 148.933 153.948 148.501 153.948C148.077 153.948 147.753 154.048 147.529 154.248C147.305 154.448 147.157 154.708 147.085 155.028L145.933 154.656C146.029 154.336 146.181 154.048 146.389 153.792C146.605 153.528 146.889 153.316 147.241 153.156C147.593 152.996 148.017 152.916 148.513 152.916C149.281 152.916 149.885 153.112 150.325 153.504C150.765 153.896 150.985 154.452 150.985 155.172V157.608C150.985 157.848 151.097 157.968 151.321 157.968H151.825V159H150.901C150.621 159 150.393 158.928 150.217 158.784C150.041 158.64 149.953 158.444 149.953 158.196V158.16H149.773C149.709 158.28 149.613 158.42 149.485 158.58C149.357 158.74 149.169 158.88 148.921 159C148.673 159.112 148.345 159.168 147.937 159.168ZM148.117 158.148C148.613 158.148 149.013 158.008 149.317 157.728C149.621 157.44 149.773 157.048 149.773 156.552V156.432H148.045C147.717 156.432 147.453 156.504 147.253 156.648C147.053 156.784 146.953 156.988 146.953 157.26C146.953 157.532 147.057 157.748 147.265 157.908C147.473 158.068 147.757 158.148 148.117 158.148ZM153.027 159V153.084H154.263V159H153.027ZM153.651 152.28C153.411 152.28 153.207 152.204 153.039 152.052C152.879 151.892 152.799 151.688 152.799 151.44C152.799 151.192 152.879 150.992 153.039 150.84C153.207 150.68 153.411 150.6 153.651 150.6C153.899 150.6 154.103 150.68 154.263 150.84C154.423 150.992 154.503 151.192 154.503 151.44C154.503 151.688 154.423 151.892 154.263 152.052C154.103 152.204 153.899 152.28 153.651 152.28ZM156.098 159V153.084H157.31V153.78H157.502C157.598 153.532 157.75 153.352 157.958 153.24C158.174 153.12 158.438 153.06 158.75 153.06H159.458V154.176H158.702C158.302 154.176 157.974 154.288 157.718 154.512C157.462 154.728 157.334 155.064 157.334 155.52V159H156.098ZM166.545 159.168C165.977 159.168 165.461 159.048 164.997 158.808C164.541 158.568 164.177 158.22 163.905 157.764C163.641 157.308 163.509 156.76 163.509 156.12V155.964C163.509 155.324 163.641 154.78 163.905 154.332C164.177 153.876 164.541 153.528 164.997 153.288C165.461 153.04 165.977 152.916 166.545 152.916C167.113 152.916 167.597 153.02 167.997 153.228C168.397 153.436 168.717 153.712 168.957 154.056C169.205 154.4 169.365 154.78 169.437 155.196L168.237 155.448C168.197 155.184 168.113 154.944 167.985 154.728C167.857 154.512 167.677 154.34 167.445 154.212C167.213 154.084 166.921 154.02 166.569 154.02C166.225 154.02 165.913 154.1 165.633 154.26C165.361 154.412 165.145 154.636 164.985 154.932C164.825 155.22 164.745 155.572 164.745 155.988V156.096C164.745 156.512 164.825 156.868 164.985 157.164C165.145 157.46 165.361 157.684 165.633 157.836C165.913 157.988 166.225 158.064 166.569 158.064C167.089 158.064 167.485 157.932 167.757 157.668C168.029 157.396 168.201 157.052 168.273 156.636L169.473 156.912C169.377 157.32 169.205 157.696 168.957 158.04C168.717 158.384 168.397 158.66 167.997 158.868C167.597 159.068 167.113 159.168 166.545 159.168ZM170.898 159V150.6H172.134V153.924H172.326C172.406 153.772 172.518 153.624 172.662 153.48C172.814 153.336 173.01 153.22 173.25 153.132C173.498 153.036 173.81 152.988 174.186 152.988C174.634 152.988 175.03 153.088 175.374 153.288C175.726 153.488 176.002 153.772 176.202 154.14C176.402 154.5 176.502 154.936 176.502 155.448V159H175.266V155.544C175.266 155.032 175.138 154.656 174.882 154.416C174.626 154.168 174.274 154.044 173.826 154.044C173.314 154.044 172.902 154.212 172.59 154.548C172.286 154.884 172.134 155.372 172.134 156.012V159H170.898ZM181.053 159.168C180.461 159.168 179.933 159.048 179.469 158.808C179.013 158.56 178.653 158.208 178.389 157.752C178.125 157.296 177.993 156.756 177.993 156.132V155.952C177.993 155.328 178.125 154.792 178.389 154.344C178.653 153.888 179.013 153.536 179.469 153.288C179.933 153.04 180.461 152.916 181.053 152.916C181.645 152.916 182.173 153.04 182.637 153.288C183.101 153.536 183.465 153.888 183.729 154.344C183.993 154.792 184.125 155.328 184.125 155.952V156.132C184.125 156.756 183.993 157.296 183.729 157.752C183.465 158.208 183.101 158.56 182.637 158.808C182.173 159.048 181.645 159.168 181.053 159.168ZM181.053 158.064C181.597 158.064 182.037 157.892 182.373 157.548C182.717 157.196 182.889 156.712 182.889 156.096V155.988C182.889 155.372 182.721 154.892 182.385 154.548C182.049 154.196 181.605 154.02 181.053 154.02C180.517 154.02 180.077 154.196 179.733 154.548C179.397 154.892 179.229 155.372 179.229 155.988V156.096C179.229 156.712 179.397 157.196 179.733 157.548C180.077 157.892 180.517 158.064 181.053 158.064ZM185.664 159V153.084H186.9V159H185.664ZM186.288 152.28C186.048 152.28 185.844 152.204 185.676 152.052C185.516 151.892 185.436 151.688 185.436 151.44C185.436 151.192 185.516 150.992 185.676 150.84C185.844 150.68 186.048 150.6 186.288 150.6C186.536 150.6 186.74 150.68 186.9 150.84C187.06 150.992 187.14 151.192 187.14 151.44C187.14 151.688 187.06 151.892 186.9 152.052C186.74 152.204 186.536 152.28 186.288 152.28ZM191.482 159.168C190.914 159.168 190.398 159.048 189.934 158.808C189.478 158.568 189.114 158.22 188.842 157.764C188.578 157.308 188.446 156.76 188.446 156.12V155.964C188.446 155.324 188.578 154.78 188.842 154.332C189.114 153.876 189.478 153.528 189.934 153.288C190.398 153.04 190.914 152.916 191.482 152.916C192.05 152.916 192.534 153.02 192.934 153.228C193.334 153.436 193.654 153.712 193.894 154.056C194.142 154.4 194.302 154.78 194.374 155.196L193.174 155.448C193.134 155.184 193.05 154.944 192.922 154.728C192.794 154.512 192.614 154.34 192.382 154.212C192.15 154.084 191.858 154.02 191.506 154.02C191.162 154.02 190.85 154.1 190.57 154.26C190.298 154.412 190.082 154.636 189.922 154.932C189.762 155.22 189.682 155.572 189.682 155.988V156.096C189.682 156.512 189.762 156.868 189.922 157.164C190.082 157.46 190.298 157.684 190.57 157.836C190.85 157.988 191.162 158.064 191.506 158.064C192.026 158.064 192.422 157.932 192.694 157.668C192.966 157.396 193.138 157.052 193.21 156.636L194.41 156.912C194.314 157.32 194.142 157.696 193.894 158.04C193.654 158.384 193.334 158.66 192.934 158.868C192.534 159.068 192.05 159.168 191.482 159.168ZM198.548 159.168C197.948 159.168 197.424 159.044 196.976 158.796C196.528 158.54 196.176 158.184 195.92 157.728C195.672 157.264 195.548 156.728 195.548 156.12V155.976C195.548 155.36 195.672 154.824 195.92 154.368C196.168 153.904 196.512 153.548 196.952 153.3C197.4 153.044 197.916 152.916 198.5 152.916C199.068 152.916 199.564 153.044 199.988 153.3C200.42 153.548 200.756 153.896 200.996 154.344C201.236 154.792 201.356 155.316 201.356 155.916V156.384H196.808C196.824 156.904 196.996 157.32 197.324 157.632C197.66 157.936 198.076 158.088 198.572 158.088C199.036 158.088 199.384 157.984 199.616 157.776C199.856 157.568 200.04 157.328 200.168 157.056L201.188 157.584C201.076 157.808 200.912 158.044 200.696 158.292C200.488 158.54 200.212 158.748 199.868 158.916C199.524 159.084 199.084 159.168 198.548 159.168ZM196.82 155.436H200.096C200.064 154.988 199.904 154.64 199.616 154.392C199.328 154.136 198.952 154.008 198.488 154.008C198.024 154.008 197.644 154.136 197.348 154.392C197.06 154.64 196.884 154.988 196.82 155.436ZM208.674 159.168C208.082 159.168 207.554 159.048 207.09 158.808C206.634 158.56 206.274 158.208 206.01 157.752C205.746 157.296 205.614 156.756 205.614 156.132V155.952C205.614 155.328 205.746 154.792 206.01 154.344C206.274 153.888 206.634 153.536 207.09 153.288C207.554 153.04 208.082 152.916 208.674 152.916C209.266 152.916 209.794 153.04 210.258 153.288C210.722 153.536 211.086 153.888 211.35 154.344C211.614 154.792 211.746 155.328 211.746 155.952V156.132C211.746 156.756 211.614 157.296 211.35 157.752C211.086 158.208 210.722 158.56 210.258 158.808C209.794 159.048 209.266 159.168 208.674 159.168ZM208.674 158.064C209.218 158.064 209.658 157.892 209.994 157.548C210.338 157.196 210.51 156.712 210.51 156.096V155.988C210.51 155.372 210.342 154.892 210.006 154.548C209.67 154.196 209.226 154.02 208.674 154.02C208.138 154.02 207.698 154.196 207.354 154.548C207.018 154.892 206.85 155.372 206.85 155.988V156.096C206.85 156.712 207.018 157.196 207.354 157.548C207.698 157.892 208.138 158.064 208.674 158.064ZM214.13 159V154.128H212.474V153.084H214.13V151.788C214.13 151.428 214.238 151.14 214.454 150.924C214.67 150.708 214.958 150.6 215.318 150.6H216.842V151.644H215.714C215.482 151.644 215.366 151.764 215.366 152.004V153.084H217.07V154.128H215.366V159H214.13ZM224.166 159.168C223.574 159.168 223.046 159.048 222.582 158.808C222.126 158.56 221.766 158.208 221.502 157.752C221.238 157.296 221.106 156.756 221.106 156.132V155.952C221.106 155.328 221.238 154.792 221.502 154.344C221.766 153.888 222.126 153.536 222.582 153.288C223.046 153.04 223.574 152.916 224.166 152.916C224.758 152.916 225.286 153.04 225.75 153.288C226.214 153.536 226.578 153.888 226.842 154.344C227.106 154.792 227.238 155.328 227.238 155.952V156.132C227.238 156.756 227.106 157.296 226.842 157.752C226.578 158.208 226.214 158.56 225.75 158.808C225.286 159.048 224.758 159.168 224.166 159.168ZM224.166 158.064C224.71 158.064 225.15 157.892 225.486 157.548C225.83 157.196 226.002 156.712 226.002 156.096V155.988C226.002 155.372 225.834 154.892 225.498 154.548C225.162 154.196 224.718 154.02 224.166 154.02C223.63 154.02 223.19 154.196 222.846 154.548C222.51 154.892 222.342 155.372 222.342 155.988V156.096C222.342 156.712 222.51 157.196 222.846 157.548C223.19 157.892 223.63 158.064 224.166 158.064ZM229.623 159V154.128H227.967V153.084H229.623V151.788C229.623 151.428 229.731 151.14 229.947 150.924C230.163 150.708 230.451 150.6 230.811 150.6H232.335V151.644H231.207C230.975 151.644 230.859 151.764 230.859 152.004V153.084H232.191V154.128H230.859V159H229.623ZM233.511 159V154.128H232.191V153.084H233.511V151.788C233.511 151.428 233.615 151.14 233.823 150.924C234.039 150.708 234.331 150.6 234.699 150.6H236.223V151.644H235.095C234.863 151.644 234.747 151.764 234.747 152.004V153.084H236.451V154.128H234.747V159H233.511ZM240.173 159.168C239.573 159.168 239.049 159.044 238.601 158.796C238.153 158.54 237.801 158.184 237.545 157.728C237.297 157.264 237.173 156.728 237.173 156.12V155.976C237.173 155.36 237.297 154.824 237.545 154.368C237.793 153.904 238.137 153.548 238.577 153.3C239.025 153.044 239.541 152.916 240.125 152.916C240.693 152.916 241.189 153.044 241.613 153.3C242.045 153.548 242.381 153.896 242.621 154.344C242.861 154.792 242.981 155.316 242.981 155.916V156.384H238.433C238.449 156.904 238.621 157.32 238.949 157.632C239.285 157.936 239.701 158.088 240.197 158.088C240.661 158.088 241.009 157.984 241.241 157.776C241.481 157.568 241.665 157.328 241.793 157.056L242.813 157.584C242.701 157.808 242.537 158.044 242.321 158.292C242.113 158.54 241.837 158.748 241.493 158.916C241.149 159.084 240.709 159.168 240.173 159.168ZM238.445 155.436H241.721C241.689 154.988 241.529 154.64 241.241 154.392C240.953 154.136 240.577 154.008 240.113 154.008C239.649 154.008 239.269 154.136 238.973 154.392C238.685 154.64 238.509 154.988 238.445 155.436ZM244.469 159V153.084H245.681V153.78H245.873C245.969 153.532 246.121 153.352 246.329 153.24C246.545 153.12 246.809 153.06 247.121 153.06H247.829V154.176H247.073C246.673 154.176 246.345 154.288 246.089 154.512C245.833 154.728 245.705 155.064 245.705 155.52V159H244.469ZM251.404 159.168C250.652 159.168 250.028 159 249.532 158.664C249.036 158.328 248.732 157.82 248.62 157.14L249.772 156.864C249.836 157.192 249.944 157.452 250.096 157.644C250.248 157.836 250.436 157.972 250.66 158.052C250.892 158.132 251.14 158.172 251.404 158.172C251.796 158.172 252.096 158.096 252.304 157.944C252.52 157.792 252.628 157.596 252.628 157.356C252.628 157.116 252.528 156.94 252.328 156.828C252.128 156.716 251.832 156.624 251.44 156.552L251.032 156.48C250.632 156.408 250.268 156.304 249.94 156.168C249.612 156.032 249.352 155.844 249.16 155.604C248.968 155.364 248.872 155.056 248.872 154.68C248.872 154.12 249.08 153.688 249.496 153.384C249.912 153.072 250.464 152.916 251.152 152.916C251.816 152.916 252.36 153.068 252.784 153.372C253.216 153.668 253.496 154.072 253.624 154.584L252.472 154.908C252.4 154.548 252.248 154.296 252.016 154.152C251.784 154 251.496 153.924 251.152 153.924C250.816 153.924 250.552 153.988 250.36 154.116C250.168 154.236 250.072 154.408 250.072 154.632C250.072 154.872 250.164 155.048 250.348 155.16C250.54 155.272 250.796 155.356 251.116 155.412L251.536 155.484C251.96 155.556 252.348 155.656 252.7 155.784C253.052 155.912 253.328 156.096 253.528 156.336C253.736 156.576 253.84 156.896 253.84 157.296C253.84 157.888 253.62 158.348 253.18 158.676C252.74 159.004 252.148 159.168 251.404 159.168ZM260.18 159.168C259.756 159.168 259.376 159.096 259.04 158.952C258.712 158.808 258.448 158.596 258.248 158.316C258.056 158.036 257.96 157.696 257.96 157.296C257.96 156.888 258.056 156.552 258.248 156.288C258.448 156.016 258.716 155.812 259.052 155.676C259.396 155.54 259.784 155.472 260.216 155.472H262.016V155.088C262.016 154.744 261.912 154.468 261.704 154.26C261.496 154.052 261.176 153.948 260.744 153.948C260.32 153.948 259.996 154.048 259.772 154.248C259.548 154.448 259.4 154.708 259.328 155.028L258.176 154.656C258.272 154.336 258.424 154.048 258.632 153.792C258.848 153.528 259.132 153.316 259.484 153.156C259.836 152.996 260.26 152.916 260.756 152.916C261.524 152.916 262.128 153.112 262.568 153.504C263.008 153.896 263.228 154.452 263.228 155.172V157.608C263.228 157.848 263.34 157.968 263.564 157.968H264.068V159H263.144C262.864 159 262.636 158.928 262.46 158.784C262.284 158.64 262.196 158.444 262.196 158.196V158.16H262.016C261.952 158.28 261.856 158.42 261.728 158.58C261.6 158.74 261.412 158.88 261.164 159C260.916 159.112 260.588 159.168 260.18 159.168ZM260.36 158.148C260.856 158.148 261.256 158.008 261.56 157.728C261.864 157.44 262.016 157.048 262.016 156.552V156.432H260.288C259.96 156.432 259.696 156.504 259.496 156.648C259.296 156.784 259.196 156.988 259.196 157.26C259.196 157.532 259.3 157.748 259.508 157.908C259.716 158.068 260 158.148 260.36 158.148ZM267.079 159C266.719 159 266.431 158.892 266.215 158.676C266.007 158.46 265.903 158.172 265.903 157.812V154.128H264.271V153.084H265.903V151.128H267.139V153.084H268.903V154.128H267.139V157.596C267.139 157.836 267.251 157.956 267.475 157.956H268.711V159H267.079ZM126.484 174.168C125.916 174.168 125.4 174.048 124.936 173.808C124.48 173.568 124.116 173.22 123.844 172.764C123.58 172.308 123.448 171.76 123.448 171.12V170.964C123.448 170.324 123.58 169.78 123.844 169.332C124.116 168.876 124.48 168.528 124.936 168.288C125.4 168.04 125.916 167.916 126.484 167.916C127.052 167.916 127.536 168.02 127.936 168.228C128.336 168.436 128.656 168.712 128.896 169.056C129.144 169.4 129.304 169.78 129.376 170.196L128.176 170.448C128.136 170.184 128.052 169.944 127.924 169.728C127.796 169.512 127.616 169.34 127.384 169.212C127.152 169.084 126.86 169.02 126.508 169.02C126.164 169.02 125.852 169.1 125.572 169.26C125.3 169.412 125.084 169.636 124.924 169.932C124.764 170.22 124.684 170.572 124.684 170.988V171.096C124.684 171.512 124.764 171.868 124.924 172.164C125.084 172.46 125.3 172.684 125.572 172.836C125.852 172.988 126.164 173.064 126.508 173.064C127.028 173.064 127.424 172.932 127.696 172.668C127.968 172.396 128.14 172.052 128.212 171.636L129.412 171.912C129.316 172.32 129.144 172.696 128.896 173.04C128.656 173.384 128.336 173.66 127.936 173.868C127.536 174.068 127.052 174.168 126.484 174.168ZM133.61 174.168C133.018 174.168 132.49 174.048 132.026 173.808C131.57 173.56 131.21 173.208 130.946 172.752C130.682 172.296 130.55 171.756 130.55 171.132V170.952C130.55 170.328 130.682 169.792 130.946 169.344C131.21 168.888 131.57 168.536 132.026 168.288C132.49 168.04 133.018 167.916 133.61 167.916C134.202 167.916 134.73 168.04 135.194 168.288C135.658 168.536 136.022 168.888 136.286 169.344C136.55 169.792 136.682 170.328 136.682 170.952V171.132C136.682 171.756 136.55 172.296 136.286 172.752C136.022 173.208 135.658 173.56 135.194 173.808C134.73 174.048 134.202 174.168 133.61 174.168ZM133.61 173.064C134.154 173.064 134.594 172.892 134.93 172.548C135.274 172.196 135.446 171.712 135.446 171.096V170.988C135.446 170.372 135.278 169.892 134.942 169.548C134.606 169.196 134.162 169.02 133.61 169.02C133.074 169.02 132.634 169.196 132.29 169.548C131.954 169.892 131.786 170.372 131.786 170.988V171.096C131.786 171.712 131.954 172.196 132.29 172.548C132.634 172.892 133.074 173.064 133.61 173.064ZM138.221 174V168.084H139.433V168.78H139.625C139.737 168.572 139.917 168.388 140.165 168.228C140.413 168.068 140.749 167.988 141.173 167.988C141.613 167.988 141.965 168.08 142.229 168.264C142.501 168.44 142.705 168.668 142.841 168.948H143.033C143.169 168.676 143.365 168.448 143.621 168.264C143.885 168.08 144.257 167.988 144.737 167.988C145.121 167.988 145.461 168.068 145.757 168.228C146.053 168.38 146.289 168.612 146.465 168.924C146.641 169.228 146.729 169.608 146.729 170.064V174H145.493V170.16C145.493 169.8 145.393 169.524 145.193 169.332C145.001 169.132 144.725 169.032 144.365 169.032C143.981 169.032 143.673 169.156 143.441 169.404C143.209 169.652 143.093 170.008 143.093 170.472V174H141.857V170.16C141.857 169.8 141.757 169.524 141.557 169.332C141.365 169.132 141.089 169.032 140.729 169.032C140.345 169.032 140.037 169.156 139.805 169.404C139.573 169.652 139.457 170.008 139.457 170.472V174H138.221ZM148.51 176.4V168.084H149.722V168.936H149.914C150.066 168.672 150.294 168.436 150.598 168.228C150.91 168.02 151.354 167.916 151.93 167.916C152.426 167.916 152.878 168.036 153.286 168.276C153.702 168.516 154.034 168.864 154.282 169.32C154.538 169.768 154.666 170.312 154.666 170.952V171.132C154.666 171.772 154.542 172.32 154.294 172.776C154.046 173.224 153.714 173.568 153.298 173.808C152.882 174.048 152.426 174.168 151.93 174.168C151.546 174.168 151.222 174.12 150.958 174.024C150.694 173.928 150.482 173.808 150.322 173.664C150.162 173.512 150.034 173.356 149.938 173.196H149.746V176.4H148.51ZM151.57 173.088C152.114 173.088 152.558 172.916 152.902 172.572C153.246 172.228 153.418 171.736 153.418 171.096V170.988C153.418 170.356 153.242 169.868 152.89 169.524C152.546 169.18 152.106 169.008 151.57 169.008C151.042 169.008 150.602 169.18 150.25 169.524C149.906 169.868 149.734 170.356 149.734 170.988V171.096C149.734 171.736 149.906 172.228 150.25 172.572C150.602 172.916 151.042 173.088 151.57 173.088ZM158.909 174.168C158.309 174.168 157.785 174.044 157.337 173.796C156.889 173.54 156.537 173.184 156.281 172.728C156.033 172.264 155.909 171.728 155.909 171.12V170.976C155.909 170.36 156.033 169.824 156.281 169.368C156.529 168.904 156.873 168.548 157.313 168.3C157.761 168.044 158.277 167.916 158.861 167.916C159.429 167.916 159.925 168.044 160.349 168.3C160.781 168.548 161.117 168.896 161.357 169.344C161.597 169.792 161.717 170.316 161.717 170.916V171.384H157.169C157.185 171.904 157.357 172.32 157.685 172.632C158.021 172.936 158.437 173.088 158.933 173.088C159.397 173.088 159.745 172.984 159.977 172.776C160.217 172.568 160.401 172.328 160.529 172.056L161.549 172.584C161.437 172.808 161.273 173.044 161.057 173.292C160.849 173.54 160.573 173.748 160.229 173.916C159.885 174.084 159.445 174.168 158.909 174.168ZM157.181 170.436H160.457C160.425 169.988 160.265 169.64 159.977 169.392C159.689 169.136 159.313 169.008 158.849 169.008C158.385 169.008 158.005 169.136 157.709 169.392C157.421 169.64 157.245 169.988 157.181 170.436ZM165.202 174C164.842 174 164.554 173.892 164.338 173.676C164.13 173.46 164.026 173.172 164.026 172.812V169.128H162.394V168.084H164.026V166.128H165.262V168.084H167.026V169.128H165.262V172.596C165.262 172.836 165.374 172.956 165.598 172.956H166.834V174H165.202ZM168.478 174V168.084H169.714V174H168.478ZM169.102 167.28C168.862 167.28 168.658 167.204 168.49 167.052C168.33 166.892 168.25 166.688 168.25 166.44C168.25 166.192 168.33 165.992 168.49 165.84C168.658 165.68 168.862 165.6 169.102 165.6C169.35 165.6 169.554 165.68 169.714 165.84C169.874 165.992 169.954 166.192 169.954 166.44C169.954 166.688 169.874 166.892 169.714 167.052C169.554 167.204 169.35 167.28 169.102 167.28ZM173.769 174C173.409 174 173.121 173.892 172.905 173.676C172.697 173.46 172.593 173.172 172.593 172.812V169.128H170.961V168.084H172.593V166.128H173.829V168.084H175.593V169.128H173.829V172.596C173.829 172.836 173.941 172.956 174.165 172.956H175.401V174H173.769ZM177.045 174V168.084H178.281V174H177.045ZM177.669 167.28C177.429 167.28 177.225 167.204 177.057 167.052C176.897 166.892 176.817 166.688 176.817 166.44C176.817 166.192 176.897 165.992 177.057 165.84C177.225 165.68 177.429 165.6 177.669 165.6C177.917 165.6 178.121 165.68 178.281 165.84C178.441 165.992 178.521 166.192 178.521 166.44C178.521 166.688 178.441 166.892 178.281 167.052C178.121 167.204 177.917 167.28 177.669 167.28ZM181.483 174L179.491 168.084H180.799L182.371 173.088H182.563L184.135 168.084H185.443L183.451 174H181.483ZM189.144 174.168C188.544 174.168 188.02 174.044 187.572 173.796C187.124 173.54 186.772 173.184 186.516 172.728C186.268 172.264 186.144 171.728 186.144 171.12V170.976C186.144 170.36 186.268 169.824 186.516 169.368C186.764 168.904 187.108 168.548 187.548 168.3C187.996 168.044 188.512 167.916 189.096 167.916C189.664 167.916 190.16 168.044 190.584 168.3C191.016 168.548 191.352 168.896 191.592 169.344C191.832 169.792 191.952 170.316 191.952 170.916V171.384H187.404C187.42 171.904 187.592 172.32 187.92 172.632C188.256 172.936 188.672 173.088 189.168 173.088C189.632 173.088 189.98 172.984 190.212 172.776C190.452 172.568 190.636 172.328 190.764 172.056L191.784 172.584C191.672 172.808 191.508 173.044 191.292 173.292C191.084 173.54 190.808 173.748 190.464 173.916C190.12 174.084 189.68 174.168 189.144 174.168ZM187.416 170.436H190.692C190.66 169.988 190.5 169.64 190.212 169.392C189.924 169.136 189.548 169.008 189.084 169.008C188.62 169.008 188.24 169.136 187.944 169.392C187.656 169.64 187.48 169.988 187.416 170.436ZM196.498 174V168.084H197.71V168.78H197.902C197.998 168.532 198.15 168.352 198.358 168.24C198.574 168.12 198.838 168.06 199.15 168.06H199.858V169.176H199.102C198.702 169.176 198.374 169.288 198.118 169.512C197.862 169.728 197.734 170.064 197.734 170.52V174H196.498ZM202.811 174.168C202.387 174.168 202.007 174.096 201.671 173.952C201.343 173.808 201.079 173.596 200.879 173.316C200.687 173.036 200.591 172.696 200.591 172.296C200.591 171.888 200.687 171.552 200.879 171.288C201.079 171.016 201.347 170.812 201.683 170.676C202.027 170.54 202.415 170.472 202.847 170.472H204.647V170.088C204.647 169.744 204.543 169.468 204.335 169.26C204.127 169.052 203.807 168.948 203.375 168.948C202.951 168.948 202.627 169.048 202.403 169.248C202.179 169.448 202.031 169.708 201.959 170.028L200.807 169.656C200.903 169.336 201.055 169.048 201.263 168.792C201.479 168.528 201.763 168.316 202.115 168.156C202.467 167.996 202.891 167.916 203.387 167.916C204.155 167.916 204.759 168.112 205.199 168.504C205.639 168.896 205.859 169.452 205.859 170.172V172.608C205.859 172.848 205.971 172.968 206.195 172.968H206.699V174H205.775C205.495 174 205.267 173.928 205.091 173.784C204.915 173.64 204.827 173.444 204.827 173.196V173.16H204.647C204.583 173.28 204.487 173.42 204.359 173.58C204.231 173.74 204.043 173.88 203.795 174C203.547 174.112 203.219 174.168 202.811 174.168ZM202.991 173.148C203.487 173.148 203.887 173.008 204.191 172.728C204.495 172.44 204.647 172.048 204.647 171.552V171.432H202.919C202.591 171.432 202.327 171.504 202.127 171.648C201.927 171.784 201.826 171.988 201.826 172.26C201.826 172.532 201.931 172.748 202.139 172.908C202.347 173.068 202.631 173.148 202.991 173.148ZM209.71 174C209.35 174 209.062 173.892 208.846 173.676C208.638 173.46 208.534 173.172 208.534 172.812V169.128H206.902V168.084H208.534V166.128H209.77V168.084H211.534V169.128H209.77V172.596C209.77 172.836 209.882 172.956 210.106 172.956H211.342V174H209.71ZM215.487 174.168C214.887 174.168 214.363 174.044 213.915 173.796C213.467 173.54 213.115 173.184 212.859 172.728C212.611 172.264 212.487 171.728 212.487 171.12V170.976C212.487 170.36 212.611 169.824 212.859 169.368C213.107 168.904 213.451 168.548 213.891 168.3C214.339 168.044 214.855 167.916 215.439 167.916C216.007 167.916 216.503 168.044 216.927 168.3C217.359 168.548 217.695 168.896 217.935 169.344C218.175 169.792 218.295 170.316 218.295 170.916V171.384H213.747C213.763 171.904 213.935 172.32 214.263 172.632C214.599 172.936 215.015 173.088 215.511 173.088C215.975 173.088 216.323 172.984 216.555 172.776C216.795 172.568 216.979 172.328 217.107 172.056L218.127 172.584C218.015 172.808 217.851 173.044 217.635 173.292C217.427 173.54 217.151 173.748 216.807 173.916C216.463 174.084 216.023 174.168 215.487 174.168ZM213.759 170.436H217.035C217.003 169.988 216.843 169.64 216.555 169.392C216.267 169.136 215.891 169.008 215.427 169.008C214.963 169.008 214.583 169.136 214.287 169.392C213.999 169.64 213.823 169.988 213.759 170.436ZM222.207 174.168C221.455 174.168 220.831 174 220.335 173.664C219.839 173.328 219.535 172.82 219.423 172.14L220.575 171.864C220.639 172.192 220.747 172.452 220.899 172.644C221.051 172.836 221.239 172.972 221.463 173.052C221.695 173.132 221.943 173.172 222.207 173.172C222.599 173.172 222.899 173.096 223.107 172.944C223.323 172.792 223.431 172.596 223.431 172.356C223.431 172.116 223.331 171.94 223.131 171.828C222.931 171.716 222.635 171.624 222.243 171.552L221.835 171.48C221.435 171.408 221.071 171.304 220.743 171.168C220.415 171.032 220.155 170.844 219.963 170.604C219.771 170.364 219.675 170.056 219.675 169.68C219.675 169.12 219.883 168.688 220.299 168.384C220.715 168.072 221.267 167.916 221.955 167.916C222.619 167.916 223.163 168.068 223.587 168.372C224.019 168.668 224.299 169.072 224.427 169.584L223.275 169.908C223.203 169.548 223.051 169.296 222.819 169.152C222.587 169 222.299 168.924 221.955 168.924C221.619 168.924 221.355 168.988 221.163 169.116C220.971 169.236 220.875 169.408 220.875 169.632C220.875 169.872 220.967 170.048 221.151 170.16C221.343 170.272 221.599 170.356 221.919 170.412L222.339 170.484C222.763 170.556 223.151 170.656 223.503 170.784C223.855 170.912 224.131 171.096 224.331 171.336C224.539 171.576 224.643 171.896 224.643 172.296C224.643 172.888 224.423 173.348 223.983 173.676C223.543 174.004 222.951 174.168 222.207 174.168Z" fill="#242739"/>
<rect x="0.5" y="0.5" width="342" height="247" rx="7.5" stroke="#D7D7D7"/>
<defs>
<clipPath id="clip0_673_14245">
<rect width="18" height="18" fill="white" transform="matrix(-1 0 0 1 235.5 214)"/>
</clipPath>
</defs>
</svg>
