<svg width="111" height="111" viewBox="0 0 111 111" fill="none" xmlns="http://www.w3.org/2000/svg">
<path d="M106.197 2.99141e-06C105.241 0.10281 104.347 0.525528 103.661 1.19966L83.7839 21.0815C74.3745 14.2848 61.3234 15.5058 52.563 23.8821C52.563 24.2065 48.9128 27.7671 45.6297 30.9519L41.4886 26.815C40.9808 26.2899 40.3468 25.9039 39.6471 25.6938C38.9475 25.4838 38.2057 25.4568 37.4926 25.6154C36.7113 25.7568 35.9849 26.1132 35.3951 26.6447C34.8052 27.1762 34.3753 27.8616 34.1535 28.624C33.9318 29.3864 33.927 30.1955 34.1398 30.9604C34.3526 31.7254 34.7744 32.4158 35.358 32.9542L78.0503 75.6465C78.4534 76.0496 78.9319 76.3694 79.4586 76.5875C79.9853 76.8057 80.5498 76.918 81.1199 76.918C81.6899 76.918 82.2544 76.8057 82.7811 76.5875C83.3078 76.3694 83.7863 76.0496 84.1894 75.6465C84.5925 75.2434 84.9123 74.7649 85.1305 74.2382C85.3486 73.7115 85.4609 73.147 85.4609 72.5769C85.4609 72.0069 85.3486 71.4424 85.1305 70.9157C84.9123 70.389 84.5925 69.9105 84.1894 69.5074L80.0526 65.3747L87.1224 58.433C95.4901 50.0653 96.3397 37.0569 89.7907 27.353L109.805 7.33881C110.477 6.71403 110.93 5.88916 111.097 4.98653C111.264 4.0839 111.135 3.15158 110.73 2.32783C110.325 1.50408 109.666 0.832772 108.849 0.413459C108.033 -0.00585422 107.103 -0.15084 106.197 2.99141e-06ZM29.4835 34.0215C29.303 34.0541 29.1247 34.0983 28.9499 34.1539C28.1686 34.2952 27.4422 34.6517 26.8524 35.1832C26.2625 35.7147 25.8326 36.4001 25.6108 37.1625C25.389 37.9249 25.3843 38.734 25.5971 39.4989C25.8098 40.2638 26.2317 40.9543 26.8152 41.4927L30.9521 45.6295L23.8823 52.5628C15.5146 60.9305 14.665 73.9431 21.214 83.6513L1.19559 103.657C0.791929 104.061 0.471726 104.54 0.253265 105.067C0.0348037 105.595 -0.0776367 106.16 -0.0776367 106.731C-0.0776367 107.302 0.0348037 107.867 0.253265 108.394C0.471726 108.922 0.791929 109.401 1.19559 109.805C1.59926 110.208 2.07847 110.528 2.60588 110.747C3.1333 110.965 3.69857 111.078 4.26944 111.078C4.8403 111.078 5.40558 110.965 5.93299 110.747C6.4604 110.528 6.93962 110.208 7.34328 109.805L27.2208 89.9228C36.6302 96.7194 49.6812 95.4984 58.4417 87.1222C58.4417 86.7977 62.0919 83.2372 65.3749 80.0524L69.5161 84.1892C69.9192 84.5921 70.3977 84.9115 70.9243 85.1294C71.4508 85.3473 72.0152 85.4594 72.5851 85.4592C73.1549 85.459 73.7192 85.3465 74.2456 85.1283C74.772 84.91 75.2503 84.5902 75.6531 84.1871C76.0559 83.784 76.3754 83.3055 76.5933 82.7789C76.8112 82.2524 76.9233 81.688 76.9231 81.1182C76.9229 80.5483 76.8104 79.984 76.5922 79.4576C76.3739 78.9312 76.0541 78.4529 75.651 78.0501L32.9587 35.3578C32.518 34.8884 31.9769 34.5248 31.3758 34.2941C30.7748 34.0635 30.1293 33.9717 29.4878 34.0258L29.4835 34.0215Z" fill="#6936F5"/>
</svg>
