<svg width="321" height="226" viewBox="0 0 321 226" fill="none" xmlns="http://www.w3.org/2000/svg">
<path d="M5.26578 22.196C4.59378 22.196 3.99178 22.0653 3.45978 21.804C2.93711 21.5333 2.52178 21.1507 2.21378 20.656C1.91511 20.1613 1.76578 19.5733 1.76578 18.892V15.476C1.76578 14.7387 1.91045 14.1133 2.19978 13.6C2.48911 13.0867 2.89511 12.6947 3.41778 12.424C3.94978 12.144 4.57978 12.004 5.30778 12.004C6.02645 12.004 6.63778 12.1347 7.14178 12.396C7.65511 12.648 8.04245 12.998 8.30378 13.446C8.57445 13.8847 8.70978 14.3933 8.70978 14.972H7.56178C7.56178 14.3933 7.37511 13.9267 7.00178 13.572C6.62845 13.208 6.06378 13.026 5.30778 13.026C4.54245 13.026 3.94978 13.236 3.52978 13.656C3.10978 14.0667 2.89978 14.636 2.89978 15.364V16.722H3.09578C3.26378 16.442 3.54378 16.1853 3.93578 15.952C4.32778 15.7093 4.87378 15.588 5.57378 15.588C6.16178 15.588 6.69845 15.7187 7.18378 15.98C7.66911 16.2413 8.05645 16.61 8.34578 17.086C8.63512 17.562 8.77978 18.1267 8.77978 18.78V18.948C8.77978 19.6107 8.62578 20.1847 8.31778 20.67C8.01911 21.1553 7.60378 21.5333 7.07178 21.804C6.53978 22.0653 5.93778 22.196 5.26578 22.196ZM5.26578 21.174C5.97511 21.174 6.54911 20.9733 6.98778 20.572C7.42645 20.1707 7.64578 19.6247 7.64578 18.934V18.822C7.64578 18.3553 7.54311 17.954 7.33778 17.618C7.14178 17.282 6.86645 17.0207 6.51178 16.834C6.15711 16.638 5.74178 16.54 5.26578 16.54C4.79911 16.54 4.38845 16.638 4.03378 16.834C3.67911 17.0207 3.39911 17.282 3.19378 17.618C2.99778 17.954 2.89978 18.3553 2.89978 18.822V18.934C2.89978 19.6247 3.11911 20.1707 3.55778 20.572C3.99645 20.9733 4.56578 21.174 5.26578 21.174ZM13.978 22.196C12.8674 22.196 11.9807 21.8693 11.318 21.216C10.6647 20.5533 10.338 19.564 10.338 18.248V15.952C10.338 14.6453 10.6647 13.6607 11.318 12.998C11.9807 12.3353 12.8674 12.004 13.978 12.004C15.098 12.004 15.9847 12.3353 16.638 12.998C17.3007 13.6607 17.632 14.6453 17.632 15.952V18.248C17.632 19.564 17.3007 20.5533 16.638 21.216C15.9847 21.8693 15.098 22.196 13.978 22.196ZM13.978 21.174C14.818 21.174 15.448 20.922 15.868 20.418C16.288 19.914 16.498 19.2093 16.498 18.304V15.882C16.498 14.9767 16.2834 14.2767 15.854 13.782C15.4247 13.278 14.7994 13.026 13.978 13.026C13.1567 13.026 12.5314 13.278 12.102 13.782C11.682 14.286 11.472 14.986 11.472 15.882V18.304C11.472 19.2187 11.682 19.928 12.102 20.432C12.522 20.9267 13.1474 21.174 13.978 21.174ZM19.6288 22V12.2H20.7348V17.968H20.9308L24.0668 15.154H25.6068L21.8128 18.486L25.7188 22H24.1928L20.9308 19.018H20.7348V22H19.6288Z" fill="#5F6D7E"/>
<path d="M6.30605 88V85.998H1.19605V84.654L5.31205 78.2H7.44005V84.976H9.12005V85.998H7.44005V88H6.30605ZM2.33005 84.976H6.30605V78.886H6.11005L2.33005 84.808V84.976ZM13.978 88.196C12.8674 88.196 11.9807 87.8693 11.318 87.216C10.6647 86.5533 10.338 85.564 10.338 84.248V81.952C10.338 80.6453 10.6647 79.6607 11.318 78.998C11.9807 78.3353 12.8674 78.004 13.978 78.004C15.098 78.004 15.9847 78.3353 16.638 78.998C17.3007 79.6607 17.632 80.6453 17.632 81.952V84.248C17.632 85.564 17.3007 86.5533 16.638 87.216C15.9847 87.8693 15.098 88.196 13.978 88.196ZM13.978 87.174C14.818 87.174 15.448 86.922 15.868 86.418C16.288 85.914 16.498 85.2093 16.498 84.304V81.882C16.498 80.9767 16.2834 80.2767 15.854 79.782C15.4247 79.278 14.7994 79.026 13.978 79.026C13.1567 79.026 12.5314 79.278 12.102 79.782C11.682 80.286 11.472 80.986 11.472 81.882V84.304C11.472 85.2187 11.682 85.928 12.102 86.432C12.522 86.9267 13.1474 87.174 13.978 87.174ZM19.6288 88V78.2H20.7348V83.968H20.9308L24.0668 81.154H25.6068L21.8128 84.486L25.7188 88H24.1928L20.9308 85.018H20.7348V88H19.6288Z" fill="#5F6D7E"/>
<path d="M1.8045 154V152.978C1.8045 152.278 1.92583 151.718 2.1685 151.298C2.4205 150.878 2.76583 150.542 3.2045 150.29C3.6525 150.029 4.1845 149.805 4.8005 149.618L5.5705 149.38C5.9905 149.249 6.35917 149.091 6.6765 148.904C6.99383 148.708 7.24117 148.465 7.4185 148.176C7.59583 147.877 7.6845 147.513 7.6845 147.084V147.028C7.6845 146.412 7.46983 145.927 7.0405 145.572C6.61117 145.208 6.0605 145.026 5.3885 145.026C4.67917 145.026 4.1005 145.217 3.6525 145.6C3.2045 145.973 2.9805 146.543 2.9805 147.308V147.504H1.8605V147.322C1.8605 146.613 2.0145 146.011 2.3225 145.516C2.6305 145.021 3.0505 144.648 3.5825 144.396C4.1145 144.135 4.7165 144.004 5.3885 144.004C6.0605 144.004 6.65317 144.13 7.1665 144.382C7.68917 144.634 8.09517 144.984 8.3845 145.432C8.67383 145.88 8.8185 146.403 8.8185 147V147.126C8.8185 147.761 8.6925 148.288 8.4405 148.708C8.1885 149.119 7.8385 149.455 7.3905 149.716C6.95183 149.977 6.43383 150.201 5.8365 150.388L5.0805 150.626C4.6045 150.775 4.20783 150.934 3.8905 151.102C3.5825 151.261 3.34917 151.466 3.1905 151.718C3.03183 151.97 2.9525 152.311 2.9525 152.74V152.978H8.7345V154H1.8045ZM13.978 154.196C12.8674 154.196 11.9807 153.869 11.318 153.216C10.6647 152.553 10.338 151.564 10.338 150.248V147.952C10.338 146.645 10.6647 145.661 11.318 144.998C11.9807 144.335 12.8674 144.004 13.978 144.004C15.098 144.004 15.9847 144.335 16.638 144.998C17.3007 145.661 17.632 146.645 17.632 147.952V150.248C17.632 151.564 17.3007 152.553 16.638 153.216C15.9847 153.869 15.098 154.196 13.978 154.196ZM13.978 153.174C14.818 153.174 15.448 152.922 15.868 152.418C16.288 151.914 16.498 151.209 16.498 150.304V147.882C16.498 146.977 16.2834 146.277 15.854 145.782C15.4247 145.278 14.7994 145.026 13.978 145.026C13.1567 145.026 12.5314 145.278 12.102 145.782C11.682 146.286 11.472 146.986 11.472 147.882V150.304C11.472 151.219 11.682 151.928 12.102 152.432C12.522 152.927 13.1474 153.174 13.978 153.174ZM19.6288 154V144.2H20.7348V149.968H20.9308L24.0668 147.154H25.6068L21.8128 150.486L25.7188 154H24.1928L20.9308 151.018H20.7348V154H19.6288Z" fill="#5F6D7E"/>
<path d="M13.978 220.196C12.8674 220.196 11.9807 219.869 11.318 219.216C10.6647 218.553 10.338 217.564 10.338 216.248V213.952C10.338 212.645 10.6647 211.661 11.318 210.998C11.9807 210.335 12.8674 210.004 13.978 210.004C15.098 210.004 15.9847 210.335 16.638 210.998C17.3007 211.661 17.632 212.645 17.632 213.952V216.248C17.632 217.564 17.3007 218.553 16.638 219.216C15.9847 219.869 15.098 220.196 13.978 220.196ZM13.978 219.174C14.818 219.174 15.448 218.922 15.868 218.418C16.288 217.914 16.498 217.209 16.498 216.304V213.882C16.498 212.977 16.2834 212.277 15.854 211.782C15.4247 211.278 14.7994 211.026 13.978 211.026C13.1567 211.026 12.5314 211.278 12.102 211.782C11.682 212.286 11.472 212.986 11.472 213.882V216.304C11.472 217.219 11.682 217.928 12.102 218.432C12.522 218.927 13.1474 219.174 13.978 219.174ZM19.6288 220V210.2H20.7348V215.968H20.9308L24.0668 213.154H25.6068L21.8128 216.486L25.7188 220H24.1928L20.9308 217.018H20.7348V220H19.6288Z" fill="#5F6D7E"/>
<line x1="34.9961" y1="15.5" x2="314.996" y2="15.5" stroke="#D7D7D7" stroke-dasharray="6 6"/>
<line x1="35" y1="82.5" x2="315" y2="82.5" stroke="#D7D7D7" stroke-dasharray="6 6"/>
<line x1="35.0039" y1="149.5" x2="315.004" y2="149.5" stroke="#D7D7D7" stroke-dasharray="6 6"/>
<line x1="35.0078" y1="216.5" x2="315.008" y2="216.5" stroke="#D7D7D7" stroke-dasharray="6 6"/>
<g filter="url(#filter0_d_651_13628)">
<path d="M42 216C42 216 70.8968 206.465 81.9593 192C91.0363 180.131 82.297 163.944 94.9461 156C108.313 147.606 121.462 170.271 134.905 162C149.336 153.122 133.504 131.561 145.894 120C159.416 107.383 177.407 124.174 192.846 114C215.319 99.1915 195.025 53 220 48C244.975 43 263.774 94 271.766 75C279.758 56 271.766 54 279.758 43C285.83 34.6418 291.746 48 305.731 48C319.717 48 313.723 18 313.723 18" stroke="#6936F5" stroke-width="3"/>
</g>
<g filter="url(#filter1_d_651_13628)">
<circle cx="219" cy="46" r="5" fill="#6936F5"/>
<circle cx="219" cy="46" r="7" stroke="white" stroke-width="4"/>
</g>
<g filter="url(#filter2_d_651_13628)">
<mask id="path-12-inside-1_651_13628" fill="white">
<path fill-rule="evenodd" clip-rule="evenodd" d="M189 0C185.686 0 183 2.68629 183 6V22.1398C183 25.4535 185.686 28.1398 189 28.1398H215.67L218.881 32.3292L222.093 28.1398H249.103C252.416 28.1398 255.103 25.4535 255.103 22.1398V6C255.103 2.68629 252.416 0 249.103 0H189Z"/>
</mask>
<path fill-rule="evenodd" clip-rule="evenodd" d="M189 0C185.686 0 183 2.68629 183 6V22.1398C183 25.4535 185.686 28.1398 189 28.1398H215.67L218.881 32.3292L222.093 28.1398H249.103C252.416 28.1398 255.103 25.4535 255.103 22.1398V6C255.103 2.68629 252.416 0 249.103 0H189Z" fill="white"/>
<path d="M215.67 28.1398L216.463 27.5314L216.163 27.1398H215.67V28.1398ZM218.881 32.3292L218.088 32.9376L218.881 33.9728L219.675 32.9376L218.881 32.3292ZM222.093 28.1398V27.1398H221.6L221.299 27.5314L222.093 28.1398ZM184 6C184 3.23858 186.239 1 189 1V-1C185.134 -1 182 2.13401 182 6H184ZM184 22.1398V6H182V22.1398H184ZM189 27.1398C186.239 27.1398 184 24.9013 184 22.1398H182C182 26.0058 185.134 29.1398 189 29.1398V27.1398ZM215.67 27.1398H189V29.1398H215.67V27.1398ZM214.876 28.7482L218.088 32.9376L219.675 31.7208L216.463 27.5314L214.876 28.7482ZM219.675 32.9376L222.887 28.7482L221.299 27.5314L218.088 31.7208L219.675 32.9376ZM249.103 27.1398H222.093V29.1398H249.103V27.1398ZM254.103 22.1398C254.103 24.9013 251.864 27.1398 249.103 27.1398V29.1398C252.969 29.1398 256.103 26.0058 256.103 22.1398H254.103ZM254.103 6V22.1398H256.103V6H254.103ZM249.103 1C251.864 1 254.103 3.23858 254.103 6H256.103C256.103 2.13401 252.969 -1 249.103 -1V1ZM189 1H249.103V-1H189V1Z" fill="#D7D7D7" mask="url(#path-12-inside-1_651_13628)"/>
</g>
<path d="M193.624 18.168C192.992 18.168 192.444 18.052 191.98 17.82C191.516 17.588 191.156 17.26 190.9 16.836C190.652 16.412 190.528 15.92 190.528 15.36V15.228H191.812V15.348C191.812 15.86 191.968 16.272 192.28 16.584C192.6 16.888 193.044 17.04 193.612 17.04C194.196 17.04 194.648 16.88 194.968 16.56C195.288 16.24 195.448 15.808 195.448 15.264V15.156C195.448 14.636 195.288 14.22 194.968 13.908C194.656 13.596 194.256 13.44 193.768 13.44C193.496 13.44 193.268 13.484 193.084 13.572C192.908 13.652 192.764 13.752 192.652 13.872C192.548 13.992 192.46 14.108 192.388 14.22H190.792V9.6H196.42V10.74H192.052V13.212H192.244C192.324 13.076 192.436 12.948 192.58 12.828C192.732 12.7 192.928 12.596 193.168 12.516C193.408 12.436 193.696 12.396 194.032 12.396C194.528 12.396 194.976 12.504 195.376 12.72C195.784 12.928 196.108 13.24 196.348 13.656C196.588 14.064 196.708 14.56 196.708 15.144V15.276C196.708 15.86 196.584 16.368 196.336 16.8C196.088 17.232 195.732 17.568 195.268 17.808C194.812 18.048 194.264 18.168 193.624 18.168ZM201.048 18.168C200.072 18.168 199.292 17.892 198.708 17.34C198.132 16.78 197.844 15.94 197.844 14.82V12.78C197.844 11.684 198.132 10.852 198.708 10.284C199.292 9.716 200.072 9.432 201.048 9.432C202.032 9.432 202.812 9.716 203.388 10.284C203.972 10.852 204.264 11.684 204.264 12.78V14.82C204.264 15.94 203.972 16.78 203.388 17.34C202.812 17.892 202.032 18.168 201.048 18.168ZM201.048 17.04C201.712 17.04 202.204 16.852 202.524 16.476C202.844 16.092 203.004 15.556 203.004 14.868V12.708C203.004 12.02 202.832 11.492 202.488 11.124C202.144 10.748 201.664 10.56 201.048 10.56C200.424 10.56 199.944 10.752 199.608 11.136C199.272 11.512 199.104 12.036 199.104 12.708V14.868C199.104 15.572 199.264 16.112 199.584 16.488C199.912 16.856 200.4 17.04 201.048 17.04ZM205.678 19.632V18.924H206.086C206.414 18.924 206.578 18.76 206.578 18.432V18.048H206.398C206.118 18.048 205.886 17.964 205.702 17.796C205.518 17.628 205.426 17.416 205.426 17.16C205.426 16.88 205.518 16.656 205.702 16.488C205.886 16.312 206.118 16.224 206.398 16.224C206.678 16.224 206.906 16.316 207.082 16.5C207.266 16.676 207.358 16.908 207.358 17.196V18.444C207.358 19.236 206.962 19.632 206.17 19.632H205.678ZM211.735 18.168C210.759 18.168 209.979 17.892 209.395 17.34C208.819 16.78 208.531 15.94 208.531 14.82V12.78C208.531 11.684 208.819 10.852 209.395 10.284C209.979 9.716 210.759 9.432 211.735 9.432C212.719 9.432 213.499 9.716 214.075 10.284C214.659 10.852 214.951 11.684 214.951 12.78V14.82C214.951 15.94 214.659 16.78 214.075 17.34C213.499 17.892 212.719 18.168 211.735 18.168ZM211.735 17.04C212.399 17.04 212.891 16.852 213.211 16.476C213.531 16.092 213.691 15.556 213.691 14.868V12.708C213.691 12.02 213.519 11.492 213.175 11.124C212.831 10.748 212.351 10.56 211.735 10.56C211.111 10.56 210.631 10.752 210.295 11.136C209.959 11.512 209.791 12.036 209.791 12.708V14.868C209.791 15.572 209.951 16.112 210.271 16.488C210.599 16.856 211.087 17.04 211.735 17.04ZM219.469 18.168C218.493 18.168 217.713 17.892 217.129 17.34C216.553 16.78 216.265 15.94 216.265 14.82V12.78C216.265 11.684 216.553 10.852 217.129 10.284C217.713 9.716 218.493 9.432 219.469 9.432C220.453 9.432 221.233 9.716 221.809 10.284C222.393 10.852 222.685 11.684 222.685 12.78V14.82C222.685 15.94 222.393 16.78 221.809 17.34C221.233 17.892 220.453 18.168 219.469 18.168ZM219.469 17.04C220.133 17.04 220.625 16.852 220.945 16.476C221.265 16.092 221.425 15.556 221.425 14.868V12.708C221.425 12.02 221.253 11.492 220.909 11.124C220.565 10.748 220.085 10.56 219.469 10.56C218.845 10.56 218.365 10.752 218.029 11.136C217.693 11.512 217.525 12.036 217.525 12.708V14.868C217.525 15.572 217.685 16.112 218.005 16.488C218.333 16.856 218.821 17.04 219.469 17.04ZM227.204 18.168C226.228 18.168 225.448 17.892 224.864 17.34C224.288 16.78 224 15.94 224 14.82V12.78C224 11.684 224.288 10.852 224.864 10.284C225.448 9.716 226.228 9.432 227.204 9.432C228.188 9.432 228.968 9.716 229.544 10.284C230.128 10.852 230.42 11.684 230.42 12.78V14.82C230.42 15.94 230.128 16.78 229.544 17.34C228.968 17.892 228.188 18.168 227.204 18.168ZM227.204 17.04C227.868 17.04 228.36 16.852 228.68 16.476C229 16.092 229.16 15.556 229.16 14.868V12.708C229.16 12.02 228.988 11.492 228.644 11.124C228.3 10.748 227.82 10.56 227.204 10.56C226.58 10.56 226.1 10.752 225.764 11.136C225.428 11.512 225.26 12.036 225.26 12.708V14.868C225.26 15.572 225.42 16.112 225.74 16.488C226.068 16.856 226.556 17.04 227.204 17.04Z" fill="#242739"/>
<defs>
<filter id="filter0_d_651_13628" x="37.5303" y="17.707" width="282.97" height="207.717" filterUnits="userSpaceOnUse" color-interpolation-filters="sRGB">
<feFlood flood-opacity="0" result="BackgroundImageFix"/>
<feColorMatrix in="SourceAlpha" type="matrix" values="0 0 0 0 0 0 0 0 0 0 0 0 0 0 0 0 0 0 127 0" result="hardAlpha"/>
<feOffset dy="4"/>
<feGaussianBlur stdDeviation="2"/>
<feComposite in2="hardAlpha" operator="out"/>
<feColorMatrix type="matrix" values="0 0 0 0 0 0 0 0 0 0 0 0 0 0 0 0 0 0 0.25 0"/>
<feBlend mode="normal" in2="BackgroundImageFix" result="effect1_dropShadow_651_13628"/>
<feBlend mode="normal" in="SourceGraphic" in2="effect1_dropShadow_651_13628" result="shape"/>
</filter>
<filter id="filter1_d_651_13628" x="206" y="37" width="26" height="26" filterUnits="userSpaceOnUse" color-interpolation-filters="sRGB">
<feFlood flood-opacity="0" result="BackgroundImageFix"/>
<feColorMatrix in="SourceAlpha" type="matrix" values="0 0 0 0 0 0 0 0 0 0 0 0 0 0 0 0 0 0 127 0" result="hardAlpha"/>
<feOffset dy="4"/>
<feGaussianBlur stdDeviation="2"/>
<feComposite in2="hardAlpha" operator="out"/>
<feColorMatrix type="matrix" values="0 0 0 0 0 0 0 0 0 0 0 0 0 0 0 0 0 0 0.25 0"/>
<feBlend mode="normal" in2="BackgroundImageFix" result="effect1_dropShadow_651_13628"/>
<feBlend mode="normal" in="SourceGraphic" in2="effect1_dropShadow_651_13628" result="shape"/>
</filter>
<filter id="filter2_d_651_13628" x="179" y="0" width="80.1025" height="40.3301" filterUnits="userSpaceOnUse" color-interpolation-filters="sRGB">
<feFlood flood-opacity="0" result="BackgroundImageFix"/>
<feColorMatrix in="SourceAlpha" type="matrix" values="0 0 0 0 0 0 0 0 0 0 0 0 0 0 0 0 0 0 127 0" result="hardAlpha"/>
<feOffset dy="4"/>
<feGaussianBlur stdDeviation="2"/>
<feComposite in2="hardAlpha" operator="out"/>
<feColorMatrix type="matrix" values="0 0 0 0 0 0 0 0 0 0 0 0 0 0 0 0 0 0 0.08 0"/>
<feBlend mode="normal" in2="BackgroundImageFix" result="effect1_dropShadow_651_13628"/>
<feBlend mode="normal" in="SourceGraphic" in2="effect1_dropShadow_651_13628" result="shape"/>
</filter>
</defs>
</svg>
