<svg width="24" height="24" viewBox="0 0 24 24" fill="none" xmlns="http://www.w3.org/2000/svg">
<g clip-path="url(#clip0_4647_16761)">
<path d="M5.49817 5.41965C6.65776 4.26277 8.10372 3.43458 9.68824 3.0197L9.93057 2.95956L9.97964 2.95064C10.2643 2.91957 10.5505 2.99583 10.782 3.16469C11.0123 3.33262 11.1718 3.57996 11.2301 3.85859L11.2467 3.96963L11.249 4.01794V10.9999V11C11.2491 11.4286 11.4064 11.8424 11.6913 12.1627C11.9761 12.483 12.3686 12.6876 12.7943 12.7378L12.8157 12.7403L12.8372 12.7416L12.9542 12.7486L12.9766 12.7499H12.999H19.799C20.1305 12.7499 20.4485 12.8816 20.6829 13.116C20.9172 13.3504 21.0489 13.6681 21.049 13.9995C21.049 14.0185 21.0468 14.0375 21.0425 14.056L21.0424 14.0566C20.6722 15.6537 19.8842 17.1238 18.759 18.3163C17.6338 19.5087 16.2119 20.3807 14.6389 20.8429C13.0659 21.3051 11.3983 21.3409 9.80695 20.9466C8.21555 20.5524 6.75754 19.7423 5.58221 18.5992C4.40688 17.4562 3.55647 16.0213 3.11808 14.4415C2.67968 12.8617 2.66904 11.1937 3.08726 9.60847C3.50548 8.02321 4.33752 6.57759 5.49817 5.41965Z" stroke="#5F6D7E" stroke-width="1.5"/>
<path d="M14.75 3.50002V3.50007V9.00007C14.75 9.06638 14.7763 9.12997 14.8232 9.17685C14.8701 9.22373 14.9337 9.25007 15 9.25007H20.4998L14.75 3.50002ZM14.75 3.50002C14.75 3.46003 14.7596 3.42062 14.778 3.38511C14.7963 3.34959 14.823 3.319 14.8556 3.29591C14.8883 3.27281 14.926 3.25789 14.9656 3.25238C15.0052 3.24688 15.0455 3.25095 15.0833 3.26427L15.0838 3.26447M14.75 3.50002L15.0838 3.26447M15.0838 3.26447C16.3886 3.72409 17.5737 4.47052 18.5518 5.4488C19.5299 6.42705 20.2761 7.61224 20.7355 8.91707L15.0838 3.26447ZM20.6146 9.22211C20.5792 9.24044 20.5399 9.25003 20.5 9.25007L20.7356 8.91714C20.7488 8.95481 20.7528 8.99511 20.7473 9.03467C20.7418 9.07424 20.7269 9.11191 20.7038 9.14453C20.6807 9.17714 20.6501 9.20374 20.6146 9.22211Z" stroke="#5F6D7E" stroke-width="1.5"/>
</g>
<defs>
<clipPath id="clip0_4647_16761">
<rect width="24" height="24" fill="white"/>
</clipPath>
</defs>
</svg>
