<svg width="327" height="122" viewBox="0 0 327 122" fill="none" xmlns="http://www.w3.org/2000/svg">
<rect x="0.5" y="0.5" width="326" height="121" rx="7.5" fill="white"/>
<path d="M20.4062 29.168C19.3822 29.168 18.5702 28.88 17.9702 28.304C17.3702 27.72 17.0702 26.88 17.0702 25.784V23.816C17.0702 22.72 17.3702 21.884 17.9702 21.308C18.5702 20.724 19.3822 20.432 20.4062 20.432C21.4142 20.432 22.1902 20.712 22.7342 21.272C23.2862 21.832 23.5622 22.596 23.5622 23.564V23.636H22.2782V23.528C22.2782 22.96 22.1222 22.496 21.8102 22.136C21.5062 21.776 21.0382 21.596 20.4062 21.596C19.7662 21.596 19.2662 21.792 18.9062 22.184C18.5462 22.568 18.3662 23.104 18.3662 23.792V25.808C18.3662 26.488 18.5462 27.024 18.9062 27.416C19.2662 27.808 19.7662 28.004 20.4062 28.004C21.0382 28.004 21.5062 27.824 21.8102 27.464C22.1222 27.096 22.2782 26.632 22.2782 26.072V25.868H23.5622V26.036C23.5622 27.004 23.2862 27.768 22.7342 28.328C22.1902 28.888 21.4142 29.168 20.4062 29.168ZM24.9971 29V20.6H28.5251C29.0451 20.6 29.5011 20.692 29.8931 20.876C30.2931 21.052 30.6011 21.308 30.8171 21.644C31.0411 21.98 31.1531 22.38 31.1531 22.844V22.976C31.1531 23.504 31.0251 23.928 30.7691 24.248C30.5211 24.56 30.2171 24.78 29.8571 24.908V25.1C30.1611 25.116 30.4051 25.22 30.5891 25.412C30.7731 25.596 30.8651 25.864 30.8651 26.216V29H29.5571V26.396C29.5571 26.18 29.5011 26.008 29.3891 25.88C29.2771 25.752 29.0971 25.688 28.8491 25.688H26.2931V29H24.9971ZM26.2931 24.512H28.3811C28.8451 24.512 29.2051 24.396 29.4611 24.164C29.7171 23.924 29.8451 23.6 29.8451 23.192V23.096C29.8451 22.688 29.7171 22.368 29.4611 22.136C29.2131 21.896 28.8531 21.776 28.3811 21.776H26.2931V24.512ZM32.5791 29V20.6H37.8711V21.776H33.8751V24.188H37.5351V25.364H33.8751V27.824H37.9311V29H32.5791ZM38.9703 29V27.848H40.0983V21.752H38.9703V20.6H42.3303C43.4503 20.6 44.3063 20.884 44.8983 21.452C45.4983 22.02 45.7983 22.876 45.7983 24.02V25.592C45.7983 26.736 45.4983 27.592 44.8983 28.16C44.3063 28.72 43.4503 29 42.3303 29H38.9703ZM41.4062 27.824H42.3423C43.0703 27.824 43.6103 27.64 43.9623 27.272C44.3143 26.904 44.4903 26.356 44.4903 25.628V23.972C44.4903 23.236 44.3143 22.688 43.9623 22.328C43.6103 21.968 43.0703 21.788 42.3423 21.788H41.4062V27.824ZM47.2627 29V20.6H48.5587V29H47.2627ZM52.3136 29V21.776H49.7336V20.6H56.1896V21.776H53.6096V29H52.3136ZM62.939 29.168C62.307 29.168 61.747 29.056 61.259 28.832C60.771 28.608 60.387 28.28 60.107 27.848C59.835 27.408 59.699 26.876 59.699 26.252V25.952H60.983V26.252C60.983 26.844 61.159 27.288 61.511 27.584C61.871 27.88 62.347 28.028 62.939 28.028C63.539 28.028 63.991 27.904 64.295 27.656C64.599 27.4 64.751 27.072 64.751 26.672C64.751 26.408 64.679 26.192 64.535 26.024C64.391 25.856 64.187 25.724 63.923 25.628C63.659 25.524 63.343 25.428 62.975 25.34L62.531 25.232C61.995 25.104 61.527 24.948 61.127 24.764C60.735 24.572 60.431 24.32 60.215 24.008C59.999 23.696 59.891 23.296 59.891 22.808C59.891 22.312 60.011 21.888 60.251 21.536C60.499 21.184 60.839 20.912 61.271 20.72C61.703 20.528 62.211 20.432 62.795 20.432C63.379 20.432 63.899 20.532 64.355 20.732C64.819 20.932 65.183 21.228 65.447 21.62C65.711 22.012 65.843 22.504 65.843 23.096V23.528H64.559V23.096C64.559 22.736 64.483 22.444 64.331 22.22C64.187 21.996 63.983 21.832 63.719 21.728C63.455 21.624 63.147 21.572 62.795 21.572C62.283 21.572 61.883 21.68 61.595 21.896C61.315 22.104 61.175 22.396 61.175 22.772C61.175 23.028 61.235 23.24 61.355 23.408C61.483 23.568 61.667 23.7 61.907 23.804C62.147 23.908 62.447 24 62.807 24.08L63.251 24.188C63.795 24.308 64.275 24.464 64.691 24.656C65.107 24.84 65.435 25.092 65.675 25.412C65.915 25.732 66.035 26.144 66.035 26.648C66.035 27.152 65.907 27.592 65.651 27.968C65.403 28.344 65.047 28.64 64.583 28.856C64.119 29.064 63.571 29.168 62.939 29.168ZM70.5155 29.168C69.4915 29.168 68.6795 28.88 68.0795 28.304C67.4795 27.72 67.1795 26.88 67.1795 25.784V23.816C67.1795 22.72 67.4795 21.884 68.0795 21.308C68.6795 20.724 69.4915 20.432 70.5155 20.432C71.5235 20.432 72.2995 20.712 72.8435 21.272C73.3955 21.832 73.6715 22.596 73.6715 23.564V23.636H72.3875V23.528C72.3875 22.96 72.2315 22.496 71.9195 22.136C71.6155 21.776 71.1475 21.596 70.5155 21.596C69.8755 21.596 69.3755 21.792 69.0155 22.184C68.6555 22.568 68.4755 23.104 68.4755 23.792V25.808C68.4755 26.488 68.6555 27.024 69.0155 27.416C69.3755 27.808 69.8755 28.004 70.5155 28.004C71.1475 28.004 71.6155 27.824 71.9195 27.464C72.2315 27.096 72.3875 26.632 72.3875 26.072V25.868H73.6715V26.036C73.6715 27.004 73.3955 27.768 72.8435 28.328C72.2995 28.888 71.5235 29.168 70.5155 29.168ZM78.2625 29.168C77.2305 29.168 76.4105 28.88 75.8025 28.304C75.1945 27.72 74.8905 26.88 74.8905 25.784V23.816C74.8905 22.72 75.1945 21.884 75.8025 21.308C76.4105 20.724 77.2305 20.432 78.2625 20.432C79.2945 20.432 80.1145 20.724 80.7225 21.308C81.3385 21.884 81.6465 22.72 81.6465 23.816V25.784C81.6465 26.88 81.3385 27.72 80.7225 28.304C80.1145 28.88 79.2945 29.168 78.2625 29.168ZM78.2625 28.004C78.9265 28.004 79.4385 27.812 79.7985 27.428C80.1585 27.036 80.3385 26.504 80.3385 25.832V23.768C80.3385 23.096 80.1585 22.568 79.7985 22.184C79.4385 21.792 78.9265 21.596 78.2625 21.596C77.6145 21.596 77.1065 21.792 76.7385 22.184C76.3705 22.568 76.1865 23.096 76.1865 23.768V25.832C76.1865 26.504 76.3705 27.036 76.7385 27.428C77.1065 27.812 77.6145 28.004 78.2625 28.004ZM83.1807 29V20.6H86.7087C87.2287 20.6 87.6847 20.692 88.0767 20.876C88.4767 21.052 88.7847 21.308 89.0007 21.644C89.2247 21.98 89.3367 22.38 89.3367 22.844V22.976C89.3367 23.504 89.2087 23.928 88.9527 24.248C88.7047 24.56 88.4007 24.78 88.0407 24.908V25.1C88.3447 25.116 88.5887 25.22 88.7727 25.412C88.9567 25.596 89.0487 25.864 89.0487 26.216V29H87.7407V26.396C87.7407 26.18 87.6847 26.008 87.5727 25.88C87.4607 25.752 87.2807 25.688 87.0327 25.688H84.4767V29H83.1807ZM84.4767 24.512H86.5647C87.0287 24.512 87.3887 24.396 87.6447 24.164C87.9007 23.924 88.0287 23.6 88.0287 23.192V23.096C88.0287 22.688 87.9007 22.368 87.6447 22.136C87.3967 21.896 87.0367 21.776 86.5647 21.776H84.4767V24.512ZM90.7627 29V20.6H96.0547V21.776H92.0587V24.188H95.7187V25.364H92.0587V27.824H96.1147V29H90.7627Z" fill="#242739"/>
<path d="M59.2354 65V56.6H64.4074V57.512H60.2434V60.32H64.0714V61.232H60.2434V64.088H64.4674V65H59.2354ZM65.5531 65L67.9051 62.024L65.6251 59.132H66.7651L68.5171 61.4H68.6851L70.4251 59.132H71.5771L69.2851 62.024L71.6371 65H70.4851L68.6851 62.66H68.5171L66.7171 65H65.5531ZM75.448 65.168C74.88 65.168 74.368 65.048 73.912 64.808C73.464 64.56 73.108 64.208 72.844 63.752C72.588 63.296 72.46 62.756 72.46 62.132V62C72.46 61.368 72.588 60.828 72.844 60.38C73.108 59.924 73.464 59.576 73.912 59.336C74.368 59.088 74.88 58.964 75.448 58.964C76.008 58.964 76.484 59.068 76.876 59.276C77.276 59.484 77.588 59.76 77.812 60.104C78.044 60.448 78.192 60.816 78.256 61.208L77.332 61.4C77.292 61.112 77.196 60.848 77.044 60.608C76.9 60.368 76.696 60.176 76.432 60.032C76.168 59.888 75.844 59.816 75.46 59.816C75.068 59.816 74.716 59.904 74.404 60.08C74.1 60.256 73.856 60.508 73.672 60.836C73.496 61.164 73.408 61.556 73.408 62.012V62.12C73.408 62.576 73.496 62.968 73.672 63.296C73.856 63.624 74.1 63.876 74.404 64.052C74.716 64.228 75.068 64.316 75.46 64.316C76.044 64.316 76.488 64.164 76.792 63.86C77.104 63.556 77.296 63.18 77.368 62.732L78.304 62.936C78.216 63.32 78.056 63.684 77.824 64.028C77.592 64.372 77.276 64.648 76.876 64.856C76.484 65.064 76.008 65.168 75.448 65.168ZM82.6078 65.168C82.0158 65.168 81.4958 65.044 81.0478 64.796C80.5998 64.54 80.2518 64.184 80.0038 63.728C79.7558 63.272 79.6318 62.744 79.6318 62.144V62C79.6318 61.392 79.7558 60.86 80.0038 60.404C80.2518 59.948 80.5958 59.596 81.0358 59.348C81.4758 59.092 81.9798 58.964 82.5478 58.964C83.0998 58.964 83.5878 59.084 84.0118 59.324C84.4358 59.556 84.7678 59.892 85.0078 60.332C85.2478 60.772 85.3678 61.288 85.3678 61.88V62.312H80.5798C80.6038 62.944 80.8078 63.44 81.1918 63.8C81.5758 64.152 82.0558 64.328 82.6318 64.328C83.1358 64.328 83.5238 64.212 83.7958 63.98C84.0678 63.748 84.2758 63.472 84.4198 63.152L85.2358 63.548C85.1158 63.796 84.9478 64.044 84.7318 64.292C84.5238 64.54 84.2478 64.748 83.9038 64.916C83.5678 65.084 83.1358 65.168 82.6078 65.168ZM80.5918 61.532H84.4078C84.3758 60.988 84.1878 60.564 83.8438 60.26C83.5078 59.956 83.0758 59.804 82.5478 59.804C82.0118 59.804 81.5718 59.956 81.2278 60.26C80.8838 60.564 80.6718 60.988 80.5918 61.532ZM87.0214 65V56.6H87.9694V65H87.0214ZM89.9628 65V56.6H90.9108V65H89.9628ZM95.5922 65.168C95.0002 65.168 94.4802 65.044 94.0322 64.796C93.5842 64.54 93.2362 64.184 92.9882 63.728C92.7402 63.272 92.6162 62.744 92.6162 62.144V62C92.6162 61.392 92.7402 60.86 92.9882 60.404C93.2362 59.948 93.5802 59.596 94.0202 59.348C94.4602 59.092 94.9642 58.964 95.5322 58.964C96.0842 58.964 96.5722 59.084 96.9962 59.324C97.4202 59.556 97.7522 59.892 97.9922 60.332C98.2322 60.772 98.3522 61.288 98.3522 61.88V62.312H93.5642C93.5882 62.944 93.7922 63.44 94.1762 63.8C94.5602 64.152 95.0402 64.328 95.6162 64.328C96.1202 64.328 96.5082 64.212 96.7802 63.98C97.0522 63.748 97.2602 63.472 97.4042 63.152L98.2202 63.548C98.1002 63.796 97.9322 64.044 97.7162 64.292C97.5082 64.54 97.2322 64.748 96.8882 64.916C96.5522 65.084 96.1202 65.168 95.5922 65.168ZM93.5762 61.532H97.3922C97.3602 60.988 97.1722 60.564 96.8282 60.26C96.4922 59.956 96.0602 59.804 95.5322 59.804C94.9962 59.804 94.5562 59.956 94.2122 60.26C93.8682 60.564 93.6562 60.988 93.5762 61.532ZM100.006 65V59.132H100.93V60.128H101.098C101.226 59.848 101.442 59.596 101.746 59.372C102.058 59.14 102.514 59.024 103.114 59.024C103.554 59.024 103.946 59.116 104.29 59.3C104.642 59.484 104.922 59.756 105.13 60.116C105.338 60.476 105.442 60.92 105.442 61.448V65H104.494V61.52C104.494 60.936 104.346 60.512 104.05 60.248C103.762 59.984 103.37 59.852 102.874 59.852C102.306 59.852 101.842 60.036 101.482 60.404C101.13 60.772 100.954 61.32 100.954 62.048V65H100.006ZM109.361 65C109.025 65 108.765 64.908 108.581 64.724C108.405 64.54 108.317 64.288 108.317 63.968V59.96H106.553V59.132H108.317V57.044H109.265V59.132H111.185V59.96H109.265V63.824C109.265 64.064 109.381 64.184 109.613 64.184H110.921V65H109.361Z" fill="#242739"/>
<path d="M42.824 100V99.7C42.824 99.42 42.848 99.184 42.896 98.992C42.944 98.8 43.036 98.572 43.172 98.308L46.376 92.608V92.476H41.384V91.6H47.396V92.752L44.048 98.752C43.952 98.92 43.884 99.072 43.844 99.208C43.812 99.344 43.796 99.516 43.796 99.724V100H42.824ZM51.8515 102.4V94.132H52.7755V95.104H52.9435C53.0955 94.808 53.3395 94.544 53.6755 94.312C54.0195 94.08 54.4955 93.964 55.1035 93.964C55.6075 93.964 56.0675 94.088 56.4835 94.336C56.9075 94.576 57.2435 94.92 57.4915 95.368C57.7475 95.816 57.8755 96.356 57.8755 96.988V97.144C57.8755 97.768 57.7515 98.308 57.5035 98.764C57.2555 99.22 56.9195 99.568 56.4955 99.808C56.0795 100.048 55.6155 100.168 55.1035 100.168C54.6955 100.168 54.3475 100.112 54.0595 100C53.7795 99.896 53.5515 99.76 53.3755 99.592C53.1995 99.424 53.0635 99.252 52.9675 99.076H52.7995V102.4H51.8515ZM54.8515 99.328C55.4595 99.328 55.9515 99.136 56.3275 98.752C56.7115 98.36 56.9035 97.816 56.9035 97.12V97.012C56.9035 96.316 56.7115 95.776 56.3275 95.392C55.9515 95 55.4595 94.804 54.8515 94.804C54.2515 94.804 53.7555 95 53.3635 95.392C52.9795 95.776 52.7875 96.316 52.7875 97.012V97.12C52.7875 97.816 52.9795 98.36 53.3635 98.752C53.7555 99.136 54.2515 99.328 54.8515 99.328ZM62.2861 100.168C61.6941 100.168 61.1701 100.044 60.7141 99.796C60.2661 99.548 59.9141 99.2 59.6581 98.752C59.4101 98.296 59.2861 97.76 59.2861 97.144V96.988C59.2861 96.38 59.4101 95.848 59.6581 95.392C59.9141 94.936 60.2661 94.584 60.7141 94.336C61.1701 94.088 61.6941 93.964 62.2861 93.964C62.8781 93.964 63.3981 94.088 63.8461 94.336C64.3021 94.584 64.6541 94.936 64.9021 95.392C65.1581 95.848 65.2861 96.38 65.2861 96.988V97.144C65.2861 97.76 65.1581 98.296 64.9021 98.752C64.6541 99.2 64.3021 99.548 63.8461 99.796C63.3981 100.044 62.8781 100.168 62.2861 100.168ZM62.2861 99.316C62.9101 99.316 63.4061 99.12 63.7741 98.728C64.1501 98.328 64.3381 97.792 64.3381 97.12V97.012C64.3381 96.34 64.1501 95.808 63.7741 95.416C63.4061 95.016 62.9101 94.816 62.2861 94.816C61.6701 94.816 61.1741 95.016 60.7981 95.416C60.4221 95.808 60.2341 96.34 60.2341 97.012V97.12C60.2341 97.792 60.4221 98.328 60.7981 98.728C61.1741 99.12 61.6701 99.316 62.2861 99.316ZM66.9921 100V94.132H67.9401V100H66.9921ZM67.4721 93.22C67.2641 93.22 67.0881 93.152 66.9441 93.016C66.8081 92.88 66.7401 92.708 66.7401 92.5C66.7401 92.284 66.8081 92.108 66.9441 91.972C67.0881 91.836 67.2641 91.768 67.4721 91.768C67.6801 91.768 67.8521 91.836 67.9881 91.972C68.1241 92.108 68.1921 92.284 68.1921 92.5C68.1921 92.708 68.1241 92.88 67.9881 93.016C67.8521 93.152 67.6801 93.22 67.4721 93.22ZM69.9335 100V94.132H70.8575V95.128H71.0255C71.1535 94.848 71.3695 94.596 71.6735 94.372C71.9855 94.14 72.4415 94.024 73.0415 94.024C73.4815 94.024 73.8735 94.116 74.2175 94.3C74.5695 94.484 74.8495 94.756 75.0575 95.116C75.2655 95.476 75.3695 95.92 75.3695 96.448V100H74.4215V96.52C74.4215 95.936 74.2735 95.512 73.9775 95.248C73.6895 94.984 73.2975 94.852 72.8015 94.852C72.2335 94.852 71.7695 95.036 71.4095 95.404C71.0575 95.772 70.8815 96.32 70.8815 97.048V100H69.9335ZM79.2888 100C78.9528 100 78.6928 99.908 78.5088 99.724C78.3328 99.54 78.2448 99.288 78.2448 98.968V94.96H76.4808V94.132H78.2448V92.044H79.1928V94.132H81.1128V94.96H79.1928V98.824C79.1928 99.064 79.3088 99.184 79.5408 99.184H80.8488V100H79.2888ZM85.0123 100.168C84.2843 100.168 83.6683 100 83.1643 99.664C82.6683 99.328 82.3683 98.796 82.2643 98.068L83.1643 97.864C83.2283 98.248 83.3483 98.552 83.5243 98.776C83.7003 98.992 83.9163 99.148 84.1723 99.244C84.4363 99.332 84.7163 99.376 85.0123 99.376C85.4523 99.376 85.8003 99.288 86.0563 99.112C86.3123 98.936 86.4403 98.7 86.4403 98.404C86.4403 98.1 86.3163 97.888 86.0683 97.768C85.8283 97.64 85.4963 97.536 85.0723 97.456L84.5803 97.372C84.2043 97.308 83.8603 97.208 83.5483 97.072C83.2363 96.936 82.9883 96.752 82.8043 96.52C82.6203 96.288 82.5283 95.996 82.5283 95.644C82.5283 95.116 82.7323 94.704 83.1403 94.408C83.5483 94.112 84.0883 93.964 84.7603 93.964C85.4243 93.964 85.9603 94.116 86.3683 94.42C86.7843 94.716 87.0523 95.136 87.1723 95.68L86.2843 95.908C86.2123 95.484 86.0403 95.188 85.7683 95.02C85.4963 94.844 85.1603 94.756 84.7603 94.756C84.3603 94.756 84.0443 94.832 83.8123 94.984C83.5803 95.128 83.4643 95.344 83.4643 95.632C83.4643 95.912 83.5723 96.12 83.7883 96.256C84.0123 96.384 84.3083 96.48 84.6763 96.544L85.1683 96.628C85.5843 96.7 85.9563 96.8 86.2843 96.928C86.6203 97.048 86.8843 97.224 87.0763 97.456C87.2763 97.688 87.3763 97.992 87.3763 98.368C87.3763 98.944 87.1603 99.388 86.7283 99.7C86.3043 100.012 85.7323 100.168 85.0123 100.168Z" fill="#5F6D7E"/>
<path d="M18.9618 66V65.55C18.9618 65.094 18.9978 64.716 19.0698 64.416C19.1418 64.104 19.2918 63.744 19.5198 63.336L24.0198 55.326V55.092H16.9458V53.4H25.9818V55.632L21.2478 64.128C21.1038 64.392 21.0018 64.632 20.9418 64.848C20.8818 65.052 20.8518 65.31 20.8518 65.622V66H18.9618ZM32.169 66.252C30.705 66.252 29.535 65.838 28.659 65.01C27.795 64.17 27.363 62.91 27.363 61.23V58.17C27.363 56.526 27.795 55.278 28.659 54.426C29.535 53.574 30.705 53.148 32.169 53.148C33.645 53.148 34.815 53.574 35.679 54.426C36.555 55.278 36.993 56.526 36.993 58.17V61.23C36.993 62.91 36.555 64.17 35.679 65.01C34.815 65.838 33.645 66.252 32.169 66.252ZM32.169 64.56C33.165 64.56 33.903 64.278 34.383 63.714C34.863 63.138 35.103 62.334 35.103 61.302V58.062C35.103 57.03 34.845 56.238 34.329 55.686C33.813 55.122 33.093 54.84 32.169 54.84C31.233 54.84 30.513 55.128 30.009 55.704C29.505 56.268 29.253 57.054 29.253 58.062V61.302C29.253 62.358 29.493 63.168 29.973 63.732C30.465 64.284 31.197 64.56 32.169 64.56ZM43.7706 66.252C42.3066 66.252 41.1366 65.838 40.2606 65.01C39.3966 64.17 38.9646 62.91 38.9646 61.23V58.17C38.9646 56.526 39.3966 55.278 40.2606 54.426C41.1366 53.574 42.3066 53.148 43.7706 53.148C45.2466 53.148 46.4166 53.574 47.2806 54.426C48.1566 55.278 48.5946 56.526 48.5946 58.17V61.23C48.5946 62.91 48.1566 64.17 47.2806 65.01C46.4166 65.838 45.2466 66.252 43.7706 66.252ZM43.7706 64.56C44.7666 64.56 45.5046 64.278 45.9846 63.714C46.4646 63.138 46.7046 62.334 46.7046 61.302V58.062C46.7046 57.03 46.4466 56.238 45.9306 55.686C45.4146 55.122 44.6946 54.84 43.7706 54.84C42.8346 54.84 42.1146 55.128 41.6106 55.704C41.1066 56.268 40.8546 57.054 40.8546 58.062V61.302C40.8546 62.358 41.0946 63.168 41.5746 63.732C42.0666 64.284 42.7986 64.56 43.7706 64.56Z" fill="#242739"/>
<g clip-path="url(#clip0_619_16377)">
<path d="M19.6673 93.6673L25.0007 88.334L30.334 93.6673" stroke="#2A9921" stroke-width="2" stroke-linecap="square" stroke-linejoin="round"/>
<path d="M25 109V90" stroke="#2A9921" stroke-width="2"/>
</g>
<g clip-path="url(#clip1_619_16377)">
<path d="M172.221 83.2099C172.221 69.6474 176.951 56.5095 185.596 46.0595L199.068 57.2046C193.016 64.5197 189.705 73.7162 189.705 83.2099H172.221Z" fill="#F22325"/>
<path d="M288.785 83.2099C288.785 69.6474 284.055 56.5095 275.41 46.0595L261.938 57.2046C267.99 64.5197 271.3 73.7162 271.3 83.2099H288.785Z" fill="#34C635"/>
<path d="M189.291 41.9982C199.327 31.9627 212.679 25.9339 226.843 25.0427L227.941 42.4929C218.026 43.1167 208.68 47.3369 201.655 54.3617L189.291 41.9982Z" fill="#FE680A"/>
<path d="M271.715 41.9982C261.679 31.9627 248.327 25.9339 234.163 25.0427L233.065 42.4929C242.98 43.1167 252.326 47.3369 259.351 54.3617L271.715 41.9982Z" fill="#FFCF00"/>
<path d="M213.363 83.2121C213.363 80.961 213.807 78.732 214.668 76.6522C215.53 74.5725 216.792 72.6828 218.384 71.091L230.505 83.2121L213.363 83.2121Z" fill="#F42326"/>
<path d="M247.645 83.2121C247.645 80.961 247.201 78.732 246.34 76.6522C245.478 74.5725 244.216 72.6828 242.624 71.091L230.503 83.2121L247.645 83.2121Z" fill="#36C535"/>
<path d="M218.384 71.091C219.976 69.4993 221.865 68.2366 223.945 67.3752C226.025 66.5137 228.254 66.0703 230.505 66.0703V83.2121L218.384 71.091Z" fill="#FE680A"/>
<path d="M242.624 71.091C241.032 69.4993 239.142 68.2366 237.063 67.3752C234.983 66.5137 232.754 66.0703 230.503 66.0703V83.2121L242.624 71.091Z" fill="#FED109"/>
<path d="M238.091 66.4984L247.056 44.0655L236.513 65.9144L238.091 66.4984Z" fill="#101828"/>
</g>
<path d="M173.941 97.6302C173.428 97.6302 172.971 97.5369 172.571 97.3502C172.171 97.1636 171.858 96.8936 171.631 96.5402C171.411 96.1869 171.301 95.7669 171.301 95.2802V95.1002H172.351V95.2602C172.351 95.7002 172.495 96.0502 172.781 96.3102C173.075 96.5636 173.461 96.6902 173.941 96.6902C174.421 96.6902 174.795 96.5702 175.061 96.3302C175.328 96.0902 175.461 95.7869 175.461 95.4202V95.3302C175.461 95.0702 175.398 94.8602 175.271 94.7002C175.145 94.5402 174.975 94.4236 174.761 94.3502C174.548 94.2702 174.308 94.2302 174.041 94.2302H172.771V93.0202L175.231 91.5702V91.4302H171.471V90.4902H176.371V91.9102L174.021 93.3102V93.4502H174.451C174.805 93.4502 175.138 93.5169 175.451 93.6502C175.765 93.7836 176.018 93.9869 176.211 94.2602C176.411 94.5336 176.511 94.8802 176.511 95.3002V95.4202C176.511 95.8669 176.405 96.2569 176.191 96.5902C175.978 96.9169 175.678 97.1736 175.291 97.3602C174.905 97.5402 174.455 97.6302 173.941 97.6302ZM180.186 97.6302C179.372 97.6302 178.722 97.4002 178.236 96.9402C177.756 96.4736 177.516 95.7736 177.516 94.8402V93.1402C177.516 92.2269 177.756 91.5336 178.236 91.0602C178.722 90.5869 179.372 90.3502 180.186 90.3502C181.006 90.3502 181.656 90.5869 182.136 91.0602C182.622 91.5336 182.866 92.2269 182.866 93.1402V94.8402C182.866 95.7736 182.622 96.4736 182.136 96.9402C181.656 97.4002 181.006 97.6302 180.186 97.6302ZM180.186 96.6902C180.739 96.6902 181.149 96.5336 181.416 96.2202C181.682 95.9002 181.816 95.4536 181.816 94.8802V93.0802C181.816 92.5069 181.672 92.0669 181.386 91.7602C181.099 91.4469 180.699 91.2902 180.186 91.2902C179.666 91.2902 179.266 91.4502 178.986 91.7702C178.706 92.0836 178.566 92.5202 178.566 93.0802V94.8802C178.566 95.4669 178.699 95.9169 178.966 96.2302C179.239 96.5369 179.646 96.6902 180.186 96.6902ZM186.631 97.6302C185.818 97.6302 185.168 97.4002 184.681 96.9402C184.201 96.4736 183.961 95.7736 183.961 94.8402V93.1402C183.961 92.2269 184.201 91.5336 184.681 91.0602C185.168 90.5869 185.818 90.3502 186.631 90.3502C187.451 90.3502 188.101 90.5869 188.581 91.0602C189.068 91.5336 189.311 92.2269 189.311 93.1402V94.8402C189.311 95.7736 189.068 96.4736 188.581 96.9402C188.101 97.4002 187.451 97.6302 186.631 97.6302ZM186.631 96.6902C187.184 96.6902 187.594 96.5336 187.861 96.2202C188.128 95.9002 188.261 95.4536 188.261 94.8802V93.0802C188.261 92.5069 188.118 92.0669 187.831 91.7602C187.544 91.4469 187.144 91.2902 186.631 91.2902C186.111 91.2902 185.711 91.4502 185.431 91.7702C185.151 92.0836 185.011 92.5202 185.011 93.0802V94.8802C185.011 95.4669 185.144 95.9169 185.411 96.2302C185.684 96.5369 186.091 96.6902 186.631 96.6902Z" fill="#242739"/>
<path d="M169.095 70.0609L163.432 67.2992L164.529 65.0504C164.697 64.7053 164.917 64.4321 165.189 64.2308C165.458 64.0215 165.756 63.9032 166.083 63.8758C166.408 63.8404 166.745 63.9082 167.095 64.0792L167.201 64.1305C167.551 64.3014 167.814 64.5296 167.988 64.815C168.165 65.095 168.256 65.4027 168.259 65.7381C168.262 66.0735 168.181 66.4111 168.015 66.7508L167.345 68.126L169.521 69.1873L169.095 70.0609ZM166.552 67.7394L167.179 66.4532C167.329 66.1458 167.368 65.861 167.296 65.5987C167.223 65.3365 167.047 65.1369 166.766 65.0002L166.686 64.9607C166.4 64.8213 166.131 64.8038 165.88 64.9083C165.629 65.0127 165.428 65.2186 165.278 65.526L164.651 66.8122L166.552 67.7394ZM172.454 63.4599C172.26 63.8589 172.005 64.1754 171.691 64.4093C171.374 64.6351 171.018 64.7621 170.624 64.7901C170.23 64.8181 169.822 64.7296 169.402 64.5244L169.28 64.4652C168.86 64.2601 168.542 63.9949 168.327 63.6696C168.106 63.3417 167.987 62.9833 167.97 62.5944C167.955 62.2001 168.045 61.8034 168.24 61.4043C168.435 61.0053 168.692 60.6901 169.011 60.4589C169.331 60.2276 169.688 60.098 170.082 60.07C170.471 60.0393 170.876 60.1265 171.296 60.3317L171.418 60.3909C171.838 60.596 172.159 60.8626 172.38 61.1904C172.6 61.5183 172.718 61.8794 172.732 62.2737C172.742 62.6654 172.649 63.0608 172.454 63.4599ZM171.71 63.0969C171.889 62.7302 171.918 62.377 171.796 62.0374C171.672 61.6898 171.402 61.4147 170.987 61.2122L170.914 61.1767C170.499 60.9742 170.12 60.9296 169.778 61.043C169.43 61.1538 169.166 61.3952 168.984 61.7673C168.808 62.1286 168.782 62.4831 168.906 62.8307C169.027 63.1703 169.296 63.4414 169.711 63.6439L169.784 63.6794C170.199 63.8819 170.581 63.9278 170.928 63.8171C171.273 63.6983 171.534 63.4582 171.71 63.0969ZM174.882 58.4831C174.687 58.8822 174.433 59.1987 174.118 59.4326C173.801 59.6584 173.445 59.7853 173.051 59.8134C172.657 59.8414 172.25 59.7529 171.829 59.5477L171.708 59.4885C171.287 59.2834 170.969 59.0182 170.754 58.6929C170.533 58.365 170.414 58.0066 170.397 57.6177C170.383 57.2234 170.473 56.8267 170.667 56.4276C170.862 56.0286 171.119 55.7134 171.439 55.4822C171.758 55.2509 172.115 55.1213 172.51 55.0932C172.898 55.0626 173.303 55.1498 173.724 55.355L173.845 55.4142C174.266 55.6193 174.586 55.8858 174.807 56.2137C175.028 56.5416 175.145 56.9027 175.16 57.297C175.169 57.6887 175.076 58.0841 174.882 58.4831ZM174.137 58.1202C174.316 57.7535 174.345 57.4003 174.224 57.0607C174.099 56.7131 173.83 56.438 173.414 56.2355L173.342 56.2C172.926 55.9975 172.548 55.9529 172.205 56.0663C171.858 56.1771 171.593 56.4185 171.411 56.7906C171.235 57.1519 171.209 57.5064 171.333 57.854C171.455 58.1936 171.723 58.4647 172.138 58.6672L172.211 58.7027C172.626 58.9052 173.008 58.9511 173.356 58.8403C173.701 58.7215 173.961 58.4815 174.137 58.1202ZM176.284 55.3198L172.296 53.3747L172.695 52.5577L173.164 52.7866L173.227 52.6571C173.092 52.5109 173.02 52.3492 173.013 52.1722C173.003 51.9871 173.05 51.7895 173.152 51.5791L173.385 51.1019L174.137 51.4688L173.889 51.9784C173.757 52.2481 173.725 52.506 173.792 52.7522C173.853 52.9958 174.037 53.1925 174.345 53.3425L176.691 54.4866L176.284 55.3198Z" fill="#242739"/>
<path d="M198.755 29.5241L195.605 24.0681L198.972 22.1241L199.413 22.888L196.888 24.346L197.797 25.9204L200.12 24.5794L200.561 25.3432L198.238 26.6842L199.597 29.0381L198.755 29.5241ZM204.16 26.5494C203.884 26.7084 203.61 26.8041 203.338 26.8366C203.071 26.866 202.82 26.8273 202.585 26.7205C202.356 26.6106 202.166 26.4258 202.016 26.166C201.863 25.901 201.799 25.6467 201.825 25.4032C201.853 25.1516 201.95 24.9186 202.117 24.7042C202.29 24.4869 202.516 24.2972 202.797 24.1352L203.966 23.4602L203.822 23.2108C203.693 22.9874 203.522 22.8471 203.309 22.79C203.096 22.7329 202.849 22.7854 202.568 22.9474C202.293 23.1064 202.12 23.2928 202.05 23.5067C201.979 23.7206 201.98 23.945 202.054 24.1799L201.166 24.3702C201.108 24.1264 201.099 23.8823 201.138 23.638C201.179 23.3856 201.284 23.1414 201.453 22.9055C201.622 22.6695 201.867 22.4586 202.189 22.2726C202.688 21.9846 203.154 21.8854 203.587 21.975C204.019 22.0646 204.371 22.3432 204.641 22.8109L205.554 24.3931C205.644 24.549 205.762 24.5849 205.908 24.5009L206.235 24.3119L206.622 24.9822L206.022 25.3287C205.84 25.4337 205.665 25.4725 205.497 25.4449C205.328 25.4174 205.198 25.3231 205.105 25.162L205.091 25.1386L204.974 25.2061C204.978 25.3081 204.968 25.435 204.945 25.5869C204.921 25.7389 204.852 25.9003 204.736 26.0712C204.617 26.237 204.425 26.3964 204.16 26.5494ZM203.894 25.8194C204.216 25.6334 204.423 25.3924 204.516 25.0966C204.605 24.7955 204.557 24.4839 204.371 24.1617L204.326 24.0838L203.204 24.7318C202.991 24.8548 202.846 25.0005 202.77 25.1691C202.691 25.3324 202.703 25.5024 202.805 25.6791C202.907 25.8557 203.056 25.957 203.251 25.983C203.446 26.0089 203.66 25.9544 203.894 25.8194ZM207.403 24.5316L205.184 20.689L205.987 20.2255L208.205 24.0681L207.403 24.5316ZM205.288 19.9328C205.132 20.0228 204.971 20.0499 204.805 20.0142C204.641 19.9703 204.512 19.8678 204.419 19.7067C204.326 19.5456 204.303 19.3857 204.35 19.227C204.399 19.0601 204.502 18.9316 204.658 18.8416C204.819 18.7486 204.981 18.7241 205.145 18.768C205.306 18.8067 205.433 18.9066 205.526 19.0677C205.619 19.2288 205.644 19.3913 205.6 19.5552C205.553 19.7139 205.449 19.8398 205.288 19.9328ZM209.397 23.3802L207.178 19.5377L207.965 19.0832L208.226 19.5352L208.351 19.4632C208.321 19.2661 208.352 19.0922 208.445 18.9415C208.54 18.7825 208.689 18.6446 208.892 18.5276L209.352 18.2621L209.77 18.9869L209.279 19.2704C209.019 19.4204 208.848 19.6162 208.766 19.8577C208.681 20.094 208.724 20.3602 208.895 20.6564L210.2 22.9167L209.397 23.3802Z" fill="#242739"/>
<path d="M249.033 23.1088C248.632 22.9045 248.318 22.6365 248.089 22.3047C247.864 21.9676 247.746 21.5843 247.736 21.1549C247.726 20.7254 247.845 20.2675 248.093 19.781L248.763 18.4659C249.136 17.7335 249.621 17.277 250.218 17.0963C250.818 16.9104 251.46 16.9917 252.144 17.3404C252.818 17.6836 253.242 18.1323 253.418 18.6864C253.596 19.2351 253.529 19.8169 253.215 20.4317L253.195 20.4718L252.337 20.0346L252.37 19.9705C252.487 19.7406 252.546 19.5116 252.548 19.2835C252.552 19.0501 252.491 18.8336 252.364 18.6341C252.236 18.4346 252.031 18.2626 251.748 18.1182C251.32 17.9003 250.919 17.8611 250.545 18.0004C250.174 18.1345 249.871 18.4314 249.637 18.8911L248.95 20.2383C248.719 20.6927 248.655 21.1149 248.76 21.5048C248.867 21.8893 249.137 22.1919 249.57 22.4125C249.998 22.6304 250.37 22.6722 250.688 22.5377C251.006 22.4033 251.26 22.149 251.45 21.7747L251.503 21.6705L249.996 20.9023L250.376 20.1566L252.742 21.3619L251.328 24.1365L250.526 23.7279L250.816 23.1586L250.688 23.0932C250.588 23.1702 250.463 23.2377 250.312 23.2956C250.166 23.3562 249.988 23.3763 249.776 23.3559C249.57 23.3383 249.322 23.2559 249.033 23.1088ZM254.263 25.7734C253.867 25.5718 253.555 25.3118 253.327 24.9935C253.107 24.6725 252.986 24.3147 252.965 23.92C252.944 23.5254 253.039 23.1196 253.252 22.7026L253.313 22.5823C253.525 22.1654 253.796 21.8521 254.125 21.6426C254.457 21.4278 254.817 21.3151 255.206 21.3047C255.601 21.2969 255.996 21.3939 256.392 21.5954C256.787 21.797 257.098 22.0597 257.323 22.3834C257.549 22.7071 257.672 23.0662 257.694 23.4609C257.717 23.8501 257.623 24.2533 257.411 24.6703L257.349 24.7905C257.137 25.2075 256.865 25.5234 256.533 25.7383C256.201 25.9531 255.838 26.0644 255.444 26.0721C255.052 26.0745 254.658 25.9749 254.263 25.7734ZM254.639 25.0356C255.002 25.2208 255.355 25.2557 255.696 25.1402C256.046 25.0221 256.326 24.7573 256.536 24.3456L256.572 24.2735C256.782 23.8618 256.833 23.4838 256.726 23.1396C256.621 22.7899 256.384 22.5211 256.016 22.3332C255.657 22.1507 255.303 22.1185 254.954 22.2366C254.612 22.3521 254.336 22.6156 254.127 23.0273L254.09 23.0994C253.88 23.5111 253.828 23.8917 253.932 24.2413C254.045 24.5884 254.28 24.8531 254.639 25.0356ZM259.196 28.2872C258.801 28.0856 258.489 27.8256 258.26 27.5072C258.04 27.1863 257.919 26.8285 257.898 26.4338C257.877 26.0392 257.973 25.6334 258.185 25.2164L258.247 25.0961C258.459 24.6792 258.73 24.3659 259.059 24.1564C259.39 23.9416 259.751 23.8289 260.14 23.8185C260.534 23.8107 260.93 23.9077 261.325 24.1092C261.721 24.3108 262.031 24.5734 262.257 24.8972C262.483 25.2209 262.606 25.58 262.627 25.9747C262.651 26.3639 262.557 26.7671 262.344 27.184L262.283 27.3043C262.071 27.7213 261.798 28.0372 261.467 28.2521C261.135 28.4669 260.772 28.5782 260.377 28.5859C259.986 28.5883 259.592 28.4887 259.196 28.2872ZM259.572 27.5494C259.936 27.7346 260.288 27.7695 260.63 27.654C260.98 27.5359 261.26 27.2711 261.469 26.8594L261.506 26.7873C261.716 26.3756 261.767 25.9976 261.66 25.6534C261.555 25.3037 261.318 25.0349 260.949 24.847C260.591 24.6645 260.237 24.6323 259.887 24.7504C259.546 24.8658 259.27 25.1294 259.06 25.5411L259.023 25.6132C258.814 26.0249 258.761 26.4055 258.866 26.7551C258.979 27.1021 259.214 27.3669 259.572 27.5494ZM263.913 30.6906C263.587 30.5245 263.326 30.2904 263.13 29.9884C262.934 29.6863 262.826 29.342 262.808 28.9555C262.797 28.5663 262.901 28.1579 263.119 27.7302L263.18 27.6099C263.395 27.1876 263.663 26.8663 263.984 26.646C264.305 26.4257 264.646 26.3062 265.005 26.2875C265.365 26.2687 265.711 26.3438 266.042 26.5127C266.299 26.6435 266.496 26.7845 266.635 26.9358C266.778 27.0899 266.881 27.2463 266.941 27.405C267.004 27.5585 267.038 27.7036 267.042 27.8405L267.171 27.9059L268.29 25.7087L269.116 26.1295L266.256 31.7429L265.446 31.3302L265.732 30.7688L265.604 30.7035C265.415 30.8228 265.181 30.8988 264.902 30.9316C264.628 30.9671 264.298 30.8868 263.913 30.6906ZM264.514 30.0874C264.872 30.2699 265.225 30.3048 265.572 30.192C265.924 30.082 266.209 29.8132 266.427 29.3855L266.464 29.3133C266.679 28.891 266.73 28.5063 266.617 28.1593C266.505 27.8123 266.266 27.5462 265.903 27.3609C265.55 27.1812 265.198 27.1463 264.845 27.2563C264.498 27.3691 264.217 27.6366 264.002 28.0589L263.965 28.1311C263.747 28.5588 263.695 28.9461 263.807 29.2931C263.925 29.6429 264.161 29.9076 264.514 30.0874Z" fill="#242739"/>
<path d="M282.09 43.4321L288.01 41.2774L289.367 45.007L288.539 45.3087L287.513 42.4924L285.814 43.1111L286.752 45.6906L285.924 45.9923L284.985 43.4128L283.251 44.0438L284.291 46.9024L283.463 47.204L282.09 43.4321ZM283.689 47.8264L286.374 48.6499L287.871 46.3427L288.243 47.366L287.144 49.0019L287.193 49.1372L289.087 49.6833L289.462 50.7151L286.829 49.9016L285.302 52.258L284.924 51.2178L286.051 49.5527L286.002 49.4174L284.068 48.8667L283.689 47.8264ZM286.13 54.9021C285.985 54.5018 285.937 54.1074 285.987 53.7188C286.039 53.3358 286.191 52.99 286.443 52.6814C286.696 52.3783 287.049 52.1447 287.5 51.9806L287.61 51.9406C288.061 51.7764 288.478 51.7299 288.862 51.801C289.253 51.8757 289.591 52.043 289.877 52.3028C290.171 52.5662 290.391 52.8981 290.537 53.2984C290.682 53.6987 290.733 54.0665 290.689 54.4017C290.645 54.737 290.533 55.0333 290.352 55.2907C290.173 55.5537 289.946 55.764 289.672 55.9214L289.186 55.1403C289.362 55.0444 289.51 54.9237 289.629 54.7781C289.748 54.6324 289.823 54.4615 289.854 54.2651C289.885 54.0688 289.855 53.8466 289.765 53.5985C289.677 53.356 289.54 53.1567 289.356 53.0004C289.179 52.8477 288.965 52.7529 288.716 52.7161C288.472 52.6772 288.203 52.7111 287.91 52.8178L287.834 52.8455C287.541 52.9522 287.31 53.0999 287.143 53.2886C286.975 53.4773 286.873 53.687 286.835 53.9177C286.8 54.154 286.826 54.3934 286.915 54.6358C287.048 55.0023 287.243 55.2475 287.498 55.3715C287.76 55.4934 288.047 55.5264 288.358 55.4705L288.471 56.387C288.159 56.424 287.85 56.3992 287.544 56.3127C287.24 56.2318 286.964 56.077 286.714 55.8485C286.471 55.6179 286.276 55.3024 286.13 54.9021ZM287.943 59.8817C287.789 59.4588 287.742 59.0577 287.802 58.6784C287.867 58.297 288.028 57.9576 288.284 57.6602C288.547 57.3664 288.893 57.1415 289.321 56.9855L289.423 56.9486C289.857 56.7906 290.267 56.7405 290.652 56.7983C291.042 56.8541 291.381 57.0052 291.669 57.2517C291.964 57.5017 292.187 57.8326 292.337 58.2441C292.482 58.6444 292.519 59.0268 292.448 59.3913C292.384 59.7594 292.225 60.0855 291.971 60.3695C291.716 60.6536 291.378 60.8726 290.955 61.0265L290.625 61.1466L289.459 57.9413C289.096 58.0859 288.847 58.3139 288.711 58.6251C288.583 58.9398 288.583 59.272 288.71 59.6216C288.829 59.9486 288.992 60.1672 289.198 60.2773C289.406 60.3931 289.622 60.4612 289.847 60.4817L289.736 61.336C289.55 61.3145 289.341 61.2595 289.111 61.1708C288.883 61.0879 288.666 60.9467 288.459 60.7474C288.252 60.548 288.08 60.2595 287.943 59.8817ZM290.13 57.7065L290.97 60.0154C291.278 59.8779 291.482 59.6759 291.583 59.4093C291.689 59.1406 291.683 58.8428 291.564 58.5158C291.445 58.1888 291.257 57.9538 291.001 57.8109C290.752 57.6715 290.462 57.6367 290.13 57.7065ZM289.163 62.8662L295.083 60.7114L295.4 61.5825L289.48 63.7373L289.163 62.8662ZM289.951 65.03L295.871 62.8753L296.188 63.7464L290.268 65.9011L289.951 65.03ZM291.316 69.1483C291.162 68.7255 291.115 68.3244 291.175 67.945C291.24 67.5636 291.401 67.2242 291.656 66.9268C291.92 66.633 292.266 66.4081 292.694 66.2522L292.796 66.2152C293.23 66.0572 293.639 66.0071 294.024 66.0649C294.415 66.1207 294.754 66.2718 295.042 66.5183C295.337 66.7683 295.56 67.0992 295.71 67.5108C295.855 67.9111 295.892 68.2935 295.821 68.658C295.757 69.026 295.598 69.3521 295.343 69.6362C295.089 69.9202 294.751 70.1392 294.328 70.2931L293.998 70.4132L292.831 67.2079C292.469 67.3525 292.22 67.5805 292.084 67.8917C291.956 68.2065 291.956 68.5386 292.083 68.8882C292.202 69.2152 292.365 69.4338 292.571 69.5439C292.779 69.6597 292.995 69.7278 293.22 69.7483L293.109 70.6026C292.923 70.5811 292.714 70.5261 292.484 70.4375C292.256 70.3545 292.038 70.2133 291.832 70.014C291.625 69.8146 291.453 69.5261 291.316 69.1483ZM293.503 66.9732L294.343 69.282C294.65 69.1445 294.855 68.9425 294.956 68.6759C295.062 68.4073 295.056 68.1094 294.937 67.7824C294.818 67.4554 294.63 67.2204 294.374 67.0775C294.125 66.9381 293.835 66.9033 293.503 66.9732ZM292.536 72.1328L296.705 70.6152L297.016 71.4694L296.39 71.6972L296.44 71.8325C296.638 71.8499 296.847 71.9334 297.067 72.083C297.288 72.2326 297.471 72.5076 297.616 72.9079C297.731 73.2236 297.763 73.5284 297.71 73.8221C297.659 74.1215 297.53 74.3889 297.322 74.6242C297.119 74.8575 296.838 75.0398 296.477 75.1712L293.973 76.0823L293.656 75.2112L296.092 74.3247C296.453 74.1934 296.685 74.0067 296.789 73.7647C296.898 73.5207 296.895 73.2408 296.78 72.9251C296.649 72.5642 296.424 72.3169 296.108 72.1832C295.793 72.0552 295.41 72.0732 294.959 72.2374L292.853 73.0039L292.536 72.1328ZM294.957 78.7849C294.865 78.5312 294.867 78.3005 294.964 78.0929C295.063 77.8909 295.239 77.7437 295.493 77.6514L298.089 76.7064L297.671 75.5562L298.406 75.2884L298.825 76.4386L300.203 75.9368L300.521 76.8079L299.142 77.3097L299.594 78.5529L298.859 78.8207L298.406 77.5775L295.962 78.4671C295.793 78.5286 295.737 78.6383 295.795 78.7962L296.112 79.6673L295.376 79.9351L294.957 78.7849Z" fill="#242739"/>
<path d="M272.95 97.6302C272.41 97.6302 271.936 97.5502 271.53 97.3902C271.13 97.2302 270.816 97.0002 270.59 96.7002C270.37 96.3936 270.26 96.0369 270.26 95.6302V95.5202C270.26 95.1869 270.323 94.9136 270.45 94.7002C270.583 94.4802 270.743 94.3102 270.93 94.1902C271.123 94.0636 271.303 93.9802 271.47 93.9402V93.7802C271.303 93.7336 271.133 93.6502 270.96 93.5302C270.786 93.4036 270.643 93.2402 270.53 93.0402C270.423 92.8336 270.37 92.5869 270.37 92.3002V92.1902C270.37 91.8169 270.476 91.4936 270.69 91.2202C270.91 90.9469 271.213 90.7336 271.6 90.5802C271.986 90.4269 272.436 90.3502 272.95 90.3502C273.456 90.3502 273.903 90.4269 274.29 90.5802C274.676 90.7336 274.976 90.9469 275.19 91.2202C275.41 91.4936 275.52 91.8169 275.52 92.1902V92.3002C275.52 92.5869 275.463 92.8336 275.35 93.0402C275.243 93.2402 275.106 93.4036 274.94 93.5302C274.773 93.6502 274.603 93.7336 274.43 93.7802V93.9402C274.603 93.9802 274.783 94.0636 274.97 94.1902C275.156 94.3102 275.313 94.4802 275.44 94.7002C275.566 94.9136 275.63 95.1869 275.63 95.5202V95.6302C275.63 96.0369 275.516 96.3936 275.29 96.7002C275.07 97.0002 274.756 97.2302 274.35 97.3902C273.95 97.5502 273.483 97.6302 272.95 97.6302ZM272.95 96.6902C273.456 96.6902 273.853 96.5936 274.14 96.4002C274.433 96.2002 274.58 95.9236 274.58 95.5702V95.4902C274.58 95.1302 274.436 94.8536 274.15 94.6602C273.87 94.4602 273.47 94.3602 272.95 94.3602C272.43 94.3602 272.026 94.4602 271.74 94.6602C271.453 94.8536 271.31 95.1302 271.31 95.4902V95.5702C271.31 95.9236 271.453 96.2002 271.74 96.4002C272.033 96.5936 272.436 96.6902 272.95 96.6902ZM272.95 93.4202C273.423 93.4202 273.793 93.3302 274.06 93.1502C274.333 92.9702 274.47 92.7169 274.47 92.3902V92.3102C274.47 91.9836 274.333 91.7336 274.06 91.5602C273.786 91.3802 273.416 91.2902 272.95 91.2902C272.476 91.2902 272.103 91.3802 271.83 91.5602C271.556 91.7336 271.42 91.9836 271.42 92.3102V92.3902C271.42 92.7169 271.553 92.9702 271.82 93.1502C272.093 93.3302 272.47 93.4202 272.95 93.4202ZM279.023 97.6302C278.496 97.6302 278.04 97.5336 277.653 97.3402C277.266 97.1469 276.966 96.8736 276.753 96.5202C276.546 96.1669 276.443 95.7569 276.443 95.2902V95.1802H277.513V95.2802C277.513 95.7069 277.643 96.0502 277.903 96.3102C278.17 96.5636 278.54 96.6902 279.013 96.6902C279.5 96.6902 279.876 96.5569 280.143 96.2902C280.41 96.0236 280.543 95.6636 280.543 95.2102V95.1202C280.543 94.6869 280.41 94.3402 280.143 94.0802C279.883 93.8202 279.55 93.6902 279.143 93.6902C278.916 93.6902 278.726 93.7269 278.573 93.8002C278.426 93.8669 278.306 93.9502 278.213 94.0502C278.126 94.1502 278.053 94.2469 277.993 94.3402H276.663V90.4902H281.353V91.4402H277.713V93.5002H277.873C277.94 93.3869 278.033 93.2802 278.153 93.1802C278.28 93.0736 278.443 92.9869 278.643 92.9202C278.843 92.8536 279.083 92.8202 279.363 92.8202C279.776 92.8202 280.15 92.9102 280.483 93.0902C280.823 93.2636 281.093 93.5236 281.293 93.8702C281.493 94.2102 281.593 94.6236 281.593 95.1102V95.2202C281.593 95.7069 281.49 96.1302 281.283 96.4902C281.076 96.8502 280.78 97.1302 280.393 97.3302C280.013 97.5302 279.556 97.6302 279.023 97.6302ZM285.209 97.6302C284.396 97.6302 283.746 97.4002 283.259 96.9402C282.779 96.4736 282.539 95.7736 282.539 94.8402V93.1402C282.539 92.2269 282.779 91.5336 283.259 91.0602C283.746 90.5869 284.396 90.3502 285.209 90.3502C286.029 90.3502 286.679 90.5869 287.159 91.0602C287.646 91.5336 287.889 92.2269 287.889 93.1402V94.8402C287.889 95.7736 287.646 96.4736 287.159 96.9402C286.679 97.4002 286.029 97.6302 285.209 97.6302ZM285.209 96.6902C285.763 96.6902 286.173 96.5336 286.439 96.2202C286.706 95.9002 286.839 95.4536 286.839 94.8802V93.0802C286.839 92.5069 286.696 92.0669 286.409 91.7602C286.123 91.4469 285.723 91.2902 285.209 91.2902C284.689 91.2902 284.289 91.4502 284.009 91.7702C283.729 92.0836 283.589 92.5202 283.589 93.0802V94.8802C283.589 95.4669 283.723 95.9169 283.989 96.2302C284.263 96.5369 284.669 96.6902 285.209 96.6902Z" fill="#242739"/>
<path d="M218.886 101.49V101.126C218.886 100.762 218.914 100.454 218.97 100.202C219.026 99.9409 219.147 99.6469 219.334 99.3202L222.624 93.5102V93.2862H217.416V91.6902H224.472V93.8182L221 100.02C220.878 100.235 220.794 100.426 220.748 100.594C220.701 100.762 220.678 100.968 220.678 101.21V101.49H218.886ZM229.285 101.686C228.128 101.686 227.199 101.369 226.499 100.734C225.799 100.09 225.449 99.1196 225.449 97.8222V95.3582C225.449 94.0982 225.799 93.1416 226.499 92.4882C227.199 91.8256 228.128 91.4942 229.285 91.4942C230.452 91.4942 231.38 91.8256 232.071 92.4882C232.771 93.1416 233.121 94.0982 233.121 95.3582V97.8222C233.121 99.1196 232.771 100.09 232.071 100.734C231.38 101.369 230.452 101.686 229.285 101.686ZM229.285 100.09C229.985 100.09 230.498 99.8989 230.825 99.5162C231.161 99.1336 231.329 98.5876 231.329 97.8782V95.2742C231.329 94.5556 231.142 94.0142 230.769 93.6502C230.405 93.2769 229.91 93.0902 229.285 93.0902C228.641 93.0902 228.137 93.2816 227.773 93.6642C227.418 94.0469 227.241 94.5836 227.241 95.2742V97.8782C227.241 98.6156 227.409 99.1709 227.745 99.5442C228.09 99.9082 228.604 100.09 229.285 100.09ZM238.363 101.686C237.206 101.686 236.277 101.369 235.577 100.734C234.877 100.09 234.527 99.1196 234.527 97.8222V95.3582C234.527 94.0982 234.877 93.1416 235.577 92.4882C236.277 91.8256 237.206 91.4942 238.363 91.4942C239.53 91.4942 240.458 91.8256 241.149 92.4882C241.849 93.1416 242.199 94.0982 242.199 95.3582V97.8222C242.199 99.1196 241.849 100.09 241.149 100.734C240.458 101.369 239.53 101.686 238.363 101.686ZM238.363 100.09C239.063 100.09 239.576 99.8989 239.903 99.5162C240.239 99.1336 240.407 98.5876 240.407 97.8782V95.2742C240.407 94.5556 240.22 94.0142 239.847 93.6502C239.483 93.2769 238.988 93.0902 238.363 93.0902C237.719 93.0902 237.215 93.2816 236.851 93.6642C236.496 94.0469 236.319 94.5836 236.319 95.2742V97.8782C236.319 98.6156 236.487 99.1709 236.823 99.5442C237.168 99.9082 237.682 100.09 238.363 100.09Z" fill="#242739"/>
<rect x="0.5" y="0.5" width="326" height="121" rx="7.5" stroke="#D7D7D7"/>
<defs>
<clipPath id="clip0_619_16377">
<rect width="16" height="16" fill="white" transform="matrix(0 1 -1 0 33 87)"/>
</clipPath>
<clipPath id="clip1_619_16377">
<rect width="116.564" height="57.9529" fill="white" transform="translate(172.221 24.9277)"/>
</clipPath>
</defs>
</svg>
