<svg width="343" height="248" viewBox="0 0 343 248" fill="none" xmlns="http://www.w3.org/2000/svg">
<rect x="0.5" y="0.5" width="342" height="247" rx="7.5" fill="white"/>
<path d="M129.703 32.224C128.338 32.224 127.255 31.84 126.455 31.072C125.655 30.2933 125.255 29.1733 125.255 27.712V25.088C125.255 23.6267 125.655 22.512 126.455 21.744C127.255 20.9653 128.338 20.576 129.703 20.576C131.047 20.576 132.082 20.9493 132.807 21.696C133.543 22.4427 133.911 23.4613 133.911 24.752V24.848H132.199V24.704C132.199 23.9467 131.991 23.328 131.575 22.848C131.17 22.368 130.546 22.128 129.703 22.128C128.85 22.128 128.183 22.3893 127.703 22.912C127.223 23.424 126.983 24.1387 126.983 25.056V27.744C126.983 28.6507 127.223 29.3653 127.703 29.888C128.183 30.4107 128.85 30.672 129.703 30.672C130.546 30.672 131.17 30.432 131.575 29.952C131.991 29.4613 132.199 28.8427 132.199 28.096V27.824H133.911V28.048C133.911 29.3387 133.543 30.3573 132.807 31.104C132.082 31.8507 131.047 32.224 129.703 32.224ZM135.872 32V24.112H137.488V25.04H137.744C137.872 24.7093 138.075 24.4693 138.352 24.32C138.64 24.16 138.992 24.08 139.408 24.08H140.352V25.568H139.344C138.811 25.568 138.374 25.7173 138.032 26.016C137.691 26.304 137.52 26.752 137.52 27.36V32H135.872ZM145.395 32.224C144.595 32.224 143.896 32.0587 143.299 31.728C142.701 31.3867 142.232 30.912 141.891 30.304C141.56 29.6853 141.395 28.9707 141.395 28.16V27.968C141.395 27.1467 141.56 26.432 141.891 25.824C142.221 25.2053 142.68 24.7307 143.267 24.4C143.864 24.0587 144.552 23.888 145.331 23.888C146.088 23.888 146.749 24.0587 147.315 24.4C147.891 24.7307 148.339 25.1947 148.659 25.792C148.979 26.3893 149.139 27.088 149.139 27.888V28.512H143.075C143.096 29.2053 143.325 29.76 143.763 30.176C144.211 30.5813 144.765 30.784 145.427 30.784C146.045 30.784 146.509 30.6453 146.819 30.368C147.139 30.0907 147.384 29.7707 147.555 29.408L148.915 30.112C148.765 30.4107 148.547 30.7253 148.259 31.056C147.981 31.3867 147.613 31.664 147.155 31.888C146.696 32.112 146.109 32.224 145.395 32.224ZM143.091 27.248H147.459C147.416 26.6507 147.203 26.1867 146.819 25.856C146.435 25.5147 145.933 25.344 145.315 25.344C144.696 25.344 144.189 25.5147 143.795 25.856C143.411 26.1867 143.176 26.6507 143.091 27.248ZM154.386 32.224C153.736 32.224 153.133 32.064 152.578 31.744C152.024 31.424 151.576 30.9653 151.234 30.368C150.904 29.76 150.738 29.0293 150.738 28.176V27.936C150.738 27.0933 150.904 26.368 151.234 25.76C151.565 25.152 152.008 24.688 152.562 24.368C153.117 24.048 153.725 23.888 154.386 23.888C154.898 23.888 155.325 23.952 155.666 24.08C156.018 24.208 156.306 24.3733 156.53 24.576C156.754 24.768 156.925 24.9707 157.042 25.184H157.298V20.8H158.946V32H157.33V30.88H157.074C156.872 31.2213 156.562 31.5307 156.146 31.808C155.741 32.0853 155.154 32.224 154.386 32.224ZM154.85 30.784C155.565 30.784 156.152 30.5547 156.61 30.096C157.08 29.6373 157.314 28.9813 157.314 28.128V27.984C157.314 27.1413 157.085 26.4907 156.626 26.032C156.168 25.5733 155.576 25.344 154.85 25.344C154.146 25.344 153.56 25.5733 153.09 26.032C152.632 26.4907 152.402 27.1413 152.402 27.984V28.128C152.402 28.9813 152.632 29.6373 153.09 30.096C153.56 30.5547 154.146 30.784 154.85 30.784ZM161.372 32V24.112H163.02V32H161.372ZM162.204 23.04C161.884 23.04 161.612 22.9387 161.388 22.736C161.175 22.5227 161.068 22.2507 161.068 21.92C161.068 21.5893 161.175 21.3227 161.388 21.12C161.612 20.9067 161.884 20.8 162.204 20.8C162.535 20.8 162.807 20.9067 163.02 21.12C163.234 21.3227 163.34 21.5893 163.34 21.92C163.34 22.2507 163.234 22.5227 163.02 22.736C162.807 22.9387 162.535 23.04 162.204 23.04ZM168.426 32C167.946 32 167.562 31.856 167.274 31.568C166.997 31.28 166.858 30.896 166.858 30.416V25.504H164.682V24.112H166.858V21.504H168.506V24.112H170.858V25.504H168.506V30.128C168.506 30.448 168.655 30.608 168.954 30.608H170.602V32H168.426ZM180.104 32.224C179.102 32.224 178.27 32 177.608 31.552C176.947 31.104 176.542 30.4267 176.392 29.52L177.928 29.152C178.014 29.5893 178.158 29.936 178.36 30.192C178.563 30.448 178.814 30.6293 179.112 30.736C179.422 30.8427 179.752 30.896 180.104 30.896C180.627 30.896 181.027 30.7947 181.304 30.592C181.592 30.3893 181.736 30.128 181.736 29.808C181.736 29.488 181.603 29.2533 181.336 29.104C181.07 28.9547 180.675 28.832 180.152 28.736L179.608 28.64C179.075 28.544 178.59 28.4053 178.152 28.224C177.715 28.0427 177.368 27.792 177.112 27.472C176.856 27.152 176.728 26.7413 176.728 26.24C176.728 25.4933 177.006 24.9173 177.56 24.512C178.115 24.096 178.851 23.888 179.768 23.888C180.654 23.888 181.379 24.0907 181.944 24.496C182.52 24.8907 182.894 25.4293 183.064 26.112L181.528 26.544C181.432 26.064 181.23 25.728 180.92 25.536C180.611 25.3333 180.227 25.232 179.768 25.232C179.32 25.232 178.968 25.3173 178.712 25.488C178.456 25.648 178.328 25.8773 178.328 26.176C178.328 26.496 178.451 26.7307 178.696 26.88C178.952 27.0293 179.294 27.1413 179.72 27.216L180.28 27.312C180.846 27.408 181.363 27.5413 181.832 27.712C182.302 27.8827 182.67 28.128 182.936 28.448C183.214 28.768 183.352 29.1947 183.352 29.728C183.352 30.5173 183.059 31.1307 182.472 31.568C181.886 32.0053 181.096 32.224 180.104 32.224ZM188.943 32.224C188.185 32.224 187.497 32.064 186.879 31.744C186.271 31.424 185.785 30.96 185.423 30.352C185.071 29.744 184.895 29.0133 184.895 28.16V27.952C184.895 27.0987 185.071 26.3733 185.423 25.776C185.785 25.168 186.271 24.704 186.879 24.384C187.497 24.0533 188.185 23.888 188.943 23.888C189.7 23.888 190.345 24.0267 190.879 24.304C191.412 24.5813 191.839 24.9493 192.159 25.408C192.489 25.8667 192.703 26.3733 192.799 26.928L191.199 27.264C191.145 26.912 191.033 26.592 190.863 26.304C190.692 26.016 190.452 25.7867 190.143 25.616C189.833 25.4453 189.444 25.36 188.975 25.36C188.516 25.36 188.1 25.4667 187.727 25.68C187.364 25.8827 187.076 26.1813 186.863 26.576C186.649 26.96 186.543 27.4293 186.543 27.984V28.128C186.543 28.6827 186.649 29.1573 186.863 29.552C187.076 29.9467 187.364 30.2453 187.727 30.448C188.1 30.6507 188.516 30.752 188.975 30.752C189.668 30.752 190.196 30.576 190.559 30.224C190.921 29.8613 191.151 29.4027 191.247 28.848L192.847 29.216C192.719 29.76 192.489 30.2613 192.159 30.72C191.839 31.1787 191.412 31.5467 190.879 31.824C190.345 32.0907 189.7 32.224 188.943 32.224ZM198.443 32.224C197.654 32.224 196.95 32.064 196.331 31.744C195.723 31.4133 195.243 30.944 194.891 30.336C194.539 29.728 194.363 29.008 194.363 28.176V27.936C194.363 27.104 194.539 26.3893 194.891 25.792C195.243 25.184 195.723 24.7147 196.331 24.384C196.95 24.0533 197.654 23.888 198.443 23.888C199.233 23.888 199.937 24.0533 200.555 24.384C201.174 24.7147 201.659 25.184 202.011 25.792C202.363 26.3893 202.539 27.104 202.539 27.936V28.176C202.539 29.008 202.363 29.728 202.011 30.336C201.659 30.944 201.174 31.4133 200.555 31.744C199.937 32.064 199.233 32.224 198.443 32.224ZM198.443 30.752C199.169 30.752 199.755 30.5227 200.203 30.064C200.662 29.5947 200.891 28.9493 200.891 28.128V27.984C200.891 27.1627 200.667 26.5227 200.219 26.064C199.771 25.5947 199.179 25.36 198.443 25.36C197.729 25.36 197.142 25.5947 196.683 26.064C196.235 26.5227 196.011 27.1627 196.011 27.984V28.128C196.011 28.9493 196.235 29.5947 196.683 30.064C197.142 30.5227 197.729 30.752 198.443 30.752ZM204.591 32V24.112H206.207V25.04H206.463C206.591 24.7093 206.794 24.4693 207.071 24.32C207.359 24.16 207.711 24.08 208.127 24.08H209.071V25.568H208.063C207.53 25.568 207.092 25.7173 206.751 26.016C206.41 26.304 206.239 26.752 206.239 27.36V32H204.591ZM214.113 32.224C213.313 32.224 212.615 32.0587 212.017 31.728C211.42 31.3867 210.951 30.912 210.609 30.304C210.279 29.6853 210.113 28.9707 210.113 28.16V27.968C210.113 27.1467 210.279 26.432 210.609 25.824C210.94 25.2053 211.399 24.7307 211.985 24.4C212.583 24.0587 213.271 23.888 214.049 23.888C214.807 23.888 215.468 24.0587 216.033 24.4C216.609 24.7307 217.057 25.1947 217.377 25.792C217.697 26.3893 217.857 27.088 217.857 27.888V28.512H211.793C211.815 29.2053 212.044 29.76 212.481 30.176C212.929 30.5813 213.484 30.784 214.145 30.784C214.764 30.784 215.228 30.6453 215.537 30.368C215.857 30.0907 216.103 29.7707 216.273 29.408L217.633 30.112C217.484 30.4107 217.265 30.7253 216.977 31.056C216.7 31.3867 216.332 31.664 215.873 31.888C215.415 32.112 214.828 32.224 214.113 32.224ZM211.809 27.248H216.177C216.135 26.6507 215.921 26.1867 215.537 25.856C215.153 25.5147 214.652 25.344 214.033 25.344C213.415 25.344 212.908 25.5147 212.513 25.856C212.129 26.1867 211.895 26.6507 211.809 27.248Z" fill="#242739"/>
<path d="M83.23 203V196H84.31V202.02H87.68V203H83.23ZM90.2295 203.14C89.8761 203.14 89.5595 203.08 89.2795 202.96C89.0061 202.84 88.7861 202.663 88.6195 202.43C88.4595 202.197 88.3795 201.913 88.3795 201.58C88.3795 201.24 88.4595 200.96 88.6195 200.74C88.7861 200.513 89.0095 200.343 89.2895 200.23C89.5761 200.117 89.8995 200.06 90.2595 200.06H91.7595V199.74C91.7595 199.453 91.6728 199.223 91.4995 199.05C91.3261 198.877 91.0595 198.79 90.6995 198.79C90.3461 198.79 90.0761 198.873 89.8895 199.04C89.7028 199.207 89.5795 199.423 89.5195 199.69L88.5595 199.38C88.6395 199.113 88.7661 198.873 88.9395 198.66C89.1195 198.44 89.3561 198.263 89.6495 198.13C89.9428 197.997 90.2961 197.93 90.7095 197.93C91.3495 197.93 91.8528 198.093 92.2195 198.42C92.5861 198.747 92.7695 199.21 92.7695 199.81V201.84C92.7695 202.04 92.8628 202.14 93.0495 202.14H93.4695V203H92.6995C92.4661 203 92.2761 202.94 92.1295 202.82C91.9828 202.7 91.9095 202.537 91.9095 202.33V202.3H91.7595C91.7061 202.4 91.6261 202.517 91.5195 202.65C91.4128 202.783 91.2561 202.9 91.0495 203C90.8428 203.093 90.5695 203.14 90.2295 203.14ZM90.3795 202.29C90.7928 202.29 91.1261 202.173 91.3795 201.94C91.6328 201.7 91.7595 201.373 91.7595 200.96V200.86H90.3195C90.0461 200.86 89.8261 200.92 89.6595 201.04C89.4928 201.153 89.4095 201.323 89.4095 201.55C89.4095 201.777 89.4961 201.957 89.6695 202.09C89.8428 202.223 90.0795 202.29 90.3795 202.29ZM96.4519 203.14C95.8252 203.14 95.3052 203 94.8919 202.72C94.4785 202.44 94.2252 202.017 94.1319 201.45L95.0919 201.22C95.1452 201.493 95.2352 201.71 95.3619 201.87C95.4885 202.03 95.6452 202.143 95.8319 202.21C96.0252 202.277 96.2319 202.31 96.4519 202.31C96.7785 202.31 97.0285 202.247 97.2019 202.12C97.3819 201.993 97.4719 201.83 97.4719 201.63C97.4719 201.43 97.3885 201.283 97.2219 201.19C97.0552 201.097 96.8085 201.02 96.4819 200.96L96.1419 200.9C95.8085 200.84 95.5052 200.753 95.2319 200.64C94.9585 200.527 94.7419 200.37 94.5819 200.17C94.4219 199.97 94.3419 199.713 94.3419 199.4C94.3419 198.933 94.5152 198.573 94.8619 198.32C95.2085 198.06 95.6685 197.93 96.2419 197.93C96.7952 197.93 97.2485 198.057 97.6019 198.31C97.9619 198.557 98.1952 198.893 98.3019 199.32L97.3419 199.59C97.2819 199.29 97.1552 199.08 96.9619 198.96C96.7685 198.833 96.5285 198.77 96.2419 198.77C95.9619 198.77 95.7419 198.823 95.5819 198.93C95.4219 199.03 95.3419 199.173 95.3419 199.36C95.3419 199.56 95.4185 199.707 95.5719 199.8C95.7319 199.893 95.9452 199.963 96.2119 200.01L96.5619 200.07C96.9152 200.13 97.2385 200.213 97.5319 200.32C97.8252 200.427 98.0552 200.58 98.2219 200.78C98.3952 200.98 98.4819 201.247 98.4819 201.58C98.4819 202.073 98.2985 202.457 97.9319 202.73C97.5652 203.003 97.0719 203.14 96.4519 203.14ZM101.428 203C101.128 203 100.888 202.91 100.708 202.73C100.535 202.55 100.448 202.31 100.448 202.01V198.94H99.0884V198.07H100.448V196.44H101.478V198.07H102.948V198.94H101.478V201.83C101.478 202.03 101.572 202.13 101.758 202.13H102.788V203H101.428ZM108.597 203.09C108.224 203.09 107.891 203.007 107.597 202.84C107.304 202.673 107.074 202.437 106.907 202.13C106.741 201.823 106.657 201.457 106.657 201.03V198.07H107.687V200.96C107.687 201.387 107.794 201.703 108.007 201.91C108.221 202.11 108.517 202.21 108.897 202.21C109.317 202.21 109.654 202.07 109.907 201.79C110.167 201.503 110.297 201.093 110.297 200.56V198.07H111.327V203H110.317V202.26H110.157C110.064 202.46 109.897 202.65 109.657 202.83C109.417 203.003 109.064 203.09 108.597 203.09ZM112.85 205V198.07H113.86V198.78H114.02C114.147 198.56 114.337 198.363 114.59 198.19C114.85 198.017 115.22 197.93 115.7 197.93C116.113 197.93 116.49 198.03 116.83 198.23C117.177 198.43 117.453 198.72 117.66 199.1C117.873 199.473 117.98 199.927 117.98 200.46V200.61C117.98 201.143 117.877 201.6 117.67 201.98C117.463 202.353 117.187 202.64 116.84 202.84C116.493 203.04 116.113 203.14 115.7 203.14C115.38 203.14 115.11 203.1 114.89 203.02C114.67 202.94 114.493 202.84 114.36 202.72C114.227 202.593 114.12 202.463 114.04 202.33H113.88V205H112.85ZM115.4 202.24C115.853 202.24 116.223 202.097 116.51 201.81C116.797 201.523 116.94 201.113 116.94 200.58V200.49C116.94 199.963 116.793 199.557 116.5 199.27C116.213 198.983 115.847 198.84 115.4 198.84C114.96 198.84 114.593 198.983 114.3 199.27C114.013 199.557 113.87 199.963 113.87 200.49V200.58C113.87 201.113 114.013 201.523 114.3 201.81C114.593 202.097 114.96 202.24 115.4 202.24ZM121.296 203.14C120.889 203.14 120.513 203.04 120.166 202.84C119.819 202.64 119.539 202.353 119.326 201.98C119.119 201.6 119.016 201.143 119.016 200.61V200.46C119.016 199.933 119.119 199.48 119.326 199.1C119.533 198.72 119.809 198.43 120.156 198.23C120.503 198.03 120.883 197.93 121.296 197.93C121.616 197.93 121.883 197.97 122.096 198.05C122.316 198.13 122.496 198.233 122.636 198.36C122.776 198.48 122.883 198.607 122.956 198.74H123.116V196H124.146V203H123.136V202.3H122.976C122.849 202.513 122.656 202.707 122.396 202.88C122.143 203.053 121.776 203.14 121.296 203.14ZM121.586 202.24C122.033 202.24 122.399 202.097 122.686 201.81C122.979 201.523 123.126 201.113 123.126 200.58V200.49C123.126 199.963 122.983 199.557 122.696 199.27C122.409 198.983 122.039 198.84 121.586 198.84C121.146 198.84 120.779 198.983 120.486 199.27C120.199 199.557 120.056 199.963 120.056 200.49V200.58C120.056 201.113 120.199 201.523 120.486 201.81C120.779 202.097 121.146 202.24 121.586 202.24ZM127.192 203.14C126.839 203.14 126.522 203.08 126.242 202.96C125.969 202.84 125.749 202.663 125.582 202.43C125.422 202.197 125.342 201.913 125.342 201.58C125.342 201.24 125.422 200.96 125.582 200.74C125.749 200.513 125.972 200.343 126.252 200.23C126.539 200.117 126.862 200.06 127.222 200.06H128.722V199.74C128.722 199.453 128.636 199.223 128.462 199.05C128.289 198.877 128.022 198.79 127.662 198.79C127.309 198.79 127.039 198.873 126.852 199.04C126.666 199.207 126.542 199.423 126.482 199.69L125.522 199.38C125.602 199.113 125.729 198.873 125.902 198.66C126.082 198.44 126.319 198.263 126.612 198.13C126.906 197.997 127.259 197.93 127.672 197.93C128.312 197.93 128.816 198.093 129.182 198.42C129.549 198.747 129.732 199.21 129.732 199.81V201.84C129.732 202.04 129.826 202.14 130.012 202.14H130.432V203H129.662C129.429 203 129.239 202.94 129.092 202.82C128.946 202.7 128.872 202.537 128.872 202.33V202.3H128.722C128.669 202.4 128.589 202.517 128.482 202.65C128.376 202.783 128.219 202.9 128.012 203C127.806 203.093 127.532 203.14 127.192 203.14ZM127.342 202.29C127.756 202.29 128.089 202.173 128.342 201.94C128.596 201.7 128.722 201.373 128.722 200.96V200.86H127.282C127.009 200.86 126.789 200.92 126.622 201.04C126.456 201.153 126.372 201.323 126.372 201.55C126.372 201.777 126.459 201.957 126.632 202.09C126.806 202.223 127.042 202.29 127.342 202.29ZM132.942 203C132.642 203 132.402 202.91 132.222 202.73C132.049 202.55 131.962 202.31 131.962 202.01V198.94H130.602V198.07H131.962V196.44H132.992V198.07H134.462V198.94H132.992V201.83C132.992 202.03 133.085 202.13 133.272 202.13H134.302V203H132.942ZM137.756 203.14C137.256 203.14 136.82 203.037 136.446 202.83C136.073 202.617 135.78 202.32 135.566 201.94C135.36 201.553 135.256 201.107 135.256 200.6V200.48C135.256 199.967 135.36 199.52 135.566 199.14C135.773 198.753 136.06 198.457 136.426 198.25C136.8 198.037 137.23 197.93 137.716 197.93C138.19 197.93 138.603 198.037 138.956 198.25C139.316 198.457 139.596 198.747 139.796 199.12C139.996 199.493 140.096 199.93 140.096 200.43V200.82H136.306C136.32 201.253 136.463 201.6 136.736 201.86C137.016 202.113 137.363 202.24 137.776 202.24C138.163 202.24 138.453 202.153 138.646 201.98C138.846 201.807 139 201.607 139.106 201.38L139.956 201.82C139.863 202.007 139.726 202.203 139.546 202.41C139.373 202.617 139.143 202.79 138.856 202.93C138.57 203.07 138.203 203.14 137.756 203.14ZM136.316 200.03H139.046C139.02 199.657 138.886 199.367 138.646 199.16C138.406 198.947 138.093 198.84 137.706 198.84C137.32 198.84 137.003 198.947 136.756 199.16C136.516 199.367 136.37 199.657 136.316 200.03ZM143.376 203.14C142.97 203.14 142.593 203.04 142.246 202.84C141.9 202.64 141.62 202.353 141.406 201.98C141.2 201.6 141.096 201.143 141.096 200.61V200.46C141.096 199.933 141.2 199.48 141.406 199.1C141.613 198.72 141.89 198.43 142.236 198.23C142.583 198.03 142.963 197.93 143.376 197.93C143.696 197.93 143.963 197.97 144.176 198.05C144.396 198.13 144.576 198.233 144.716 198.36C144.856 198.48 144.963 198.607 145.036 198.74H145.196V196H146.226V203H145.216V202.3H145.056C144.93 202.513 144.736 202.707 144.476 202.88C144.223 203.053 143.856 203.14 143.376 203.14ZM143.666 202.24C144.113 202.24 144.48 202.097 144.766 201.81C145.06 201.523 145.206 201.113 145.206 200.58V200.49C145.206 199.963 145.063 199.557 144.776 199.27C144.49 198.983 144.12 198.84 143.666 198.84C143.226 198.84 142.86 198.983 142.566 199.27C142.28 199.557 142.136 199.963 142.136 200.49V200.58C142.136 201.113 142.28 201.523 142.566 201.81C142.86 202.097 143.226 202.24 143.666 202.24ZM148.362 203.14C148.129 203.14 147.932 203.063 147.772 202.91C147.619 202.757 147.542 202.56 147.542 202.32C147.542 202.08 147.619 201.887 147.772 201.74C147.932 201.587 148.129 201.51 148.362 201.51C148.596 201.51 148.789 201.587 148.942 201.74C149.102 201.893 149.182 202.087 149.182 202.32C149.182 202.56 149.102 202.757 148.942 202.91C148.789 203.063 148.596 203.14 148.362 203.14ZM148.362 199.57C148.129 199.57 147.932 199.493 147.772 199.34C147.619 199.187 147.542 198.99 147.542 198.75C147.542 198.51 147.619 198.317 147.772 198.17C147.932 198.017 148.129 197.94 148.362 197.94C148.596 197.94 148.789 198.017 148.942 198.17C149.102 198.323 149.182 198.517 149.182 198.75C149.182 198.99 149.102 199.187 148.942 199.34C148.789 199.493 148.596 199.57 148.362 199.57ZM158.064 203.14C157.25 203.14 156.6 202.91 156.114 202.45C155.634 201.983 155.394 201.283 155.394 200.35V198.65C155.394 197.737 155.634 197.043 156.114 196.57C156.6 196.097 157.25 195.86 158.064 195.86C158.884 195.86 159.534 196.097 160.014 196.57C160.5 197.043 160.744 197.737 160.744 198.65V200.35C160.744 201.283 160.5 201.983 160.014 202.45C159.534 202.91 158.884 203.14 158.064 203.14ZM158.064 202.2C158.617 202.2 159.027 202.043 159.294 201.73C159.56 201.41 159.694 200.963 159.694 200.39V198.59C159.694 198.017 159.55 197.577 159.264 197.27C158.977 196.957 158.577 196.8 158.064 196.8C157.544 196.8 157.144 196.96 156.864 197.28C156.584 197.593 156.444 198.03 156.444 198.59V200.39C156.444 200.977 156.577 201.427 156.844 201.74C157.117 202.047 157.524 202.2 158.064 202.2ZM163.859 203V196.74H163.699L162.549 199.1H161.439L162.989 196H164.909V203H163.859ZM167.015 203.14C166.781 203.14 166.585 203.063 166.425 202.91C166.271 202.757 166.195 202.56 166.195 202.32C166.195 202.08 166.271 201.887 166.425 201.74C166.585 201.587 166.781 201.51 167.015 201.51C167.248 201.51 167.441 201.587 167.595 201.74C167.755 201.893 167.835 202.087 167.835 202.32C167.835 202.56 167.755 202.757 167.595 202.91C167.441 203.063 167.248 203.14 167.015 203.14ZM167.015 199.57C166.781 199.57 166.585 199.493 166.425 199.34C166.271 199.187 166.195 198.99 166.195 198.75C166.195 198.51 166.271 198.317 166.425 198.17C166.585 198.017 166.781 197.94 167.015 197.94C167.248 197.94 167.441 198.017 167.595 198.17C167.755 198.323 167.835 198.517 167.835 198.75C167.835 198.99 167.755 199.187 167.595 199.34C167.441 199.493 167.248 199.57 167.015 199.57ZM171.438 203.14C170.925 203.14 170.468 203.047 170.068 202.86C169.668 202.673 169.355 202.403 169.128 202.05C168.908 201.697 168.798 201.277 168.798 200.79V200.61H169.848V200.77C169.848 201.21 169.992 201.56 170.278 201.82C170.572 202.073 170.958 202.2 171.438 202.2C171.918 202.2 172.292 202.08 172.558 201.84C172.825 201.6 172.958 201.297 172.958 200.93V200.84C172.958 200.58 172.895 200.37 172.768 200.21C172.642 200.05 172.472 199.933 172.258 199.86C172.045 199.78 171.805 199.74 171.538 199.74H170.268V198.53L172.728 197.08V196.94H168.968V196H173.868V197.42L171.518 198.82V198.96H171.948C172.302 198.96 172.635 199.027 172.948 199.16C173.262 199.293 173.515 199.497 173.708 199.77C173.908 200.043 174.008 200.39 174.008 200.81V200.93C174.008 201.377 173.902 201.767 173.688 202.1C173.475 202.427 173.175 202.683 172.788 202.87C172.402 203.05 171.952 203.14 171.438 203.14ZM177.483 203.14C176.956 203.14 176.5 203.043 176.113 202.85C175.726 202.657 175.426 202.383 175.213 202.03C175.006 201.677 174.903 201.267 174.903 200.8V200.69H175.973V200.79C175.973 201.217 176.103 201.56 176.363 201.82C176.63 202.073 177 202.2 177.473 202.2C177.96 202.2 178.336 202.067 178.603 201.8C178.87 201.533 179.003 201.173 179.003 200.72V200.63C179.003 200.197 178.87 199.85 178.603 199.59C178.343 199.33 178.01 199.2 177.603 199.2C177.376 199.2 177.186 199.237 177.033 199.31C176.886 199.377 176.766 199.46 176.673 199.56C176.586 199.66 176.513 199.757 176.453 199.85H175.123V196H179.813V196.95H176.173V199.01H176.333C176.4 198.897 176.493 198.79 176.613 198.69C176.74 198.583 176.903 198.497 177.103 198.43C177.303 198.363 177.543 198.33 177.823 198.33C178.236 198.33 178.61 198.42 178.943 198.6C179.283 198.773 179.553 199.033 179.753 199.38C179.953 199.72 180.053 200.133 180.053 200.62V200.73C180.053 201.217 179.95 201.64 179.743 202C179.536 202.36 179.24 202.64 178.853 202.84C178.473 203.04 178.016 203.14 177.483 203.14ZM183.728 203V196H186.508C186.935 196 187.315 196.087 187.648 196.26C187.988 196.427 188.251 196.667 188.438 196.98C188.631 197.287 188.728 197.657 188.728 198.09V198.22C188.728 198.653 188.628 199.027 188.428 199.34C188.235 199.653 187.971 199.893 187.638 200.06C187.305 200.227 186.928 200.31 186.508 200.31H184.808V203H183.728ZM184.808 199.33H186.398C186.778 199.33 187.081 199.23 187.308 199.03C187.535 198.83 187.648 198.557 187.648 198.21V198.11C187.648 197.757 187.535 197.48 187.308 197.28C187.081 197.08 186.778 196.98 186.398 196.98H184.808V199.33ZM189.753 203V196H191.783L193.313 202.28H193.473L195.003 196H197.033V203H195.983V196.76H195.823L194.303 203H192.483L190.963 196.76H190.803V203H189.753ZM198.534 204.36V203.77H198.874C199.147 203.77 199.284 203.633 199.284 203.36V203.04H199.134C198.9 203.04 198.707 202.97 198.554 202.83C198.4 202.69 198.324 202.513 198.324 202.3C198.324 202.067 198.4 201.88 198.554 201.74C198.707 201.593 198.9 201.52 199.134 201.52C199.367 201.52 199.557 201.597 199.704 201.75C199.857 201.897 199.934 202.09 199.934 202.33V203.37C199.934 204.03 199.604 204.36 198.944 204.36H198.534ZM205.304 203V196.74H205.144L203.994 199.1H202.884L204.434 196H206.354V203H205.304ZM210.08 203.14C209.56 203.14 209.113 203.053 208.74 202.88C208.367 202.7 208.08 202.45 207.88 202.13C207.68 201.803 207.58 201.423 207.58 200.99H208.65C208.65 201.337 208.763 201.627 208.99 201.86C209.223 202.087 209.587 202.2 210.08 202.2C210.58 202.2 210.963 202.067 211.23 201.8C211.497 201.533 211.63 201.17 211.63 200.71V199.87H211.47C211.357 200.03 211.173 200.183 210.92 200.33C210.667 200.477 210.3 200.55 209.82 200.55C209.413 200.55 209.037 200.46 208.69 200.28C208.343 200.1 208.063 199.843 207.85 199.51C207.643 199.17 207.54 198.767 207.54 198.3V198.18C207.54 197.713 207.647 197.307 207.86 196.96C208.08 196.613 208.383 196.343 208.77 196.15C209.163 195.957 209.613 195.86 210.12 195.86C210.633 195.86 211.08 195.96 211.46 196.16C211.847 196.353 212.147 196.627 212.36 196.98C212.573 197.327 212.68 197.737 212.68 198.21V200.63C212.68 201.177 212.57 201.637 212.35 202.01C212.137 202.383 211.833 202.667 211.44 202.86C211.053 203.047 210.6 203.14 210.08 203.14ZM210.11 199.7C210.417 199.7 210.683 199.64 210.91 199.52C211.137 199.4 211.313 199.237 211.44 199.03C211.567 198.817 211.63 198.567 211.63 198.28V198.2C211.63 197.767 211.49 197.427 211.21 197.18C210.937 196.927 210.57 196.8 210.11 196.8C209.65 196.8 209.28 196.927 209 197.18C208.727 197.427 208.59 197.767 208.59 198.2V198.28C208.59 198.567 208.65 198.817 208.77 199.03C208.897 199.237 209.073 199.4 209.3 199.52C209.533 199.64 209.803 199.7 210.11 199.7ZM213.972 200.91V199.97H216.932V200.91H213.972ZM220.886 203.14C220.073 203.14 219.423 202.91 218.936 202.45C218.456 201.983 218.216 201.283 218.216 200.35V198.65C218.216 197.737 218.456 197.043 218.936 196.57C219.423 196.097 220.073 195.86 220.886 195.86C221.706 195.86 222.356 196.097 222.836 196.57C223.323 197.043 223.566 197.737 223.566 198.65V200.35C223.566 201.283 223.323 201.983 222.836 202.45C222.356 202.91 221.706 203.14 220.886 203.14ZM220.886 202.2C221.439 202.2 221.849 202.043 222.116 201.73C222.383 201.41 222.516 200.963 222.516 200.39V198.59C222.516 198.017 222.373 197.577 222.086 197.27C221.799 196.957 221.399 196.8 220.886 196.8C220.366 196.8 219.966 196.96 219.686 197.28C219.406 197.593 219.266 198.03 219.266 198.59V200.39C219.266 200.977 219.399 201.427 219.666 201.74C219.939 202.047 220.346 202.2 220.886 202.2ZM227.131 203.14C226.605 203.14 226.148 203.043 225.761 202.85C225.375 202.657 225.075 202.383 224.861 202.03C224.655 201.677 224.551 201.267 224.551 200.8V200.69H225.621V200.79C225.621 201.217 225.751 201.56 226.011 201.82C226.278 202.073 226.648 202.2 227.121 202.2C227.608 202.2 227.985 202.067 228.251 201.8C228.518 201.533 228.651 201.173 228.651 200.72V200.63C228.651 200.197 228.518 199.85 228.251 199.59C227.991 199.33 227.658 199.2 227.251 199.2C227.025 199.2 226.835 199.237 226.681 199.31C226.535 199.377 226.415 199.46 226.321 199.56C226.235 199.66 226.161 199.757 226.101 199.85H224.771V196H229.461V196.95H225.821V199.01H225.981C226.048 198.897 226.141 198.79 226.261 198.69C226.388 198.583 226.551 198.497 226.751 198.43C226.951 198.363 227.191 198.33 227.471 198.33C227.885 198.33 228.258 198.42 228.591 198.6C228.931 198.773 229.201 199.033 229.401 199.38C229.601 199.72 229.701 200.133 229.701 200.62V200.73C229.701 201.217 229.598 201.64 229.391 202C229.185 202.36 228.888 202.64 228.501 202.84C228.121 203.04 227.665 203.14 227.131 203.14ZM230.838 200.91V199.97H233.798V200.91H230.838ZM235.011 203V202.21C235.011 201.723 235.095 201.323 235.261 201.01C235.428 200.697 235.665 200.443 235.971 200.25C236.285 200.05 236.661 199.883 237.101 199.75L237.711 199.56C237.985 199.473 238.218 199.367 238.411 199.24C238.611 199.113 238.765 198.957 238.871 198.77C238.978 198.577 239.031 198.353 239.031 198.1V198.06C239.031 197.667 238.898 197.36 238.631 197.14C238.365 196.913 238.015 196.8 237.581 196.8C237.135 196.8 236.771 196.92 236.491 197.16C236.218 197.4 236.081 197.753 236.081 198.22V198.38H235.041V198.23C235.041 197.723 235.151 197.297 235.371 196.95C235.591 196.597 235.895 196.327 236.281 196.14C236.668 195.953 237.101 195.86 237.581 195.86C238.061 195.86 238.488 195.95 238.861 196.13C239.241 196.31 239.538 196.563 239.751 196.89C239.971 197.217 240.081 197.6 240.081 198.04V198.13C240.081 198.583 239.991 198.96 239.811 199.26C239.631 199.56 239.381 199.807 239.061 200C238.748 200.193 238.385 200.357 237.971 200.49L237.381 200.67C237.068 200.763 236.815 200.867 236.621 200.98C236.435 201.087 236.295 201.217 236.201 201.37C236.115 201.523 236.071 201.72 236.071 201.96V202.06H240.021V203H235.011ZM243.728 203.14C242.914 203.14 242.264 202.91 241.778 202.45C241.298 201.983 241.058 201.283 241.058 200.35V198.65C241.058 197.737 241.298 197.043 241.778 196.57C242.264 196.097 242.914 195.86 243.728 195.86C244.548 195.86 245.198 196.097 245.678 196.57C246.164 197.043 246.408 197.737 246.408 198.65V200.35C246.408 201.283 246.164 201.983 245.678 202.45C245.198 202.91 244.548 203.14 243.728 203.14ZM243.728 202.2C244.281 202.2 244.691 202.043 244.958 201.73C245.224 201.41 245.358 200.963 245.358 200.39V198.59C245.358 198.017 245.214 197.577 244.928 197.27C244.641 196.957 244.241 196.8 243.728 196.8C243.208 196.8 242.808 196.96 242.528 197.28C242.248 197.593 242.108 198.03 242.108 198.59V200.39C242.108 200.977 242.241 201.427 242.508 201.74C242.781 202.047 243.188 202.2 243.728 202.2ZM247.433 203V202.21C247.433 201.723 247.516 201.323 247.683 201.01C247.85 200.697 248.086 200.443 248.393 200.25C248.706 200.05 249.083 199.883 249.523 199.75L250.133 199.56C250.406 199.473 250.64 199.367 250.833 199.24C251.033 199.113 251.186 198.957 251.293 198.77C251.4 198.577 251.453 198.353 251.453 198.1V198.06C251.453 197.667 251.32 197.36 251.053 197.14C250.786 196.913 250.436 196.8 250.003 196.8C249.556 196.8 249.193 196.92 248.913 197.16C248.64 197.4 248.503 197.753 248.503 198.22V198.38H247.463V198.23C247.463 197.723 247.573 197.297 247.793 196.95C248.013 196.597 248.316 196.327 248.703 196.14C249.09 195.953 249.523 195.86 250.003 195.86C250.483 195.86 250.91 195.95 251.283 196.13C251.663 196.31 251.96 196.563 252.173 196.89C252.393 197.217 252.503 197.6 252.503 198.04V198.13C252.503 198.583 252.413 198.96 252.233 199.26C252.053 199.56 251.803 199.807 251.483 200C251.17 200.193 250.806 200.357 250.393 200.49L249.803 200.67C249.49 200.763 249.236 200.867 249.043 200.98C248.856 201.087 248.716 201.217 248.623 201.37C248.536 201.523 248.493 201.72 248.493 201.96V202.06H252.443V203H247.433ZM255.95 203.14C255.437 203.14 254.98 203.047 254.58 202.86C254.18 202.673 253.867 202.403 253.64 202.05C253.42 201.697 253.31 201.277 253.31 200.79V200.61H254.36V200.77C254.36 201.21 254.503 201.56 254.79 201.82C255.083 202.073 255.47 202.2 255.95 202.2C256.43 202.2 256.803 202.08 257.07 201.84C257.337 201.6 257.47 201.297 257.47 200.93V200.84C257.47 200.58 257.407 200.37 257.28 200.21C257.153 200.05 256.983 199.933 256.77 199.86C256.557 199.78 256.317 199.74 256.05 199.74H254.78V198.53L257.24 197.08V196.94H253.48V196H258.38V197.42L256.03 198.82V198.96H256.46C256.813 198.96 257.147 199.027 257.46 199.16C257.773 199.293 258.027 199.497 258.22 199.77C258.42 200.043 258.52 200.39 258.52 200.81V200.93C258.52 201.377 258.413 201.767 258.2 202.1C257.987 202.427 257.687 202.683 257.3 202.87C256.913 203.05 256.463 203.14 255.95 203.14Z" fill="#242739"/>
<path d="M92.662 228.196C91.4673 228.196 90.52 227.86 89.82 227.188C89.12 226.507 88.77 225.527 88.77 224.248V221.952C88.77 220.673 89.12 219.698 89.82 219.026C90.52 218.345 91.4673 218.004 92.662 218.004C93.838 218.004 94.7433 218.331 95.378 218.984C96.022 219.637 96.344 220.529 96.344 221.658V221.742H94.846V221.616C94.846 220.953 94.664 220.412 94.3 219.992C93.9453 219.572 93.3993 219.362 92.662 219.362C91.9153 219.362 91.332 219.591 90.912 220.048C90.492 220.496 90.282 221.121 90.282 221.924V224.276C90.282 225.069 90.492 225.695 90.912 226.152C91.332 226.609 91.9153 226.838 92.662 226.838C93.3993 226.838 93.9453 226.628 94.3 226.208C94.664 225.779 94.846 225.237 94.846 224.584V224.346H96.344V224.542C96.344 225.671 96.022 226.563 95.378 227.216C94.7433 227.869 93.838 228.196 92.662 228.196ZM98.0601 228V218.2H99.5021V222.078H99.7261C99.8194 221.901 99.9501 221.728 100.118 221.56C100.295 221.392 100.524 221.257 100.804 221.154C101.093 221.042 101.457 220.986 101.896 220.986C102.419 220.986 102.881 221.103 103.282 221.336C103.693 221.569 104.015 221.901 104.248 222.33C104.481 222.75 104.598 223.259 104.598 223.856V228H103.156V223.968C103.156 223.371 103.007 222.932 102.708 222.652C102.409 222.363 101.999 222.218 101.476 222.218C100.879 222.218 100.398 222.414 100.034 222.806C99.6794 223.198 99.5021 223.767 99.5021 224.514V228H98.0601ZM109.837 228.196C109.137 228.196 108.526 228.051 108.003 227.762C107.481 227.463 107.07 227.048 106.771 226.516C106.482 225.975 106.337 225.349 106.337 224.64V224.472C106.337 223.753 106.482 223.128 106.771 222.596C107.061 222.055 107.462 221.639 107.975 221.35C108.498 221.051 109.1 220.902 109.781 220.902C110.444 220.902 111.023 221.051 111.517 221.35C112.021 221.639 112.413 222.045 112.693 222.568C112.973 223.091 113.113 223.702 113.113 224.402V224.948H107.807C107.826 225.555 108.027 226.04 108.409 226.404C108.801 226.759 109.287 226.936 109.865 226.936C110.407 226.936 110.813 226.815 111.083 226.572C111.363 226.329 111.578 226.049 111.727 225.732L112.917 226.348C112.787 226.609 112.595 226.885 112.343 227.174C112.101 227.463 111.779 227.706 111.377 227.902C110.976 228.098 110.463 228.196 109.837 228.196ZM107.821 223.842H111.643C111.606 223.319 111.419 222.913 111.083 222.624C110.747 222.325 110.309 222.176 109.767 222.176C109.226 222.176 108.783 222.325 108.437 222.624C108.101 222.913 107.896 223.319 107.821 223.842ZM118.055 228.196C117.392 228.196 116.79 228.056 116.249 227.776C115.717 227.496 115.292 227.09 114.975 226.558C114.667 226.026 114.513 225.387 114.513 224.64V224.458C114.513 223.711 114.667 223.077 114.975 222.554C115.292 222.022 115.717 221.616 116.249 221.336C116.79 221.047 117.392 220.902 118.055 220.902C118.718 220.902 119.282 221.023 119.749 221.266C120.216 221.509 120.589 221.831 120.869 222.232C121.158 222.633 121.345 223.077 121.429 223.562L120.029 223.856C119.982 223.548 119.884 223.268 119.735 223.016C119.586 222.764 119.376 222.563 119.105 222.414C118.834 222.265 118.494 222.19 118.083 222.19C117.682 222.19 117.318 222.283 116.991 222.47C116.674 222.647 116.422 222.909 116.235 223.254C116.048 223.59 115.955 224.001 115.955 224.486V224.612C115.955 225.097 116.048 225.513 116.235 225.858C116.422 226.203 116.674 226.465 116.991 226.642C117.318 226.819 117.682 226.908 118.083 226.908C118.69 226.908 119.152 226.754 119.469 226.446C119.786 226.129 119.987 225.727 120.071 225.242L121.471 225.564C121.359 226.04 121.158 226.479 120.869 226.88C120.589 227.281 120.216 227.603 119.749 227.846C119.282 228.079 118.718 228.196 118.055 228.196ZM123.134 228V218.2H124.576V223.786H124.8L127.516 221.098H129.434L125.948 224.444L129.546 228H127.642L124.8 225.13H124.576V228H123.134ZM137.62 228.196C136.957 228.196 136.355 228.056 135.814 227.776C135.282 227.496 134.857 227.09 134.54 226.558C134.232 226.026 134.078 225.387 134.078 224.64V224.458C134.078 223.711 134.232 223.077 134.54 222.554C134.857 222.022 135.282 221.616 135.814 221.336C136.355 221.047 136.957 220.902 137.62 220.902C138.282 220.902 138.847 221.023 139.314 221.266C139.78 221.509 140.154 221.831 140.434 222.232C140.723 222.633 140.91 223.077 140.994 223.562L139.594 223.856C139.547 223.548 139.449 223.268 139.3 223.016C139.15 222.764 138.94 222.563 138.67 222.414C138.399 222.265 138.058 222.19 137.648 222.19C137.246 222.19 136.882 222.283 136.556 222.47C136.238 222.647 135.986 222.909 135.8 223.254C135.613 223.59 135.52 224.001 135.52 224.486V224.612C135.52 225.097 135.613 225.513 135.8 225.858C135.986 226.203 136.238 226.465 136.556 226.642C136.882 226.819 137.246 226.908 137.648 226.908C138.254 226.908 138.716 226.754 139.034 226.446C139.351 226.129 139.552 225.727 139.636 225.242L141.036 225.564C140.924 226.04 140.723 226.479 140.434 226.88C140.154 227.281 139.78 227.603 139.314 227.846C138.847 228.079 138.282 228.196 137.62 228.196ZM142.699 228V221.098H144.113V221.91H144.337C144.449 221.621 144.626 221.411 144.869 221.28C145.121 221.14 145.429 221.07 145.793 221.07H146.619V222.372H145.737C145.27 222.372 144.887 222.503 144.589 222.764C144.29 223.016 144.141 223.408 144.141 223.94V228H142.699ZM151.031 228.196C150.331 228.196 149.719 228.051 149.197 227.762C148.674 227.463 148.263 227.048 147.965 226.516C147.675 225.975 147.531 225.349 147.531 224.64V224.472C147.531 223.753 147.675 223.128 147.965 222.596C148.254 222.055 148.655 221.639 149.169 221.35C149.691 221.051 150.293 220.902 150.975 220.902C151.637 220.902 152.216 221.051 152.711 221.35C153.215 221.639 153.607 222.045 153.887 222.568C154.167 223.091 154.307 223.702 154.307 224.402V224.948H149.001C149.019 225.555 149.22 226.04 149.603 226.404C149.995 226.759 150.48 226.936 151.059 226.936C151.6 226.936 152.006 226.815 152.277 226.572C152.557 226.329 152.771 226.049 152.921 225.732L154.111 226.348C153.98 226.609 153.789 226.885 153.537 227.174C153.294 227.463 152.972 227.706 152.571 227.902C152.169 228.098 151.656 228.196 151.031 228.196ZM149.015 223.842H152.837C152.799 223.319 152.613 222.913 152.277 222.624C151.941 222.325 151.502 222.176 150.961 222.176C150.419 222.176 149.976 222.325 149.631 222.624C149.295 222.913 149.089 223.319 149.015 223.842ZM158.899 228.196C158.329 228.196 157.802 228.056 157.317 227.776C156.831 227.496 156.439 227.095 156.141 226.572C155.851 226.04 155.707 225.401 155.707 224.654V224.444C155.707 223.707 155.851 223.072 156.141 222.54C156.43 222.008 156.817 221.602 157.303 221.322C157.788 221.042 158.32 220.902 158.899 220.902C159.347 220.902 159.72 220.958 160.019 221.07C160.327 221.182 160.579 221.327 160.775 221.504C160.971 221.672 161.12 221.849 161.223 222.036H161.447V218.2H162.889V228H161.475V227.02H161.251C161.073 227.319 160.803 227.589 160.439 227.832C160.084 228.075 159.571 228.196 158.899 228.196ZM159.305 226.936C159.93 226.936 160.443 226.735 160.845 226.334C161.255 225.933 161.461 225.359 161.461 224.612V224.486C161.461 223.749 161.26 223.179 160.859 222.778C160.457 222.377 159.939 222.176 159.305 222.176C158.689 222.176 158.175 222.377 157.765 222.778C157.363 223.179 157.163 223.749 157.163 224.486V224.612C157.163 225.359 157.363 225.933 157.765 226.334C158.175 226.735 158.689 226.936 159.305 226.936ZM165.011 228V221.098H166.453V228H165.011ZM165.739 220.16C165.459 220.16 165.221 220.071 165.025 219.894C164.839 219.707 164.745 219.469 164.745 219.18C164.745 218.891 164.839 218.657 165.025 218.48C165.221 218.293 165.459 218.2 165.739 218.2C166.029 218.2 166.267 218.293 166.453 218.48C166.64 218.657 166.733 218.891 166.733 219.18C166.733 219.469 166.64 219.707 166.453 219.894C166.267 220.071 166.029 220.16 165.739 220.16ZM171.183 228C170.763 228 170.427 227.874 170.175 227.622C169.933 227.37 169.811 227.034 169.811 226.614V222.316H167.907V221.098H169.811V218.816H171.253V221.098H173.311V222.316H171.253V226.362C171.253 226.642 171.384 226.782 171.645 226.782H173.087V228H171.183ZM178.574 228V218.2H180.016V222.078H180.24C180.333 221.901 180.464 221.728 180.632 221.56C180.809 221.392 181.038 221.257 181.318 221.154C181.607 221.042 181.971 220.986 182.41 220.986C182.932 220.986 183.394 221.103 183.796 221.336C184.206 221.569 184.528 221.901 184.762 222.33C184.995 222.75 185.112 223.259 185.112 223.856V228H183.67V223.968C183.67 223.371 183.52 222.932 183.222 222.652C182.923 222.363 182.512 222.218 181.99 222.218C181.392 222.218 180.912 222.414 180.548 222.806C180.193 223.198 180.016 223.767 180.016 224.514V228H178.574ZM187.187 228V221.098H188.629V228H187.187ZM187.915 220.16C187.635 220.16 187.397 220.071 187.201 219.894C187.014 219.707 186.921 219.469 186.921 219.18C186.921 218.891 187.014 218.657 187.201 218.48C187.397 218.293 187.635 218.2 187.915 218.2C188.204 218.2 188.442 218.293 188.629 218.48C188.816 218.657 188.909 218.891 188.909 219.18C188.909 219.469 188.816 219.707 188.629 219.894C188.442 220.071 188.204 220.16 187.915 220.16ZM193.597 228.196C192.72 228.196 191.992 228 191.413 227.608C190.834 227.216 190.48 226.623 190.349 225.83L191.693 225.508C191.768 225.891 191.894 226.194 192.071 226.418C192.248 226.642 192.468 226.801 192.729 226.894C193 226.987 193.289 227.034 193.597 227.034C194.054 227.034 194.404 226.945 194.647 226.768C194.899 226.591 195.025 226.362 195.025 226.082C195.025 225.802 194.908 225.597 194.675 225.466C194.442 225.335 194.096 225.228 193.639 225.144L193.163 225.06C192.696 224.976 192.272 224.855 191.889 224.696C191.506 224.537 191.203 224.318 190.979 224.038C190.755 223.758 190.643 223.399 190.643 222.96C190.643 222.307 190.886 221.803 191.371 221.448C191.856 221.084 192.5 220.902 193.303 220.902C194.078 220.902 194.712 221.079 195.207 221.434C195.711 221.779 196.038 222.251 196.187 222.848L194.843 223.226C194.759 222.806 194.582 222.512 194.311 222.344C194.04 222.167 193.704 222.078 193.303 222.078C192.911 222.078 192.603 222.153 192.379 222.302C192.155 222.442 192.043 222.643 192.043 222.904C192.043 223.184 192.15 223.389 192.365 223.52C192.589 223.651 192.888 223.749 193.261 223.814L193.751 223.898C194.246 223.982 194.698 224.099 195.109 224.248C195.52 224.397 195.842 224.612 196.075 224.892C196.318 225.172 196.439 225.545 196.439 226.012C196.439 226.703 196.182 227.239 195.669 227.622C195.156 228.005 194.465 228.196 193.597 228.196ZM200.564 228C200.144 228 199.808 227.874 199.556 227.622C199.313 227.37 199.192 227.034 199.192 226.614V222.316H197.288V221.098H199.192V218.816H200.634V221.098H202.692V222.316H200.634V226.362C200.634 226.642 200.765 226.782 201.026 226.782H202.468V228H200.564ZM207.374 228.196C206.683 228.196 206.067 228.056 205.526 227.776C204.994 227.487 204.574 227.076 204.266 226.544C203.958 226.012 203.804 225.382 203.804 224.654V224.444C203.804 223.716 203.958 223.091 204.266 222.568C204.574 222.036 204.994 221.625 205.526 221.336C206.067 221.047 206.683 220.902 207.374 220.902C208.065 220.902 208.681 221.047 209.222 221.336C209.763 221.625 210.188 222.036 210.496 222.568C210.804 223.091 210.958 223.716 210.958 224.444V224.654C210.958 225.382 210.804 226.012 210.496 226.544C210.188 227.076 209.763 227.487 209.222 227.776C208.681 228.056 208.065 228.196 207.374 228.196ZM207.374 226.908C208.009 226.908 208.522 226.707 208.914 226.306C209.315 225.895 209.516 225.331 209.516 224.612V224.486C209.516 223.767 209.32 223.207 208.928 222.806C208.536 222.395 208.018 222.19 207.374 222.19C206.749 222.19 206.235 222.395 205.834 222.806C205.442 223.207 205.246 223.767 205.246 224.486V224.612C205.246 225.331 205.442 225.895 205.834 226.306C206.235 226.707 206.749 226.908 207.374 226.908ZM212.753 228V221.098H214.167V221.91H214.391C214.503 221.621 214.681 221.411 214.923 221.28C215.175 221.14 215.483 221.07 215.847 221.07H216.673V222.372H215.791C215.325 222.372 214.942 222.503 214.643 222.764C214.345 223.016 214.195 223.408 214.195 223.94V228H212.753ZM218.966 230.8V229.54H222.816C223.077 229.54 223.208 229.4 223.208 229.12V226.992H222.984C222.9 227.179 222.769 227.361 222.592 227.538C222.424 227.706 222.195 227.846 221.906 227.958C221.616 228.07 221.252 228.126 220.814 228.126C220.291 228.126 219.824 228.009 219.414 227.776C219.003 227.543 218.681 227.211 218.448 226.782C218.214 226.353 218.098 225.844 218.098 225.256V221.098H219.54V225.144C219.54 225.741 219.689 226.185 219.988 226.474C220.286 226.754 220.702 226.894 221.234 226.894C221.822 226.894 222.293 226.698 222.648 226.306C223.012 225.914 223.194 225.345 223.194 224.598V221.098H224.636V229.414C224.636 229.834 224.51 230.17 224.258 230.422C224.015 230.674 223.679 230.8 223.25 230.8H218.966Z" fill="#6936F5"/>
<g clip-path="url(#clip0_592_13321)">
<path d="M246.5 229L252.5 223L246.5 217" stroke="#6936F5" stroke-width="2" stroke-linecap="square" stroke-linejoin="round"/>
<path d="M232 223H251" stroke="#6936F5" stroke-width="2"/>
</g>
<g clip-path="url(#clip1_592_13321)">
<path d="M83 154.5C83 133.906 90.1823 113.956 103.31 98.088L123.767 115.012C114.578 126.119 109.55 140.084 109.55 154.5L83 154.5Z" fill="#F22325"/>
<path d="M260 154.5C260 133.906 252.818 113.956 239.69 98.088L219.233 115.012C228.422 126.119 233.45 140.084 233.45 154.5L260 154.5Z" fill="#34C635"/>
<path d="M108.921 91.9211C124.16 76.6825 144.435 67.5278 165.943 66.1746L167.61 92.6722C152.554 93.6195 138.362 100.028 127.695 110.695L108.921 91.9211Z" fill="#FE680A"/>
<path d="M234.079 91.9211C218.84 76.6825 198.565 67.5278 177.057 66.1746L175.39 92.6722C190.446 93.6195 204.638 100.028 215.305 110.695L234.079 91.9211Z" fill="#FFCF00"/>
<path d="M145.473 154.5C145.473 151.082 146.146 147.697 147.454 144.539C148.762 141.381 150.679 138.512 153.096 136.095L171.502 154.5L145.473 154.5Z" fill="#F42326"/>
<path d="M197.527 154.5C197.527 151.082 196.854 147.697 195.546 144.539C194.238 141.381 192.321 138.512 189.904 136.095L171.498 154.5L197.527 154.5Z" fill="#36C535"/>
<path d="M153.096 136.095C155.514 133.677 158.383 131.76 161.541 130.452C164.699 129.144 168.084 128.471 171.502 128.471L171.502 154.5L153.096 136.095Z" fill="#FE680A"/>
<path d="M189.904 136.095C187.486 133.677 184.617 131.76 181.459 130.452C178.301 129.144 174.916 128.471 171.498 128.471L171.498 154.5L189.904 136.095Z" fill="#FED109"/>
<path d="M183.02 129.121L196.633 95.0574L180.623 128.234L183.02 129.121Z" fill="#101828"/>
</g>
<path d="M87.775 173.168C87.159 173.168 86.611 173.056 86.131 172.832C85.651 172.608 85.275 172.284 85.003 171.86C84.739 171.436 84.607 170.932 84.607 170.348V170.132H85.867V170.324C85.867 170.852 86.039 171.272 86.383 171.584C86.735 171.888 87.199 172.04 87.775 172.04C88.351 172.04 88.799 171.896 89.119 171.608C89.439 171.32 89.599 170.956 89.599 170.516V170.408C89.599 170.096 89.523 169.844 89.371 169.652C89.219 169.46 89.015 169.32 88.759 169.232C88.503 169.136 88.215 169.088 87.895 169.088H86.371V167.636L89.323 165.896V165.728H84.811V164.6H90.691V166.304L87.871 167.984V168.152H88.387C88.811 168.152 89.211 168.232 89.587 168.392C89.963 168.552 90.267 168.796 90.499 169.124C90.739 169.452 90.859 169.868 90.859 170.372V170.516C90.859 171.052 90.731 171.52 90.475 171.92C90.219 172.312 89.859 172.62 89.395 172.844C88.931 173.06 88.391 173.168 87.775 173.168ZM95.2683 173.168C94.2923 173.168 93.5123 172.892 92.9283 172.34C92.3523 171.78 92.0643 170.94 92.0643 169.82V167.78C92.0643 166.684 92.3523 165.852 92.9283 165.284C93.5123 164.716 94.2923 164.432 95.2683 164.432C96.2523 164.432 97.0323 164.716 97.6083 165.284C98.1923 165.852 98.4843 166.684 98.4843 167.78V169.82C98.4843 170.94 98.1923 171.78 97.6083 172.34C97.0323 172.892 96.2523 173.168 95.2683 173.168ZM95.2683 172.04C95.9323 172.04 96.4243 171.852 96.7443 171.476C97.0643 171.092 97.2243 170.556 97.2243 169.868V167.708C97.2243 167.02 97.0523 166.492 96.7083 166.124C96.3643 165.748 95.8843 165.56 95.2683 165.56C94.6443 165.56 94.1643 165.752 93.8283 166.136C93.4923 166.512 93.3243 167.036 93.3243 167.708V169.868C93.3243 170.572 93.4843 171.112 93.8043 171.488C94.1323 171.856 94.6203 172.04 95.2683 172.04ZM103.003 173.168C102.027 173.168 101.247 172.892 100.663 172.34C100.087 171.78 99.7987 170.94 99.7987 169.82V167.78C99.7987 166.684 100.087 165.852 100.663 165.284C101.247 164.716 102.027 164.432 103.003 164.432C103.987 164.432 104.767 164.716 105.343 165.284C105.927 165.852 106.219 166.684 106.219 167.78V169.82C106.219 170.94 105.927 171.78 105.343 172.34C104.767 172.892 103.987 173.168 103.003 173.168ZM103.003 172.04C103.667 172.04 104.159 171.852 104.479 171.476C104.799 171.092 104.959 170.556 104.959 169.868V167.708C104.959 167.02 104.787 166.492 104.443 166.124C104.099 165.748 103.619 165.56 103.003 165.56C102.379 165.56 101.899 165.752 101.563 166.136C101.227 166.512 101.059 167.036 101.059 167.708V169.868C101.059 170.572 101.219 171.112 101.539 171.488C101.867 171.856 102.355 172.04 103.003 172.04Z" fill="#242739"/>
<path d="M78.5139 133.305L72.2223 130.237L73.441 127.738C73.628 127.355 73.8725 127.051 74.1744 126.828C74.4733 126.595 74.8044 126.464 75.1679 126.433C75.5282 126.394 75.9032 126.469 76.2926 126.659L76.4095 126.716C76.799 126.906 77.0907 127.16 77.2846 127.477C77.4815 127.788 77.5818 128.13 77.5854 128.502C77.5891 128.875 77.4989 129.25 77.3148 129.628L76.5696 131.155L78.9873 132.335L78.5139 133.305ZM75.6887 130.726L76.3857 129.297C76.5523 128.955 76.5954 128.639 76.515 128.347C76.4346 128.056 76.2386 127.834 75.9271 127.682L75.8372 127.638C75.5196 127.484 75.2213 127.464 74.9421 127.58C74.663 127.696 74.4402 127.925 74.2736 128.267L73.5766 129.696L75.6887 130.726ZM82.2469 125.971C82.0306 126.414 81.7479 126.766 81.3986 127.026C81.0463 127.277 80.6511 127.418 80.2131 127.449C79.7752 127.48 79.3225 127.382 78.8551 127.154L78.7203 127.088C78.2529 126.86 77.8997 126.565 77.6606 126.204C77.4155 125.84 77.2833 125.441 77.2642 125.009C77.2479 124.571 77.3479 124.13 77.5642 123.687C77.7805 123.244 78.0662 122.893 78.4215 122.636C78.7767 122.38 79.1733 122.235 79.6113 122.204C80.0433 122.17 80.493 122.267 80.9604 122.495L81.0952 122.561C81.5626 122.789 81.9188 123.085 82.1639 123.449C82.409 123.814 82.5397 124.215 82.5559 124.653C82.5662 125.088 82.4632 125.527 82.2469 125.971ZM81.42 125.568C81.6187 125.16 81.6507 124.768 81.5157 124.39C81.3778 124.004 81.0781 123.699 80.6167 123.474L80.5358 123.434C80.0744 123.209 79.6535 123.16 79.2731 123.286C78.8868 123.409 78.5927 123.677 78.3911 124.09C78.1953 124.492 78.1664 124.886 78.3043 125.272C78.4393 125.649 78.7374 125.95 79.1988 126.175L79.2797 126.215C79.7411 126.44 80.1649 126.491 80.5513 126.368C80.9346 126.236 81.2242 125.969 81.42 125.568ZM84.9439 120.441C84.7277 120.885 84.4449 121.236 84.0956 121.496C83.7433 121.747 83.3481 121.888 82.9102 121.919C82.4722 121.95 82.0195 121.852 81.5521 121.624L81.4173 121.558C80.9499 121.33 80.5967 121.036 80.3576 120.674C80.1125 120.31 79.9803 119.912 79.9612 119.48C79.9449 119.041 80.0449 118.601 80.2612 118.157C80.4775 117.714 80.7632 117.364 81.1185 117.107C81.4737 116.85 81.8704 116.706 82.3083 116.675C82.7403 116.641 83.19 116.738 83.6574 116.965L83.7922 117.031C84.2596 117.259 84.6158 117.555 84.8609 117.92C85.106 118.284 85.2367 118.685 85.2529 119.123C85.2632 119.558 85.1602 119.998 84.9439 120.441ZM84.117 120.038C84.3158 119.63 84.3477 119.238 84.2128 118.861C84.0748 118.474 83.7751 118.169 83.3137 117.944L83.2328 117.904C82.7714 117.679 82.3506 117.63 81.9702 117.756C81.5838 117.879 81.2897 118.147 81.0881 118.561C80.8923 118.962 80.8634 119.356 81.0014 119.742C81.1363 120.119 81.4344 120.421 81.8958 120.646L81.9767 120.685C82.4381 120.91 82.8619 120.961 83.2483 120.838C83.6317 120.706 83.9212 120.439 84.117 120.038ZM86.5025 116.926L82.0714 114.765L82.5142 113.857L83.0355 114.112L83.1056 113.968C82.9549 113.805 82.8756 113.626 82.8677 113.429C82.8568 113.223 82.9083 113.004 83.0222 112.77L83.2809 112.24L84.1167 112.647L83.8406 113.214C83.6944 113.513 83.6585 113.8 83.7328 114.073C83.801 114.344 84.0059 114.563 84.3475 114.729L86.954 116.001L86.5025 116.926Z" fill="#242739"/>
<path d="M120.871 75.9842L117.371 69.922L121.112 67.762L121.602 68.6107L118.796 70.2307L119.806 71.9801L122.387 70.4901L122.877 71.3388L120.296 72.8288L121.806 75.4442L120.871 75.9842ZM126.875 72.679C126.569 72.8556 126.265 72.962 125.963 72.9981C125.666 73.0308 125.387 72.9878 125.126 72.8691C124.871 72.747 124.66 72.5417 124.493 72.253C124.323 71.9585 124.252 71.676 124.281 71.4055C124.312 71.1259 124.42 70.867 124.606 70.6288C124.798 70.3874 125.05 70.1766 125.361 69.9966L126.66 69.2466L126.5 68.9695C126.357 68.7212 126.167 68.5654 125.93 68.5019C125.693 68.4385 125.419 68.4968 125.107 68.6768C124.801 68.8534 124.609 69.0606 124.531 69.2983C124.453 69.5359 124.454 69.7852 124.535 70.0462L123.549 70.2577C123.485 69.9868 123.475 69.7156 123.518 69.4442C123.564 69.1637 123.681 68.8923 123.868 68.6302C124.055 68.3681 124.328 68.1337 124.686 67.927C125.24 67.607 125.758 67.4968 126.239 67.5963C126.72 67.6959 127.11 68.0055 127.41 68.5251L128.425 70.2831C128.525 70.4563 128.656 70.4963 128.818 70.403L129.181 70.193L129.611 70.9377L128.944 71.3227C128.742 71.4394 128.548 71.4824 128.361 71.4518C128.174 71.4213 128.029 71.3165 127.925 71.1375L127.91 71.1115L127.78 71.1865C127.784 71.2998 127.773 71.4408 127.748 71.6096C127.722 71.7784 127.644 71.9578 127.515 72.1477C127.383 72.3319 127.17 72.509 126.875 72.679ZM126.58 71.8679C126.938 71.6612 127.169 71.3935 127.271 71.0647C127.371 70.7302 127.317 70.384 127.11 70.026L127.06 69.9394L125.813 70.6594C125.577 70.7961 125.416 70.9581 125.332 71.1453C125.244 71.3268 125.257 71.5157 125.37 71.712C125.484 71.9083 125.649 72.0208 125.865 72.0497C126.082 72.0785 126.32 72.0179 126.58 71.8679ZM130.479 70.437L128.014 66.1675L128.906 65.6525L131.371 69.922L130.479 70.437ZM128.129 65.3272C127.956 65.4272 127.777 65.4574 127.592 65.4177C127.41 65.3689 127.267 65.255 127.164 65.076C127.061 64.8971 127.035 64.7194 127.087 64.543C127.142 64.3575 127.256 64.2148 127.429 64.1148C127.608 64.0115 127.788 63.9842 127.971 64.033C128.149 64.076 128.29 64.1871 128.394 64.366C128.497 64.545 128.524 64.7256 128.476 64.9077C128.423 65.0841 128.308 65.2239 128.129 65.3272ZM132.694 69.1577L130.229 64.8882L131.104 64.3832L131.394 64.8855L131.533 64.8055C131.499 64.5865 131.533 64.3933 131.637 64.2258C131.743 64.0492 131.908 63.8959 132.133 63.7659L132.644 63.4709L133.109 64.2763L132.564 64.5913C132.275 64.7579 132.085 64.9754 131.994 65.2438C131.899 65.5063 131.946 65.8021 132.136 66.1312L133.586 68.6427L132.694 69.1577Z" fill="#242739"/>
<path d="M204.514 67.6233C204.069 67.3963 203.719 67.0984 203.465 66.7298C203.215 66.3552 203.084 65.9293 203.073 65.4522C203.061 64.9751 203.193 64.4662 203.469 63.9257L204.213 62.4645C204.628 61.6507 205.167 61.1434 205.83 60.9427C206.497 60.7361 207.21 60.8265 207.971 61.2139C208.719 61.5953 209.191 62.0938 209.386 62.7094C209.584 63.3192 209.509 63.9656 209.161 64.6487L209.138 64.6933L208.185 64.2075L208.221 64.1362C208.351 63.8808 208.417 63.6264 208.419 63.3729C208.424 63.1136 208.356 62.8731 208.215 62.6514C208.073 62.4297 207.845 62.2386 207.53 62.0782C207.055 61.8361 206.61 61.7924 206.194 61.9473C205.781 62.0962 205.445 62.4261 205.185 62.9369L204.422 64.4338C204.165 64.9387 204.094 65.4078 204.21 65.841C204.329 66.2682 204.629 66.6045 205.11 66.8496C205.585 67.0917 206 67.1381 206.352 66.9887C206.705 66.8394 206.988 66.5568 207.2 66.141L207.259 66.0251L205.584 65.1716L206.006 64.343L208.634 65.6823L207.064 68.7652L206.173 68.3112L206.495 67.6785L206.352 67.6059C206.241 67.6915 206.102 67.7665 205.935 67.8308C205.773 67.8982 205.575 67.9205 205.339 67.8979C205.11 67.8782 204.835 67.7867 204.514 67.6233ZM210.325 70.5839C209.885 70.3599 209.538 70.0711 209.285 69.7173C209.04 69.3607 208.906 68.9631 208.882 68.5246C208.859 68.0862 208.965 67.6353 209.201 67.172L209.269 67.0383C209.505 66.575 209.806 66.2269 210.172 65.9942C210.54 65.7555 210.941 65.6303 211.373 65.6187C211.811 65.6101 212.25 65.7178 212.69 65.9417C213.129 66.1657 213.475 66.4575 213.725 66.8172C213.976 67.1769 214.113 67.576 214.137 68.0144C214.163 68.447 214.058 68.8949 213.822 69.3582L213.754 69.4918C213.518 69.9552 213.216 70.3062 212.847 70.5449C212.479 70.7836 212.075 70.9072 211.637 70.9158C211.202 70.9185 210.764 70.8078 210.325 70.5839ZM210.742 69.7642C211.146 69.97 211.538 70.0087 211.918 69.8804C212.306 69.7492 212.617 69.4549 212.85 68.9975L212.891 68.9173C213.124 68.4599 213.181 68.04 213.061 67.6574C212.945 67.269 212.682 66.9703 212.272 66.7615C211.874 66.5587 211.481 66.5229 211.092 66.6541C210.713 66.7824 210.406 67.0753 210.173 67.5326L210.132 67.6128C209.899 68.0702 209.841 68.4932 209.957 68.8816C210.083 69.2672 210.344 69.5614 210.742 69.7642ZM215.806 73.377C215.367 73.153 215.02 72.8642 214.766 72.5104C214.522 72.1538 214.388 71.7562 214.364 71.3177C214.341 70.8793 214.447 70.4284 214.683 69.9651L214.751 69.8314C214.987 69.3681 215.288 69.02 215.653 68.7873C216.022 68.5486 216.422 68.4234 216.855 68.4118C217.293 68.4032 217.732 68.5109 218.172 68.7348C218.611 68.9588 218.956 69.2506 219.207 69.6103C219.458 69.97 219.595 70.3691 219.618 70.8075C219.645 71.2401 219.54 71.688 219.304 72.1513L219.236 72.285C219 72.7483 218.698 73.0993 218.329 73.338C217.96 73.5767 217.557 73.7004 217.119 73.709C216.683 73.7116 216.246 73.601 215.806 73.377ZM216.224 72.5573C216.628 72.7631 217.02 72.8018 217.399 72.6735C217.788 72.5423 218.099 72.248 218.332 71.7906L218.373 71.7104C218.606 71.253 218.663 70.8331 218.543 70.4505C218.427 70.0621 218.164 69.7634 217.754 69.5546C217.356 69.3518 216.963 69.316 216.574 69.4472C216.195 69.5755 215.888 69.8684 215.655 70.3258L215.614 70.4059C215.381 70.8633 215.323 71.2863 215.439 71.6747C215.564 72.0603 215.826 72.3545 216.224 72.5573ZM221.048 76.0475C220.685 75.8629 220.395 75.6028 220.177 75.2672C219.959 74.9316 219.84 74.5491 219.819 74.1196C219.807 73.6872 219.923 73.2334 220.165 72.7582L220.233 72.6245C220.472 72.1553 220.77 71.7982 221.126 71.5535C221.483 71.3087 221.861 71.1759 222.261 71.1551C222.661 71.1343 223.045 71.2177 223.413 71.4054C223.698 71.5506 223.917 71.7074 224.071 71.8755C224.231 72.0466 224.344 72.2204 224.412 72.3968C224.482 72.5673 224.519 72.7286 224.524 72.8807L224.667 72.9533L225.911 70.512L226.828 70.9796L223.651 77.2166L222.751 76.7581L223.068 76.1344L222.926 76.0618C222.716 76.1943 222.456 76.2788 222.146 76.3152C221.841 76.3547 221.475 76.2654 221.048 76.0475ZM221.715 75.3773C222.113 75.58 222.504 75.6188 222.89 75.4935C223.281 75.3713 223.598 75.0725 223.84 74.5973L223.881 74.5171C224.12 74.0479 224.177 73.6205 224.052 73.2349C223.927 72.8493 223.662 72.5537 223.258 72.3478C222.866 72.1481 222.474 72.1093 222.083 72.2316C221.697 72.3569 221.385 72.6541 221.146 73.1234L221.105 73.2036C220.863 73.6788 220.804 74.1092 220.93 74.4947C221.061 74.8833 221.323 75.1775 221.715 75.3773Z" fill="#242739"/>
<path d="M252.584 105.362L259.162 102.968L260.671 107.112L259.75 107.447L258.611 104.318L256.722 105.005L257.765 107.871L256.844 108.206L255.801 105.34L253.875 106.041L255.031 109.218L254.11 109.553L252.584 105.362ZM254.362 110.244L257.344 111.159L259.008 108.596L259.422 109.733L258.2 111.55L258.254 111.701L260.359 112.307L260.776 113.454L257.851 112.55L256.154 115.168L255.733 114.012L256.986 112.162L256.931 112.012L254.782 111.4L254.362 110.244ZM257.074 118.106C256.912 117.661 256.859 117.223 256.915 116.791C256.973 116.366 257.141 115.982 257.421 115.639C257.703 115.302 258.094 115.042 258.596 114.86L258.718 114.816C259.219 114.633 259.682 114.581 260.109 114.66C260.543 114.743 260.919 114.929 261.237 115.218C261.564 115.511 261.808 115.879 261.97 116.324C262.132 116.769 262.188 117.178 262.139 117.55C262.09 117.923 261.966 118.252 261.765 118.538C261.566 118.83 261.314 119.064 261.009 119.239L260.469 118.371C260.665 118.264 260.829 118.13 260.961 117.968C261.094 117.806 261.177 117.617 261.211 117.398C261.246 117.18 261.212 116.933 261.112 116.658C261.014 116.388 260.863 116.167 260.657 115.993C260.461 115.823 260.224 115.718 259.947 115.677C259.675 115.634 259.377 115.672 259.051 115.79L258.967 115.821C258.641 115.94 258.385 116.104 258.199 116.313C258.012 116.523 257.899 116.756 257.857 117.012C257.818 117.275 257.847 117.541 257.945 117.81C258.094 118.217 258.31 118.49 258.594 118.628C258.885 118.763 259.203 118.8 259.549 118.738L259.675 119.756C259.328 119.797 258.985 119.77 258.645 119.673C258.307 119.584 258 119.412 257.723 119.158C257.452 118.901 257.236 118.551 257.074 118.106ZM259.088 123.639C258.917 123.169 258.865 122.723 258.931 122.302C259.004 121.878 259.182 121.501 259.466 121.171C259.759 120.844 260.143 120.594 260.62 120.421L260.732 120.38C261.215 120.204 261.67 120.149 262.098 120.213C262.532 120.275 262.908 120.443 263.228 120.717C263.556 120.995 263.803 121.362 263.97 121.819C264.132 122.264 264.173 122.689 264.093 123.094C264.022 123.503 263.846 123.865 263.563 124.181C263.281 124.497 262.905 124.74 262.435 124.911L262.068 125.044L260.772 121.483C260.369 121.644 260.093 121.897 259.942 122.243C259.799 122.592 259.799 122.962 259.94 123.35C260.073 123.713 260.253 123.956 260.482 124.079C260.714 124.207 260.954 124.283 261.203 124.306L261.081 125.255C260.873 125.231 260.642 125.17 260.386 125.071C260.133 124.979 259.891 124.822 259.661 124.601C259.432 124.379 259.241 124.059 259.088 123.639ZM261.518 121.222L262.451 123.788C262.793 123.635 263.02 123.41 263.132 123.114C263.251 122.816 263.244 122.485 263.111 122.121C262.979 121.758 262.771 121.497 262.486 121.338C262.209 121.183 261.887 121.145 261.518 121.222ZM260.444 126.955L267.022 124.561L267.374 125.529L260.796 127.923L260.444 126.955ZM261.319 129.359L267.897 126.965L268.249 127.933L261.671 130.327L261.319 129.359ZM262.835 133.935C262.664 133.465 262.612 133.02 262.679 132.598C262.751 132.174 262.93 131.797 263.214 131.467C263.507 131.14 263.891 130.891 264.367 130.717L264.48 130.676C264.962 130.501 265.417 130.445 265.845 130.509C266.279 130.571 266.656 130.739 266.976 131.013C267.304 131.291 267.551 131.658 267.717 132.116C267.879 132.561 267.92 132.985 267.841 133.39C267.77 133.799 267.593 134.162 267.311 134.477C267.028 134.793 266.652 135.036 266.182 135.207L265.816 135.341L264.52 131.779C264.117 131.94 263.84 132.193 263.689 132.539C263.547 132.889 263.547 133.258 263.688 133.646C263.82 134.01 264.001 134.252 264.23 134.375C264.461 134.503 264.701 134.579 264.951 134.602L264.828 135.551C264.621 135.527 264.389 135.466 264.134 135.368C263.88 135.275 263.639 135.119 263.409 134.897C263.179 134.676 262.988 134.355 262.835 133.935ZM265.265 131.518L266.199 134.084C266.541 133.931 266.768 133.707 266.88 133.41C266.998 133.112 266.991 132.781 266.859 132.418C266.727 132.054 266.518 131.793 266.233 131.634C265.957 131.479 265.634 131.441 265.265 131.518ZM264.191 137.251L268.824 135.565L269.169 136.514L268.474 136.767L268.529 136.918C268.749 136.937 268.981 137.03 269.226 137.196C269.471 137.362 269.674 137.668 269.836 138.113C269.964 138.463 269.999 138.802 269.94 139.128C269.884 139.461 269.74 139.758 269.509 140.02C269.284 140.279 268.971 140.481 268.57 140.627L265.789 141.64L265.436 140.672L268.143 139.687C268.543 139.541 268.801 139.333 268.916 139.065C269.038 138.793 269.034 138.482 268.907 138.132C268.761 137.731 268.512 137.456 268.16 137.307C267.81 137.165 267.385 137.185 266.883 137.368L264.544 138.219L264.191 137.251ZM266.881 144.643C266.779 144.361 266.781 144.104 266.889 143.874C266.999 143.649 267.195 143.486 267.477 143.383L270.361 142.333L269.896 141.055L270.714 140.758L271.179 142.036L272.711 141.478L273.063 142.446L271.531 143.003L272.034 144.385L271.217 144.682L270.714 143.301L267.998 144.289C267.81 144.358 267.748 144.48 267.812 144.655L268.164 145.623L267.347 145.921L266.881 144.643Z" fill="#242739"/>
<path d="M238.045 173.168C237.397 173.168 236.829 173.072 236.341 172.88C235.861 172.688 235.485 172.412 235.213 172.052C234.949 171.684 234.817 171.256 234.817 170.768V170.636C234.817 170.236 234.893 169.908 235.045 169.652C235.205 169.388 235.397 169.184 235.621 169.04C235.853 168.888 236.069 168.788 236.269 168.74V168.548C236.069 168.492 235.865 168.392 235.657 168.248C235.449 168.096 235.277 167.9 235.141 167.66C235.013 167.412 234.949 167.116 234.949 166.772V166.64C234.949 166.192 235.077 165.804 235.333 165.476C235.597 165.148 235.961 164.892 236.425 164.708C236.889 164.524 237.429 164.432 238.045 164.432C238.653 164.432 239.189 164.524 239.653 164.708C240.117 164.892 240.477 165.148 240.733 165.476C240.997 165.804 241.129 166.192 241.129 166.64V166.772C241.129 167.116 241.061 167.412 240.925 167.66C240.797 167.9 240.633 168.096 240.433 168.248C240.233 168.392 240.029 168.492 239.821 168.548V168.74C240.029 168.788 240.245 168.888 240.469 169.04C240.693 169.184 240.881 169.388 241.033 169.652C241.185 169.908 241.261 170.236 241.261 170.636V170.768C241.261 171.256 241.125 171.684 240.853 172.052C240.589 172.412 240.213 172.688 239.725 172.88C239.245 173.072 238.685 173.168 238.045 173.168ZM238.045 172.04C238.653 172.04 239.129 171.924 239.473 171.692C239.825 171.452 240.001 171.12 240.001 170.696V170.6C240.001 170.168 239.829 169.836 239.485 169.604C239.149 169.364 238.669 169.244 238.045 169.244C237.421 169.244 236.937 169.364 236.593 169.604C236.249 169.836 236.077 170.168 236.077 170.6V170.696C236.077 171.12 236.249 171.452 236.593 171.692C236.945 171.924 237.429 172.04 238.045 172.04ZM238.045 168.116C238.613 168.116 239.057 168.008 239.377 167.792C239.705 167.576 239.869 167.272 239.869 166.88V166.784C239.869 166.392 239.705 166.092 239.377 165.884C239.049 165.668 238.605 165.56 238.045 165.56C237.477 165.56 237.029 165.668 236.701 165.884C236.373 166.092 236.209 166.392 236.209 166.784V166.88C236.209 167.272 236.369 167.576 236.689 167.792C237.017 168.008 237.469 168.116 238.045 168.116ZM245.333 173.168C244.701 173.168 244.153 173.052 243.689 172.82C243.225 172.588 242.865 172.26 242.609 171.836C242.361 171.412 242.237 170.92 242.237 170.36V170.228H243.521V170.348C243.521 170.86 243.677 171.272 243.989 171.584C244.309 171.888 244.753 172.04 245.321 172.04C245.905 172.04 246.357 171.88 246.677 171.56C246.997 171.24 247.157 170.808 247.157 170.264V170.156C247.157 169.636 246.997 169.22 246.677 168.908C246.365 168.596 245.965 168.44 245.477 168.44C245.205 168.44 244.977 168.484 244.793 168.572C244.617 168.652 244.473 168.752 244.361 168.872C244.257 168.992 244.169 169.108 244.097 169.22H242.501V164.6H248.129V165.74H243.761V168.212H243.953C244.033 168.076 244.145 167.948 244.289 167.828C244.441 167.7 244.637 167.596 244.877 167.516C245.117 167.436 245.405 167.396 245.741 167.396C246.237 167.396 246.685 167.504 247.085 167.72C247.493 167.928 247.817 168.24 248.057 168.656C248.297 169.064 248.417 169.56 248.417 170.144V170.276C248.417 170.86 248.293 171.368 248.045 171.8C247.797 172.232 247.441 172.568 246.977 172.808C246.521 173.048 245.973 173.168 245.333 173.168ZM252.757 173.168C251.781 173.168 251.001 172.892 250.417 172.34C249.841 171.78 249.553 170.94 249.553 169.82V167.78C249.553 166.684 249.841 165.852 250.417 165.284C251.001 164.716 251.781 164.432 252.757 164.432C253.741 164.432 254.521 164.716 255.097 165.284C255.681 165.852 255.973 166.684 255.973 167.78V169.82C255.973 170.94 255.681 171.78 255.097 172.34C254.521 172.892 253.741 173.168 252.757 173.168ZM252.757 172.04C253.421 172.04 253.913 171.852 254.233 171.476C254.553 171.092 254.713 170.556 254.713 169.868V167.708C254.713 167.02 254.541 166.492 254.197 166.124C253.853 165.748 253.373 165.56 252.757 165.56C252.133 165.56 251.653 165.752 251.317 166.136C250.981 166.512 250.813 167.036 250.813 167.708V169.868C250.813 170.572 250.973 171.112 251.293 171.488C251.621 171.856 252.109 172.04 252.757 172.04Z" fill="#242739"/>
<path d="M156.738 179V178.532C156.738 178.064 156.774 177.668 156.846 177.344C156.918 177.008 157.074 176.63 157.314 176.21L161.544 168.74V168.452H154.848V166.4H163.92V169.136L159.456 177.11C159.3 177.386 159.192 177.632 159.132 177.848C159.072 178.064 159.042 178.328 159.042 178.64V179H156.738ZM170.108 179.252C168.62 179.252 167.426 178.844 166.526 178.028C165.626 177.2 165.176 175.952 165.176 174.284V171.116C165.176 169.496 165.626 168.266 166.526 167.426C167.426 166.574 168.62 166.148 170.108 166.148C171.608 166.148 172.802 166.574 173.69 167.426C174.59 168.266 175.04 169.496 175.04 171.116V174.284C175.04 175.952 174.59 177.2 173.69 178.028C172.802 178.844 171.608 179.252 170.108 179.252ZM170.108 177.2C171.008 177.2 171.668 176.954 172.088 176.462C172.52 175.97 172.736 175.268 172.736 174.356V171.008C172.736 170.084 172.496 169.388 172.016 168.92C171.548 168.44 170.912 168.2 170.108 168.2C169.28 168.2 168.632 168.446 168.164 168.938C167.708 169.43 167.48 170.12 167.48 171.008V174.356C167.48 175.304 167.696 176.018 168.128 176.498C168.572 176.966 169.232 177.2 170.108 177.2ZM181.78 179.252C180.292 179.252 179.098 178.844 178.198 178.028C177.298 177.2 176.848 175.952 176.848 174.284V171.116C176.848 169.496 177.298 168.266 178.198 167.426C179.098 166.574 180.292 166.148 181.78 166.148C183.28 166.148 184.474 166.574 185.362 167.426C186.262 168.266 186.712 169.496 186.712 171.116V174.284C186.712 175.952 186.262 177.2 185.362 178.028C184.474 178.844 183.28 179.252 181.78 179.252ZM181.78 177.2C182.68 177.2 183.34 176.954 183.76 176.462C184.192 175.97 184.408 175.268 184.408 174.356V171.008C184.408 170.084 184.168 169.388 183.688 168.92C183.22 168.44 182.584 168.2 181.78 168.2C180.952 168.2 180.304 168.446 179.836 168.938C179.38 169.43 179.152 170.12 179.152 171.008V174.356C179.152 175.304 179.368 176.018 179.8 176.498C180.244 176.966 180.904 177.2 181.78 177.2Z" fill="#242739"/>
<rect x="0.5" y="0.5" width="342" height="247" rx="7.5" stroke="#D7D7D7"/>
<defs>
<clipPath id="clip0_592_13321">
<rect width="18" height="18" fill="white" transform="matrix(-1 0 0 1 254 214)"/>
</clipPath>
<clipPath id="clip1_592_13321">
<rect width="177" height="88" fill="white" transform="translate(83 66)"/>
</clipPath>
</defs>
</svg>
