<svg width="24" height="24" viewBox="0 0 24 24" fill="none" xmlns="http://www.w3.org/2000/svg">
<g clip-path="url(#clip0_628_13395)">
<path d="M9.88397 2.20642C10.3596 2.15037 10.8389 2.27602 11.2259 2.55823C11.6129 2.84044 11.879 3.25839 11.971 3.72842L11.996 3.89542L12.001 3.99942V10.9994C12.001 11.2444 12.0909 11.4808 12.2537 11.6638C12.4164 11.8468 12.6407 11.9638 12.884 11.9924L13.001 11.9994H19.801C20.3314 11.9994 20.8401 12.2101 21.2152 12.5852C21.5903 12.9603 21.801 13.469 21.801 13.9994C21.8009 14.0755 21.7922 14.1513 21.775 14.2254C21.3748 15.9521 20.5229 17.5414 19.3064 18.8305C18.09 20.1196 16.5529 21.0623 14.8523 21.562C13.1518 22.0616 11.349 22.1003 9.62855 21.6741C7.90813 21.2479 6.33189 20.3721 5.06127 19.1364C3.79064 17.9007 2.87128 16.3494 2.39734 14.6415C1.9234 12.9336 1.9119 11.1305 2.36403 9.41667C2.81615 7.70287 3.71565 6.14004 4.97042 4.88821C6.22518 3.63638 7.79012 2.74054 9.50497 2.29242L9.77497 2.22542L9.88497 2.20542L9.88397 2.20642Z" fill="#6936F5"/>
<path d="M14 3.50007V9.00007C14 9.26529 14.1054 9.51964 14.2929 9.70718C14.4804 9.89472 14.7348 10.0001 15 10.0001H20.5C20.6598 10 20.8173 9.96167 20.9593 9.88821C21.1013 9.81476 21.2235 9.70834 21.3159 9.57789C21.4082 9.44743 21.468 9.29674 21.4901 9.13844C21.5122 8.98014 21.4961 8.81884 21.443 8.66807C20.9463 7.25741 20.1396 5.9761 19.0822 4.91851C18.0248 3.86091 16.7436 3.05396 15.333 2.55707C15.1822 2.50381 15.0208 2.4875 14.8623 2.50952C14.7039 2.53154 14.5531 2.59125 14.4225 2.68363C14.2919 2.77601 14.1854 2.89836 14.1119 3.04043C14.0383 3.18249 14 3.34012 14 3.50007Z" fill="#6936F5"/>
</g>
<defs>
<clipPath id="clip0_628_13395">
<rect width="24" height="24" fill="white"/>
</clipPath>
</defs>
</svg>
