<svg width="123" height="115" viewBox="0 0 123 115" fill="none" xmlns="http://www.w3.org/2000/svg">
<circle cx="54.129" cy="60.8712" r="50.129" fill="#EA1456" fill-opacity="0.1" stroke="#EA1456" stroke-width="8"/>
<path d="M120.315 5.37097C118.851 5.37097 117.631 4.15029 117.631 2.68548C117.631 1.22067 118.851 0 120.315 0C121.779 0 122.999 1.22067 122.999 2.68548C122.999 4.15029 121.779 5.37097 120.315 5.37097ZM120.315 1.36715C119.583 1.36715 118.997 1.95308 118.997 2.68548C118.997 3.41789 119.583 4.00381 120.315 4.00381C121.047 4.00381 121.633 3.41789 121.633 2.68548C121.633 1.95308 121.047 1.36715 120.315 1.36715Z" fill="#EA1456"/>
<path d="M106.058 9.4882H103.705V7.07127C103.705 6.6181 103.339 6.26562 102.868 6.26562C102.398 6.26562 102.031 6.6181 102.031 7.07127V9.4882H99.6784C99.2078 9.4882 98.8418 9.84068 98.8418 10.2939C98.8418 10.747 99.2078 11.0995 99.6784 11.0995H102.031V13.5164C102.031 13.9696 102.398 14.3221 102.868 14.3221C103.339 14.3221 103.705 13.9696 103.705 13.5164V11.0995H106.058C106.528 11.0995 106.894 10.747 106.894 10.2939C106.894 9.84068 106.528 9.4882 106.058 9.4882Z" fill="#EA1456"/>
<path d="M116.18 18.2617H114.611V16.6504C114.611 16.3483 114.367 16.1133 114.053 16.1133C113.74 16.1133 113.496 16.3483 113.496 16.6504V18.2617H111.927C111.613 18.2617 111.369 18.4966 111.369 18.7988C111.369 19.1009 111.613 19.3359 111.927 19.3359H113.496V20.9472C113.496 21.2493 113.74 21.4842 114.053 21.4842C114.367 21.4842 114.611 21.2493 114.611 20.9472V19.3359H116.18C116.494 19.3359 116.738 19.1009 116.738 18.7988C116.738 18.4966 116.494 18.2617 116.18 18.2617Z" fill="#EA1456"/>
<path d="M51.5865 74.536V37.6H57.4185V74.536H51.5865ZM54.4665 89.008C53.0745 89.008 51.8985 88.552 50.9385 87.64C50.0265 86.728 49.5705 85.552 49.5705 84.112C49.5705 82.672 50.0265 81.496 50.9385 80.584C51.8985 79.672 53.0745 79.216 54.4665 79.216C55.9065 79.216 57.0825 79.672 57.9945 80.584C58.9065 81.496 59.3625 82.672 59.3625 84.112C59.3625 85.552 58.9065 86.728 57.9945 87.64C57.0825 88.552 55.9065 89.008 54.4665 89.008Z" fill="#EA1456"/>
</svg>
