<svg width="30" height="30" viewBox="0 0 30 30" fill="none" xmlns="http://www.w3.org/2000/svg">
<path d="M3.32773 11.7527L4.05195 12.1922L4.48262 11.3965C5.45352 9.77051 8.4248 5.97656 15.0002 5.97656C21.7385 5.97656 24.6096 10.0969 25.5529 11.4527L26.0311 12.1969L27.5322 11.25L27.0318 10.4672C26.5115 9.71426 25.4193 8.15098 23.4705 6.76992C21.1027 5.08711 18.2521 4.2334 15.0002 4.2334C7.49609 4.2334 4.06133 8.63438 2.92988 10.5176L2.49805 11.25L3.16426 11.652C3.19455 11.6756 3.22647 11.6972 3.25977 11.7164C3.28177 11.7297 3.30446 11.7418 3.32773 11.7527Z" fill="#5F6D7E"/>
<path d="M22.2201 10.0969C20.1377 8.40181 17.6428 7.50415 15.0002 7.50415C9.28617 7.50415 5.48988 11.3713 4.25824 15.2075C3.13031 18.75 4.5014 23.8834 4.55882 24.1032L4.81546 24.9124L6.56917 24.5356L6.29144 23.6567C6.27914 23.6127 4.99652 18.7975 5.97445 15.7342C6.50179 14.0889 7.59925 12.4881 8.98324 11.352C10.6532 9.98384 12.7356 9.25786 15.0002 9.25786C20.3076 9.25786 23.3164 13.3952 24.1672 15.5924C24.8276 17.2875 24.6752 19.2147 23.7993 20.3971C23.4752 20.8301 22.9039 21.3387 22.0344 21.2948C20.0534 21.194 19.7106 20.2149 19.2342 18.3504C19.0057 17.4528 18.7713 16.5235 18.1871 15.7723C17.4758 14.8495 16.441 14.4036 15.0067 14.4036C13.4639 14.4036 12.2955 14.9122 11.5274 15.9106C9.8516 18.095 10.9414 21.8245 10.9877 21.9815L11.0006 22.0313C11.0832 22.2575 13.1147 27.6944 18.5551 29.0438L19.4205 29.2319L19.8946 27.5497L18.9998 27.3487C14.651 26.2688 12.8352 21.818 12.6957 21.4665C12.5386 20.896 12.4385 20.3112 12.3969 19.7209C12.3336 18.8737 12.3782 17.7059 12.9494 16.9588C13.3684 16.4127 14.0416 16.1491 15.0002 16.1491C16.7457 16.1491 17.0381 17.0028 17.4951 18.7735C17.9393 20.4997 18.5498 22.8663 21.9389 23.0362C23.2403 23.0989 24.4151 22.5211 25.2401 21.4161C26.4782 19.759 26.7131 17.2225 25.8371 14.9625C25.1528 13.1836 23.8327 11.4153 22.2201 10.0969Z" fill="#5F6D7E"/>
<path d="M9.03398 20.11C8.83066 18.4529 9.1166 15.9498 10.5896 14.3221C11.6115 13.1918 13.0969 12.6229 14.9953 12.6229C17.192 12.6229 18.8549 13.6025 19.9471 15.5297C20.4846 16.4967 20.8397 17.5543 20.9947 18.6498L21.0785 19.5105L22.8363 19.3816C22.838 19.076 22.8184 18.7705 22.7777 18.4676C22.7713 18.3926 22.5686 16.5656 21.5473 14.7322C20.1375 12.2062 17.8775 10.8691 15 10.8691C12.5684 10.8691 10.6318 11.6414 9.2543 13.1607C7.38809 15.2197 7.00723 18.2145 7.26738 20.3297V20.349C7.73437 23.5441 8.96484 26.0994 11.1416 28.3846L11.8213 29.042L13.0488 27.7652L12.443 27.1916C10.5258 25.183 9.44004 22.9354 9.03398 20.11ZM7.76191 4.25742C8.41113 3.86367 10.7074 2.68887 15 2.68887C20.1293 2.68887 22.4086 4.37168 22.4338 4.38398L23.2482 4.90313L24.1992 3.42598L23.4246 2.92441C23.3941 2.90215 23.3625 2.87988 23.3309 2.85879C22.5879 2.37539 19.9535 0.9375 15 0.9375C9.86074 0.9375 7.22168 2.48906 6.59707 2.9127L5.80078 3.42891L6.75 4.90605L7.76191 4.25742Z" fill="#5F6D7E"/>
<path d="M22.8863 24.3287C20.9311 24.5484 19.3443 24.1722 18.1572 23.2242C16.151 21.6169 15.8908 18.8232 15.8844 18.771L15.8123 17.8992L14.0234 18.0298L14.1002 18.9087C14.1131 19.0529 14.4049 22.4683 17.0076 24.5654C18.3031 25.6136 19.9221 26.141 21.8264 26.141C22.2486 26.1401 22.6704 26.1149 23.0896 26.0654L24.0617 25.9429L23.7043 24.2021L22.8863 24.3287Z" fill="#5F6D7E"/>
</svg>
