<svg width="217" height="151" viewBox="0 0 217 151" fill="none" xmlns="http://www.w3.org/2000/svg">
<path d="M83.494 72.4087L53.6237 101.982C51.5596 104.025 51.4831 107.377 53.4528 109.469L59.0943 115.458C62.2718 118.831 59.8376 124.507 55.236 124.452L7.19082 123.885C2.58918 123.831 0.415319 118.101 3.745 114.805L65.675 53.4911C67.7391 51.4476 71.0095 51.4862 72.9792 53.5773L83.6649 64.9218C85.6346 67.0129 85.5581 70.3652 83.494 72.4087Z" fill="#6936F5"/>
<path d="M114.225 59.3207L124.899 48.3773C126.867 46.3601 130.776 47.0975 133.631 50.0241L149.117 65.9012C151.972 68.8278 152.691 72.8361 150.724 74.8533L145.088 80.6309C141.914 83.8849 145.892 91.2231 151.393 92.2606L208.829 103.093C214.33 104.13 215.861 97.8309 211.256 93.1097L125.606 5.29944C122.751 2.37283 118.842 1.63549 116.874 3.65267L88.4003 32.8447C86.4328 34.8619 87.152 38.8702 90.0066 41.7968L105.493 57.6739C108.348 60.6005 112.257 61.3379 114.225 59.3207Z" fill="#6936F5"/>
<path d="M136.272 111.413L113.448 84.2132C111.728 82.1639 108.622 82.0272 106.73 83.9177L82.0871 108.527C79.2944 111.316 81.1212 116.096 85.0622 116.311L132.528 118.901C136.515 119.119 138.838 114.472 136.272 111.413Z" fill="#6936F5"/>
</svg>
