<svg width="32" height="32" viewBox="0 0 32 32" fill="none" xmlns="http://www.w3.org/2000/svg">
<circle cx="16" cy="16" r="16" fill="#162D4C"/>
<path d="M11.2607 6.42975V6.40625H25.242V6.43068L11.2607 6.42975Z" fill="#E4B935"/>
<path d="M11.2625 6.42708H25.2437C25.138 6.93607 25.0343 7.44543 24.9267 7.95386C24.513 9.89944 24.0978 11.8444 23.6813 13.7887C23.5131 14.579 23.3443 15.3695 23.175 16.16C23.1534 16.2562 23.1631 16.2907 23.271 16.2918C23.6554 16.2976 24.0398 16.2918 24.4241 16.2769C24.6122 16.266 24.8009 16.2785 24.9858 16.3142C25.3215 16.3854 25.4159 16.6283 25.2145 16.9108C25.1019 17.0577 24.9555 17.1752 24.7878 17.2532C24.4081 17.4343 23.9997 17.5473 23.581 17.5871C23.3752 17.6187 23.1674 17.6348 22.9592 17.6353C22.8785 17.6353 22.8578 17.6726 22.8444 17.7378C22.7162 18.3471 22.5869 18.9576 22.4566 19.5694L21.2704 25.1694C21.2463 25.2829 21.2223 25.3959 21.1997 25.5106C21.1881 25.575 21.165 25.614 21.0915 25.6006C21.0716 25.5986 21.0515 25.5986 21.0315 25.6006H7.35146C7.18623 25.6006 7.1866 25.6006 7.22222 25.4312C7.90702 22.2026 8.5915 18.974 9.27567 15.7453C9.42847 15.0251 9.5817 14.3052 9.73537 13.5856C9.74876 13.5439 9.74603 13.4987 9.72772 13.459C9.544 13.0533 9.43822 12.6166 9.41591 12.1718C9.30681 11.0442 9.56865 9.96721 9.87561 8.89845C9.93259 8.74193 10.0427 8.61047 10.1868 8.52711C10.3309 8.44374 10.4996 8.41379 10.6635 8.44249C10.7976 8.45743 10.836 8.42083 10.861 8.29312C10.9826 7.68517 11.1156 7.07946 11.2454 6.47301C11.2497 6.45721 11.2554 6.44183 11.2625 6.42708ZM16.0181 16.3843C16.0538 16.3804 16.0899 16.3804 16.1257 16.3843C16.5648 16.4843 16.7896 16.2246 16.9675 15.8854C16.9876 15.8463 17.0083 15.8069 17.0257 15.767C17.1491 15.4856 17.1488 15.485 16.9214 15.286C16.9064 15.2719 16.8903 15.259 16.8733 15.2475C16.7739 15.1869 16.7743 15.1221 16.836 15.0235C17.025 14.7156 17.3012 14.4711 17.6295 14.3209C17.9578 14.1707 18.3233 14.1218 18.6795 14.1803C18.8013 14.1968 18.9162 14.2467 19.0114 14.3246C19.3238 14.5752 19.6466 14.8114 19.9761 15.0393C20.2793 15.2549 20.5957 15.4511 20.9235 15.6268C21.0451 15.6902 21.0518 15.6874 21.0408 15.5566C21.0197 15.3093 20.9952 15.0623 20.9673 14.8153C20.9223 14.2653 20.7194 13.7401 20.3831 13.3029C20.1289 12.9834 19.8872 12.6541 19.6278 12.3385C19.6024 12.3113 19.5837 12.2786 19.5729 12.243C19.5622 12.2074 19.5598 12.1698 19.5659 12.1331C19.6235 11.6781 19.6244 11.6751 19.3409 11.3153C18.7007 10.5396 17.9895 9.82555 17.2164 9.18245C17.1718 9.14853 17.1198 9.12575 17.0646 9.11598C16.5405 8.98689 16.0043 8.91323 15.4647 8.89621C15.1617 8.86075 14.856 8.93629 14.6043 9.10888C14.5052 9.18109 14.3916 9.23094 14.2715 9.25502C14.1513 9.2791 14.0273 9.27683 13.9081 9.24836C13.0568 9.10645 12.2011 8.99013 11.3465 8.86876C11.0998 8.81713 10.8489 8.78912 10.597 8.78512C10.5102 8.77546 10.4229 8.79694 10.3505 8.84574C10.2781 8.89453 10.2253 8.96747 10.2016 9.05156C9.90127 9.93197 9.74913 10.8562 9.75141 11.7866C9.76718 12.6544 10.0541 13.4955 10.572 14.1917C11.1477 14.9388 11.9296 15.5006 12.8209 15.8075C13.8485 16.1688 14.9274 16.3629 16.0164 16.3824L16.0181 16.3843ZM15.922 22.2878C15.8715 22.3211 15.8385 22.3439 15.8047 22.3644C15.3881 22.6258 14.972 22.8887 14.5532 23.1465C14.4687 23.1985 14.4648 23.2253 14.5435 23.2909C15.2161 23.8465 15.8862 24.4063 16.5576 24.9644C16.5744 24.9788 16.5898 25.0034 16.6253 24.9864C16.6325 24.8623 16.6469 24.7349 16.645 24.6074C16.6448 24.4635 16.6751 24.3212 16.734 24.1899C16.9205 23.7435 17.0997 23.2937 17.2832 22.8456C17.3067 22.7906 17.3173 22.731 17.3144 22.6714C17.2979 22.275 17.2826 21.8786 17.2707 21.4823C17.2686 21.4107 17.2468 21.3409 17.2077 21.2809C16.783 20.593 16.3612 19.9037 15.9351 19.2164C15.9162 19.189 15.9039 19.1577 15.8992 19.1248C15.8946 19.0919 15.8977 19.0584 15.9082 19.0269C15.9793 18.7811 16.0438 18.5334 16.1143 18.2871C16.1409 18.1907 16.1491 18.0902 16.1383 17.9908C16.1134 17.7195 16.0902 17.4482 16.0716 17.1763C16.0664 17.0859 16.0408 17.0561 15.9451 17.0555C15.3088 17.056 14.674 16.993 14.0502 16.8675C12.4259 16.5314 11.1167 15.7169 10.1826 14.3281C10.1639 14.3007 10.1548 14.2613 10.1048 14.2503C10.0996 14.2729 10.0938 14.2951 10.089 14.3171C9.67445 16.2855 9.26013 18.2542 8.846 20.2231C8.79415 20.4689 8.79415 20.4718 9.04106 20.4978C9.19828 20.5391 9.36321 20.5413 9.52146 20.5041C10.3407 20.2093 11.165 19.9292 11.9867 19.6383C12.0274 19.6196 12.0726 19.6126 12.1171 19.6182C12.1616 19.6238 12.2036 19.6418 12.2384 19.6701C13.329 20.4493 14.4219 21.2257 15.517 21.9992L15.922 22.2878ZM12.0831 20.0965V21.847C12.0841 21.9462 12.0646 22.0444 12.0258 22.1357C11.7088 22.8913 11.3955 23.6481 11.0774 24.4046C11.0594 24.4396 11.0507 24.4785 11.0522 24.5178C11.0537 24.5571 11.0653 24.5953 11.0859 24.6287C11.1533 24.7471 11.2128 24.8692 11.268 24.9937C11.2781 25.0253 11.2988 25.0523 11.3266 25.0704C11.3543 25.0884 11.3874 25.0964 11.4203 25.0929C12.1849 25.0886 12.9495 25.0929 13.7142 25.0895C13.7473 25.0895 13.7852 25.1048 13.8208 25.066C13.7507 24.9217 13.683 24.7721 13.6071 24.6278C13.5682 24.5583 13.5565 24.4768 13.5745 24.3992C13.761 23.4824 13.9445 22.5642 14.1339 21.6478C14.1465 21.6132 14.1461 21.5752 14.1329 21.5409C14.1196 21.5066 14.0944 21.4782 14.062 21.4611C13.4348 21.024 12.8088 20.5853 12.1838 20.1449C12.1562 20.1156 12.1187 20.0974 12.0786 20.0939L12.0831 20.0965ZM22.6601 17.3287C22.7479 17.3287 22.836 17.3315 22.9238 17.3287C23.4481 17.3187 23.9682 17.2313 24.467 17.0693C24.6208 17.0234 24.7625 16.9441 24.8821 16.837C24.9381 16.7827 24.9903 16.7187 24.9567 16.6365C24.9275 16.5633 24.8482 16.5581 24.7818 16.5575C24.6218 16.5575 24.4609 16.5532 24.3014 16.5676C23.6264 16.6323 22.9454 16.5818 22.2873 16.4182C21.136 16.1152 20.0559 15.5872 19.1091 14.8646C18.984 14.7667 18.8344 14.7049 18.6767 14.6861C18.4668 14.6475 18.2503 14.6672 18.0507 14.7429C17.8511 14.8185 17.676 14.9474 17.5443 15.1155C17.4904 15.1842 17.4883 15.2276 17.5596 15.2907C17.9309 15.6202 18.3312 15.9156 18.7554 16.1733C19.9217 16.916 21.2729 17.3156 22.6551 17.3268L22.6601 17.3287ZM19.0795 16.8083C19.092 16.8919 19.1035 16.9526 19.1097 17.0176C19.152 17.2211 19.1744 17.4283 19.1765 17.6362C19.1131 18.2822 18.9756 18.9172 18.8911 19.5594C18.8101 20.0578 18.7749 20.5626 18.786 21.0675C18.7828 21.265 18.8265 21.4606 18.9135 21.6379C19.0005 21.8153 19.1284 21.9694 19.2865 22.0877C19.4342 22.2071 19.6136 22.2805 19.8025 22.2989C19.9914 22.3174 20.1815 22.28 20.3495 22.1915C20.3788 22.1791 20.4034 22.1577 20.4198 22.1304C20.4362 22.1031 20.4435 22.0712 20.4407 22.0395C20.4392 21.9034 20.4258 21.7677 20.4008 21.634C20.384 21.5494 20.3566 21.5272 20.2652 21.5436C20.1938 21.5628 20.1186 21.5626 20.0473 21.5431C19.976 21.5235 19.9112 21.4852 19.8596 21.4321C19.8081 21.3791 19.7716 21.3132 19.7539 21.2413C19.7363 21.1694 19.7381 21.0941 19.7592 21.0232C19.8279 20.7313 19.9245 20.4467 20.0476 20.1733C20.321 19.5071 20.6456 18.8635 20.9297 18.201C21.0021 18.0144 21.0466 17.8181 21.0617 17.6185C21.0693 17.5531 21.0617 17.5193 20.98 17.5089C20.8456 17.4892 20.7125 17.4616 20.5813 17.4261C20.0554 17.288 19.5503 17.0807 19.0795 16.8083Z" fill="#DFAC0F"/>
<path d="M16.0208 16.383C14.9313 16.3634 13.8521 16.1685 12.8243 15.8059C11.9328 15.4995 11.1508 14.9376 10.5755 14.1901C10.0576 13.4939 9.77066 12.6528 9.75489 11.785C9.75357 10.8547 9.90568 9.9306 10.2051 9.04995C10.2288 8.96586 10.2816 8.89292 10.354 8.84413C10.4264 8.79534 10.5137 8.77385 10.6004 8.78351C10.8524 8.78728 11.1034 8.8153 11.3499 8.86716C12.2046 8.98834 13.0603 9.10485 13.9116 9.24675C14.0308 9.2752 14.1548 9.27746 14.2749 9.25338C14.3951 9.2293 14.5086 9.17946 14.6078 9.10728C14.8595 8.93469 15.1652 8.85914 15.4682 8.89461C16.008 8.913 16.5444 8.9881 17.0685 9.11866C17.1237 9.12843 17.1757 9.15122 17.2203 9.18514C17.993 9.82862 18.7042 10.5426 19.3448 11.318C19.6283 11.6769 19.6273 11.6797 19.5697 12.1358C19.5636 12.1725 19.566 12.2101 19.5768 12.2457C19.5875 12.2813 19.6063 12.314 19.6316 12.3412C19.891 12.6567 20.1327 12.9863 20.3869 13.3056C20.7232 13.7428 20.9261 14.268 20.9712 14.818C20.999 15.0646 21.0235 15.3117 21.0447 15.5592C21.0557 15.6899 21.049 15.6929 20.9274 15.6294C20.5996 15.4538 20.2831 15.2576 19.98 15.042C19.6505 14.8141 19.3273 14.5779 19.0153 14.3273C18.92 14.2494 18.8052 14.1995 18.6833 14.183C18.3272 14.1245 17.9617 14.1734 17.6334 14.3236C17.3051 14.4738 17.0289 14.7183 16.8399 15.0262C16.7789 15.1253 16.7783 15.1901 16.8772 15.2502C16.8942 15.2617 16.9103 15.2746 16.9253 15.2887C17.1526 15.4859 17.153 15.4864 17.0295 15.7697C17.0122 15.8096 16.9922 15.849 16.9713 15.888C16.7936 16.2241 16.5687 16.4868 16.1295 16.387C16.0935 16.3817 16.0571 16.3804 16.0208 16.383ZM17.1854 12.1881L16.5363 11.4588C16.482 11.3977 16.4521 11.4588 16.4204 11.4847C16.0918 11.771 15.7639 12.0587 15.4365 12.3477C15.4087 12.3722 15.3673 12.3886 15.3619 12.4411L17.1854 12.1881Z" fill="#162D4C"/>
<path d="M15.9199 22.2879L15.5158 21.9993C14.4217 21.2239 13.3289 20.448 12.2373 19.6717C12.2025 19.6434 12.1604 19.6254 12.1159 19.6198C12.0715 19.6142 12.0263 19.6212 11.9855 19.6399C11.164 19.9286 10.3396 20.209 9.52032 20.5057C9.36207 20.5429 9.19713 20.5407 9.03992 20.4994C8.793 20.4734 8.793 20.4704 8.84485 20.2247C9.25798 18.2547 9.67131 16.2855 10.0848 14.3168C10.0897 14.2946 10.0955 14.2726 10.1007 14.25C10.1488 14.261 10.1598 14.3006 10.1784 14.3279C11.1124 15.7167 12.4216 16.5324 14.0461 16.8672C14.6699 16.9927 15.3047 17.0557 15.941 17.0552C16.037 17.0552 16.062 17.0855 16.0674 17.176C16.0842 17.4479 16.1092 17.7192 16.1342 17.9905C16.145 18.0899 16.1368 18.1904 16.1102 18.2868C16.0395 18.5331 15.9751 18.7808 15.9041 19.0266C15.8935 19.0581 15.8905 19.0916 15.8951 19.1245C15.8998 19.1574 15.912 19.1888 15.9309 19.2161C16.3571 19.9034 16.7789 20.5927 17.2035 21.2806C17.2426 21.3407 17.2644 21.4104 17.2664 21.4821C17.2783 21.8785 17.2938 22.2749 17.31 22.6711C17.313 22.7308 17.3024 22.7903 17.2789 22.8453C17.0954 23.2934 16.9167 23.7428 16.7297 24.1896C16.6708 24.3209 16.6405 24.4632 16.6407 24.6071C16.6407 24.7347 16.6282 24.862 16.621 24.9862C16.5853 25.003 16.57 24.9785 16.5533 24.9641C15.8806 24.4062 15.2128 23.8463 14.5392 23.2906C14.4603 23.2256 14.4646 23.1987 14.5489 23.1463C14.9677 22.8884 15.3838 22.6257 15.8004 22.3641C15.8369 22.3432 15.87 22.3212 15.9199 22.2879Z" fill="#162D4C"/>
<path d="M12.0809 20.0938C12.1202 20.0978 12.1567 20.1159 12.1837 20.1447C12.8099 20.5834 13.4359 21.0216 14.0616 21.4594C14.0943 21.4765 14.1195 21.5048 14.1328 21.5392C14.146 21.5735 14.1463 21.6115 14.1336 21.6461C13.9414 22.5601 13.7606 23.4808 13.5742 24.3976C13.5562 24.4751 13.5679 24.5566 13.6068 24.6261C13.6827 24.7704 13.751 24.919 13.8205 25.0643C13.7849 25.1033 13.747 25.0878 13.7138 25.0878C12.9495 25.0878 12.1849 25.089 11.42 25.0912C11.3871 25.0947 11.354 25.0867 11.3263 25.0687C11.2985 25.0506 11.2778 25.0236 11.2676 24.9921C11.2117 24.8679 11.1528 24.7452 11.0856 24.627C11.065 24.5936 11.0534 24.5554 11.0519 24.5161C11.0504 24.4769 11.0591 24.4379 11.0771 24.403C11.395 23.6473 11.7083 22.8906 12.0254 22.134C12.0641 22.0428 12.0836 21.9445 12.0826 21.8453C12.0793 21.2632 12.0809 20.6825 12.0809 20.0938Z" fill="#162D4C"/>
<path d="M22.6579 17.3273C21.2748 17.3154 19.9227 16.9155 18.7552 16.1728C18.331 15.9151 17.9308 15.6197 17.5594 15.2902C17.4887 15.2277 17.4902 15.184 17.5439 15.1151C17.6757 14.9471 17.8509 14.8183 18.0504 14.7426C18.25 14.6669 18.4664 14.6472 18.6763 14.6857C18.834 14.7045 18.9836 14.7662 19.1088 14.8642C20.0555 15.5867 21.1356 16.1147 22.287 16.4178C22.9442 16.5802 23.6242 16.63 24.2981 16.5649C24.4571 16.5506 24.6181 16.5534 24.7785 16.5549C24.8449 16.5549 24.9226 16.5607 24.9534 16.6338C24.9866 16.7162 24.9347 16.7782 24.8788 16.8344C24.7592 16.9414 24.6174 17.0207 24.4637 17.0666C23.9648 17.2286 23.4448 17.316 22.9205 17.326C22.8337 17.3301 22.7457 17.3273 22.6579 17.3273Z" fill="#162D4C"/>
<path d="M19.0802 16.8125C19.5514 17.0852 20.057 17.2934 20.5835 17.4316C20.7146 17.4671 20.8478 17.4947 20.9822 17.5144C21.0615 17.525 21.0715 17.5586 21.0639 17.624C21.0488 17.8236 21.0043 18.0199 20.9318 18.2065C20.6478 18.8679 20.3231 19.5115 20.0497 20.1788C19.9254 20.4517 19.8288 20.7365 19.7614 21.0287C19.7403 21.0997 19.7385 21.175 19.7561 21.2468C19.7738 21.3187 19.8102 21.3846 19.8618 21.4376C19.9134 21.4907 19.9782 21.529 20.0495 21.5486C20.1207 21.5682 20.196 21.5683 20.2674 21.5491C20.3586 21.5327 20.386 21.5549 20.4029 21.6395C20.428 21.7732 20.4413 21.9089 20.4429 22.045C20.4457 22.0768 20.4384 22.1086 20.422 22.1359C20.4056 22.1632 20.381 22.1846 20.3517 22.197C20.1837 22.2855 19.9935 22.3229 19.8046 22.3044C19.6157 22.286 19.4364 22.2126 19.2887 22.0932C19.1303 21.9752 19.0023 21.8211 18.9153 21.6436C18.8282 21.4662 18.7846 21.2706 18.7881 21.073C18.777 20.5681 18.8122 20.0633 18.8933 19.5649C18.9778 18.9222 19.1152 18.2874 19.1786 17.6417C19.1761 17.4338 19.1538 17.2267 19.1119 17.0231C19.1042 16.9587 19.0927 16.8948 19.0802 16.8125Z" fill="#162D4C"/>
<path d="M17.1802 12.1826L15.3545 12.4361C15.3603 12.3833 15.4026 12.3669 15.4291 12.3428C15.7561 12.0541 16.084 11.7664 16.413 11.4798C16.4447 11.4523 16.4746 11.3928 16.5288 11.4538L17.1802 12.1826Z" fill="#DCAA10"/>
</svg>
