<svg width="32" height="32" viewBox="0 0 32 32" fill="none" xmlns="http://www.w3.org/2000/svg">
<circle cx="16" cy="16" r="16" fill="#D94F00"/>
<path fill-rule="evenodd" clip-rule="evenodd" d="M4.80176 4.80225H27.2018V27.2022H4.80176V4.80225Z" fill="#D94F00"/>
<path fill-rule="evenodd" clip-rule="evenodd" d="M17.5467 9.14584H23.289V14.8311H17.5467V9.14584ZM10.6043 17.707V18.2632H11.594V21.2056H12.2764V18.2407H13.1978V17.6845L10.6043 17.7074L10.6043 17.707ZM10.0947 18.3966V17.8404C9.54716 17.5958 8.918 17.5219 8.27301 17.8404C7.21582 18.3074 7.17781 20.6202 8.23563 21.0724C8.84288 21.3764 10.1092 21.2354 10.237 20.9684V19.1374H8.97756V19.6193H9.53195V20.5828C7.71029 21.4575 7.37295 17.2544 10.0945 18.3961L10.0947 18.3966ZM14.3077 19.5901H14.9594C15.4991 19.6125 15.6417 20.6205 14.937 20.6129H14.3074L14.3077 19.5901ZM14.3077 18.1745H14.9594C15.4991 18.2709 15.3044 19.064 14.937 19.0861H14.3074L14.3077 18.1745ZM13.633 17.6335V21.1764H15.4246C16.3388 20.8503 16.3769 19.4495 15.4246 19.3009C16.3017 19.205 16.3468 17.6106 14.8324 17.6106L13.633 17.6331V17.6335ZM16.7964 18.6262V19.1523C17.2761 19.0189 18.3181 18.6483 18.2206 19.4342C17.3065 19.3748 16.6839 19.5378 16.579 20.1008C16.407 21.3172 17.726 21.4353 18.2806 20.8349V21.1241H18.9102V18.9892C18.7529 18.2997 17.7112 18.211 16.7963 18.6262H16.7964ZM17.3284 19.9976C17.4711 19.8121 17.9284 19.8193 18.2357 19.9082V20.3752C17.7337 20.9085 16.924 20.6644 17.3289 19.9969L17.3284 19.9976ZM20.215 19.2563C20.38 19.0784 21.2572 18.7446 21.3917 19.2563V21.139H22.096V19.145C21.946 18.3146 21.1437 18.1664 20.1695 18.7298V18.4185H19.5025V21.1537H20.2068L20.215 19.2563ZM24.3079 18.3888L23.386 19.6116L24.3607 21.1164L25.2077 21.0943L24.136 19.6491L25.1029 18.411L24.3083 18.3889L24.3079 18.3888ZM22.6215 17.4917H23.3185V21.1165H22.6211V17.4921L22.6215 17.4917Z" fill="white"/>
<path fill-rule="evenodd" clip-rule="evenodd" d="M17.5459 9.14584H23.288V14.8311H17.5459V9.14584Z" fill="white"/>
</svg>
