<svg width="24" height="24" viewBox="0 0 24 24" fill="none" xmlns="http://www.w3.org/2000/svg">
<g clip-path="url(#clip0_4645_16630)">
<path d="M18.5005 11.1076L18.5 11.1228V11.138V16C18.5 16.663 18.7634 17.2989 19.2322 17.7678C19.7011 18.2366 20.337 18.5 21 18.5H3C3.66304 18.5 4.29893 18.2366 4.76777 17.7678C5.23661 17.2989 5.5 16.663 5.5 16V11.138V11.1228L5.49954 11.1076C5.44905 9.44734 5.99426 7.8238 7.03658 6.53052C8.07891 5.23723 9.54956 4.35956 11.1826 4.05618L12 3.90434L12.8174 4.05618C14.4504 4.35956 15.9211 5.23723 16.9634 6.53052C18.0057 7.8238 18.5509 9.44734 18.5005 11.1076Z" fill="white" stroke="#242739" stroke-width="2"/>
<path d="M10 21.5H14C14 22.0304 13.7893 22.5391 13.4142 22.9142C13.0391 23.2893 12.5304 23.5 12 23.5C11.4696 23.5 10.9609 23.2893 10.5858 22.9142C10.2107 22.5391 10 22.0304 10 21.5Z" fill="white" stroke="#242739"/>
</g>
<defs>
<clipPath id="clip0_4645_16630">
<rect width="24" height="24" fill="white"/>
</clipPath>
</defs>
</svg>
