<svg width="24" height="24" viewBox="0 0 24 24" fill="none" xmlns="http://www.w3.org/2000/svg">
<g id="ph:compass-fill" clip-path="url(#clip0_4511_17689)">
<path id="Vector" d="M12.0008 1.5H12C9.9233 1.5 7.89323 2.11581 6.16652 3.26957C4.4398 4.42332 3.09399 6.0632 2.29927 7.98182C1.50455 9.90045 1.29661 12.0116 1.70176 14.0484C2.1069 16.0852 3.10693 17.9562 4.57538 19.4246C6.04383 20.8931 7.91476 21.8931 9.95156 22.2982C11.9884 22.7034 14.0996 22.4955 16.0182 21.7007C17.9368 20.906 19.5767 19.5602 20.7304 17.8335C21.8842 16.1068 22.5 14.0767 22.5 12V11.9992C22.4971 9.21555 21.39 6.54674 19.4216 4.57839C17.4533 2.61005 14.7845 1.50294 12.0008 1.5ZM13.2207 13.2207L8.33799 15.662L10.7793 10.7793L15.662 8.33799L13.2207 13.2207Z" stroke="#5F6D7E" stroke-width="1.5"/>
</g>
<defs>
<clipPath id="clip0_4511_17689">
<rect width="24" height="24" fill="white"/>
</clipPath>
</defs>
</svg>
