<svg width="20" height="20" viewBox="0 0 20 20" fill="none" xmlns="http://www.w3.org/2000/svg">
<path d="M10 0.25C8.07164 0.25 6.18657 0.821828 4.58319 1.89317C2.97982 2.96452 1.73013 4.48726 0.992179 6.26884C0.254225 8.05042 0.061142 10.0108 0.437348 11.9021C0.813554 13.7934 1.74215 15.5307 3.10571 16.8943C4.46928 18.2579 6.20656 19.1865 8.09787 19.5627C9.98919 19.9389 11.9496 19.7458 13.7312 19.0078C15.5127 18.2699 17.0355 17.0202 18.1068 15.4168C19.1782 13.8134 19.75 11.9284 19.75 10C19.7473 7.41498 18.7192 4.93661 16.8913 3.10872C15.0634 1.28084 12.585 0.25273 10 0.25ZM14.8356 5.66781L11.8356 11.6678C11.7989 11.7401 11.7401 11.7989 11.6678 11.8356L5.66782 14.8356C5.59738 14.871 5.51758 14.8833 5.43975 14.8708C5.36193 14.8582 5.29004 14.8214 5.2343 14.7657C5.17856 14.71 5.1418 14.6381 5.12925 14.5603C5.1167 14.4824 5.12899 14.4026 5.16438 14.3322L8.16438 8.33219C8.20111 8.25987 8.25988 8.20111 8.33219 8.16437L14.3322 5.16437C14.4026 5.12899 14.4824 5.11669 14.5603 5.12925C14.6381 5.1418 14.71 5.17856 14.7657 5.2343C14.8214 5.29004 14.8582 5.36193 14.8708 5.43975C14.8833 5.51757 14.871 5.59737 14.8356 5.66781Z" fill="#5F6D7E"/>
</svg>
