<svg width="10" height="10" viewBox="0 0 10 10" fill="none" xmlns="http://www.w3.org/2000/svg">
<g clip-path="url(#clip0_498_13131)">
<path d="M6.99512 3.57501V2.82501C6.99512 1.77501 6.17012 0.950012 5.12012 0.950012C4.07012 0.950012 3.24512 1.77501 3.24512 2.82501V3.57501C2.60762 3.57501 2.12012 4.06251 2.12012 4.70001V7.32501C2.12012 7.96251 2.60762 8.45001 3.24512 8.45001H6.99512C7.63262 8.45001 8.12012 7.96251 8.12012 7.32501V4.70001C8.12012 4.06251 7.63262 3.57501 6.99512 3.57501ZM3.99512 2.82501C3.99512 2.18751 4.48262 1.70001 5.12012 1.70001C5.75762 1.70001 6.24512 2.18751 6.24512 2.82501V3.57501H3.99512V2.82501ZM5.53262 6.01251L5.49512 6.05001V6.57501C5.49512 6.80001 5.34512 6.95001 5.12012 6.95001C4.89512 6.95001 4.74512 6.80001 4.74512 6.57501V6.05001C4.52012 5.82501 4.48262 5.48751 4.70762 5.26251C4.93262 5.03751 5.27012 5.00001 5.49512 5.22501C5.72012 5.41251 5.75762 5.78751 5.53262 6.01251Z" fill="#6936F5"/>
</g>
<defs>
<clipPath id="clip0_498_13131">
<rect width="9" height="9" fill="white" transform="translate(0.620117 0.200012)"/>
</clipPath>
</defs>
</svg>
