<svg width="24" height="24" viewBox="0 0 24 24" fill="none" xmlns="http://www.w3.org/2000/svg">
<g id="iconoir:privacy-policy">
<g id="Group">
<path id="Vector" d="M17.4785 11.424V6.15817C17.4785 6.09168 17.4655 6.02583 17.44 5.96439C17.4146 5.90295 17.3773 5.84714 17.3302 5.80015L14.6783 3.14826C14.5836 3.05345 14.4551 3.00012 14.3211 3H4.50544C4.37139 3 4.24283 3.05325 4.14804 3.14804C4.05325 3.24283 4 3.37139 4 3.50544V19.3426C4 19.4767 4.05325 19.6053 4.14804 19.7001C4.24283 19.7948 4.37139 19.8481 4.50544 19.8481H11.5816M7.36962 9.73924H14.1089M7.36962 6.36962H10.7392M7.36962 13.1089H9.89683" stroke="black" stroke-width="1.5" stroke-linecap="round" stroke-linejoin="round"/>
<path id="Vector_2" d="M14.1094 3V5.86418C14.1094 5.99823 14.1626 6.12679 14.2574 6.22158C14.3522 6.31637 14.4808 6.36962 14.6148 6.36962H17.479M17.4723 14.0566L19.6254 14.6033C19.8495 14.6606 20.0071 14.8644 20.0003 15.0952C19.8554 19.9458 17.0578 20.6905 17.0578 20.6905C17.0578 20.6905 14.2602 19.9458 14.1153 15.0952C14.1127 14.9829 14.1484 14.873 14.2165 14.7836C14.2846 14.6942 14.3811 14.6306 14.4901 14.6033L16.6433 14.0566C16.9154 13.9875 17.2002 13.9875 17.4723 14.0566Z" stroke="black" stroke-width="1.5" stroke-linecap="round" stroke-linejoin="round"/>
</g>
</g>
</svg>
