<svg width="24" height="24" viewBox="0 0 24 24" fill="none" xmlns="http://www.w3.org/2000/svg">
<path d="M12 19V11M9 18V11C9 10 9.6 8 12 8C14.4 8 15 10 15 11V17M6 14V11C6 9 7.2 5 12 5C16.8 5 18 9 18 11M18 15V14M7 3H5C4.46957 3 3.96086 3.21071 3.58579 3.58579C3.21071 3.96086 3 4.46957 3 5V7M3 17V19C3 19.5304 3.21071 20.0391 3.58579 20.4142C3.96086 20.7893 4.46957 21 5 21H7M17 21H19C19.5304 21 20.0391 20.7893 20.4142 20.4142C20.7893 20.0391 21 19.5304 21 19V17M21 7V5C21 4.46957 20.7893 3.96086 20.4142 3.58579C20.0391 3.21071 19.5304 3 19 3H17" stroke="#242739" stroke-width="2" stroke-linecap="round" stroke-linejoin="round"/>
</svg>
