<svg width="16" height="16" viewBox="0 0 16 16" fill="none" xmlns="http://www.w3.org/2000/svg">
<g clip-path="url(#clip0_7356_22113)">
<path d="M15.8522 0.14615C15.9214 0.215482 15.9688 0.303624 15.9883 0.399627C16.0079 0.49563 15.9988 0.595263 15.9622 0.68615L10.1432 15.2331C10.0919 15.3613 10.0063 15.4727 9.89575 15.5553C9.7852 15.6379 9.654 15.6884 9.51661 15.7012C9.37921 15.714 9.24094 15.6887 9.11702 15.628C8.99309 15.5673 8.88832 15.4736 8.81422 15.3572L5.63622 10.3622L0.641223 7.18415C0.524541 7.11013 0.430574 7.00532 0.369693 6.88128C0.308811 6.75723 0.283381 6.61878 0.296208 6.4812C0.309035 6.34362 0.359621 6.21226 0.442384 6.10161C0.525146 5.99096 0.636869 5.90532 0.765223 5.85415L15.3122 0.0371498C15.4031 0.000562027 15.5027 -0.0085177 15.5987 0.0110385C15.6947 0.0305947 15.7829 0.0779249 15.8522 0.14715V0.14615ZM6.63422 10.0701L9.39522 14.4081L14.1282 2.57615L6.63422 10.0701ZM13.4212 1.86915L1.58922 6.60215L5.92822 9.36215L13.4212 1.86915Z" fill="black"/>
</g>
<defs>
<clipPath id="clip0_7356_22113">
<rect width="16" height="16" fill="white"/>
</clipPath>
</defs>
</svg>
