<svg width="24" height="24" viewBox="0 0 24 24" fill="none" xmlns="http://www.w3.org/2000/svg">
<path d="M14.0775 1.5C14.2362 1.50001 14.3909 1.55041 14.5192 1.64394C14.6475 1.73748 14.7429 1.86933 14.7915 2.0205L15.6165 4.584C15.963 4.7535 16.2945 4.944 16.611 5.1585L19.245 4.5915C19.4003 4.55834 19.5621 4.57534 19.7071 4.64003C19.8521 4.70473 19.9729 4.81379 20.052 4.9515L22.131 8.55C22.2103 8.68763 22.244 8.84693 22.227 9.0049C22.21 9.16288 22.1433 9.31139 22.0365 9.429L20.229 11.424C20.2553 11.8065 20.2553 12.1905 20.229 12.573L22.0365 14.571C22.1433 14.6886 22.21 14.8371 22.227 14.9951C22.244 15.1531 22.2103 15.3124 22.131 15.45L20.052 19.05C19.9727 19.1874 19.8518 19.2962 19.7068 19.3606C19.5618 19.425 19.4001 19.4418 19.245 19.4085L16.611 18.8415C16.296 19.0545 15.963 19.2465 15.618 19.416L14.7915 21.9795C14.7429 22.1307 14.6475 22.2625 14.5192 22.3561C14.3909 22.4496 14.2362 22.5 14.0775 22.5H9.91945C9.76066 22.5 9.60598 22.4496 9.47767 22.3561C9.34935 22.2625 9.25404 22.1307 9.20545 21.9795L8.38195 19.4175C8.03638 19.2485 7.70307 19.0555 7.38445 18.84L4.75195 19.4085C4.59665 19.4417 4.43483 19.4247 4.28981 19.36C4.14478 19.2953 4.02403 19.1862 3.94495 19.0485L1.86595 15.45C1.78657 15.3124 1.75294 15.1531 1.76992 14.9951C1.78691 14.8371 1.85362 14.6886 1.96045 14.571L3.76795 12.573C3.74177 12.1914 3.74177 11.8086 3.76795 11.427L1.96045 9.429C1.85362 9.31139 1.78691 9.16288 1.76992 9.0049C1.75294 8.84693 1.78657 8.68763 1.86595 8.55L3.94495 4.95C4.02425 4.81256 4.14509 4.70381 4.2901 4.63939C4.43511 4.57497 4.59681 4.55821 4.75195 4.5915L7.38445 5.16C7.70245 4.9455 8.03545 4.752 8.38195 4.5825L9.20695 2.0205C9.25538 1.86982 9.35024 1.73832 9.47795 1.64482C9.60566 1.55133 9.75968 1.50064 9.91795 1.5H14.0775ZM10.4685 3L9.61645 5.6505L9.04195 5.931C8.75953 6.06921 8.48689 6.22657 8.22595 6.402L7.69495 6.762L4.97095 6.174L3.44095 8.826L5.30845 10.893L5.26345 11.529C5.2419 11.8426 5.2419 12.1574 5.26345 12.471L5.30845 13.107L3.43795 15.174L4.96945 17.826L7.69345 17.2395L8.22445 17.598C8.48539 17.7734 8.75803 17.9308 9.04045 18.069L9.61495 18.3495L10.4685 21H13.5315L14.3865 18.348L14.9595 18.069C15.2416 17.9311 15.5137 17.7737 15.774 17.598L16.3035 17.2395L19.029 17.826L20.559 15.174L18.69 13.107L18.735 12.471C18.7566 12.1569 18.7566 11.8416 18.735 11.5275L18.69 10.8915L20.5605 8.826L19.029 6.174L16.3035 6.759L15.774 6.402C15.5138 6.22622 15.2416 6.06884 14.9595 5.931L14.3865 5.652L13.53 3H10.4685ZM11.9985 7.5C13.1919 7.5 14.3365 7.97411 15.1804 8.81802C16.0243 9.66193 16.4985 10.8065 16.4985 12C16.4985 13.1935 16.0243 14.3381 15.1804 15.182C14.3365 16.0259 13.1919 16.5 11.9985 16.5C10.805 16.5 9.66039 16.0259 8.81647 15.182C7.97256 14.3381 7.49845 13.1935 7.49845 12C7.49845 10.8065 7.97256 9.66193 8.81647 8.81802C9.66039 7.97411 10.805 7.5 11.9985 7.5ZM11.9985 9C11.2028 9 10.4397 9.31607 9.87713 9.87868C9.31452 10.4413 8.99845 11.2044 8.99845 12C8.99845 12.7956 9.31452 13.5587 9.87713 14.1213C10.4397 14.6839 11.2028 15 11.9985 15C12.7941 15 13.5572 14.6839 14.1198 14.1213C14.6824 13.5587 14.9985 12.7956 14.9985 12C14.9985 11.2044 14.6824 10.4413 14.1198 9.87868C13.5572 9.31607 12.7941 9 11.9985 9Z" fill="#5F6D7E"/>
</svg>
