<svg width="24" height="24" viewBox="0 0 24 24" fill="none" xmlns="http://www.w3.org/2000/svg">
<g id="streamline:interface-unlock-combination-combo-key-keyhole-lock-secure-security-square-unlock-unlocked">
<g id="Group">
<path id="Vector" d="M17.6 9.92285H6.4C5.6268 9.92285 5 10.5428 5 11.3075V19.6151C5 20.3798 5.6268 20.9997 6.4 20.9997H17.6C18.3732 20.9997 19 20.3798 19 19.6151V11.3075C19 10.5428 18.3732 9.92285 17.6 9.92285Z" stroke="#242739" stroke-width="1.5" stroke-linecap="round" stroke-linejoin="round"/>
<path id="Vector_2" d="M15.4596 4.4262C15.0087 3.97205 14.4705 3.61187 13.8765 3.36692C13.2826 3.12197 12.6451 2.99722 12.0016 3.00005C10.702 3.00005 9.45567 3.51062 8.53674 4.41945C7.61781 5.32828 7.10156 6.56091 7.10156 7.84619V9.92311" stroke="#242739" stroke-width="1.5" stroke-linecap="round" stroke-linejoin="round"/>
<path id="Vector_3" d="M12.0008 16.1541C12.3874 16.1541 12.7008 15.8442 12.7008 15.4618C12.7008 15.0795 12.3874 14.7695 12.0008 14.7695C11.6142 14.7695 11.3008 15.0795 11.3008 15.4618C11.3008 15.8442 11.6142 16.1541 12.0008 16.1541Z" stroke="#242739" stroke-width="1.5" stroke-linecap="round" stroke-linejoin="round"/>
</g>
</g>
</svg>
