<svg width="123" height="115" viewBox="0 0 123 115" fill="none" xmlns="http://www.w3.org/2000/svg">
<circle cx="54.129" cy="60.8712" r="50.129" fill="#E0F3EE" stroke="#009E74" stroke-width="8"/>
<path d="M30.8555 59.0715L48.1728 76.0878L81.8797 42.9668" stroke="#009E74" stroke-width="8" stroke-linejoin="round"/>
<path d="M120.316 5.37097C118.852 5.37097 117.632 4.15029 117.632 2.68548C117.632 1.22067 118.852 0 120.316 0C121.78 0 123 1.22067 123 2.68548C123 4.15029 121.78 5.37097 120.316 5.37097ZM120.316 1.36715C119.584 1.36715 118.998 1.95308 118.998 2.68548C118.998 3.41789 119.584 4.00381 120.316 4.00381C121.048 4.00381 121.634 3.41789 121.634 2.68548C121.634 1.95308 121.048 1.36715 120.316 1.36715Z" fill="#009E74"/>
<path d="M106.058 9.4882H103.705V7.07127C103.705 6.6181 103.339 6.26562 102.868 6.26562C102.398 6.26562 102.031 6.6181 102.031 7.07127V9.4882H99.6784C99.2078 9.4882 98.8418 9.84068 98.8418 10.2939C98.8418 10.747 99.2078 11.0995 99.6784 11.0995H102.031V13.5164C102.031 13.9696 102.398 14.3221 102.868 14.3221C103.339 14.3221 103.705 13.9696 103.705 13.5164V11.0995H106.058C106.528 11.0995 106.894 10.747 106.894 10.2939C106.894 9.84068 106.528 9.4882 106.058 9.4882Z" fill="#009E74"/>
<path d="M116.179 18.2617H114.61V16.6504C114.61 16.3483 114.366 16.1133 114.052 16.1133C113.739 16.1133 113.495 16.3483 113.495 16.6504V18.2617H111.926C111.612 18.2617 111.368 18.4966 111.368 18.7988C111.368 19.1009 111.612 19.3359 111.926 19.3359H113.495V20.9472C113.495 21.2493 113.739 21.4842 114.052 21.4842C114.366 21.4842 114.61 21.2493 114.61 20.9472V19.3359H116.179C116.493 19.3359 116.737 19.1009 116.737 18.7988C116.737 18.4966 116.493 18.2617 116.179 18.2617Z" fill="#009E74"/>
</svg>
