<svg width="24" height="24" viewBox="0 0 24 24" fill="none" xmlns="http://www.w3.org/2000/svg">
<g id="ep:document">
<path id="Vector" d="M18.6667 9.66667H13.3333V4.33333H5.33333V20.3333H18.6667V9.66667ZM18.1147 8.33333L14.6667 4.88533V8.33333H18.1147ZM4.66667 3H14.6667L20 8.33333V21C20 21.1768 19.9298 21.3464 19.8047 21.4714C19.6797 21.5964 19.5101 21.6667 19.3333 21.6667H4.66667C4.48986 21.6667 4.32029 21.5964 4.19526 21.4714C4.07024 21.3464 4 21.1768 4 21V3.66667C4 3.48986 4.07024 3.32029 4.19526 3.19526C4.32029 3.07024 4.48986 3 4.66667 3ZM8 12.3333H16V13.6667H8V12.3333ZM8 8.33333H11.3333V9.66667H8V8.33333ZM8 16.3333H16V17.6667H8V16.3333Z" fill="#242739"/>
</g>
</svg>
