<svg width="24" height="24" viewBox="0 0 24 24" fill="none" xmlns="http://www.w3.org/2000/svg">
<g id="vuesax/linear/trash">
<g id="vuesax/linear/trash_2">
<g id="trash">
<path id="Vector" d="M19.5 6.98405C16.725 6.70905 13.9333 6.56738 11.15 6.56738C9.5 6.56738 7.85 6.65072 6.2 6.81738L4.5 6.98405" stroke="#E93131" stroke-width="1.5" stroke-linecap="round" stroke-linejoin="round"/>
<path id="Vector_2" d="M9.08203 6.14199L9.26536 5.05033C9.3987 4.25866 9.4987 3.66699 10.907 3.66699H13.0904C14.4987 3.66699 14.607 4.29199 14.732 5.05866L14.9154 6.14199" stroke="#E93131" stroke-width="1.5" stroke-linecap="round" stroke-linejoin="round"/>
<path id="Vector_3" d="M17.7057 9.61621L17.1641 18.0079C17.0724 19.3162 16.9974 20.3329 14.6724 20.3329H9.3224C6.9974 20.3329 6.9224 19.3162 6.83073 18.0079L6.28906 9.61621" stroke="#E93131" stroke-width="1.5" stroke-linecap="round" stroke-linejoin="round"/>
<path id="Vector_4" d="M10.6055 15.75H13.3805" stroke="#E93131" stroke-width="1.5" stroke-linecap="round" stroke-linejoin="round"/>
<path id="Vector_5" d="M9.91797 12.417H14.0846" stroke="#E93131" stroke-width="1.5" stroke-linecap="round" stroke-linejoin="round"/>
</g>
</g>
</g>
</svg>
