<svg width="32" height="32" viewBox="0 0 32 32" fill="none" xmlns="http://www.w3.org/2000/svg">
<circle cx="16" cy="16" r="16" fill="#D71920"/>
<path d="M12.5886 18.212L11.9333 21.3311C11.7367 22.0039 11.3764 22.4751 10.6118 22.5086C9.95654 22.5086 9.69442 22.0599 9.85821 21.1175L10.437 18.212H9.47591L8.80971 21.5439C8.6898 22.8228 9.42137 23.1819 10.5353 23.1482C11.5947 23.1145 12.3264 22.6209 12.7415 21.6337L13.4733 18.2116L12.5886 18.212ZM20.6811 19.7826L21.0634 21.3981H19.6438L20.6811 19.7826ZM20.9767 18.212L17.7549 23.036H18.6286L19.2393 22.1048H21.2488L21.4458 23.036H22.4834L21.3367 18.212H20.9767ZM14.7401 22.4302L15.0787 20.8035H15.4609C16.018 20.8035 16.4876 21.0059 16.4876 21.544C16.4876 22.1946 15.8651 22.4639 15.1661 22.4639L14.7401 22.4302ZM15.4718 18.8289H15.9305C16.4329 18.8289 16.7388 18.9523 16.7388 19.3675C16.7388 19.8611 16.2801 20.1752 15.592 20.1752H15.2094L15.4718 18.8289ZM14.7401 18.212L14.6636 18.2232L13.6916 23.0584H15.5592C16.1926 23.0584 16.5532 22.879 16.7933 22.7331C16.989 22.5982 17.1564 22.4245 17.2858 22.2222C17.4152 22.0199 17.5039 21.7931 17.5467 21.5551C17.6668 20.8708 17.2081 20.5117 16.6403 20.4557C17.2191 20.3211 17.7105 19.8835 17.7433 19.2553C17.8198 18.2119 16.673 18.212 16.673 18.212H14.7401Z" fill="white"/>
<path d="M14.3549 14.6611H12.5092L13.8195 8.46842L15.8403 12.5183C16.3754 13.8085 16.015 14.5825 14.3549 14.6611Z" fill="white"/>
<path d="M15.5669 9.34344C15.0318 8.06448 15.3812 7.27924 17.0413 7.20068H18.887L17.5764 13.3934L15.5669 9.34344Z" fill="white"/>
</svg>
